<svg xmlns="http://www.w3.org/2000/svg" width="15" height="15" viewBox="0 0 15 15"><defs><style>.a{fill:#d4d4d4;}</style></defs><path class="a" d="M14.922,6.206a.308.308,0,0,0-.205-.122L12.93,5.811a5.884,5.884,0,0,0-.4-.957q.176-.244.527-.689t.5-.649a.376.376,0,0,0,.078-.225.314.314,0,0,0-.068-.215,13.344,13.344,0,0,0-1.611-1.66.377.377,0,0,0-.244-.1.317.317,0,0,0-.234.088L10.088,2.451a6.036,6.036,0,0,0-.879-.361L8.936.293a.29.29,0,0,0-.112-.21A.369.369,0,0,0,8.584,0H6.416a.329.329,0,0,0-.352.273A15.946,15.946,0,0,0,5.781,2.09a5.588,5.588,0,0,0-.889.371L3.545,1.416a.416.416,0,0,0-.254-.1q-.215,0-.923.7a9.731,9.731,0,0,0-.962,1.05.411.411,0,0,0-.088.225.367.367,0,0,0,.1.234q.654.791,1.045,1.348a4.816,4.816,0,0,0-.381.9L.264,6.045a.294.294,0,0,0-.186.127A.375.375,0,0,0,0,6.4V8.564a.369.369,0,0,0,.078.229.308.308,0,0,0,.205.122L2.07,9.18a4.823,4.823,0,0,0,.4.967q-.176.244-.527.689t-.5.649a.377.377,0,0,0-.078.225.382.382,0,0,0,.068.224,12.868,12.868,0,0,0,1.611,1.641.337.337,0,0,0,.244.107.351.351,0,0,0,.244-.088l1.377-1.045a6.058,6.058,0,0,0,.879.361l.273,1.8a.29.29,0,0,0,.112.21A.368.368,0,0,0,6.416,15H8.584a.329.329,0,0,0,.352-.273,16,16,0,0,0,.283-1.816,5.577,5.577,0,0,0,.889-.371l1.348,1.055a.477.477,0,0,0,.254.088q.215,0,.918-.693a9.859,9.859,0,0,0,.967-1.055.326.326,0,0,0,.088-.224.376.376,0,0,0-.1-.244q-.7-.86-1.045-1.348a6.26,6.26,0,0,0,.381-.889l1.807-.273a.3.3,0,0,0,.2-.127A.377.377,0,0,0,15,8.6V6.436A.367.367,0,0,0,14.922,6.206ZM9.268,9.268A2.408,2.408,0,0,1,7.5,10,2.5,2.5,0,0,1,5,7.5,2.5,2.5,0,0,1,7.5,5,2.5,2.5,0,0,1,10,7.5,2.408,2.408,0,0,1,9.268,9.268Z"/></svg>