<svg xmlns="http://www.w3.org/2000/svg" width="11.53" height="14.092" viewBox="0 0 11.53 14.092"><defs><style>.a{fill:#d4d4d4;}</style></defs><g transform="translate(-36.548)"><path class="a" d="M47.8,6.686a.927.927,0,0,0-.681-.28H46.8V4.484a4.315,4.315,0,0,0-1.321-3.163,4.446,4.446,0,0,0-6.325,0,4.315,4.315,0,0,0-1.321,3.163V6.406h-.32a.957.957,0,0,0-.961.961v5.765a.957.957,0,0,0,.961.961h9.608a.957.957,0,0,0,.961-.961V7.366A.926.926,0,0,0,47.8,6.686Zm-2.922-.28H39.751V4.484A2.468,2.468,0,0,1,40.5,2.672a2.562,2.562,0,0,1,3.623,0,2.469,2.469,0,0,1,.751,1.811Z" transform="translate(0)"/></g></svg>