<svg xmlns="http://www.w3.org/2000/svg" width="13.523" height="14.759" viewBox="0 0 13.523 14.759"><defs><style>.a{fill:#d4d4d4;}</style></defs><path class="a" d="M30.828,9.833,25.216,4.221a1.927,1.927,0,0,0-1.439-.609,1.88,1.88,0,0,0-1.893,1.893,1.927,1.927,0,0,0,.609,1.439l3.96,3.96a.3.3,0,0,0,.213.1q.155,0,.454-.3t.3-.454a.3.3,0,0,0-.1-.212l-3.96-3.96a.823.823,0,0,1-.241-.57.628.628,0,0,1,.647-.647.829.829,0,0,1,.58.232L29.958,10.7a1.924,1.924,0,0,1,.609,1.4,1.388,1.388,0,0,1-1.43,1.43,1.924,1.924,0,0,1-1.4-.609l-7.5-7.5a2.387,2.387,0,0,1-.734-1.748,2.415,2.415,0,0,1,.705-1.748A2.319,2.319,0,0,1,21.941,1.2a2.435,2.435,0,0,1,1.748.744L29.543,7.8a.3.3,0,0,0,.222.1q.155,0,.449-.295t.294-.449a.3.3,0,0,0-.1-.212L24.569,1.092A3.634,3.634,0,0,0,21.932,0a3.518,3.518,0,0,0-2.6,1.072A3.566,3.566,0,0,0,18.271,3.68,3.612,3.612,0,0,0,19.362,6.3l7.505,7.5a3.107,3.107,0,0,0,2.27.966A2.607,2.607,0,0,0,31.794,12.1,3.065,3.065,0,0,0,30.828,9.833Z" transform="translate(-18.271 0)"/></svg>