<svg xmlns="http://www.w3.org/2000/svg" width="15.807" height="12.646" viewBox="0 0 15.807 12.646"><defs><style>.a{fill:#d4d4d4;}</style></defs><g transform="translate(0 0)"><path class="a" d="M15.42,55.208a1.268,1.268,0,0,0-.93-.387H1.317a1.269,1.269,0,0,0-.93.387,1.268,1.268,0,0,0-.387.93V66.149a1.268,1.268,0,0,0,.387.93,1.269,1.269,0,0,0,.93.387H14.49a1.321,1.321,0,0,0,1.317-1.317V56.138A1.268,1.268,0,0,0,15.42,55.208Zm-.667,10.942a.266.266,0,0,1-.263.263H1.317a.267.267,0,0,1-.263-.263V56.138a.267.267,0,0,1,.263-.263H14.49a.267.267,0,0,1,.263.263V66.149Z" transform="translate(0 -54.821)"/><path class="a" d="M74.677,131.071a1.574,1.574,0,1,0-1.12-.461A1.524,1.524,0,0,0,74.677,131.071Z" transform="translate(-70.988 -125.802)"/><path class="a" d="M77.044,177.8l-1.317-1.317-2.634,2.634V180.7H84.684v-3.688l-3.425-3.425Z" transform="translate(-70.984 -170.162)"/></g></svg>