<svg xmlns="http://www.w3.org/2000/svg" width="12.834" height="14" viewBox="0 0 12.834 14"><defs><style>.a{fill:#d4d4d4;}</style></defs><g transform="translate(-18.268)"><g transform="translate(18.268)"><path class="a" d="M113.121,7.02a3.356,3.356,0,0,0,2.469-1.028,3.39,3.39,0,0,0,1.023-2.482,3.391,3.391,0,0,0-1.023-2.482,3.478,3.478,0,0,0-4.938,0,3.391,3.391,0,0,0-1.023,2.482,3.39,3.39,0,0,0,1.023,2.482A3.356,3.356,0,0,0,113.121,7.02Z" transform="translate(-106.704 0)"/><path class="a" d="M31.07,205.283a9.382,9.382,0,0,0-.128-1,7.767,7.767,0,0,0-.242-.992,4.71,4.71,0,0,0-.392-.891,3.209,3.209,0,0,0-.565-.74,2.379,2.379,0,0,0-.779-.489,2.733,2.733,0,0,0-1.016-.183,1.113,1.113,0,0,0-.383.2q-.3.2-.679.439a4.3,4.3,0,0,1-.984.438,3.865,3.865,0,0,1-2.434,0,4.3,4.3,0,0,1-.984-.438q-.378-.242-.679-.439a1.113,1.113,0,0,0-.383-.2,2.731,2.731,0,0,0-1.016.183,2.378,2.378,0,0,0-.779.489,3.213,3.213,0,0,0-.565.74,4.717,4.717,0,0,0-.392.891,7.768,7.768,0,0,0-.242.992,9.327,9.327,0,0,0-.128,1q-.032.462-.032.946a2.282,2.282,0,0,0,.665,1.732,2.455,2.455,0,0,0,1.768.635h7.966a2.455,2.455,0,0,0,1.768-.635,2.281,2.281,0,0,0,.665-1.732Q31.1,205.745,31.07,205.283Z" transform="translate(-18.268 -194.597)"/></g></g></svg>