<svg id="Layer_1" enable-background="new 0 0 497 497" height="512" viewBox="0 0 497 497" width="512" xmlns="http://www.w3.org/2000/svg"><path d="m248.5 0v497l147.653-214.044c20.382-29.176 32.347-64.666 32.347-102.956 0-99.411-80.589-180-180-180z" fill="#ff1b10"/><path d="m398.5 180c0-99.411-67.157-180-150-180-99.411 0-180 80.589-180 180 0 38.29 11.965 73.78 32.347 102.956l147.653 214.044 123.044-214.044c16.985-29.176 26.956-64.666 26.956-102.956z" fill="#ff451b"/><path d="m248.5 30v300c82.843 0 150-67.157 150-150s-67.157-150-150-150z" fill="#d6faff"/><path d="m368.5 180c0-82.843-53.726-150-120-150-82.843 0-150 67.157-150 150s67.157 150 150 150c66.274 0 120-67.157 120-150z" fill="#fff"/><path d="m248.5 90v180c49.626 0 90-40.374 90-90s-40.374-90-90-90z" fill="#ff1b10"/><path d="m308.5 180c0-49.626-26.916-90-60-90-49.626 0-90 40.374-90 90s40.374 90 90 90c33.084 0 60-40.374 60-90z" fill="#ff451b"/></svg>