<svg xmlns="http://www.w3.org/2000/svg" xmlns:xlink="http://www.w3.org/1999/xlink" width="70" height="70" viewBox="0 0 70 70"><defs><style>.a{fill:none;}.b{clip-path:url(#a);}.c{fill:#989898;}.d{fill:#f2f2f2;}.e{fill:#666;}.f{fill:#fff;}</style><clipPath id="a"><rect class="a" width="70" height="70"/></clipPath></defs><g class="b" transform="translate(0)"><g transform="translate(5.386 5.386)"><path class="c" d="M531.3,703.372V684.313a1.954,1.954,0,0,1,1.955-1.955h3.421a1.94,1.94,0,0,1,1.3.5l0-.006.04.04c.027.025.054.052.079.079l5.912,5.912v-4.573a1.954,1.954,0,0,1,1.955-1.955h3.421a1.94,1.94,0,0,1,1.3.5l0-.006.04.04q.041.038.079.079l18.757,18.758a29.329,29.329,0,1,0-20.242,20.319l-16.945-16.945A1.948,1.948,0,0,1,531.3,703.372Z" transform="translate(-512 -664.521)"/><path class="d" d="M551.579,683.279l0,.006c.014.012.028.021.042.034Z" transform="translate(-512.895 -664.945)"/><path class="d" d="M538.579,683.279l0,.006c.014.012.028.021.042.034Z" transform="translate(-512.601 -664.945)"/><path class="e" d="M551.279,683.4a1.944,1.944,0,0,1,.537,1.339V703.8a1.955,1.955,0,0,1-1.955,1.955h-3.422a1.98,1.98,0,0,1-1.955-1.955v-14.49L538.57,683.4a1.945,1.945,0,0,1,.537,1.339V703.8a1.955,1.955,0,0,1-1.955,1.955H533.73a1.928,1.928,0,0,1-.885-.221l16.949,16.949a29.346,29.346,0,0,0,20.247-20.324Z" transform="translate(-512.481 -664.958)"/><path class="f" d="M538.62,683.32l.079.079Q538.661,683.358,538.62,683.32Z" transform="translate(-512.602 -664.946)"/><path class="f" d="M551.62,683.32l.079.079Q551.661,683.358,551.62,683.32Z" transform="translate(-512.896 -664.946)"/></g><rect class="a" width="70" height="70"/></g></svg>