<svg xmlns="http://www.w3.org/2000/svg" xmlns:xlink="http://www.w3.org/1999/xlink" width="50" height="50" viewBox="0 0 50 50"><defs><style>.a{fill:none;}.b{clip-path:url(#a);}.c{fill:#bbb;}</style><clipPath id="a"><rect class="a" width="50" height="50"/></clipPath></defs><g class="b" transform="translate(0)"><rect class="a" width="50" height="50"/><g transform="translate(10 14)"><path class="c" d="M233.982,709.042l-5.32-2.97a1.343,1.343,0,0,0-2,1.172v1.069h-9.038a4.688,4.688,0,0,1-4.159-2.51l-.191-.363-2.12,4.028a8.7,8.7,0,0,0,6.469,2.873h9.038v.843a1.343,1.343,0,0,0,2,1.172l5.32-2.97A1.343,1.343,0,0,0,233.982,709.042Z" transform="translate(-204.846 -692.029)"/><path class="c" d="M221.49,668.626l-5.32-2.97a1.343,1.343,0,0,0-2,1.172v.842h-9.038a8.705,8.705,0,0,0-7.723,4.663l-4.825,9.169a2.014,2.014,0,1,0,3.564,1.876l4.825-9.169a4.688,4.688,0,0,1,4.158-2.51h9.038v1.069a1.343,1.343,0,0,0,2,1.172l5.32-2.97A1.343,1.343,0,0,0,221.49,668.626Z" transform="translate(-192.354 -665.484)"/><path class="c" d="M193.958,681.557l1.672-3.176a10.806,10.806,0,0,1,.647-1.065l-.127-.241a2.014,2.014,0,1,0-3.564,1.876Z" transform="translate(-192.354 -672.469)"/></g></g></svg>