<svg xmlns="http://www.w3.org/2000/svg" xmlns:xlink="http://www.w3.org/1999/xlink" width="50" height="50" viewBox="0 0 50 50"><defs><style>.a{fill:none;}.b{clip-path:url(#a);}.c{fill:#bbb;}</style><clipPath id="a"><rect class="a" width="50" height="50"/></clipPath></defs><g class="b" transform="translate(0)"><rect class="a" width="50" height="50"/><g transform="translate(-246.03 -689.774)"><path class="c" d="M259.807,717.593V715.7a4.412,4.412,0,0,1,4.407-4.406h12.432v.845a1.259,1.259,0,0,0,1.872,1.1l4.989-2.785a1.26,1.26,0,0,0,0-2.2l-4.989-2.784a1.258,1.258,0,0,0-1.872,1.1v.947H264.214a8.193,8.193,0,0,0-8.184,8.183v1.889a1.889,1.889,0,0,0,3.777,0Z"/><path class="c" d="M284.042,712.242a1.888,1.888,0,0,0-1.888,1.889v1.888a4.411,4.411,0,0,1-4.407,4.406H265.315v-.845a1.258,1.258,0,0,0-1.872-1.1l-4.989,2.785a1.258,1.258,0,0,0,0,2.2l4.989,2.785a1.259,1.259,0,0,0,1.872-1.1V724.2h12.432a8.192,8.192,0,0,0,8.183-8.183v-1.888A1.888,1.888,0,0,0,284.042,712.242Z"/></g></g></svg>