<svg xmlns="http://www.w3.org/2000/svg" xmlns:xlink="http://www.w3.org/1999/xlink" width="44" height="44" viewBox="0 0 44 44"><defs><style>.a{fill:none;}.b{clip-path:url(#a);}.c{fill:#FFFFFF;}</style><clipPath id="a"><rect class="a" width="44" height="44"/></clipPath></defs><g class="b"><rect class="a" width="44" height="44"/><g transform="translate(-224.739 -609.739)"><path class="c" d="M251.991,641.939a1.634,1.634,0,0,1-1.017-.354l-10.682-8.457a1.458,1.458,0,0,1,0-2.283l10.933-8.72a1.688,1.688,0,0,1,2.254.094,1.641,1.641,0,0,1-.153,2.427l-8.478,6.762a.729.729,0,0,0,0,1.141l8.164,6.464a1.64,1.64,0,0,1-1.019,2.927Z"/></g></g></svg>