<svg xmlns="http://www.w3.org/2000/svg" xmlns:xlink="http://www.w3.org/1999/xlink" width="50" height="50" viewBox="0 0 50 50"><defs><style>.a{fill:none;}.b{clip-path:url(#a);}.c{fill:#bbb;}</style><clipPath id="a"><rect class="a" width="50" height="50"/></clipPath></defs><g class="b"><g transform="translate(-213.142 -689.774)"><path class="c" d="M237.146,711.3h6.611v.845a1.259,1.259,0,0,0,1.872,1.1l4.989-2.785a1.26,1.26,0,0,0,0-2.2l-4.989-2.784a1.258,1.258,0,0,0-1.872,1.1v.947h-6.451a7.193,7.193,0,0,1-.16,3.777Z"/><path class="c" d="M226.918,717.593V715.7c0-.061.007-.12.01-.181a7.272,7.272,0,0,1-3.094-3.107,8.129,8.129,0,0,0-.692,3.288v1.889a1.888,1.888,0,1,0,3.776,0Z"/><path class="c" d="M251.153,712.242a1.888,1.888,0,0,0-1.888,1.889v1.888a4.411,4.411,0,0,1-4.407,4.406H232.426v-.845a1.258,1.258,0,0,0-1.872-1.1l-4.989,2.785a1.259,1.259,0,0,0,0,2.2l4.989,2.785a1.259,1.259,0,0,0,1.872-1.1V724.2h12.432a8.193,8.193,0,0,0,8.184-8.183v-1.888A1.889,1.889,0,0,0,251.153,712.242Z"/><path class="c" d="M230.258,703.774a5.339,5.339,0,1,0,5.339,5.338A5.338,5.338,0,0,0,230.258,703.774Zm.858,8.855H229.6V707.3a1.869,1.869,0,0,1-.295.208,3.144,3.144,0,0,1-.761.312,2.854,2.854,0,0,1-.407.079v-1.276A6.381,6.381,0,0,0,230.2,705.6h.917Z"/></g><rect class="a" width="50" height="50"/></g></svg>