<svg xmlns="http://www.w3.org/2000/svg" xmlns:xlink="http://www.w3.org/1999/xlink" width="70" height="70" viewBox="0 0 70 70"><defs><style>.a{fill:none;}.b{clip-path:url(#a);}.c{fill:#989898;}.d{fill:#666;}</style><clipPath id="a"><rect class="a" width="70" height="70"/></clipPath></defs><g class="b"><rect class="a" width="70" height="70"/><g transform="translate(-642.834 -669.443)"><path class="c" d="M668.545,718.269a1.923,1.923,0,0,1-.484-1.284V692.542a1.955,1.955,0,0,1,2.908-1.707l21.893,12.221a1.922,1.922,0,0,1,.886,1.047l10.889,10.889A29.348,29.348,0,1,0,683.6,733.363l-15.08-15.08Z"/><path class="d" d="M704.637,714.992,693.748,704.1a1.949,1.949,0,0,1-.886,2.367l-21.893,12.222a1.95,1.95,0,0,1-2.424-.423l-.024.014,15.08,15.08A29.368,29.368,0,0,0,704.637,714.992Z"/></g></g></svg>