<svg xmlns="http://www.w3.org/2000/svg" xmlns:xlink="http://www.w3.org/1999/xlink" width="110" height="110" viewBox="0 0 110 110"><defs><style>.a,.c,.d{fill:none;}.b{clip-path:url(#a);}.c,.d{stroke:#fff;stroke-linecap:round;stroke-linejoin:round;stroke-width:6px;}.c{opacity:0.65;}.d{opacity:0.5;}.e{fill:#8347ab;opacity:0.8;}.f{fill:#6f488a;opacity:0.85;}.g,.h,.i{fill:#fff;}.h{opacity:0.9;}.i{opacity:0.7;}</style><clipPath id="a"><rect class="a" width="110" height="110"/></clipPath></defs><g class="b"><g transform="translate(15.714 6.429)"><path class="c" d="M761.152,329.464c2.769,1.862,4.385,4.108,4.385,6.525,0,6.445-11.495,11.67-25.675,11.67-9.732,0-18.2-2.461-22.554-6.089" transform="translate(-700.791 -260.638)"/><path class="c" d="M713.952,331.166c2.731-5.111,12.866-8.906,24.951-8.906" transform="translate(-699.832 -258.58)"/><path class="d" d="M771.361,339.612c0,10.728-16.773,19.424-37.464,19.424s-37.464-8.7-37.464-19.424a11.168,11.168,0,0,1,1.729-5.849" transform="translate(-694.827 -261.867)"/><path class="d" d="M795.122,329.105q.473.455.9.926" transform="translate(-723.023 -260.536)"/><g transform="translate(0 0)"><circle class="e" cx="39.071" cy="39.071" r="39.071"/><path class="f" d="M719.851,292.977a57.885,57.885,0,0,0,6,9.544c1.863,2.381,9.671,10.06,4.233,12.481-5.871,2.614-12.616-1.8-16.92-5.5a37.25,37.25,0,0,1-11.619-17.542c-1.891-6.453-3.6-19.67,4.184-23.135,5.364-2.387,7.769,6.929,8.768,10.366A80.355,80.355,0,0,0,719.851,292.977Z" transform="translate(-695.829 -243.203)"/><g transform="translate(58.348 14.461)"><path class="g" d="M781,268.1a2.341,2.341,0,0,0-.531,2.119c.83,3.331,1.988,5.495,3.812,4.783,1.46-.569,3.181-.971,3.462-4.039.151-1.664-1.308-6.481-2.537-5.581C784.047,266.231,781.761,267.286,781,268.1Z" transform="translate(-777.165 -256.76)"/><path class="g" d="M777.273,253.683c-1.924,1.154-1.644,4.486-.5,8.581a1.469,1.469,0,0,0,2.309,1.005,27.486,27.486,0,0,1,3.744-2.477,2.11,2.11,0,0,0,.685-2.72C781.718,254.453,779.173,252.543,777.273,253.683Z" transform="translate(-775.872 -253.354)"/></g><path class="h" d="M699.3,277.956a13.054,13.054,0,0,0-.423,4.163c.114,1.927,1.439,3.079,2.449.711a19.226,19.226,0,0,0,1.538-7.679c-.011-1.273-.6-1.961-1.785-1.126S699.671,276.651,699.3,277.956Z" transform="translate(-695.52 -244.694)"/><path class="i" d="M786.414,281.8a2.211,2.211,0,0,0,.547,1.611c.5.772,1.694.362,2.2-.175a4.716,4.716,0,0,0,.9-1.577c.432-1.116-.157-1.8-1.319-1.461C788.066,280.4,786.414,281.077,786.414,281.8Z" transform="translate(-720.535 -246.539)"/></g></g><rect class="a" width="110" height="110"/></g></svg>