<svg xmlns="http://www.w3.org/2000/svg" xmlns:xlink="http://www.w3.org/1999/xlink" width="110" height="110" viewBox="0 0 110 110"><defs><style>.a,.c,.d{fill:none;}.b{clip-path:url(#a);}.c,.d{stroke:#fff;stroke-linecap:round;stroke-linejoin:round;stroke-width:6px;}.c{opacity:0.65;}.d{opacity:0.5;}.e{fill:#3fb2e2;opacity:0.8;}.f{fill:#369ac4;opacity:0.85;}.g,.h,.i{fill:#fff;}.h{opacity:0.9;}.i{opacity:0.7;}</style><clipPath id="a"><rect class="a" width="110" height="110"/></clipPath></defs><g class="b"><g transform="translate(15.714 6.429)"><path class="c" d="M613.838,329.819c2.768,1.862,4.384,4.108,4.384,6.525,0,6.445-11.495,11.671-25.675,11.671-9.731,0-18.2-2.461-22.554-6.089" transform="translate(-553.477 -260.993)"/><path class="c" d="M566.639,331.521c2.731-5.111,12.866-8.906,24.95-8.906" transform="translate(-552.519 -258.935)"/><path class="d" d="M624.048,339.967c0,10.727-16.774,19.424-37.464,19.424s-37.464-8.7-37.464-19.424a11.17,11.17,0,0,1,1.729-5.849" transform="translate(-547.513 -262.222)"/><path class="d" d="M647.809,329.46q.471.456.9.926" transform="translate(-575.71 -260.891)"/><circle class="e" cx="39.071" cy="39.071" r="39.071"/><path class="f" d="M572.537,293.332a57.854,57.854,0,0,0,5.995,9.544c1.863,2.381,9.672,10.06,4.234,12.481-5.871,2.614-12.617-1.8-16.92-5.5a37.245,37.245,0,0,1-11.619-17.543c-1.892-6.453-3.6-19.67,4.184-23.134,5.364-2.387,7.768,6.929,8.768,10.366A80.276,80.276,0,0,0,572.537,293.332Z" transform="translate(-548.516 -243.558)"/><g transform="translate(58.348 14.461)"><path class="g" d="M633.684,268.46a2.344,2.344,0,0,0-.531,2.119c.83,3.33,1.989,5.494,3.812,4.783,1.46-.57,3.181-.971,3.461-4.04.152-1.664-1.308-6.48-2.537-5.581C636.733,266.587,634.448,267.641,633.684,268.46Z" transform="translate(-629.852 -257.115)"/><path class="g" d="M629.96,254.038c-1.924,1.154-1.644,4.486-.5,8.581a1.47,1.47,0,0,0,2.31,1.006,27.367,27.367,0,0,1,3.744-2.477,2.111,2.111,0,0,0,.685-2.721C634.4,254.808,631.859,252.9,629.96,254.038Z" transform="translate(-628.558 -253.709)"/></g><path class="h" d="M551.991,278.311a13.033,13.033,0,0,0-.423,4.163c.114,1.927,1.439,3.079,2.449.712a19.22,19.22,0,0,0,1.537-7.68c-.01-1.273-.6-1.961-1.784-1.126S552.357,277.006,551.991,278.311Z" transform="translate(-548.206 -245.049)"/><path class="i" d="M639.1,282.159a2.21,2.21,0,0,0,.546,1.611c.5.773,1.694.362,2.2-.175a4.719,4.719,0,0,0,.9-1.577c.432-1.116-.157-1.8-1.318-1.461C640.752,280.752,639.1,281.432,639.1,282.159Z" transform="translate(-573.222 -246.894)"/></g><rect class="a" width="110" height="110"/></g></svg>