<svg xmlns="http://www.w3.org/2000/svg" xmlns:xlink="http://www.w3.org/1999/xlink" width="110" height="110" viewBox="0 0 110 110"><defs><style>.a,.c,.d{fill:none;}.b{clip-path:url(#a);}.c,.d{stroke:#fff;stroke-linecap:round;stroke-linejoin:round;stroke-width:6px;}.c{opacity:0.65;}.d{opacity:0.5;}.e{fill:#00a99d;opacity:0.8;}.f{fill:#008a80;opacity:0.85;}.g,.h,.i{fill:#fff;}.h{opacity:0.9;}.i{opacity:0.7;}</style><clipPath id="a"><rect class="a" width="110" height="110"/></clipPath></defs><g class="b"><g transform="translate(15.714 6.429)"><path class="c" d="M447.38,329.464c2.768,1.862,4.384,4.108,4.384,6.525,0,6.445-11.495,11.67-25.675,11.67-9.731,0-18.2-2.461-22.554-6.089" transform="translate(-387.019 -260.638)"/><path class="c" d="M400.181,331.166c2.731-5.111,12.866-8.906,24.95-8.906" transform="translate(-386.061 -258.58)"/><path class="d" d="M457.59,339.612c0,10.728-16.774,19.424-37.464,19.424s-37.464-8.7-37.464-19.424a11.168,11.168,0,0,1,1.729-5.849" transform="translate(-381.055 -261.867)"/><path class="d" d="M481.351,329.105q.471.455.9.926" transform="translate(-409.252 -260.536)"/><g transform="translate(0 0)"><circle class="e" cx="39.071" cy="39.071" r="39.071"/><path class="f" d="M406.079,292.977a57.889,57.889,0,0,0,5.995,9.544c1.863,2.381,9.672,10.06,4.234,12.481-5.871,2.614-12.617-1.8-16.92-5.5a37.24,37.24,0,0,1-11.619-17.542c-1.892-6.453-3.6-19.67,4.184-23.135,5.364-2.387,7.769,6.929,8.768,10.366A80.3,80.3,0,0,0,406.079,292.977Z" transform="translate(-382.058 -243.203)"/><g transform="translate(58.348 14.461)"><path class="g" d="M467.226,268.1a2.345,2.345,0,0,0-.531,2.119c.83,3.331,1.989,5.495,3.812,4.783,1.46-.569,3.181-.971,3.461-4.039.152-1.664-1.308-6.481-2.537-5.581C470.275,266.231,467.99,267.286,467.226,268.1Z" transform="translate(-463.394 -256.76)"/><path class="g" d="M463.5,253.683c-1.924,1.154-1.644,4.486-.5,8.581a1.47,1.47,0,0,0,2.31,1.005,27.488,27.488,0,0,1,3.744-2.477,2.11,2.11,0,0,0,.685-2.72C467.947,254.453,465.4,252.543,463.5,253.683Z" transform="translate(-462.1 -253.354)"/></g><path class="h" d="M385.533,277.956a13.034,13.034,0,0,0-.423,4.163c.114,1.927,1.439,3.079,2.449.711a19.215,19.215,0,0,0,1.537-7.679c-.01-1.273-.6-1.961-1.784-1.126S385.9,276.651,385.533,277.956Z" transform="translate(-381.748 -244.694)"/><path class="i" d="M472.643,281.8a2.212,2.212,0,0,0,.546,1.611c.5.772,1.694.362,2.2-.175a4.728,4.728,0,0,0,.9-1.577c.431-1.116-.157-1.8-1.319-1.461C474.294,280.4,472.643,281.077,472.643,281.8Z" transform="translate(-406.764 -246.539)"/></g></g><rect class="a" width="110" height="110"/></g></svg>