<svg xmlns="http://www.w3.org/2000/svg" xmlns:xlink="http://www.w3.org/1999/xlink" width="110" height="110" viewBox="0 0 110 110"><defs><style>.a,.c,.d{fill:none;}.b{clip-path:url(#a);}.c,.d{stroke:#fff;stroke-linecap:round;stroke-linejoin:round;stroke-width:6px;}.c{opacity:0.65;}.d{opacity:0.5;}.e{fill:#df5783;opacity:0.8;}.f{fill:#c44d74;opacity:0.85;}.g,.h,.i{fill:#fff;}.h{opacity:0.9;}.i{opacity:0.7;}</style><clipPath id="a"><rect class="a" width="110" height="110"/></clipPath></defs><g class="b"><g transform="translate(15.714 6.429)"><path class="c" d="M296.236,329.819c2.769,1.862,4.385,4.108,4.385,6.525,0,6.445-11.495,11.671-25.675,11.671-9.732,0-18.2-2.461-22.554-6.089" transform="translate(-235.875 -260.993)"/><path class="c" d="M249.036,331.521c2.731-5.111,12.866-8.906,24.951-8.906" transform="translate(-234.916 -258.935)"/><path class="d" d="M306.445,339.967c0,10.727-16.773,19.424-37.464,19.424s-37.464-8.7-37.464-19.424a11.169,11.169,0,0,1,1.729-5.849" transform="translate(-229.911 -262.222)"/><path class="d" d="M330.206,329.46q.472.456.9.926" transform="translate(-258.107 -260.891)"/><circle class="e" cx="39.071" cy="39.071" r="39.071"/><path class="f" d="M254.935,293.332a57.862,57.862,0,0,0,6,9.544c1.863,2.381,9.671,10.06,4.233,12.481-5.871,2.614-12.616-1.8-16.92-5.5a37.257,37.257,0,0,1-11.619-17.543c-1.891-6.453-3.6-19.67,4.184-23.134,5.364-2.387,7.769,6.929,8.768,10.366A80.333,80.333,0,0,0,254.935,293.332Z" transform="translate(-230.913 -243.558)"/><g transform="translate(58.348 14.461)"><path class="g" d="M316.082,268.46a2.34,2.34,0,0,0-.531,2.119c.83,3.33,1.988,5.494,3.811,4.783,1.46-.57,3.181-.971,3.462-4.04.151-1.664-1.308-6.48-2.537-5.581C319.131,266.587,316.845,267.641,316.082,268.46Z" transform="translate(-312.25 -257.115)"/><path class="g" d="M312.357,254.038c-1.924,1.154-1.644,4.486-.5,8.581a1.47,1.47,0,0,0,2.309,1.006,27.358,27.358,0,0,1,3.744-2.477,2.111,2.111,0,0,0,.685-2.721C316.8,254.808,314.257,252.9,312.357,254.038Z" transform="translate(-310.956 -253.709)"/></g><path class="h" d="M234.388,278.311a13.055,13.055,0,0,0-.423,4.163c.114,1.927,1.439,3.079,2.449.712a19.234,19.234,0,0,0,1.538-7.68c-.011-1.273-.6-1.961-1.785-1.126S234.755,277.006,234.388,278.311Z" transform="translate(-230.604 -245.049)"/><path class="i" d="M321.5,282.159a2.21,2.21,0,0,0,.546,1.611c.5.773,1.694.362,2.2-.175a4.708,4.708,0,0,0,.9-1.577c.431-1.116-.157-1.8-1.319-1.461C323.15,280.752,321.5,281.432,321.5,282.159Z" transform="translate(-255.619 -246.894)"/></g><rect class="a" width="110" height="110"/></g></svg>