<svg xmlns="http://www.w3.org/2000/svg" xmlns:xlink="http://www.w3.org/1999/xlink" width="385" height="316" viewBox="0 0 385 316"><defs><style>.a,.c,.d,.g{fill:none;}.b{clip-path:url(#a);}.c{stroke:#fff;stroke-linecap:round;stroke-linejoin:round;stroke-width:6px;opacity:0.5;}.d{opacity:0.65;}.e,.i{fill:#6698d4;}.f,.j{fill:#fff;}.g{stroke-miterlimit:10;opacity:0.4;}.h,.i,.j{stroke:none;}</style><clipPath id="a"><rect class="a" width="385" height="316"/></clipPath></defs><g class="b"><g transform="translate(-6.001 -9.011)"><path class="c" d="M2492.8,354.79c8.862,5.151,14.581,12.05,15.721,20.172,3.037,21.658-27.652,43.813-68.546,49.483-28.066,3.892-53.646-.992-67.913-11.441" transform="translate(-2245.621 -240.591)"/><path class="c" d="M2604.816,454.2c-7.115,38.015-72.577,78.23-116.632,81.585" transform="translate(-2244.817 -240.47)"/><path class="c" d="M2596.332,390.955c7.947,56.661-62.67,113.279-157.727,126.46s-178.557-22.066-186.5-78.727a66.164,66.164,0,0,1,3.607-31.993" transform="translate(-2246.456 -240.547)"/><g transform="translate(12.279 2.77)"><g class="d" transform="translate(0 61.344) rotate(-10.62)"><path class="h" d="M166.067-.037c91.806.094,166.29,58.275,166.364,129.95s-74.29,129.7-166.1,129.609S.045,201.248-.029,129.573,74.261-.131,166.067-.037Z"/><path class="i" d="M 165.8442687988281 -0.036712646484375 L 165.8442687988281 79.96327209472656 C 135.8710174560547 79.96327209472656 108.1025238037109 89.84751892089844 91.56326293945312 106.4037780761719 C 86.26976013183594 111.7028961181641 79.96163940429688 120.0096435546875 79.97138977050781 129.4900207519531 C 79.99514770507812 152.5863952636719 117.7618865966797 179.4730224609375 166.5580139160156 179.5230255126953 C 196.5312652587891 179.5230255126953 224.2997741699219 169.6387634277344 240.8390197753906 153.08251953125 C 246.1325073242188 147.7834014892578 252.4406433105469 139.4766540527344 252.4308929443359 129.9961547851562 C 252.4071350097656 106.89990234375 214.640380859375 80.01327514648438 165.9398956298828 79.96327209472656 L 165.8442687988281 -0.036712646484375 M 165.8442230224609 -0.036712646484375 C 165.9226379394531 -0.036712646484375 165.9888153076172 -0.03668212890625 166.0672607421875 -0.036590576171875 C 257.87353515625 0.057647705078125 332.3570251464844 58.23828125 332.4308776855469 129.9136505126953 C 332.5046997070312 201.5277709960938 258.2559204101562 259.5230102539062 166.5580596923828 259.5230102539062 C 166.4796447753906 259.5230102539062 166.4134674072266 259.5229797363281 166.3350219726562 259.5228881835938 C 74.52890014648438 259.4287719726562 0.045379638671875 201.2480163574219 -0.028594970703125 129.5726470947266 C -0.1024169921875 57.95852661132812 74.1463623046875 -0.036712646484375 165.8442230224609 -0.036712646484375 Z"/></g><g transform="translate(10.935 4.763)"><path class="e" d="M2449.467,328.352c20.53,0,39.39,5.038,53.106,14.187,11.74,7.832,15.4,15.829,16.407,21.159,2.385,12.648-6.646,25.181-12.244,31.527-14.276,16.185-37.163,28.207-62.791,32.986a130.925,130.925,0,0,1-23.926,2.247c-20.533,0-39.4-5.039-53.111-14.187-11.74-7.831-15.4-15.829-16.407-21.16-2.386-12.647,6.648-25.181,12.244-31.525,14.276-16.185,37.163-28.208,62.791-32.986a130.909,130.909,0,0,1,23.92-2.247h.01m0-80.1a211.69,211.69,0,0,0-38.771,3.618c-90.25,16.827-152.647,87.566-139.364,158,11.351,60.194,74.3,100.683,148.693,100.683a211.6,211.6,0,0,0,38.771-3.619c90.252-16.827,152.646-87.566,139.364-158-11.351-60.195-74.3-100.685-148.692-100.683Z" transform="translate(-2269.545 -248.254)"/><path class="f" d="M2449.462,248.254a211.69,211.69,0,0,0-38.771,3.618l-.132.025h-.007l-.125.023-.006,0-.125.023-.017,0-.112.021-.029.006-.1.019-.02,0-.111.021-.024,0-.106.02-.029.005-.1.02-.035.006-.1.019-.029.006-.1.019-.032.006-.1.019-.034.007-.094.018-.041.008-.091.017-.036.007-.1.019-.035.007-.1.019-.027.005-.1.021-.03.006-.1.02-.028.005-.107.021-.021,0-.12.024h-.005l-.122.024-.012,0-.126.025h0c-38.138,7.624-71.145,24.9-95.351,47.651l-.011.01-.072.068-.01.01-.073.068-.013.011-.07.066-.015.014-.065.061-.021.021-.064.06-.014.013-.068.065-.016.015-.068.063-.014.014-.065.062-.02.019-.062.059-.018.017-.063.061-.02.019-.063.061-.016.015-.063.06-.021.021-.066.062-.013.013-.069.066-.013.013-.074.071,0,.005-.073.07-.01.01-.157.151-.006.006c-.247.237-.49.475-.735.713h0l-.077.076-.012.011-.072.07,0,0-.074.073-.014.014-.066.065-.015.014-.063.063-.019.019-.062.061-.018.018-.059.059-.023.023-.058.055-.024.025-.054.054-.024.023-.062.062-.013.013-.064.064-.018.018-.063.063-.015.015-.063.062-.018.018-.066.066-.011.011-.067.067-.013.014-.07.069-.009.009-.07.07-.01.01-.074.075,0,0-.076.076,0,0c-.215.214-.426.427-.637.642l-.01.01-.069.07-.016.016-.062.062-.024.024-.054.056-.024.024-.054.055-.027.028-.051.052-.027.027-.051.052-.029.03-.05.051-.025.025-.054.056-.022.024-.055.057-.023.023-.054.055-.028.029-.049.05-.028.029-.049.051-.028.03-.05.051-.026.027-.049.051-.032.033-.046.048-.028.029-.051.052-.028.03-.049.05-.027.029-.046.048-.035.036-.039.042-.036.037-.045.048-.03.031-.052.053-.025.026-.046.049-.033.035-.042.043-.033.035-.046.049-.031.032-.147.155,0,.005-.154.162-.009.01-.143.15-.026.028-.052.056-.016.017-.059.063-.021.022-.055.059-.024.025-.049.053-.03.031-.05.053-.022.024-.052.056-.024.026-.053.057-.024.025-.049.052-.029.032-.047.051-.029.031-.045.048-.03.033-.046.05-.029.031-.045.048-.03.033-.049.052-.025.027-.051.056-.022.024-.022.023,59.26,54.255c14.335-15.481,36.777-27.011,61.569-31.634a130.9,130.9,0,0,1,23.927-2.247l0-80.1ZM2277.68,349.887a111.7,111.7,0,0,0-7.6,30.4v.007l-.009.1v0c-.016.169-.033.335-.049.506v0l-.009.094v.012l-.008.09,0,.016-.008.092h0c-.012.136-.024.27-.036.406h0l-.008.092,0,.016-.007.087,0,.019-.007.086,0,.018c-.011.132-.022.258-.032.389v.007l-.007.086,0,.022-.006.08,0,.029-.007.079,0,.023-.006.084v.016c-.008.1-.015.192-.022.29v0l-.006.084,0,.024,0,.079,0,.03-.006.076,0,.032-.006.076,0,.031,0,.075,0,.023-.011.161,0,.024,0,.07,0,.04,0,.066,0,.043,0,.066,0,.042,0,.068,0,.04,0,.068,0,.044-.008.126,0,.04,0,.065,0,.044,0,.065,0,.046,0,.061,0,.049,0,.061,0,.048,0,.063,0,.045,0,.073,0,.093,0,.058,0,.052,0,.059,0,.051,0,.059,0,.052,0,.057,0,.056,0,.054,0,.062,0,.047-.006.108v.03l0,.08,0,.05,0,.059,0,.054,0,.058,0,.053,0,.059,0,.051,0,.061v.051l0,.092v.016c0,.037,0,.073,0,.11l0,.036,0,.077v.041l0,.067,0,.05,0,.064,0,.046,0,.067,0,.045,0,.079v.032l0,.11v.026l0,.087v.033l0,.079v.039l0,.074,0,.038,0,.077v.036l0,.1v.01l0,.116v.013l0,.1v.024l0,.089v.029l0,.087v.143l0,.091v.022l0,.23V389l0,.1v.026c0,.031,0,.058,0,.089v.254q0,.173,0,.345v.367c0,.116,0,.233,0,.35v.479c0,.078,0,.157,0,.235v.479h0c0,.118,0,.235,0,.353v.133l0,.1v.019l0,.105v.008c0,.117,0,.236.006.352v.009l0,.107v.013l0,.105v.012l0,.108v.008c0,.155.007.313.011.468v.016l0,.1v.016l0,.105v.01c0,.156.01.312.015.47v.011l0,.1v.015l0,.1v.014c.007.2.014.391.023.588v.006l.005.11v.01c.01.237.021.473.033.71v0c.023.477.051.951.082,1.429v0c.016.238.032.475.049.714h0c.017.238.034.476.053.715v0c.044.558.093,1.113.145,1.67h0c.019.2.039.4.06.6v0l.011.113v.008q.036.356.075.712v0c.026.238.053.476.081.714v0c.056.479.115.953.177,1.432v0l.015.114v.005l.015.114v.005c.021.159.042.315.064.476v0l.016.113v.01l.015.1,0,.016c.022.155.045.311.067.468l0,.015.014.1,0,.017.014.1,0,.02.015.1,0,.015.017.115h0c.012.078.024.157.036.236v.011l.016.1,0,.019.015.1,0,.018.016.1v.011c.018.117.037.235.056.352v.011l.017.1,0,.024.015.091,0,.026.015.094,0,.02.017.1,0,.012c.013.077.026.157.039.234l0,.01.017.1,0,.026.014.086.006.034.014.083.006.031.015.091,0,.021.019.111v0c.007.04.013.077.02.117l0,.013.017.1.005.031.015.083.006.036.013.076.007.039.013.075.008.04.015.089,0,.021.021.115,0,.01.018.1.007.036.014.076.007.042.014.073.007.04.014.074.007.039.015.082.006.031.021.113.017.092.006.032.011.059.008.04.01.053.007.038.011.053.008.043.009.048.008.043.01.05.008.042.01.051.008.039.01.052.008.043.009.048.008.042.011.052.008.041.011.057.007.033.013.067.01.052.013.064.006.027.013.066,0,.027.014.066.006.032.011.055.009.044.01.049.008.041.01.05.009.041.011.053.008.038.01.051.009.043.01.049.009.041.012.059.006.03.018.083,0,.008.019.093v0l.019.089,0,.016.016.075.006.027.014.065.006.031.013.059.008.037.012.056.007.032.012.059.008.036.012.055.008.037.011.049.01.046.01.045.009.044.011.047.01.045.012.055.007.033.017.075.008.037.016.071.006.026.014.063.009.04.011.051.01.043.01.045.01.045.012.05.009.04.011.047.01.045.011.049.009.04.012.051.009.039.013.055.008.036.012.052.009.04.013.053.008.037.013.056.018.076.011.046.01.042.011.049.01.042.012.049.009.04.012.05.01.042.012.049.01.04.012.05.009.041.013.052.009.037.012.05.011.043.012.05.009.038.014.06.008.029.044.182h0l.023.092,0,.013.019.075.008.033.014.058.01.039.011.046.013.049.01.042.011.043.013.051.009.036.014.057.009.033.013.053.01.04.013.05.01.04.013.049.01.041.015.057.008.032.022.084.006.026.018.069.007.025.016.065.01.035.014.054.01.038.013.051.011.041.012.048.011.041.013.049.011.042.013.047.011.041.012.048.012.043.014.052.008.034.016.059.009.032.017.064.007.025.024.089,0,.017.021.075,0,.02.018.066.01.037.015.053.01.038.014.051.01.037.015.056.009.032.015.054.011.039.014.05.011.04.013.048.011.042.014.046.012.043.012.044.012.045.012.041.014.049,0,.007c.012.042.025.092.037.134l.009.031.014.048.011.041.014.047.012.041.012.046.013.044.013.046.012.041.013.045.013.045.013.045.013.044.012.042.013.048.013.043.013.046.012.04.016.054.01.035.02.068.005.019.026.088.01.032.016.056.013.042.013.046.012.039.015.052.011.037.014.049.014.044.013.044.013.044.014.045.012.041.015.049.012.04.014.047.012.041.017.054.009.032.02.067.007.02.022.073,0,.017.023.074.015.051.016.051.011.036.016.051.013.042.014.046.013.043.014.044.014.046.013.041.014.045.013.043.015.047.012.038.016.05.01.035.018.055.009.029.017.055.011.035.017.053.009.03.018.056.008.023.032.1.016.048.012.04.015.045.014.046.014.043.015.048.012.035.017.052.012.037.015.049.013.038.015.048.013.04.016.047.013.04.015.046.015.046.013.041.014.043.015.045.012.036.064.194.009.026.016.051.013.036.015.047.014.042.013.039.016.049.015.042.014.044.015.043.014.041.016.049.013.037.016.048.013.038.017.051.011.032.018.053.011.032.019.055.012.037.016.046.013.039.036.105.009.027.02.056.009.029.019.052.012.036.018.052.011.031.019.056.011.031.018.052.013.036.016.046.016.045.014.042.014.04.017.048.013.036.018.051.011.032.019.053.01.029c.025.072.05.141.076.213l0,.01.019.052.012.036.018.049.013.036.017.048.014.038.018.05.013.036.016.046.015.041.017.046.015.041.015.043.015.04.018.049.013.037.017.045.016.045.016.043.016.043.015.041.011.032.038.1.013.035.017.045.014.039.018.048.014.038.019.052.011.03.02.052.014.038.017.046.014.037.018.049.014.036.019.052.011.028.021.056.01.029.022.058.006.015.12.314h0l.025.065.007.02.023.061.01.024.021.056.011.029.023.058.009.024.023.059.01.025.023.061.008.022.023.059.011.027.023.06.007.018.025.064.008.019c.039.1.082.207.122.309v0l.025.062.009.023.021.053.013.033.022.055.01.025.023.058.011.029.022.055.011.027.022.055.013.031.021.055.01.023.024.06.01.026.024.058.009.023.024.06.007.016.091.225,0,0,.025.059.01.025.022.054.013.031.021.053.012.029.023.057.011.026.023.055.012.029.023.057.01.023.025.06.008.02.028.067,0,.005.031.077,0,0,.132.315,0,.006.03.072,0,.009.028.067.007.017.028.065.007.016.026.062.01.024.024.056.011.027.024.056.011.027.025.057.01.025.024.056.013.03.023.054.008.019.167.385h0l.03.071.006.012.028.064.008.019.029.066.006.014.03.068.005.012.031.07,0,.01.031.071,0,.01c.129.29.259.582.39.87l0,.005.033.073,0,.009c.12.262.242.529.364.79h0l.036.079h0l.035.076,0,.007.035.075h0c.136.29.271.578.411.868v0c10.142,21.194,27.344,38.862,49.161,51.741l41.119-68.877c-7.746-4.572-17.408-12.285-19.439-23.062-.913-4.843-.267-9.909,1.976-15.489l-74.8-29.734Zm209.393,61.8a124.028,124.028,0,0,1-43.128,16.524,130.9,130.9,0,0,1-23.924,2.247,114.151,114.151,0,0,1-26.073-2.927l-18.523,77.951q4.057.954,8.2,1.733h0l.336.063h0l.164.031.011,0,.329.06h.005l.163.03.012,0,.162.029s0,0,0,0l.156.028.019,0,.153.027.023,0,.306.055.033.006.145.025.029.005.15.027.014,0,.139.024.033.006.144.025.033.006.148.026.011,0,.14.024.035.006.142.024.037.006.131.023.038.006.126.021.041.007.135.023.047.008.126.021.035.006.121.02.051.009.133.022.042.007.125.02.046.008.117.019.05.008.131.021.051.009.117.018.049.008.119.019.046.008.134.021.049.008.109.017.066.011.108.017.052.008.129.02.054.009.116.018.044.007.117.018.057.009.125.019.059.009.1.015.084.013.09.013.065.01.121.018.066.01.084.013.092.014.09.013.063.01.123.018.062.009.092.014.083.012.1.014.061.009.124.018.061.009.092.013.087.013.088.013.071.01.119.017.062.009.1.013.073.011.1.014.063.009.124.017.06.009.1.013.073.01.106.015.059.008.125.017.063.009.09.012.087.012.1.013.063.008.121.017.067.009.086.011.087.012.091.012.071.009.115.015.075.01.074.01.114.015.07.009.077.01.112.014.08.011.063.008.119.015.072.009.076.01.112.014.079.01.064.008.115.014.08.01.072.009.111.014.081.01.071.008.112.014.07.009.083.01.1.012.082.01.071.009.118.014.067.008.08.009.1.012.095.011.061.007.128.015.062.007.081.01.086.01.108.012.054.006.14.016.054.007.085.009.062.007.128.015.064.007.114.013.073.008.083.009.074.008.114.013.063.007.126.013.065.007.082.009.073.008.118.013.062.006.12.013.073.008.077.008.1.011.088.009.069.007.109.011.084.009.072.007.09.009.106.011.062.006.129.013.06.006.087.009.066.007.122.012.065.006.131.013.056.006.089.008.052.005.139.013.059.006.127.012.064.006.08.008.078.007.118.011.059.006.129.012.066.006.082.007.075.007.114.011.071.006.1.009.083.008.082.007.078.007.112.01.068.006.118.01.074.006.077.007.093.008.1.009.07.006.1.008.091.008.077.006.087.007.1.009.069.006.114.009.081.007.076.006.1.007.094.008.073.006.1.007.092.008.078.006.108.008.074.006.088.007.083.006.106.008.067.005.114.009L2405,510l.078.005.081.006.114.009.064,0,.111.008.081.006.083.006.091.007.1.007.068.005.114.008.071,0,.1.007.052,0,.134.009.06,0,.125.008.06,0,.1.007.063,0,.124.008.068,0,.112.008.077.005.085.005.068,0,.122.008.068,0,.115.007.071,0,.095.005.062,0,.13.008.061,0,.114.007.075.005.094.005.061,0,.124.008.073,0,.1.005.082.005.1.005.06,0,.131.007.059,0,.128.007.056,0,.109.005.048,0,.138.007.053,0,.14.007.041,0,.11.006.059,0,.13.006.059,0,.127.006.056,0,.111.005.048,0,.136.006.059,0,.123.006.058,0,.114.006.048,0,.139.006.052,0,.141.006.038,0,.119.005.047,0,.14.005.048,0,.145.006.033,0,.126,0h.047l.144.006.041,0,.149.005h.03l.129.005.042,0,.141.005h.051l.147.006h.019l.144.005h.035l.148.005.041,0,.15,0h.028l.133,0,.038,0,.146,0h.044l.145.005h.034l.127,0,.047,0,.143,0h.046l.139,0h.038l.132,0h.036l.149,0h.042l.153,0h.015l.144,0h.04l.147,0h.041l.152,0h.018l.144,0h.035l.149,0h.042l.149,0h.025l.139,0h.039l.152,0h.033l.154,0h.022l.143,0h.035l.148,0h.046l.145,0h.023l.145,0h.035l.151,0h.391l.154,0h1.826a211.6,211.6,0,0,0,38.771-3.619l.145-.026.053-.01.09-.017.066-.013.08-.015.063-.012.081-.015.07-.013.074-.014.069-.013.134-.026.063-.012.084-.016.069-.013.069-.014.08-.015.066-.013.074-.014.073-.014.072-.014.082-.016.122-.024.074-.014.075-.015.07-.013.071-.014.071-.014.08-.016.057-.011.087-.018.038-.007.325-.065.046-.009.088-.018.055-.011.089-.017.047-.01.094-.019.043-.009.472-.1.028-.006.106-.021.033-.007.1-.021.038-.007.105-.022.013,0,.382-.079h0l.117-.024.021-.005.111-.023.028-.006.114-.023.007,0,.642-.136.01,0,.122-.026.01,0,.634-.137.018,0,.115-.025.018,0,.119-.026h.007l.639-.141.01,0,.122-.027.009,0,.77-.173h.006l.774-.177h0a211.288,211.288,0,0,0,21.364-6.112h0l.724-.251.007,0,.718-.251.011,0,.116-.041h0l.118-.042,0,0,.459-.163.032-.011.094-.034.032-.011.095-.034.032-.011.1-.036h0l.345-.125.016-.005.1-.036.029-.011.1-.035.026-.009.571-.208.023-.009.1-.035.033-.012.093-.034.034-.013.094-.034.022-.008.328-.121.017-.007.1-.035.033-.013.1-.035.027-.01.1-.037.02-.007.327-.122.019-.007.09-.034.041-.015.085-.032.039-.015.089-.034.04-.015.087-.032.035-.014.184-.069.026-.01.073-.028.057-.021.073-.028.056-.022.073-.027.056-.022.075-.028.053-.02.075-.029.03-.012.183-.07.032-.012.079-.03.052-.02.072-.028.062-.024.069-.026.053-.021.08-.03.037-.015.192-.074.014-.005.081-.032.048-.018.079-.031.048-.019.079-.03.054-.022.07-.027.066-.025.063-.025.087-.035.1-.039.061-.023.069-.028.063-.025.065-.025.064-.025.064-.026.069-.027.059-.024.081-.032.048-.019.125-.049.045-.018.086-.035.051-.02.081-.032.048-.019.084-.034.05-.02.092-.037.035-.014.266-.106.026-.011.1-.041.043-.017.093-.037.037-.016.1-.041.027-.011.268-.108.017-.007.116-.048.024-.009.109-.045.031-.012.1-.043.029-.012.109-.044.025-.01.268-.11.015-.006.117-.049.024-.01.112-.046.021-.008.127-.053h0l.407-.169.02-.009.117-.048.014-.006.127-.053.007,0,.542-.228.014-.006.122-.051.014-.006.129-.055h0l.543-.231.01,0a194.556,194.556,0,0,0,27.338-14.324l-43.173-67.622Zm87.837-111.262-61.939,51.211a26.174,26.174,0,0,1,6.009,12.063c2.338,12.4-6.357,24.718-11.748,30.958l61.1,52.195c23.367-27.047,35.227-59.933,30.62-93.027v-.006l-.013-.1v0l-.014-.1v-.006l-.014-.1h0l-.013-.1,0-.011-.013-.09,0-.011-.012-.089,0-.014-.013-.09,0-.01-.013-.088,0-.018-.013-.085,0-.015-.013-.087,0-.015-.013-.088,0-.012-.013-.088,0-.016-.013-.086,0-.015-.013-.087,0-.016-.013-.086,0-.015-.013-.084,0-.022-.012-.08,0-.021-.013-.08,0-.024-.012-.079,0-.02-.013-.081,0-.024-.012-.077,0-.026-.012-.076,0-.026-.012-.076,0-.024-.012-.078,0-.027-.012-.074,0-.027-.013-.076,0-.026-.013-.075,0-.028-.012-.074-.005-.029-.013-.074,0-.025-.013-.077,0-.025-.013-.076-.005-.028-.012-.074-.006-.031-.012-.07,0-.031-.013-.073,0-.026-.013-.076-.005-.025-.013-.077,0-.026-.013-.075-.005-.029-.013-.074-.005-.027-.013-.074,0-.029-.013-.073-.006-.032-.013-.07-.006-.036-.012-.066-.009-.048-.009-.053-.01-.053-.009-.049-.012-.062-.007-.04-.014-.077,0-.025c-.013-.069-.025-.137-.038-.205h0l-.018-.1-.007-.038-.012-.059-.008-.045-.01-.055-.008-.041-.011-.058-.009-.043-.013-.071-.012-.06-.011-.056-.009-.046-.01-.053-.01-.049-.008-.043-.011-.055-.008-.044-.011-.053-.009-.046-.019-.1-.008-.04-.012-.057-.007-.038-.012-.06-.007-.037-.011-.055-.009-.039-.044-.221,0-.015-.013-.067-.007-.031-.013-.064,0-.026-.014-.068,0-.019c-.017-.08-.032-.155-.049-.235l0-.015-.016-.074,0-.018-.016-.076,0-.011-.072-.339v0l-.017-.076,0-.019-.016-.076v0a106.13,106.13,0,0,0-22.657-45.614Zm-125.443-52.171h0l0,80.1h0c17.771,0,34.785,3.927,47.907,11.056L2536,269.121c-23.688-12.869-52.331-20.311-83.046-20.837h-.031l-.178,0h-.029l-.2,0h-.136l-.17,0h-.051l-.137,0h-.155l-.115,0h-.161l-.117,0h-2.007Z" transform="translate(-2269.545 -248.254)"/></g><g class="g" transform="translate(-2258.134 -243.407)"><path class="h" d="M2379.86,435.3c-22.7-7.938-38.046-22.213-41.057-38.186-3.276-17.37,7.918-33.21,14.884-41.1,15.928-18.06,41.177-31.421,69.271-36.66,22.854-4.261,46.192-2.847,65.713,3.981,22.7,7.939,38.044,22.213,41.056,38.186,3.277,17.371-7.917,33.21-14.882,41.105-15.928,18.059-41.176,31.421-69.271,36.659C2422.719,443.547,2399.382,442.133,2379.86,435.3Z"/><path class="j" d="M 2419.632080078125 441.6991577148438 C 2428.192626953125 441.6991577148438 2436.917724609375 440.8992614746094 2445.5732421875 439.2854614257812 C 2473.66845703125 434.0480651855469 2498.916015625 420.6857299804688 2514.844482421875 402.6266479492188 C 2521.8095703125 394.7309875488281 2533.00341796875 378.8926696777344 2529.726806640625 361.5214538574219 C 2526.715087890625 345.5489807128906 2511.36767578125 331.2745361328125 2488.670654296875 323.3358459472656 C 2476.54248046875 319.0935363769531 2462.94189453125 316.9412536621094 2448.89892578125 316.9412536621094 C 2440.33837890625 316.9412536621094 2431.613037109375 317.7411193847656 2422.957763671875 319.3549194335938 C 2394.863525390625 324.5933837890625 2369.61474609375 337.9546508789062 2353.6865234375 356.0147094726562 C 2346.721435546875 363.9093933105469 2335.52734375 379.7487182617188 2338.802978515625 397.1189270019531 C 2341.814697265625 413.0914611816406 2357.163330078125 427.3668518066406 2379.8603515625 435.3045959472656 C 2391.988525390625 439.546875 2405.589111328125 441.6991577148438 2419.632080078125 441.6991577148438 M 2419.632080078125 457.6991271972656 C 2403.568603515625 457.6991271972656 2388.41015625 455.2457885742188 2374.57763671875 450.4073181152344 C 2346.416259765625 440.5586547851562 2327.16455078125 421.7459106445312 2323.080078125 400.0835876464844 C 2318.54296875 376.0243225097656 2332.791259765625 355.5140686035156 2341.6884765625 345.429443359375 C 2359.931884765625 324.7444458007812 2388.485107421875 309.5069885253906 2420.02490234375 303.6259765625 C 2429.57958984375 301.8445129394531 2439.294189453125 300.9412536621094 2448.898681640625 300.9412536621094 C 2464.96240234375 300.9412536621094 2480.12109375 303.3945922851562 2493.95361328125 308.2331237792969 C 2522.1142578125 318.0829162597656 2541.365478515625 336.8955383300781 2545.44970703125 358.5568542480469 C 2549.987548828125 382.6141357421875 2535.739990234375 403.125732421875 2526.84326171875 413.2111206054688 C 2508.5966796875 433.8982543945312 2480.04345703125 449.13525390625 2448.50537109375 455.0145263671875 C 2438.951171875 456.7958679199219 2429.236572265625 457.6991271972656 2419.632080078125 457.6991271972656 Z"/></g></g><rect class="a" width="392.7" height="322.394" transform="translate(0)"/></g></g></svg>