<svg xmlns="http://www.w3.org/2000/svg" xmlns:xlink="http://www.w3.org/1999/xlink" width="600" height="422" viewBox="0 0 600 422"><defs><style>.a,.c,.j,.k,.l,.m,.n{fill:none;}.b{clip-path:url(#a);}.c,.j{stroke-miterlimit:10;}.c{opacity:0.65;}.d{fill:#a36fa2;}.e{fill:#c989c7;}.f{fill:#b078ae;}.g,.h{fill:#fff;}.g{opacity:0.55;}.i{fill:#4f4f4f;}.j{stroke:#f0bbef;stroke-width:20px;}.k,.l,.m,.n{stroke:#fff;stroke-linecap:round;stroke-linejoin:round;opacity:0.5;}.k{stroke-width:4px;}.l{stroke-width:5px;}.m{stroke-width:6px;}.n{stroke-width:3px;}.o,.p{stroke:none;}.p{fill:#6698d4;}</style><clipPath id="a"><rect class="a" width="600" height="422"/></clipPath></defs><g class="b"><g class="c" transform="translate(-52.687 -1223.338)"><path class="o" d="M200.057,1512.1s2.948-1.314,8.165,3.353,24.328,7.333,28.1,7.555,11.71-1.164,11.71-1.164-30.154,19.44-34.154,27.08-36,68.084-44.667,69.195,23.111-57.333,24.889-68.222S200.057,1512.1,200.057,1512.1Z"/><path class="p" d="M 201.1730194091797 1511.931396484375 C 202.4754486083984 1511.931396484375 204.8843078613281 1512.469116210938 208.2220458984375 1515.454833984375 C 213.4380798339844 1520.120971679688 232.5499572753906 1522.787963867188 236.3270416259766 1523.010131835938 C 236.6078948974609 1523.026611328125 236.9121856689453 1523.034301757812 237.2339935302734 1523.034301757812 C 241.240966796875 1523.034301757812 248.0370483398438 1521.845947265625 248.0370483398438 1521.845947265625 C 248.0370483398438 1521.845947265625 217.8830871582031 1541.285888671875 213.8830871582031 1548.926147460938 C 209.8830871582031 1556.566162109375 177.8830871582031 1617.010131835938 169.2160034179688 1618.120971679688 C 169.1345520019531 1618.13134765625 169.0562744140625 1618.136596679688 168.9819030761719 1618.136596679688 C 161.144287109375 1618.136596679688 192.34375 1560.685668945312 194.1049652099609 1549.899047851562 C 195.8830871582031 1539.010131835938 200.0570373535156 1512.101928710938 200.0570373535156 1512.101928710938 C 200.0570373535156 1512.101928710938 200.4396820068359 1511.931396484375 201.1730194091797 1511.931396484375 Z"/></g><g class="c" transform="translate(-52.96 -1223.338)"><path class="o" d="M123.755,1618.464s1.683,5.657,1.461,7.435-2.444,6.445-2.444,8.667,9.778,3.111,12.222,3.778-9.556,2.222-10.889,3.555-1.006,4,4.942,3.334,35.947.444,39.947-1.778,7.333-5.775,7.111-11.554-5.333-21.113-5.333-21.113Z"/><path class="p" d="M 170.7720031738281 1610.787841796875 C 170.7720031738281 1610.787841796875 175.8830413818359 1626.120971679688 176.1049194335938 1631.901000976562 C 176.3269958496094 1637.679931640625 172.9940795898438 1641.233032226562 168.9940795898438 1643.454956054688 C 164.9940795898438 1645.677001953125 134.9940795898438 1644.566040039062 129.0469970703125 1645.233032226562 C 128.4037017822266 1645.30517578125 127.8265686035156 1645.338134765625 127.3097534179688 1645.338134765625 C 123.0481567382812 1645.338134765625 122.9161529541016 1643.0888671875 124.1049194335938 1641.899169921875 C 125.4380340576172 1640.566040039062 137.4380340576172 1639.010009765625 134.9940795898438 1638.343872070312 C 132.5499114990234 1637.677001953125 122.7720031738281 1636.787841796875 122.7720031738281 1634.566040039062 C 122.7720031738281 1632.343872070312 124.9940795898438 1627.677001953125 125.2159576416016 1625.899169921875 C 125.4380340576172 1624.120971679688 123.7549133300781 1618.4638671875 123.7549133300781 1618.4638671875 L 170.7720031738281 1610.787841796875 Z"/></g><path class="d" d="M303.575,1363.985c-.057.156.007.066.034.053a.909.909,0,0,0,.122-.122l.289-.324.62-.754,1.351-1.609c.9-1.1,1.829-2.2,2.785-3.244,1.9-2.1,3.8-4.1,5.672-5.821a43.709,43.709,0,0,1,5.264-4.23,13.011,13.011,0,0,1,3.642-1.783c.19-.062.3-.007.418-.053.06.076.156.027.136.1-.01.056-.026.055-.127.144-.046.036-.08.021-.142.06a.567.567,0,0,1-.2.088c-.129-.013-.32.145-.484.1-.084-.014.028.016.061.025l.145.035c.1.026.2.018.288.052a8,8,0,0,1,1.075.366,10.731,10.731,0,0,1,2.224,1.141,16.4,16.4,0,0,1,2.787,2.329,38.083,38.083,0,0,1,6.5,9.761,89.419,89.419,0,0,1,5.514,15.121c3.113,11.355,4.9,24.365,6.555,37.918l.093.759c1.684,13.8,14.238,11.3,28.039,9.612,11.486-1.4,20.213,1.969,21.848-8.943a166.734,166.734,0,0,0-.01-51.02,134.945,134.945,0,0,0-2.982-13.585c-.6-2.281-1.348-4.6-2.107-6.909-.367-1.148-.849-2.321-1.275-3.479s-.871-2.317-1.392-3.489a93.305,93.305,0,0,0-7.241-13.985,82.454,82.454,0,0,0-10.512-13.507A72.021,72.021,0,0,0,358,1297.125a66.055,66.055,0,0,0-28.127-9.331c-.831-.089-1.663-.122-2.5-.175l-1.248-.065c-.432-.017-.784-.046-1.333-.041q-1.524,0-3.048.049l-1.52.063-1.5.147a56.462,56.462,0,0,0-21.242,6.512,69.808,69.808,0,0,0-14.8,10.731,89.847,89.847,0,0,0-10.334,11.734,103.223,103.223,0,0,0-7.656,12.1c-1.107,2.053-2.14,4.12-3.134,6.229-.483,1.062-.953,2.142-1.42,3.242l-.707,1.7-.358.913-.2.5-.278.678a25,25,0,0,0,44.962,21.873Z" transform="translate(-52.409 -1223.861)"/><g class="c" transform="translate(-52.96 -1223.64)"><path class="o" d="M158.55,1446.566s-41.334.667-45-2.667-44.371-1.881-46.6.976-6.732,14.524,18.6,18.524,71.166,5.334,71.166,5.334Z"/><path class="p" d="M 95.77681732177734 1441.979370117188 C 104.4402236938477 1441.979370117188 112.0587692260742 1442.543579101562 113.5500869750977 1443.899169921875 C 116.1683502197266 1446.280395507812 138.0004272460938 1446.620483398438 150.2654571533203 1446.620483398438 C 155.1727294921875 1446.620483398438 158.5500793457031 1446.566040039062 158.5500793457031 1446.566040039062 L 156.7159118652344 1468.733032226562 C 156.7159118652344 1468.733032226562 110.8830032348633 1467.399169921875 85.55007934570312 1463.399169921875 C 60.21592712402344 1459.399169921875 64.71592712402344 1447.733032226562 66.947998046875 1444.875 C 68.271728515625 1443.179809570312 83.1373291015625 1441.979370117188 95.77681732177734 1441.979370117188 Z"/></g><g class="c" transform="translate(-51.727 -1223.668)"><path class="o" d="M556.728,1418.187s2.044,5.934-29.067,5.934-56.847,12.445-65.535,8-61.132-6.222-61.132-6.222.222,28.889,16.889,26.445,57.555,6.222,57.555,6.222,26.223-26.889,52.445-25.111,67.466-5.7,67.466-5.7Z"/><path class="p" d="M 556.72802734375 1418.187133789062 L 595.348876953125 1427.7529296875 C 595.348876953125 1427.7529296875 562.4024047851562 1433.728271484375 536.6806030273438 1433.728271484375 C 533.6243896484375 1433.728271484375 530.6678466796875 1433.643798828125 527.883056640625 1433.454956054688 C 527.0427856445312 1433.39794921875 526.2056274414062 1433.370483398438 525.3662109375 1433.370483398438 C 500.0105285644531 1433.37255859375 475.4380493164062 1458.566040039062 475.4380493164062 1458.566040039062 C 475.4380493164062 1458.566040039062 444.033935546875 1451.909057617188 425.0513305664062 1451.909423828125 C 422.374267578125 1451.909423828125 419.9429931640625 1452.041870117188 417.883056640625 1452.344116210938 C 417.20654296875 1452.443237304688 416.5574340820312 1452.490844726562 415.93408203125 1452.490844726562 C 401.19873046875 1452.490844726562 400.994140625 1425.899047851562 400.994140625 1425.899047851562 C 400.994140625 1425.899047851562 453.4380493164062 1427.676879882812 462.1260986328125 1432.120971679688 C 463.4426879882812 1432.794677734375 465.14990234375 1433.080322265625 467.2090454101562 1433.080322265625 C 478.7369384765625 1433.080322265625 501.264892578125 1424.120971679688 527.6610717773438 1424.120971679688 C 558.77197265625 1424.120971679688 556.72802734375 1418.187133789062 556.72802734375 1418.187133789062 Z"/></g><g class="c" transform="translate(-52.197 -1223.476)"><path class="o" d="M285.883,1522.066s-8.523,5.333-3.012,8.167,38.012,3,41.345.666,58.556-9.772,74.111-3.608,112.445,37.053,113.111,44.164-7.222-19.556-7.222-19.556-85.444-26.222-100.111-34-75.555-11.333-75.555-11.333Z"/><path class="p" d="M 328.5499877929688 1506.566040039062 C 328.5499877929688 1506.566040039062 389.4379272460938 1510.12109375 404.10498046875 1517.899047851562 C 418.7720336914062 1525.677001953125 504.2158813476562 1551.899047851562 504.2158813476562 1551.899047851562 C 504.2158813476562 1551.899047851562 507.7338562011719 1563.790283203125 509.8727111816406 1569.573852539062 C 497.2818908691406 1560.036865234375 412.7663879394531 1533.012451171875 398.3270263671875 1527.291015625 C 393.9588317871094 1525.56005859375 386.4659118652344 1524.901733398438 377.868896484375 1524.901977539062 C 355.8522338867188 1524.90234375 326.6137084960938 1529.22119140625 324.2158813476562 1530.899047851562 C 322.6838684082031 1531.971923828125 314.9898376464844 1532.516235351562 306.5864562988281 1532.516235351562 C 296.7079162597656 1532.516235351562 285.8493041992188 1531.763916015625 282.8708801269531 1530.233032226562 C 277.3599853515625 1527.399047851562 285.8829345703125 1522.066040039062 285.8829345703125 1522.066040039062 L 328.5499877929688 1506.566040039062 Z M 509.8727111816406 1569.573852539062 C 510.8463134765625 1570.311401367188 511.39013671875 1570.944458007812 511.4379272460938 1571.454956054688 C 511.5163879394531 1572.291259765625 511.4763793945312 1572.66064453125 511.3448791503906 1572.66064453125 C 511.1049194335938 1572.66064453125 510.56005859375 1571.432495117188 509.8727111816406 1569.573852539062 Z"/></g><g class="c" transform="translate(-52.524 -1223.613)"><path class="o" d="M248.037,1488.233s14.957-13.575,25.179-12.955,25.334-4.268,25.334-4.268l-1.112-18.771-50.888,5.882Z"/><path class="p" d="M 248.0369873046875 1488.233032226562 L 246.5499877929688 1458.120849609375 L 297.43798828125 1452.239135742188 L 298.5499877929688 1471.010131835938 C 298.5499877929688 1471.010131835938 285.1896667480469 1475.332397460938 275.0959167480469 1475.332397460938 C 274.4551391601562 1475.332397460938 273.826171875 1475.31494140625 273.2159729003906 1475.27783203125 C 272.9876403808594 1475.264038085938 272.75732421875 1475.25732421875 272.5244750976562 1475.25732421875 C 262.3336181640625 1475.25732421875 248.0369873046875 1488.233032226562 248.0369873046875 1488.233032226562 Z"/></g><path class="e" d="M359.216,1429.207l-.1-3.965-.024-3.6c0-2.374.032-4.719.084-7.06.119-4.677.364-9.321.684-13.965.625-9.287,1.746-18.544,3.2-27.83a280.384,280.384,0,0,1,5.907-27.859,218.982,218.982,0,0,1,9.33-27.808,173.41,173.41,0,0,1,14.027-27.322,143.582,143.582,0,0,1,9.4-13.067,124.019,124.019,0,0,1,11.261-12.266,120.24,120.24,0,0,1,13.238-10.946,115.8,115.8,0,0,1,15.107-8.906,111.325,111.325,0,0,1,33.308-10.116l4.235-.54c1.423-.149,2.867-.245,4.3-.359l2.155-.156,2.2-.064c1.471-.027,2.921-.1,4.41-.059a103.274,103.274,0,0,1,18.09,1.824,93.2,93.2,0,0,1,34.45,14.235,95.844,95.844,0,0,1,14.014,11.47,117.238,117.238,0,0,1,11.36,12.963,131.485,131.485,0,0,1,9.044,13.668,150.184,150.184,0,0,1,7.146,13.979,208.781,208.781,0,0,1,10.13,28.133,276.728,276.728,0,0,1,6.153,28.035q2.265,13.98,3.259,27.888.483,6.969.683,13.962c.053,2.338.078,4.681.079,7.049l-.024,3.588-.1,3.938c-.352,13.8-11.82,15.088-25.616,14.736-12.719-.324-22.976-.493-24.223-12.828l-.16-1.6-.552-5.394c-.207-1.936-.445-3.9-.694-5.855-.478-3.926-1.031-7.865-1.669-11.784-1.235-7.844-2.727-15.62-4.525-23.217a221.059,221.059,0,0,0-6.256-22.14,152.506,152.506,0,0,0-8.235-20.158,96.9,96.9,0,0,0-10.373-16.6A50.792,50.792,0,0,0,512,1298.159a36.592,36.592,0,0,0-6.3-3.251,34.37,34.37,0,0,0-6.784-1.961,44.415,44.415,0,0,0-7.6-.715,60.664,60.664,0,0,0-8.47.568,55.705,55.705,0,0,0-16.019,4.673,57.629,57.629,0,0,0-14,9.466c-8.8,7.979-16.392,19.488-22.453,32.675a222.48,222.48,0,0,0-14.1,43.29c-1.768,7.647-3.149,15.458-4.369,23.308-.6,3.925-1.115,7.868-1.57,11.79-.234,1.959-.448,3.916-.635,5.847l-.487,5.358-.147,1.622a24.982,24.982,0,0,1-49.853-1.622Z" transform="translate(-51.727 -1224.012)"/><path class="f" d="M488.365,1283.185q-2.19-.252-4.392-.363A70.089,70.089,0,0,0,438,1297.43c-10.323,7.864-18.41,18.293-24.423,29.736-22.8,43.4-29.026,106.289-29.026,106.289h24.141s2.5-26.15,6.955-47.742,16.666-61.976,38.451-79.9,44.334-14.809,51.6-10.91,18.648,8.995,29.971,33.771c.86,1.884,1.926,5.481,3.827,6.559.585-1.55-.235-3.8-.6-5.38-2.061-8.947-3.569-18.988-9.3-26.492-5.011-6.561-12.531-10.723-19.894-14.148A69.642,69.642,0,0,0,488.365,1283.185Z" transform="translate(-52.038 -1224.012)"/><path class="d" d="M160.735,1391.179c.057.157-.007.066-.034.054a1,1,0,0,1-.122-.123l-.289-.324-.62-.754-1.351-1.609c-.9-1.1-1.829-2.2-2.785-3.244-1.9-2.1-3.8-4.1-5.672-5.82a43.7,43.7,0,0,0-5.264-4.231,13.009,13.009,0,0,0-3.642-1.783c-.19-.062-.3-.007-.418-.053-.06.076-.155.027-.136.1.01.055.026.054.127.143.046.036.08.021.142.06a.567.567,0,0,0,.2.088c.129-.013.32.145.484.1.084-.014-.027.016-.061.025l-.145.035c-.095.026-.2.018-.288.052a7.984,7.984,0,0,0-1.075.366,10.745,10.745,0,0,0-2.224,1.141,16.4,16.4,0,0,0-2.787,2.329,38.085,38.085,0,0,0-6.5,9.761,89.422,89.422,0,0,0-5.514,15.121c-3.113,11.355-4.9,24.365-6.555,37.919l-.093.758c-1.684,13.8-14.238,11.3-28.039,9.612-11.485-1.4-20.213,1.969-21.847-8.943a166.7,166.7,0,0,1,.009-51.02,135.214,135.214,0,0,1,2.982-13.585c.6-2.281,1.348-4.6,2.107-6.909.367-1.148.849-2.321,1.275-3.478s.871-2.318,1.392-3.49a93.318,93.318,0,0,1,7.241-13.985,82.4,82.4,0,0,1,10.513-13.507,71.95,71.95,0,0,1,14.56-11.662,66.037,66.037,0,0,1,28.128-9.332c.83-.089,1.662-.122,2.494-.175l1.248-.065c.432-.017.784-.046,1.333-.04q1.524,0,3.048.048l1.52.063,1.5.147a56.464,56.464,0,0,1,21.242,6.512,69.813,69.813,0,0,1,14.8,10.731,89.8,89.8,0,0,1,10.334,11.735,103.075,103.075,0,0,1,7.656,12.1c1.107,2.052,2.14,4.119,3.134,6.228.483,1.062.953,2.142,1.42,3.242l.707,1.7.358.914.2.5.278.678a25,25,0,0,1-44.962,21.873Z" transform="translate(-52.96 -1223.797)"/><path class="e" d="M243.216,1224.233c-69.892-3.883-126,44-124,95s76,133,84,140,47,7,97,0,28-172,20-191S297.216,1227.233,243.216,1224.233Z" transform="translate(-52.96 -1224.012)"/><path class="e" d="M293.536,1444.519l1.263-3.721,1.194-3.264c.8-2.143,1.624-4.245,2.48-6.327,1.727-4.15,3.554-8.228,5.485-12.268A234.987,234.987,0,0,1,317.1,1395.3a204.24,204.24,0,0,1,16.522-22.4,161.876,161.876,0,0,1,20.928-20.343,123.109,123.109,0,0,1,26.412-16.324,112.334,112.334,0,0,1,15.242-5.647,104.672,104.672,0,0,1,16.192-3.281,108.3,108.3,0,0,1,32.617.969c1.329.206,2.615.5,3.912.771s2.605.534,3.861.879l3.8.993,2.824.773c3.6.978,7.19,2.035,10.782,2.869l5.388,1.331,5.378,1.164c3.59.832,7.156,1.412,10.729,2.09,7.123,1.142,14.218,2.252,21.178,2.772a156.631,156.631,0,0,0,20.494.52,120.2,120.2,0,0,0,19.174-2.16,85.186,85.186,0,0,0,17.009-5.293,64.307,64.307,0,0,0,14.2-8.548,62.207,62.207,0,0,0,11.193-12.045,76.535,76.535,0,0,0,8.154-15.541l.358-.909a25.01,25.01,0,0,1,47.452,15.545,116.7,116.7,0,0,1-11.58,28.387,110.413,110.413,0,0,1-19.721,24.835,114.04,114.04,0,0,1-25.939,18.014,129.627,129.627,0,0,1-28.511,10.476,170.3,170.3,0,0,1-28.6,4.388,213.219,213.219,0,0,1-27.753-.017c-18.192-1.025-35.608-4.242-52.5-8.285-4.254-.965-8.4-2.134-12.574-3.242l-5.038-1.342c-.679-.207-1.348-.309-2.021-.468-.671-.144-1.343-.318-2.006-.409a53.4,53.4,0,0,0-7.851-.884,45.755,45.755,0,0,0-7.608.22,57.067,57.067,0,0,0-7.479,1.34,54.361,54.361,0,0,0-7.454,2.52,64.6,64.6,0,0,0-7.443,3.708c-2.473,1.428-4.922,3.086-7.38,4.856a105.3,105.3,0,0,0-14.234,12.654,155.338,155.338,0,0,0-13.117,15.676,209.93,209.93,0,0,0-11.757,17.7c-1.848,3.065-3.625,6.186-5.3,9.327-.845,1.566-1.68,3.132-2.47,4.684l-1.152,2.3-.544,1.094-.249.505c-.065.124-.179.38-.164.293a25,25,0,0,1-46.913-17.3Z" transform="translate(-51.727 -1224.012)"/><path class="g" d="M308.308,1335.946c.939,5.419,8.891,4.965,9.142-.528,0-.06.006-.12.008-.18a186.462,186.462,0,0,0-5.509-53.335c-.725-2.87-1.58-5.838-3.572-8.027a9.482,9.482,0,0,0-14.866,1.044,4.558,4.558,0,0,0-.553,4.058C295.391,1286.195,304.5,1313.944,308.308,1335.946Z" transform="translate(-52.445 -1224.012)"/><path class="f" d="M150.05,1332.233c-1.848-4.45-7.18-4.138-7.691.653-1.147,10.747.785,27.924,14.857,51.458,25.778,43.111,57.761,75.084,70.222,71.111,15.334-4.889-28.666-38.074-54.222-73.778C165.416,1370.78,155.343,1344.981,150.05,1332.233Z" transform="translate(-52.96 -1223.772)"/><g transform="translate(106.638 108.606)"><circle class="h" cx="23.856" cy="23.856" r="23.856"/><g transform="translate(10 15.697)"><path class="i" d="M172.042,1348.119a13.844,13.844,0,1,0,25.016,8.449Z" transform="translate(-169.36 -1348.119)"/></g></g><g transform="translate(198.537 76.548)"><circle class="h" cx="23.856" cy="23.856" r="23.856"/><g transform="translate(14.233 10.194)"><path class="i" d="M277.1,1310.616a13.844,13.844,0,1,1-11.81,23.616Z" transform="translate(-265.287 -1310.616)"/></g></g><circle class="f" cx="34.442" cy="34.442" r="34.442" transform="translate(168.125 138.315)"/><g class="j" transform="translate(164.032 134.535)"><circle class="o" cx="34.442" cy="34.442" r="34.442"/><circle class="a" cx="34.442" cy="34.442" r="24.442"/></g><path class="e" d="M200.569,1515.042c-.274-1.441-.535-3.073-.786-4.629l-.737-4.73-1.38-9.465-2.622-18.79-1.3-9.257c-.428-3.058-.867-6.1-1.349-9.088q-.663-4.5-1.419-8.805l-.763-4.226c-.273-1.328-.514-2.746-.8-3.992l-.418-1.907-.441-1.747c-.142-.614-.3-1.093-.433-1.6s-.273-1.053-.407-1.381l-.192-.571a2.094,2.094,0,0,0-.172-.457c-.051-.09-.1-.18-.138-.272l-.06-.138c-.008-.014-.022-.066-.024-.049l0,.061a.928.928,0,0,0,.03.237.853.853,0,0,0,.037.111c.032.1.122.365.191.535a8.618,8.618,0,0,0,.537,1.122l.079.134.183.348c.129.24.265.478.406.713.282.47.587.929.912,1.372.162.221.33.439.5.652l.857,1.022a31.26,31.26,0,0,0,5.822,5.218,31.491,31.491,0,0,0,16.1,5.533c.609.035,1.257.047,1.832.044.512,0,1.026-.01,1.539-.037,1.008-.047,2.135-.184,2.861-.286.8-.113,1.658-.282,2.4-.455.628-.14,1.253-.305,1.869-.494.68-.214,1.049-.331,1.542-.51l.7-.265.614-.251c.679-.274,1.456-.661,1.89-.879a23.6,23.6,0,0,0,3.306-2.036,4.443,4.443,0,0,1,.653-.462,11.276,11.276,0,0,1-.836,1.156l-1.7,2.342c-1.266,1.792-2.649,3.917-4.019,6.159s-2.779,4.61-4.168,7.041c-2.773,4.873-5.459,10.017-8.117,15.231-2.628,5.234-5.14,10.593-7.618,15.985q-1.842,4.052-3.583,8.161c-1.185,2.727-2.354,5.464-3.48,8.218-4.477,11.022-8.657,22.16-12.243,33.364-7.279,22.366-12.489,44.961-14.122,66.6l-.1,1.36c-1.046,13.867-13.136,13.289-27,12.243-11.225-.847-20.175,2.006-22.623-8.4a149.347,149.347,0,0,1-3.446-22.578,194.561,194.561,0,0,1-.454-22.284,261.2,261.2,0,0,1,5.3-43.06,328.693,328.693,0,0,1,11.342-41q1.737-5,3.6-9.966,1.9-4.944,3.937-9.845c2.683-6.549,5.627-13,8.781-19.424,3.122-6.439,6.54-12.791,10.294-19.171,1.876-3.194,3.83-6.4,5.99-9.618s4.426-6.485,7.053-9.9c1.318-1.713,2.726-3.472,4.347-5.31s3.421-3.791,5.775-6.013c1.2-1.12,2.561-2.332,4.3-3.7a47.62,47.62,0,0,1,7.345-4.757c.788-.42,1.941-.964,2.987-1.411l.9-.367.982-.372c.684-.247,1.24-.447,2.117-.709.812-.244,1.633-.464,2.456-.659.936-.216,1.994-.416,3-.566.925-.148,2.256-.285,3.466-.348q.923-.049,1.845-.056c.676,0,1.425.021,2.135.061a35.834,35.834,0,0,1,18.385,6.281,38.224,38.224,0,0,1,3.758,2.987,38.9,38.9,0,0,1,2.966,3.047c.188.215.563.665.563.665l.218.281.433.569.845,1.156q.831,1.169,1.6,2.38l.749,1.218.352.6.213.408q.844,1.635,1.608,3.313c.243.538.528,1.165.716,1.636l.465,1.253.886,2.52.212.633.157.532.29,1.031.563,2.064c.2.727.322,1.3.454,1.9l.391,1.8c.28,1.246.447,2.288.64,3.383s.38,2.2.5,3.191l.4,3.059.306,2.917c.216,1.967.331,3.783.495,5.678.119,1.821.242,3.682.3,5.472.147,3.6.25,7.146.28,10.632.014,3.5-.028,6.949-.084,10.384-.082,3.431-.224,6.842-.372,10.234-.168,3.392-.391,6.774-.62,10.14-.273,3.37-.533,6.727-.878,10.08-.327,3.352-.711,6.7-1.129,10.046l-.686,5.026c-.242,1.7-.506,3.317-.8,5.128-2.222,13.784-15.2,11.365-28.981,9.143-10.78-1.738-18.862,1.74-20.81-8.4Z" transform="translate(-52.96 -1223.338)"/><path class="f" d="M231.318,1445.83s8.1,45.736,0,56.736-31.986,4.956-31.986,4.956S229.812,1435.841,231.318,1445.83Z" transform="translate(-52.64 -1223.595)"/><path class="f" d="M331.973,1471.677s14.8-95.556,69.243-96.889,109.111,32.667,160.889,16,66.87-34.091,66.87-34.091-16.086,20.82-40.589,30.567-51.392,15.362-84.17,12-63.167-12.225-67.556-13.032-26.145-5.17-45.35,10.027S339.84,1464.344,331.973,1471.677Z" transform="translate(-51.727 -1223.72)"/><path class="e" d="M283.276,1516.634l-.214-2.593c-.042-.632-.1-1.327-.117-1.911l-.062-1.809-.012-1.747c0-2.325.1-4.584.272-6.85a88.542,88.542,0,0,1,2.247-13.529,78.839,78.839,0,0,1,4.721-13.431c.468-1.112,1.02-2.2,1.6-3.291l1.746-3.249c.638-1.061,1.309-2.111,1.979-3.161s1.322-2.111,2.1-3.1a77.109,77.109,0,0,1,21.876-20.3,92.4,92.4,0,0,1,25.661-10.836c1.09-.339,2.12-.5,3.182-.737l3.17-.653,3.177-.63,3.1-.42,6.2-.779,6.029-.346,3.019-.152c1.011-.056,1.959-.01,2.943-.017l5.856.052c1.981-.021,3.84.166,5.739.29l5.68.418c.957.057,1.88.163,2.793.284l2.755.343,5.511.706c1.861.214,3.593.6,5.391.9l5.348.974,2.672.495,2.6.588,5.2,1.2c1.725.415,3.476.8,5.178,1.245l5.06,1.4c27.164,7.323,55.879,19.782,79.3,41.433a131.25,131.25,0,0,1,28.982,38.613,113.887,113.887,0,0,1,8.4,23.171,109.651,109.651,0,0,1,2.268,12.349c.253,2.11.427,4.273.551,6.489.05,1.149.1,2.233.114,3.469l-.005,1.889-.057,2.623a25,25,0,1,1-50-.242c-.022.525-.045.324-.067.369s-.05-.083-.075-.137l-.077-.211-.091-.288-.367-1.295c-.284-.949-.59-1.944-.949-2.966a58.978,58.978,0,0,0-2.395-6.214c-.431-1.036-.973-2.058-1.425-3.089-.549-1.012-1.012-2.041-1.6-3.033-.557-1-1.088-2.008-1.712-2.979l-.889-1.469-.961-1.436a90.831,90.831,0,0,0-19.075-20.53,126.554,126.554,0,0,0-25.776-15.548l-3.566-1.648-3.7-1.5c-2.43-1.042-4.994-1.931-7.527-2.867-2.5-.989-5.175-1.724-7.766-2.587l-1.956-.63-2.078-.592-4.159-1.187-4.158-1.194c-1.382-.374-2.75-.673-4.126-1.015l-4.116-1.021-2.056-.521-2.029-.413-4.057-.831c-1.344-.256-2.722-.616-4.033-.777-2.637-.385-5.318-.919-7.916-1.247-10.389-1.349-20.234-1.522-28.112-.218a40.209,40.209,0,0,0-9.924,2.91,24.326,24.326,0,0,0-6.9,4.6,26.476,26.476,0,0,0-5.289,7.633,39.961,39.961,0,0,0-1.892,5.149c-.271.9-.515,1.812-.707,2.674l-.271,1.227-.123.482c-.023.1-.039.1-.059.12l-.031.027c-.005.038-.014-.071-.023-.135l-.029-.213c.951,13.775-9.443,15.426-23.218,16.378S284.227,1530.409,283.276,1516.634Z" transform="translate(-52.091 -1223.338)"/><path class="f" d="M498.173,1548.926s-20.068-41.027-68.29-59.916-76-16.222-90.222-4.444-6.5,28.622-6.5,28.622,2.217-21.209,25.249-24.471S470.908,1496.841,498.173,1548.926Z" transform="translate(-52.166 -1223.525)"/><path class="k" d="M112.5,1615.743c-.4,2.437-1.539,6.823,4.42,9.865,3.925,2,20.037,6.225,31.122,6.2" transform="translate(-52.96 -1223.338)"/><path class="l" d="M276.216,1525.233c-1.423,1.574-7.666,5.837-2.976,10.637,1.483,1.519,3.746,1.94,5.827,2.356,20.479,4.1,42.456,4.534,61.513-4.01" transform="translate(-52.451 -1223.511)"/><path class="k" d="M212.3,1540.914c5.792,1.031,11.661,2.073,17.66,2.668s12.243.7,16.6-.118" transform="translate(-52.612 -1223.501)"/><path class="k" d="M62.227,1470.107c5.792,1.031,11.661,2.073,17.66,2.668s12.243.7,16.6-.118" transform="translate(-52.96 -1223.615)"/><path class="l" d="M208.222,1531.639c8.546,1.333,17.205,2.674,25.984,2.538s17.837-1.919,24.013-6.036" transform="translate(-52.611 -1223.518)"/><path class="k" d="M343.483,1540.928a80.109,80.109,0,0,1,51.084-8.7" transform="translate(-52.306 -1223.509)"/><path class="k" d="M548.125,1427.942c4.425,4.845,10.546,9.037,21.091,9.037" transform="translate(-51.727 -1223.679)"/><path class="k" d="M616.423,1424.414c-3,10.754-18.226,12.475-27.515,12.565" transform="translate(-51.727 -1223.682)"/><path class="k" d="M60.341,1444.156c-.444.687-9.458,3.077-3.055,9.984,8.482,9.152,27.339,8.6,31.264,8.426" transform="translate(-52.96 -1223.644)"/><path class="k" d="M125.725,1449.313c.012,7.92-18.61,10.589-20.842,11.253" transform="translate(-52.96 -1223.642)"/><path class="m" d="M503.819,1586.874c-.219,2.141,1.981,3.648,3.887,4.647,1.07.56,2.141,1.121,3.251,1.595,5.183,2.216,10.961,2.466,16.594,2.683" transform="translate(-51.993 -1223.338)"/><path class="n" d="M493.476,1592.918c.839,2.18,3.112,3.4,5.208,4.424,5.357,2.63,10.9,5.31,16.858,5.635" transform="translate(-52.018 -1223.338)"/><path class="n" d="M108.183,1629.271c.839,2.18,3.112,3.4,5.208,4.425,5.357,2.63,10.9,5.31,16.858,5.634" transform="translate(-52.96 -1223.338)"/></g></svg>