<svg xmlns="http://www.w3.org/2000/svg" width="50" height="55" viewBox="0 0 50 55"><defs><style>.a{fill:#cbcbcb;}.a,.b,.c{stroke:#707070;}.a,.b{stroke-width:3px;}.b{fill:#fff;}.c,.e{fill:none;}.c{stroke-linecap:round;stroke-linejoin:round;stroke-width:4px;}.d{stroke:none;}</style></defs><g transform="translate(-230 -700)"><g class="a" transform="translate(230 746)"><path class="d" d="M0,0H50a0,0,0,0,1,0,0V4a5,5,0,0,1-5,5H5A5,5,0,0,1,0,4V0A0,0,0,0,1,0,0Z"/><path class="e" d="M3,1.5H47A1.5,1.5,0,0,1,48.5,3V4A3.5,3.5,0,0,1,45,7.5H5A3.5,3.5,0,0,1,1.5,4V3A1.5,1.5,0,0,1,3,1.5Z"/></g><g class="b" transform="translate(230 700)"><rect class="d" width="50" height="50" rx="5"/><rect class="e" x="1.5" y="1.5" width="47" height="47" rx="3.5"/></g><path class="c" d="M-1587.662,700h-20v20" transform="translate(887.314 -907.121) rotate(-45)"/></g></svg>