<svg xmlns="http://www.w3.org/2000/svg" xmlns:xlink="http://www.w3.org/1999/xlink" width="150" height="55" viewBox="0 0 150 55"><defs><style>.a{fill:none;}.b{clip-path:url(#a);}.c{fill:#9a7b5d;}.c,.d{stroke:#707070;stroke-width:3px;}.d{fill:#ff952b;}.e{stroke:none;}</style><clipPath id="a"><rect class="a" width="150" height="55"/></clipPath></defs><g class="b"><g transform="translate(-230 -700)"><g class="c" transform="translate(230 746)"><path class="e" d="M0,0H150a0,0,0,0,1,0,0V4a5,5,0,0,1-5,5H5A5,5,0,0,1,0,4V0A0,0,0,0,1,0,0Z"/><path class="a" d="M3,1.5H147A1.5,1.5,0,0,1,148.5,3V4A3.5,3.5,0,0,1,145,7.5H5A3.5,3.5,0,0,1,1.5,4V3A1.5,1.5,0,0,1,3,1.5Z"/></g><g class="d" transform="translate(230 700)"><rect class="e" width="150" height="50" rx="5"/><rect class="a" x="1.5" y="1.5" width="147" height="47" rx="3.5"/></g></g></g></svg>