<svg xmlns="http://www.w3.org/2000/svg" xmlns:xlink="http://www.w3.org/1999/xlink" width="185" height="230" viewBox="0 0 185 230"><defs><style>.a{opacity:0.85;}.b{fill:#fff;}.c{fill:url(#a);}.d{fill:url(#b);}.e{fill:url(#c);}.f{fill:url(#d);}.g{fill:#ffdf47;}.h{fill:#fdd23f;}.i{fill:#f49c24;}.j,.k,.n{fill:none;}.j{stroke:#fed829;}.j,.k{stroke-linecap:round;stroke-miterlimit:10;stroke-width:4px;}.k{stroke:#fff78e;}.l{fill:url(#e);}.m{fill:url(#f);}</style><linearGradient id="a" x1="0.933" y1="0.014" x2="0.058" y2="1.057" gradientUnits="objectBoundingBox"><stop offset="0.277" stop-color="#fff8a5"/><stop offset="0.824" stop-color="#fff8a5" stop-opacity="0"/></linearGradient><linearGradient id="b" x1="-0.082" y1="0.038" x2="0.968" y2="1.014" xlink:href="#a"/><linearGradient id="c" x1="0.084" y1="0.095" x2="0.973" y2="1.016" xlink:href="#a"/><linearGradient id="d" x1="0.757" y1="0.127" x2="0.085" y2="0.984" xlink:href="#a"/><linearGradient id="e" x1="0.087" y1="-0.012" x2="0.985" y2="0.998" xlink:href="#a"/><linearGradient id="f" x1="0.18" y1="0.153" x2="0.82" y2="0.847" xlink:href="#a"/></defs><g transform="translate(-0.051)"><g transform="translate(0 -17.116)"><g class="a" transform="translate(57.343 172.45)"><path class="b" d="M98.2,1463.772a31.073,31.073,0,0,0,12.38,6.936,50.949,50.949,0,0,0,29.034,0,31.076,31.076,0,0,0,12.381-6.936l.067-.065a2.564,2.564,0,0,1,3.877,3.321,25.9,25.9,0,0,1-6.352,6.162,36.036,36.036,0,0,1-7.7,4.016,48.479,48.479,0,0,1-33.58,0,36.014,36.014,0,0,1-7.7-4.016,25.887,25.887,0,0,1-6.352-6.162,2.564,2.564,0,0,1,3.876-3.322Z" transform="translate(-93.784 -1462.988)"/></g><g transform="translate(23.051 27.116)"><path class="c" d="M151.474,1444.239s-11.113,17.781-8.89,24.449-11.2,2.223-10.088-5.557S151.474,1444.239,151.474,1444.239Z" transform="translate(-62.484 -1316.219)"/><path class="d" d="M102.324,1444.239s11.112,17.781,8.89,24.449,11.2,2.223,10.087-5.557S102.324,1444.239,102.324,1444.239Z" transform="translate(-60.181 -1316.219)"/><path class="e" d="M97.6,1439.426s14.447,34.45,13.335,40.007,8.89,7.779,5.557-4.446S97.6,1439.426,97.6,1439.426Z" transform="translate(-59.82 -1315.85)"/><path class="f" d="M155.158,1439.426s-14.447,34.45-13.335,40.007-8.89,7.779-5.557-4.446S155.158,1439.426,155.158,1439.426Z" transform="translate(-62.726 -1315.85)"/><g transform="translate(12.616)"><path class="g" d="M168.316,1368.217a1.22,1.22,0,0,0-1.721.062,50.3,50.3,0,0,0-86.158.036,1.223,1.223,0,0,0-1.758-.1c-2.946,2.771-8.328,10.653-8.328,31.25,0,21.542,9.81,35.311,14.528,40.686a1.239,1.239,0,0,0,2.163-.933l-1.01-11.273a50.563,50.563,0,0,0,13.478,10.644c6.041,3.278,12.258,8.556,14.932,14.888,2.4,5.675,4.434,6.72,8.4,6.72,3.849,0,5.8-.639,8.208-6.071,2.838-6.4,9.145-11.77,15.377-14.963a50.554,50.554,0,0,0,14.534-11.2l-1.009,11.257a1.239,1.239,0,0,0,2.163.933c4.717-5.376,14.528-19.145,14.528-40.686C176.643,1378.87,171.262,1370.988,168.316,1368.217Z" transform="translate(-70.351 -1308.547)"/><ellipse class="h" cx="44.952" cy="46.314" rx="44.952" ry="46.314" transform="translate(8.194 15.81)"/><path class="i" d="M156.98,1320.65c-1.8-.6-1.8,1.2-6.016-2.407-3.229-2.768-19.247-12.631-25.863-12.631s-22.634,9.863-25.863,12.631c-4.21,3.609-4.21,1.8-6.015,2.407-4.909,1.635,1.2,7.217,1.2,7.217h61.352S161.888,1322.286,156.98,1320.65Z" transform="translate(-71.955 -1305.613)"/><ellipse class="g" cx="44.952" cy="46.314" rx="44.952" ry="46.314" transform="translate(8.194 9.924)"/></g><line class="j" x1="7.342" y2="8.633" transform="translate(112.915 15.309)"/><line class="k" x1="22.056" y2="6.993" transform="translate(116.452 28.303)"/><line class="k" x1="20.038" y1="11.569" transform="translate(2.998 10.457)"/><line class="j" x2="13.335" y2="2.223" transform="translate(4.445 33.561)"/><line class="j" y1="5.556" x2="12.224" transform="translate(0 48.008)"/><line class="j" x2="8.89" y2="3.334" transform="translate(118.908 45.785)"/><g transform="translate(32.877 122.002)"><path class="l" d="M106.087,1467.54a.461.461,0,0,1-.451-.366c-3.274-15.275-13.154-28.58-13.253-28.713a.461.461,0,1,1,.738-.553c.1.134,10.1,13.6,13.418,29.074a.462.462,0,0,1-.355.548A.511.511,0,0,1,106.087,1467.54Z" transform="translate(-92.291 -1437.722)"/></g><g transform="translate(84.552 121.448)"><path class="m" d="M148.709,1468.049a.522.522,0,0,1-.091-.008.462.462,0,0,1-.362-.543c3.316-16.58,13.319-30.057,13.419-30.192a.461.461,0,1,1,.738.554c-.1.132-9.977,13.45-13.251,29.818A.462.462,0,0,1,148.709,1468.049Z" transform="translate(-148.246 -1437.122)"/></g></g></g><rect class="n" width="185" height="230" transform="translate(0.051)"/></g></svg>