<svg xmlns="http://www.w3.org/2000/svg" xmlns:xlink="http://www.w3.org/1999/xlink" width="185" height="230" viewBox="0 0 185 230"><defs><style>.a{opacity:0.85;}.b{fill:#fff;}.c{opacity:0.65;}.d{fill:url(#a);}.e{fill:url(#b);}.f{fill:url(#c);}.g{fill:url(#d);}.h{fill:#ffdf47;}.i{fill:#fdd23f;}.j{fill:#f49c24;}.k{fill:#ffe574;}.l{fill:#fed829;}.m{fill:#fff8a5;}.n,.o,.r{fill:none;}.n{stroke:#fed829;}.n,.o{stroke-linecap:round;stroke-miterlimit:10;stroke-width:4px;}.o{stroke:#fff78e;}.p{fill:url(#e);}.q{fill:url(#f);}</style><linearGradient id="a" x1="0.996" y1="0.038" x2="0.029" y2="1.051" gradientUnits="objectBoundingBox"><stop offset="0.277" stop-color="#fff8a5"/><stop offset="0.824" stop-color="#fff8a5" stop-opacity="0"/></linearGradient><linearGradient id="b" x1="-0.152" y1="0.065" x2="0.999" y2="1.005" xlink:href="#a"/><linearGradient id="c" x1="0.006" y1="0.108" x2="1" y2="1.013" xlink:href="#a"/><linearGradient id="d" x1="0.824" y1="0.138" x2="0.07" y2="0.983" xlink:href="#a"/><linearGradient id="e" x1="0.042" y1="-0.003" x2="1.041" y2="0.988" xlink:href="#a"/><linearGradient id="f" x1="0.128" y1="0.144" x2="0.872" y2="0.856" xlink:href="#a"/></defs><g transform="translate(-0.106)"><g transform="translate(0 -17.013)"><g class="a" transform="translate(59.076 171.798)"><path class="b" d="M298.195,1463.769a31.169,31.169,0,0,0,12.4,6.909,51.3,51.3,0,0,0,29.082,0,31.176,31.176,0,0,0,12.4-6.909l.068-.064a2.578,2.578,0,0,1,3.632.064,2.544,2.544,0,0,1,.252,3.245,25.883,25.883,0,0,1-6.362,6.139,36.163,36.163,0,0,1-7.713,4,48.805,48.805,0,0,1-33.635,0,36.142,36.142,0,0,1-7.713-4,25.867,25.867,0,0,1-6.362-6.139,2.544,2.544,0,0,1,.62-3.559,2.578,2.578,0,0,1,3.262.249Z" transform="translate(-293.775 -1462.988)"/></g><g class="c" transform="translate(45.673 182.137)"><path class="b" d="M283.768,1474.99c5.221,4.863,11.809,8.1,18.724,10.212a77.646,77.646,0,0,0,43.108-.024c6.91-2.112,13.495-5.34,18.732-10.188l.062-.057a2.637,2.637,0,0,1,3.712.131,2.605,2.605,0,0,1,.258,3.237,35.992,35.992,0,0,1-8.938,8.894,51.136,51.136,0,0,1-11.057,5.857,69.429,69.429,0,0,1-48.628-.024,51.13,51.13,0,0,1-11.054-5.852,36.1,36.1,0,0,1-8.95-8.874,2.6,2.6,0,0,1,.7-3.627,2.638,2.638,0,0,1,3.264.256Z" transform="translate(-279.285 -1474.226)"/></g><g transform="translate(9.106 27.013)"><path class="d" d="M351.5,1445.149s-11.131,20.148-8.9,27.7-11.217,2.518-10.1-6.3S351.5,1445.149,351.5,1445.149Z" transform="translate(-246.847 -1316.776)"/><path class="e" d="M302.315,1445.149s11.131,20.148,8.9,27.7,11.217,2.518,10.1-6.3S302.315,1445.149,302.315,1445.149Z" transform="translate(-244.589 -1316.776)"/><path class="f" d="M297.6,1439.674s14.471,39.037,13.357,45.333,8.9,8.815,5.566-5.037S297.6,1439.674,297.6,1439.674Z" transform="translate(-244.235 -1316.338)"/><path class="g" d="M355.181,1439.674s-14.471,39.037-13.357,45.333-8.9,8.815-5.566-5.037S355.181,1439.674,355.181,1439.674Z" transform="translate(-247.083 -1316.338)"/><g transform="translate(28.151)"><path class="h" d="M368.467,1368.125a1.226,1.226,0,0,0-1.724.062,50.522,50.522,0,0,0-86.3.036,1.23,1.23,0,0,0-1.761-.1c-2.951,2.761-8.342,10.613-8.342,31.132,0,21.46,9.826,35.177,14.551,40.532a1.241,1.241,0,0,0,2.166-.929l-1.012-11.23a50.6,50.6,0,0,0,13.5,10.6c6.05,3.266,12.278,8.524,14.956,14.831,2.4,5.653,4.441,6.695,8.416,6.695,3.855,0,5.81-.637,8.221-6.048,2.842-6.377,9.16-11.725,15.4-14.906a50.606,50.606,0,0,0,14.558-11.16l-1.011,11.214a1.241,1.241,0,0,0,2.166.929c4.725-5.355,14.551-19.072,14.551-40.532C376.808,1378.738,371.418,1370.886,368.467,1368.125Z" transform="translate(-270.342 -1308.681)"/><ellipse class="i" cx="45.025" cy="46.139" rx="45.025" ry="46.139" transform="translate(8.208 15.75)"/><path class="j" d="M357.078,1320.593c-1.807-.6-1.807,1.2-6.025-2.4-3.235-2.757-19.279-12.583-25.906-12.583s-22.671,9.826-25.906,12.583c-4.217,3.6-4.217,1.8-6.025,2.4-4.917,1.629,1.2,7.19,1.2,7.19h61.451S361.994,1322.223,357.078,1320.593Z" transform="translate(-271.914 -1305.613)"/><ellipse class="h" cx="45.025" cy="46.139" rx="45.025" ry="46.139" transform="translate(8.208 9.887)"/></g><ellipse class="k" cx="3.339" cy="3.321" rx="3.339" ry="3.321" transform="translate(139.171 4.957)"/><ellipse class="l" cx="3.339" cy="3.321" rx="3.339" ry="3.321" transform="translate(6.714 2.746)"/><ellipse class="m" cx="3.339" cy="3.321" rx="3.339" ry="3.321" transform="translate(0 54.778)"/><ellipse class="m" cx="3.339" cy="3.321" rx="3.339" ry="3.321" transform="translate(36.74 2.745)"/><ellipse class="m" cx="2.071" cy="2.06" rx="2.071" ry="2.06" transform="translate(124.675 9.387)"/><ellipse class="l" cx="3.339" cy="3.321" rx="3.339" ry="3.321" transform="translate(160.327 21.566)"/><ellipse class="l" cx="3.339" cy="3.321" rx="3.339" ry="3.321" transform="translate(152.535 50.355)"/><ellipse class="k" cx="3.339" cy="3.321" rx="3.339" ry="3.321" transform="translate(6.717 28.221)"/><line class="n" x1="7.354" y2="8.601" transform="translate(128.613 15.252)"/><line class="o" x1="22.092" y2="6.967" transform="translate(132.156 28.196)"/><line class="o" x1="20.071" y1="11.525" transform="translate(18.517 10.417)"/><line class="n" x2="13.357" y2="2.214" transform="translate(19.967 33.434)"/><line class="n" y1="5.535" x2="12.244" transform="translate(15.515 47.826)"/><line class="n" x2="8.905" y2="3.321" transform="translate(134.616 45.612)"/><g transform="translate(48.445 121.617)"><path class="p" d="M306.1,1471.467a.461.461,0,0,1-.454-.375c-3.284-17.338-13.189-32.423-13.289-32.573a.458.458,0,0,1,.131-.637.463.463,0,0,1,.641.13c.1.152,10.107,15.392,13.425,32.909a.464.464,0,0,1-.455.546Z" transform="translate(-292.281 -1437.806)"/></g><g transform="translate(100.204 120.987)"><path class="q" d="M348.7,1472.041a.406.406,0,0,1-.081-.007.46.46,0,0,1-.376-.533c3.318-18.765,13.326-34.021,13.426-34.172a.464.464,0,0,1,.641-.131.457.457,0,0,1,.131.637c-.1.151-10,15.255-13.288,33.827A.462.462,0,0,1,348.7,1472.041Z" transform="translate(-348.238 -1437.121)"/></g></g></g><rect class="r" width="185" height="230" transform="translate(0.106)"/></g></svg>