<svg xmlns="http://www.w3.org/2000/svg" xmlns:xlink="http://www.w3.org/1999/xlink" width="185" height="230" viewBox="0 0 185 230"><defs><style>.a,.q,.r{fill:none;}.b{clip-path:url(#a);}.c{opacity:0.85;}.d{fill:#fff;}.e{opacity:0.65;}.f{opacity:0.5;}.g{fill:url(#b);}.h{fill:url(#c);}.i{fill:url(#d);}.j{fill:url(#e);}.k{fill:#ffdf47;}.l{fill:#fdd23f;}.m{fill:#f49c24;}.n{fill:#ffe574;}.o{fill:#fed829;}.p{fill:#fff8a5;}.q{stroke:#fed829;}.q,.r{stroke-linecap:round;stroke-miterlimit:10;stroke-width:4px;}.r{stroke:#fff78e;}.s{fill:url(#f);}.t{fill:url(#g);}</style><clipPath id="a"><rect class="a" width="185" height="230"/></clipPath><linearGradient id="b" x1="1.113" y1="0.07" x2="-0.03" y2="1.044" gradientUnits="objectBoundingBox"><stop offset="0.277" stop-color="#fff8a5"/><stop offset="0.824" stop-color="#fff8a5" stop-opacity="0"/></linearGradient><linearGradient id="c" x1="-0.279" y1="0.098" x2="1.066" y2="0.992" xlink:href="#b"/><linearGradient id="d" x1="-0.123" y1="0.123" x2="1.07" y2="1.006" xlink:href="#b"/><linearGradient id="e" x1="0.944" y1="0.152" x2="0.036" y2="0.981" xlink:href="#b"/><linearGradient id="f" x1="-0.085" y1="0.016" x2="1.105" y2="0.981" xlink:href="#b"/><linearGradient id="g" x1="0.029" y1="0.132" x2="0.971" y2="0.868" xlink:href="#b"/></defs><g class="b"><g transform="translate(0 -17.116)"><g class="c" transform="translate(64.35 172.45)"><path class="d" d="M498.178,1463.772a31.073,31.073,0,0,0,12.38,6.936,50.952,50.952,0,0,0,29.035,0,31.079,31.079,0,0,0,12.38-6.936l.067-.065a2.564,2.564,0,0,1,3.877,3.321,25.9,25.9,0,0,1-6.352,6.162,36.037,36.037,0,0,1-7.7,4.016,48.479,48.479,0,0,1-33.58,0,36.014,36.014,0,0,1-7.7-4.016,25.887,25.887,0,0,1-6.352-6.162,2.564,2.564,0,0,1,3.876-3.322Z" transform="translate(-493.766 -1462.988)"/></g><g class="e" transform="translate(50.968 182.829)"><path class="d" d="M483.751,1474.993c5.212,4.882,11.79,8.135,18.693,10.251a77.115,77.115,0,0,0,43.038-.024,47.769,47.769,0,0,0,18.7-10.227l.062-.057a2.622,2.622,0,0,1,3.964,3.381,36.014,36.014,0,0,1-8.924,8.927,50.961,50.961,0,0,1-11.039,5.879,68.965,68.965,0,0,1-48.549-.024,50.958,50.958,0,0,1-11.036-5.874,36.14,36.14,0,0,1-8.936-8.908,2.622,2.622,0,0,1,3.963-3.384Z" transform="translate(-479.276 -1474.226)"/></g><g class="f" transform="translate(37.599 196.519)"><path class="d" d="M469.308,1489.859c6.8,6.765,15.59,11.279,24.8,14.2a99.515,99.515,0,0,0,57.5-.024c9.2-2.928,17.986-7.429,24.806-14.179l.047-.047a2.617,2.617,0,0,1,3.978,3.371,47.672,47.672,0,0,1-11.711,11.307,67.289,67.289,0,0,1-14.357,7.452,91.508,91.508,0,0,1-63.011-.024,67.3,67.3,0,0,1-14.353-7.447,47.76,47.76,0,0,1-11.723-11.288,2.617,2.617,0,0,1,3.977-3.372Z" transform="translate(-464.799 -1489.05)"/></g><g transform="translate(3 14.303)"><path class="g" d="M551.456,1446.88s-11.112,24.874-8.891,34.2-11.2,3.109-10.088-7.774S551.456,1446.88,551.456,1446.88Z" transform="translate(-435.059 -1303.608)"/><path class="h" d="M502.306,1446.88s11.112,24.874,8.891,34.2,11.2,3.109,10.088-7.774S502.306,1446.88,502.306,1446.88Z" transform="translate(-432.756 -1303.608)"/><path class="i" d="M497.586,1440.146s14.447,48.194,13.335,55.968,8.89,10.883,5.557-6.219S497.586,1440.146,497.586,1440.146Z" transform="translate(-432.394 -1303.093)"/><path class="j" d="M555.14,1440.146s-14.447,48.194-13.335,55.968-8.891,10.883-5.557-6.219S555.14,1440.146,555.14,1440.146Z" transform="translate(-435.3 -1303.093)"/><g transform="translate(40.024 12.812)"><path class="k" d="M568.3,1368.217a1.22,1.22,0,0,0-1.721.062,50.3,50.3,0,0,0-86.158.036,1.224,1.224,0,0,0-1.758-.1c-2.946,2.771-8.327,10.653-8.327,31.25,0,21.542,9.809,35.311,14.527,40.686a1.239,1.239,0,0,0,2.163-.933l-1.01-11.273a50.563,50.563,0,0,0,13.478,10.644c6.041,3.278,12.258,8.556,14.932,14.888,2.4,5.675,4.434,6.72,8.4,6.72,3.849,0,5.8-.639,8.208-6.071,2.838-6.4,9.145-11.77,15.377-14.963a50.554,50.554,0,0,0,14.534-11.2l-1.009,11.257a1.239,1.239,0,0,0,2.163.933c4.717-5.376,14.528-19.145,14.528-40.686C576.626,1378.87,571.244,1370.988,568.3,1368.217Z" transform="translate(-470.334 -1308.547)"/><ellipse class="l" cx="44.952" cy="46.314" rx="44.952" ry="46.314" transform="translate(8.193 15.81)"/><path class="m" d="M556.962,1320.65c-1.8-.6-1.8,1.2-6.015-2.407-3.229-2.768-19.247-12.631-25.864-12.631s-22.634,9.863-25.863,12.631c-4.21,3.609-4.21,1.8-6.015,2.407-4.909,1.635,1.2,7.217,1.2,7.217h61.352S561.87,1322.286,556.962,1320.65Z" transform="translate(-471.938 -1305.613)"/><ellipse class="k" cx="44.952" cy="46.314" rx="44.952" ry="46.314" transform="translate(8.193 9.924)"/></g><circle class="n" cx="3.334" cy="3.334" r="3.334" transform="translate(150.863 17.788)"/><circle class="o" cx="3.334" cy="3.334" r="3.334" transform="translate(18.621 15.569)"/><circle class="p" cx="3.334" cy="3.334" r="3.334" transform="translate(11.918 67.799)"/><circle class="p" cx="3.334" cy="3.334" r="3.334" transform="translate(48.599 15.568)"/><circle class="p" cx="2.067" cy="2.067" r="2.067" transform="translate(136.391 22.235)"/><circle class="o" cx="3.334" cy="3.334" r="3.334" transform="translate(171.985 34.461)"/><circle class="o" cx="3.334" cy="3.334" r="3.334" transform="translate(164.206 63.359)"/><circle class="n" cx="3.334" cy="3.334" r="3.334" transform="translate(18.625 41.14)"/><line class="q" x1="7.342" y2="8.633" transform="translate(140.322 28.122)"/><line class="r" x1="22.056" y2="6.993" transform="translate(143.86 41.115)"/><line class="r" x1="20.038" y1="11.569" transform="translate(30.406 23.269)"/><line class="q" x2="13.335" y2="2.223" transform="translate(31.853 46.373)"/><line class="q" y1="5.556" x2="12.224" transform="translate(27.408 60.82)"/><line class="q" x2="8.89" y2="3.334" transform="translate(146.316 58.598)"/><path class="o" d="M604.763,1376.8l-.043,2.926a.977.977,0,0,0,.4.8l2.459,1.8a.524.524,0,0,1-.155.923l-2.914.9a.976.976,0,0,0-.639.627l-.954,2.9a.524.524,0,0,1-.926.139l-1.755-2.493a.977.977,0,0,0-.794-.414l-3.048-.013a.523.523,0,0,1-.417-.838l1.829-2.44a.978.978,0,0,0,.149-.883l-.931-2.9a.524.524,0,0,1,.669-.656l2.885.985a.978.978,0,0,0,.886-.132l2.374-1.71A.586.586,0,0,1,604.763,1376.8Z" transform="translate(-439.914 -1298.201)"/><path class="n" d="M462.89,1379.234l-.036,2.481a.827.827,0,0,0,.338.68l2.085,1.528a.445.445,0,0,1-.131.783l-2.47.762a.827.827,0,0,0-.542.532l-.81,2.455a.444.444,0,0,1-.785.117l-1.489-2.114a.829.829,0,0,0-.673-.352l-2.586-.01a.445.445,0,0,1-.354-.711l1.551-2.069a.83.83,0,0,0,.126-.749l-.789-2.462a.444.444,0,0,1,.566-.556l2.447.835a.825.825,0,0,0,.751-.112l2.013-1.45A.5.5,0,0,1,462.89,1379.234Z" transform="translate(-429.163 -1298.394)"/><path class="p" d="M570.464,1292.31l-.042,2.8a.935.935,0,0,0,.382.767l2.355,1.726a.5.5,0,0,1-.149.884l-2.79.861a.936.936,0,0,0-.612.6l-.913,2.772a.5.5,0,0,1-.887.132l-1.681-2.387a.933.933,0,0,0-.76-.4l-2.919-.012a.5.5,0,0,1-.4-.8l1.751-2.337a.934.934,0,0,0,.142-.846l-.89-2.78a.5.5,0,0,1,.639-.628l2.763.943a.935.935,0,0,0,.848-.126l2.274-1.637A.56.56,0,0,1,570.464,1292.31Z" transform="translate(-399.319 -1272.739)"/><path class="o" d="M435.51,1349.147l-.042,2.8a.934.934,0,0,0,.382.767l2.355,1.726a.5.5,0,0,1-.149.884l-2.79.861a.936.936,0,0,0-.612.6l-.913,2.772a.5.5,0,0,1-.887.132l-1.681-2.387a.933.933,0,0,0-.76-.4l-2.919-.012a.5.5,0,0,1-.4-.8l1.751-2.336a.932.932,0,0,0,.142-.845l-.89-2.781a.5.5,0,0,1,.639-.628l2.763.944a.935.935,0,0,0,.848-.127l2.274-1.637A.561.561,0,0,1,435.51,1349.147Z" transform="translate(-426.994 -1296.088)"/><g transform="translate(60.284 135.036)"><path class="s" d="M506.069,1479.307a.46.46,0,0,1-.455-.391c-3.284-21.44-13.188-40.088-13.286-40.274a.461.461,0,1,1,.814-.436c.1.187,10.077,18.975,13.385,40.568a.462.462,0,0,1-.386.527A.618.618,0,0,1,506.069,1479.307Z" transform="translate(-492.272 -1437.962)"/></g><g transform="translate(111.959 134.259)"><path class="t" d="M548.691,1480.02a.527.527,0,0,1-.066,0,.462.462,0,0,1-.393-.522,143.2,143.2,0,0,1,13.387-42.129.462.462,0,0,1,.814.436,142.209,142.209,0,0,0-13.285,41.823A.462.462,0,0,1,548.691,1480.02Z" transform="translate(-548.228 -1437.12)"/></g></g></g><rect class="a" width="185" height="220"/></g></svg>