<svg xmlns="http://www.w3.org/2000/svg" xmlns:xlink="http://www.w3.org/1999/xlink" width="130" height="170" viewBox="0 0 130 170"><defs><style>.a{fill:none;}.b{clip-path:url(#a);}.c{fill:#ffdf47;}.d{fill:#fdd23f;}.e{fill:#f49c24;}.f{fill:#fff;}.g{fill:#d9d9d9;}</style><clipPath id="a"><rect class="a" width="130" height="170"/></clipPath></defs><g class="b"><rect class="a" width="130" height="170"/><g transform="translate(11.082 10)"><g transform="translate(0 3.148)"><path class="c" d="M826.062,1068.021a1.22,1.22,0,0,0-1.721.062,50.3,50.3,0,0,0-86.158.036,1.223,1.223,0,0,0-1.758-.1c-2.946,2.771-8.328,10.653-8.328,31.25,0,21.541,9.81,35.311,14.528,40.687a1.239,1.239,0,0,0,2.163-.934l-1.01-11.272a50.561,50.561,0,0,0,13.478,10.644c6.041,3.278,12.258,8.556,14.932,14.888,2.4,5.675,4.434,6.72,8.4,6.72,3.849,0,5.8-.639,8.208-6.071,2.838-6.4,9.145-11.77,15.377-14.963a50.538,50.538,0,0,0,14.534-11.2l-1.009,11.255a1.239,1.239,0,0,0,2.163.934c4.717-5.376,14.528-19.145,14.528-40.687C834.39,1078.674,829.008,1070.792,826.062,1068.021Z" transform="translate(-728.097 -1010.796)"/><ellipse class="d" cx="44.952" cy="46.314" rx="44.952" ry="46.314" transform="translate(8.194 13.366)"/><path class="e" d="M814.726,1020.657c-1.8-.6-1.8,1.2-6.015-2.407-3.229-2.768-19.247-10.186-25.864-10.186s-22.634,7.418-25.863,10.186c-4.21,3.609-4.21,1.8-6.015,2.407-4.909,1.635,1.2,7.217,1.2,7.217h61.352S819.634,1022.292,814.726,1020.657Z" transform="translate(-729.701 -1008.064)"/><ellipse class="c" cx="44.952" cy="46.314" rx="44.952" ry="46.314" transform="translate(8.194 7.48)"/></g><g transform="translate(44.263)"><path class="f" d="M847.527,1044.371l-2.8-41.091-47.206,2.2-13.9,26.729,16.122,22.167Z" transform="translate(-783.073 -1003.253)"/><path class="g" d="M845.259,1003.251l-.579.027,2.8,41.091-47.786,10L783.575,1032.2l-.548,1.053,15.558,24.448,35.561-6.668,1.111,3.334-3.334,5.557,7.779-4.445v-5.556l10-3.334Z" transform="translate(-783.027 -1003.251)"/><g transform="translate(20.418 7.219)"><path d="M808.661,1024.218c.138-3.85,1.064-7.319,5.08-8.856a26.3,26.3,0,0,1,9.079-1.259c2.337.005,3.074.042,4.92,1.779,2.024,1.9,1.96,2.9,1.321,5.514-.886,3.62-2.938,6.6-6.524,7.848a33.13,33.13,0,0,1-8.472,1.523c-1.922.127-3.7.581-5.052-1.117q-2.093-1.177-.288-3.2a3.941,3.941,0,0,1,2.639-3.511c4.97-2.934,12.086-4,17.734-4.074,4.28-.055,7.09,2.026,6.775,6.663-.344,5.055-4.2,6.707-8.721,7.062-2.29.18-5.831.914-8.011.289-3.139-.9-2.95-4.376-1.365-6.662,1.131-1.632,3.737-2.186,5.534-2.511a13.529,13.529,0,0,1,10.347,1.969c4.438,3.255,3.911,8.98-.842,11.528-2.721,1.457-7.684,1.88-10.435.3q-3.089-.8-.474-1.024l2.025-.309c4.027.268,3.082,4.71,1.155,6.934-1.163,1.342.79,3.31,1.96,1.96,2.166-2.5,4.135-6.731,1.851-9.838-1.8-2.453-6.373-2.344-8.907-1.143a2.916,2.916,0,0,0-1.2,4.745c2.359,3.255,8.8,2.665,12.12,1.968,8.665-1.819,11.988-11.809,4.415-17.431-5.948-4.415-20.129-4.034-21.642,5.083-.524,3.151.915,6.354,4.08,7.138,2.339.578,5.5-.02,7.887-.148,2.708-.144,5.549-.267,8.031-1.49,6.008-2.964,7.682-15.558.183-17.577-5.028-1.353-11.758.161-16.653,1.5-4.146,1.132-9.482,2.648-11.439,6.963-1.23,2.712-.708,6.2,1.927,7.889,3.624,2.328,10.4.579,14.184-.42a12.746,12.746,0,0,0,9.449-8.784c1.077-3.2,2.3-9.985-1.769-11.465-4.888-1.777-13.3-.975-17.982,1.187-4.4,2.034-5.527,6.505-5.688,10.988-.065,1.783,2.706,1.781,2.77,0Z" transform="translate(-805.137 -1011.068)"/></g></g></g></g></svg>