<svg xmlns="http://www.w3.org/2000/svg" width="130" height="230" viewBox="0 0 130 230"><defs><style>.a{fill:#ffdf47;}.b{fill:#fdd23f;}.c{fill:#f49c24;}.d{opacity:0.85;}.e{fill:#fff;}.f{opacity:0.65;}.g{fill:none;}</style></defs><g transform="translate(0.082)"><g transform="translate(11.918 10)"><path class="a" d="M364.145,1065.855a1.219,1.219,0,0,0-1.72.062,50.3,50.3,0,0,0-86.158.037,1.223,1.223,0,0,0-1.758-.1c-2.946,2.772-8.327,10.653-8.327,31.25,0,21.542,9.81,35.311,14.527,40.686a1.239,1.239,0,0,0,2.163-.933l-1.011-11.273a50.563,50.563,0,0,0,13.478,10.644c6.041,3.278,12.258,8.556,14.933,14.888,2.4,5.675,4.433,6.72,8.4,6.72,3.849,0,5.8-.639,8.208-6.071,2.838-6.4,9.145-11.77,15.377-14.962a50.556,50.556,0,0,0,14.534-11.2l-1.009,11.256a1.239,1.239,0,0,0,2.163.933c4.718-5.376,14.528-19.145,14.528-40.686C372.473,1076.508,367.091,1068.627,364.145,1065.855Z" transform="translate(-266.181 -1006.185)"/><ellipse class="b" cx="44.952" cy="46.314" rx="44.952" ry="46.314" transform="translate(8.194 15.81)"/><path class="c" d="M352.809,1018.288c-1.8-.6-1.8,1.2-6.015-2.407-3.229-2.768-19.247-12.631-25.863-12.631s-22.635,9.863-25.864,12.631c-4.21,3.609-4.21,1.8-6.015,2.407-4.908,1.635,1.2,7.217,1.2,7.217h61.351S357.718,1019.924,352.809,1018.288Z" transform="translate(-267.785 -1003.251)"/><ellipse class="a" cx="44.952" cy="46.314" rx="44.952" ry="46.314" transform="translate(8.194 9.924)"/><g class="d" transform="translate(21.639 154.225)"><path class="e" d="M294.025,1171.037a31.077,31.077,0,0,0,12.381,6.935,50.948,50.948,0,0,0,29.034,0,31.074,31.074,0,0,0,12.38-6.935l.068-.066a2.564,2.564,0,0,1,3.877,3.322,25.9,25.9,0,0,1-6.353,6.162,36.024,36.024,0,0,1-7.7,4.016,48.477,48.477,0,0,1-33.58,0,36.046,36.046,0,0,1-7.7-4.016,25.908,25.908,0,0,1-6.352-6.162,2.564,2.564,0,0,1,3.876-3.323Z" transform="translate(-289.613 -1170.253)"/></g><g class="f" transform="translate(8.258 167.938)"><path class="e" d="M279.6,1185.868c5.212,4.882,11.79,8.135,18.693,10.251a77.117,77.117,0,0,0,43.038-.024c6.9-2.12,13.474-5.36,18.7-10.227l.062-.057a2.622,2.622,0,0,1,3.964,3.381,36.014,36.014,0,0,1-8.924,8.927A50.98,50.98,0,0,1,344.094,1204a68.967,68.967,0,0,1-48.55-.024,50.952,50.952,0,0,1-11.035-5.874,36.143,36.143,0,0,1-8.937-8.908,2.622,2.622,0,0,1,3.963-3.384Z" transform="translate(-275.123 -1185.101)"/></g></g><rect class="g" width="130" height="230" transform="translate(-0.082)"/></g></svg>