<svg xmlns="http://www.w3.org/2000/svg" width="130" height="230" viewBox="0 0 130 230"><defs><style>.a{fill:#ffdf47;}.b{fill:#fdd23f;}.c{fill:#f49c24;}.d{opacity:0.85;}.e{fill:#fff;}.f{fill:none;}</style></defs><g transform="translate(12 10)"><g transform="translate(0)"><path class="a" d="M164.366,1065.855a1.219,1.219,0,0,0-1.72.062,50.3,50.3,0,0,0-86.158.037,1.222,1.222,0,0,0-1.758-.1c-2.946,2.772-8.327,10.653-8.327,31.25,0,21.542,9.81,35.311,14.528,40.686a1.239,1.239,0,0,0,2.163-.933l-1.01-11.273A50.574,50.574,0,0,0,95.56,1136.23c6.042,3.278,12.258,8.556,14.933,14.888,2.4,5.675,4.433,6.72,8.4,6.72,3.848,0,5.8-.639,8.208-6.071,2.837-6.4,9.145-11.77,15.376-14.962a50.556,50.556,0,0,0,14.534-11.2L156,1136.859a1.239,1.239,0,0,0,2.163.933c4.717-5.376,14.527-19.145,14.527-40.686C172.694,1076.508,167.312,1068.627,164.366,1065.855Z" transform="translate(-66.402 -1006.185)"/><ellipse class="b" cx="44.952" cy="46.314" rx="44.952" ry="46.314" transform="translate(8.194 15.81)"/><path class="c" d="M153.03,1018.288c-1.8-.6-1.8,1.2-6.015-2.407-3.229-2.768-19.247-12.631-25.863-12.631s-22.635,9.863-25.864,12.631c-4.21,3.609-4.21,1.8-6.015,2.407-4.908,1.635,1.2,7.217,1.2,7.217h61.352S157.939,1019.924,153.03,1018.288Z" transform="translate(-68.006 -1003.251)"/><ellipse class="a" cx="44.952" cy="46.314" rx="44.952" ry="46.314" transform="translate(8.194 9.924)"/></g><g class="d" transform="translate(21.639 154.225)"><path class="e" d="M94.246,1171.037a31.078,31.078,0,0,0,12.381,6.935,50.949,50.949,0,0,0,29.034,0,31.077,31.077,0,0,0,12.381-6.935l.067-.066a2.564,2.564,0,0,1,3.877,3.322,25.9,25.9,0,0,1-6.353,6.162,36.024,36.024,0,0,1-7.7,4.016,48.474,48.474,0,0,1-33.579,0,36.031,36.031,0,0,1-7.7-4.016,25.907,25.907,0,0,1-6.352-6.162,2.565,2.565,0,0,1,3.877-3.323Z" transform="translate(-89.834 -1170.253)"/></g></g><rect class="f" width="130" height="230" transform="translate(0)"/></svg>