<svg xmlns="http://www.w3.org/2000/svg" xmlns:xlink="http://www.w3.org/1999/xlink" width="130" height="230" viewBox="0 0 130 230"><defs><style>.a{fill:none;}.b{clip-path:url(#a);}.c{fill:#ffdf47;}.d{fill:#fdd23f;}.e{fill:#f49c24;}.f{opacity:0.85;}.g{fill:#fff;}.h{opacity:0.65;}.i{opacity:0.5;}</style><clipPath id="a"><rect class="a" width="130" height="230"/></clipPath></defs><g class="b"><g transform="translate(7 10)"><g transform="translate(5.139)"><path class="c" d="M564.675,1065.763a1.233,1.233,0,0,0-1.73.062,50.82,50.82,0,0,0-86.632.037,1.237,1.237,0,0,0-1.768-.1c-2.962,2.762-8.373,10.613-8.373,31.132,0,21.46,9.864,35.177,14.607,40.533a1.246,1.246,0,0,0,2.175-.929l-1.017-11.23a50.769,50.769,0,0,0,13.552,10.6c6.074,3.266,12.326,8.524,15.015,14.831,2.41,5.653,4.457,6.7,8.447,6.7,3.87,0,5.832-.637,8.253-6.048,2.854-6.376,9.2-11.725,15.462-14.906a50.778,50.778,0,0,0,14.614-11.16l-1.015,11.214a1.246,1.246,0,0,0,2.175.929c4.744-5.355,14.607-19.073,14.607-40.533C573.048,1076.376,567.637,1068.525,564.675,1065.763Z" transform="translate(-466.172 -1006.319)"/><ellipse class="d" cx="45.199" cy="46.139" rx="45.199" ry="46.139" transform="translate(8.239 15.75)"/><path class="e" d="M553.161,1018.231c-1.814-.6-1.814,1.2-6.048-2.4-3.247-2.757-19.353-12.583-26.006-12.583s-22.759,9.826-26.007,12.583c-4.233,3.6-4.233,1.8-6.048,2.4-4.935,1.629,1.21,7.19,1.21,7.19h61.688S558.1,1019.861,553.161,1018.231Z" transform="translate(-467.669 -1003.251)"/><ellipse class="c" cx="45.199" cy="46.139" rx="45.199" ry="46.139" transform="translate(8.239 9.887)"/></g><g class="f" transform="translate(26.898 153.641)"><path class="g" d="M494.041,1171.034a31.327,31.327,0,0,0,12.449,6.909,51.685,51.685,0,0,0,29.193,0,31.324,31.324,0,0,0,12.448-6.909l.069-.065a2.6,2.6,0,0,1,3.645.064,2.538,2.538,0,0,1,.253,3.245,25.931,25.931,0,0,1-6.388,6.139,36.345,36.345,0,0,1-7.742,4,49.17,49.17,0,0,1-33.765,0,36.365,36.365,0,0,1-7.742-4,25.944,25.944,0,0,1-6.387-6.139,2.539,2.539,0,0,1,.623-3.559,2.6,2.6,0,0,1,3.274.249Z" transform="translate(-489.604 -1170.253)"/></g><g class="h" transform="translate(13.442 167.302)"><path class="g" d="M479.614,1185.865c5.241,4.863,11.855,8.1,18.8,10.212a78.234,78.234,0,0,0,43.274-.024c6.937-2.113,13.548-5.34,18.8-10.188l.062-.057a2.654,2.654,0,0,1,3.726.131,2.6,2.6,0,0,1,.259,3.237,36.046,36.046,0,0,1-8.973,8.894,51.4,51.4,0,0,1-11.1,5.857,69.951,69.951,0,0,1-48.817-.024,51.388,51.388,0,0,1-11.1-5.852,36.178,36.178,0,0,1-8.986-8.874,2.6,2.6,0,0,1,.708-3.627,2.656,2.656,0,0,1,3.277.256Z" transform="translate(-475.114 -1185.101)"/></g><g class="i" transform="translate(0 185.368)"><path class="g" d="M465.171,1205.544c6.842,6.74,15.676,11.237,24.934,14.15a100.93,100.93,0,0,0,57.816-.024c9.253-2.917,18.085-7.4,24.942-14.126l.048-.046a2.649,2.649,0,0,1,3.721.018,2.591,2.591,0,0,1,.279,3.339,47.714,47.714,0,0,1-11.776,11.265,67.845,67.845,0,0,1-14.436,7.423,92.814,92.814,0,0,1-63.356-.024,67.85,67.85,0,0,1-14.433-7.419,47.843,47.843,0,0,1-11.787-11.245,2.592,2.592,0,0,1,.621-3.635,2.65,2.65,0,0,1,3.378.276Z" transform="translate(-460.637 -1204.738)"/></g></g><rect class="a" width="130" height="230"/></g></svg>