<svg xmlns="http://www.w3.org/2000/svg" xmlns:xlink="http://www.w3.org/1999/xlink" width="200" height="200" viewBox="0 0 200 200"><defs><style>.a,.h,.i{fill:none;}.b{clip-path:url(#a);}.c{fill:#c1272d;}.d{fill:#fff;}.e{fill:#fed829;}.f{fill:#f7931e;}.g{fill:#cf7a19;}.h,.i{stroke:#fff;stroke-linecap:round;stroke-linejoin:round;opacity:0.5;}.h{stroke-width:3.522px;}.i{stroke-width:2.686px;}</style><clipPath id="a"><rect class="a" width="200" height="200"/></clipPath></defs><g class="b"><g transform="translate(10 10)"><path d="M466.651,1931.7l-3.529-16.011-55.157-.888-3.643,16.936a4.177,4.177,0,0,0-.322,1.5c0,6.1,14.1,11.05,31.495,11.05s31.495-4.946,31.495-11.05A4.176,4.176,0,0,0,466.651,1931.7Z" transform="translate(-393.317 -1770.342)"/><ellipse class="c" cx="27.627" cy="11.051" rx="27.627" ry="11.051" transform="translate(14.551 134.293)"/><g transform="translate(38.918)"><path class="d" d="M421.038,1972.369l27.627-143.843c.345-1.8,6.856-.547,6.509,1.25l-27.336,142.977C427.536,1974.341,420.84,1973.839,421.038,1972.369Z" transform="translate(-421.033 -1827.651)"/></g><g transform="translate(55.278 2.128)"><path class="e" d="M448.923,1828.264c37.665,2.177,71.787,21.647,110.039,15.716q-6.926,40.427-14.139,80.809c-37.912-2.326-72.025-22.306-110.567-16.737Q441.434,1868.131,448.923,1828.264Z" transform="translate(-434.255 -1828.264)"/><g transform="translate(23.321 20.475)"><g transform="translate(0 19.348)"><path class="f" d="M443.977,1846.632s2.592,10.643,33.189,20.082,36.349-2.326,36.349-2.326C485.7,1860.094,471.791,1850.566,443.977,1846.632Z" transform="translate(-440.402 -1835.641)"/><path class="f" d="M445.233,1848.521c3.953,3.981,12.289,9.48,29.715,14.856,17.609,5.433,26.979,3.845,31.767,1.453-6.554-2.045-18.463-6.521-30.539-10.253C463.55,1850.673,451.391,1848.814,445.233,1848.521Z" transform="translate(-438.183 -1832.304)"/><path class="g" d="M513.515,1864.388c-27.814-4.294-41.724-13.822-69.538-17.756,0,0,.487,2.219,3.475,5.226,6.158.293,18.317,2.152,30.943,6.056,12.076,3.732,23.985,8.208,30.539,10.253C512.469,1866.4,513.515,1864.388,513.515,1864.388Z" transform="translate(-440.402 -1835.641)"/><path class="f" d="M518.935,1864.636c-4.534-3.851-12.535,3.361-18.876-5.793-5.561-8.028-8.728-12.922-16.4-15.287s-11.888.2-19.2,4.783c-8.344,5.231-13.99-4.642-19.4-2.061-3.6,1.72-2.352,4.905-1.076,6.85a4.458,4.458,0,0,0,3.087,1.95c13.514,2.014,20.273,4.418,33.79,8.6s20.273,6.634,33.787,8.859a4.208,4.208,0,0,0,3.5-1.016C519.9,1869.956,521.953,1867.2,518.935,1864.636Z" transform="translate(-442.685 -1842.659)"/></g><g transform="translate(9.604)"><path d="M459.094,1843.85c-.487,3.489-3.762,5.527-7.317,4.7a7.156,7.156,0,0,1-5.561-7.751,5.854,5.854,0,0,1,7.317-4.947A7.478,7.478,0,0,1,459.094,1843.85Z" transform="translate(-446.156 -1835.665)"/><path d="M477.713,1848.493a6.122,6.122,0,0,1-7.317,5.259,7.179,7.179,0,0,1-5.561-7.815,5.982,5.982,0,0,1,7.317-4.949A6.8,6.8,0,0,1,477.713,1848.493Z" transform="translate(-413.266 -1826.491)"/></g></g></g><path class="h" d="M403.832,1921.667c-.522.869-11.108,3.892-3.589,12.634,9.962,11.582,32.11,10.888,36.718,10.664" transform="translate(-397.555 -1765.825)"/><path class="i" d="M457.378,1926.6c.013,10.022-21.857,13.4-24.478,14.24" transform="translate(-374.312 -1762.578)"/></g><rect class="a" width="200" height="200"/></g></svg>