<svg xmlns="http://www.w3.org/2000/svg" xmlns:xlink="http://www.w3.org/1999/xlink" width="190" height="155" viewBox="0 0 190 155"><defs><style>.a,.f{fill:none;}.b{clip-path:url(#a);}.c{fill:#ccc;}.d{fill:#b0b0b0;}.e{fill:#ade6ff;opacity:0.85;}.f{opacity:0.6;}.g{fill:#f5d8ba;}.h{fill:#f5d84e;}.i{fill:#c27317;opacity:0.36;}.j{fill:#f7931e;}.k{fill:#fff;}</style><clipPath id="a"><rect class="a" width="190" height="155"/></clipPath></defs><g transform="translate(0 -3)"><g class="b" transform="translate(0 3)"><rect class="c" width="207.35" height="158.407" transform="translate(-5.95 -1.173)"/><path class="d" d="M491.73,1843.454l-207.35,34.105v-73.2H491.73Z" transform="translate(-290.33 -1805.535)"/><path class="e" d="M494.179,2022.63c-6.452,0-6.452,2.083-12.905,2.083s-6.452-2.083-12.905-2.083-6.452,2.083-12.9,2.083-6.452-2.083-12.9-2.083-6.452,2.083-12.9,2.083-6.452-2.083-12.9-2.083-6.452,2.083-12.9,2.083-6.452-2.083-12.9-2.083-6.452,2.083-12.9,2.083-6.452-2.083-12.9-2.083-6.451,2.083-12.9,2.083-6.451-2.083-12.9-2.083-6.451,2.083-12.9,2.083-6.452-2.083-12.9-2.083-6.451,2.083-12.9,2.083-6.452-2.083-12.9-2.083v-60.423c6.452,0,6.452,2.083,12.9,2.083s6.451-2.083,12.9-2.083,6.451,2.083,12.9,2.083,6.451-2.083,12.9-2.083,6.452,2.083,12.9,2.083,6.452-2.083,12.9-2.083,6.452,2.083,12.9,2.083,6.452-2.083,12.9-2.083,6.452,2.083,12.9,2.083,6.452-2.083,12.9-2.083,6.452,2.083,12.9,2.083,6.452-2.083,12.9-2.083,6.452,2.083,12.9,2.083,6.452-2.083,12.9-2.083,6.453,2.083,12.905,2.083,6.453-2.083,12.905-2.083Z" transform="translate(-291.555 -1861.438)"/><ellipse class="f" cx="12.219" cy="4.844" rx="12.219" ry="4.844" transform="translate(49.402 110.861)"/><ellipse class="f" cx="13.932" cy="6.868" rx="13.932" ry="6.868" transform="translate(47.203 109.569)"/><path class="g" d="M513.21,1786.787s-11.741,14.529-14.358,14.7-8.578.551-12.067,3.013-16.138,9.746-16.574,10.545-6.688,3.849-7.124,5.7-1.89,1.724-2.617,3.712,1.454,6.629,6.252,4.905,9.741-6.231,11.776-6.231,4.758-.928,4.705.53.384,7.823-.78,9.413-8.577,16.358-9.45,17.194-3.344,4.993-3.489,6.892.291,6.766,5.525,4,13.124-17.482,13.686-18.277,2.888-1.458,2.888-.4-8.672,26.208-8.308,28.16,6.564,2.838,7.582,0,6.251-17.554,6.833-18.085,2.963-6,2.963-6-.346,10.977-1.074,13.294a64.784,64.784,0,0,0-1.745,10.129c0,1.273,5.525,3.137,6.542-1.11s4.943-17.257,5.234-18.242,1.018-9.333,1.745-9.4,1.436-.864,1.954,2.98.936,8.613,0,10.14-1.3,5.77.556,6.168,4.032.132,5.05-2.519a36.921,36.921,0,0,0,2.1-7.73c.229-1.948,1.246-10.7,1.683-13.747s1.514-17.367,2.356-19.489,21.2-23.186,21.2-23.186Z" transform="translate(-354.846 -1799.31)"/><g transform="translate(15.695 84.995)"><ellipse class="h" cx="9.236" cy="9.418" rx="9.236" ry="9.418" transform="translate(33.707 3.047)"/><path class="h" d="M397.745,1961.187c2.01,4.781-3.438,18.083-14,17.2-6.972-.584-12.183-4.24-12.667-9.418-.774-8.281,5.671-9.419,12.667-9.419S394.306,1953.007,397.745,1961.187Z" transform="translate(-337.79 -1944.614)"/><path class="i" d="M394.945,1980.574s.322,3.444,2.976,3.086,5.328-3.66,5.328-3.66-3.073,5.453-6.04,4.952S394.03,1980.789,394.945,1980.574Z" transform="translate(-346.389 -1952.734)"/><path class="i" d="M385.243,1968.674s-4.08,1.93-7.106,1.826-5.329-4.47-5.329-4.47l1.022-1.192S376.234,1970.9,385.243,1968.674Z" transform="translate(-338.448 -1947.364)"/><path class="j" d="M369.707,1960.833a27.305,27.305,0,0,1-2.879,1.04c-.915.216-1.759.364-1.337,1.546s2.49,2.236,3.788,2.536c1.457.338,3.941.006,4.727-.637.712-.583.343-1.879-.9-1.444C372.811,1963.978,369.707,1960.833,369.707,1960.833Z" transform="translate(-335.724 -1945.946)"/><ellipse cx="1.953" cy="1.991" rx="1.953" ry="1.991" transform="translate(38.07 12.788)"/><path class="k" d="M416.63,1961.885s22.2-16.49,15.268-22.968C426.459,1933.833,428.687,1946.605,416.63,1961.885Z" transform="translate(-354.516 -1937.782)"/><path class="k" d="M420,1974.226a.208.208,0,0,0,.158.382c5.034-1.646,18.222-5.945,17.26-10.677C435.935,1956.637,430.088,1968.661,420,1974.226Z" transform="translate(-355.713 -1946.234)"/><path class="k" d="M329.262,1960.683a25.093,25.093,0,0,1,7.274.16c6.3.994,7.622,7.505,10.856,11.937-4.769-6.812-12.127-10.628-17.436-6.812-6.615,4.754-11.4,6.405-11.4,2.422,0-3.263,3.511-5.357,6.077-6.452A17.874,17.874,0,0,1,329.262,1960.683Z" transform="translate(-318.556 -1945.824)"/><path class="k" d="M451.889,1968.832s16.246-14.411,22.518-6.145c3.519,4.636-2.146,1.627-8.867,2.106C460.971,1965.119,451.889,1968.832,451.889,1968.832Z" transform="translate(-367.445 -1945.697)"/></g><g transform="translate(16.526 57.299)"><path class="k" d="M376.293,1909.122c-.023-3.37-.66-7.026-2.79-9.715a10.868,10.868,0,0,0-5.854-3.5c-4.915-1.3-10.05-1.119-15.059-.7q-6.17.513-12.37.411c-3.577-.059-7.2-.269-10.687.568s-6.881,2.918-8.361,6.239c-1.5,3.372-1.4,7.946-1.168,11.577.358,5.564,5.079,7.763,9.866,8.682a59.4,59.4,0,0,0,7.478.927,8.88,8.88,0,0,0,1.339,3.645,7.264,7.264,0,0,0,3.855,2.328.4.4,0,0,0,.45-.584,12.507,12.507,0,0,1-1.2-2.447,4.262,4.262,0,0,1,.149-2.794,164.078,164.078,0,0,0,19.583-1.513q4.35-.517,8.686-1.154a8.867,8.867,0,0,0,2.968-.8C376.448,1918.528,376.315,1912.318,376.293,1909.122Z" transform="translate(-319.869 -1894.898)"/><ellipse cx="3.378" cy="3.444" rx="3.378" ry="3.444" transform="translate(12.833 11.153)"/><ellipse cx="3.378" cy="3.444" rx="3.378" ry="3.444" transform="translate(23.837 11.153)"/><ellipse cx="3.378" cy="3.444" rx="3.378" ry="3.444" transform="translate(34.841 11.153)"/></g></g></g></svg>