<svg xmlns="http://www.w3.org/2000/svg" xmlns:xlink="http://www.w3.org/1999/xlink" width="190" height="155" viewBox="0 0 190 155"><defs><style>.a{fill:none;}.b{clip-path:url(#a);}.c{fill:#fff5c4;}.d{fill:#ade6ff;opacity:0.85;}.e{fill:#f5d84e;}.f{fill:#b6e3cf;}.g{fill:#f2f2f2;}.h{fill:#fff;}.i{fill:#ccc;}.j{fill:#b3b3b3;}.k{fill:#809d87;}.l{fill:#9e9da1;}.m{fill:#f7931e;}.n{fill:#cf7a19;}</style><clipPath id="a"><rect class="a" width="190" height="155"/></clipPath></defs><g class="b"><rect class="c" width="203.22" height="39.542" transform="translate(-7.995 -4.566)"/><path class="d" d="M-146.988,1976.581c-6.453,0-6.453,4.678-12.905,4.678s-6.453-4.678-12.906-4.678-6.452,4.678-12.9,4.678-6.452-4.678-12.9-4.678-6.452,4.678-12.9,4.678-6.452-4.678-12.9-4.678-6.452,4.678-12.9,4.678-6.452-4.678-12.9-4.678-6.452,4.678-12.9,4.678-6.452-4.678-12.9-4.678-6.452,4.678-12.9,4.678-6.451-4.678-12.9-4.678-6.452,4.678-12.9,4.678-6.451-4.678-12.9-4.678-6.451,4.678-12.9,4.678-6.452-4.678-12.9-4.678V1840.875c6.452,0,6.452,4.678,12.9,4.678s6.451-4.678,12.9-4.678,6.452,4.678,12.9,4.678,6.451-4.678,12.9-4.678,6.451,4.678,12.9,4.678,6.452-4.678,12.9-4.678,6.452,4.678,12.9,4.678,6.452-4.678,12.9-4.678,6.452,4.678,12.9,4.678,6.452-4.678,12.9-4.678,6.452,4.678,12.9,4.678,6.452-4.678,12.9-4.678,6.452,4.678,12.9,4.678,6.452-4.678,12.9-4.678,6.453,4.678,12.906,4.678,6.452-4.678,12.905-4.678Z" transform="translate(342.213 -1818.466)"/><path class="e" d="M-183.048,1890.637s-9.48-4.134-9.444-9.175c.13-17.906.927-37.524-16.089-48.285-13-8.219-30.339-7.663-43.678-.585a42.747,42.747,0,0,0-8.321,5.747c-18.6,16.485-16.424,58.395,11.252,63.437C-233.76,1904.612-183.048,1890.637-183.048,1890.637Z" transform="translate(312.597 -1813.605)"/><ellipse class="e" cx="55.098" cy="37.024" rx="55.098" ry="37.024" transform="translate(53.352 73.606)"/><g transform="translate(-16.532 88.227)"><g transform="translate(0 0)"><path class="f" d="M.2.028,30.92-.008l-.25,209.455-30.722.036Z" transform="translate(212.315 26.688) rotate(93.475)"/><path class="g" d="M.2.013,14.162,0l-.25,209.455-13.965.016Z" transform="translate(213.13 12.748) rotate(93.475)"/><path class="h" d="M.2.021,23.1-.006l-.25,209.455-22.9.027Z" transform="translate(210.482 57.356) rotate(93.475)"/><path class="i" d="M.2,0,3.27,0,3.02,209.454l-3.072,0Z" transform="translate(213.12 12.747) rotate(93.475)"/><path class="j" d="M.2,0,1.873,0l-.25,209.455-1.676,0Z" transform="translate(213.118 12.747) rotate(93.475)"/></g><g transform="translate(134.125 8.198)"><g transform="translate(0 0)"><path class="k" d="M0,.028,30.723-.008l0,1.644L0,1.672Z" transform="translate(4.877 14.042) rotate(93.475)"/><path class="l" d="M0,.013,13.966,0l0,1.644L0,1.656Z" transform="translate(5.692 0.101) rotate(93.475)"/><path class="l" d="M0,.021,22.9-.006l0,1.644L0,1.665Z" transform="translate(3.044 44.709) rotate(93.475)"/></g></g><g transform="translate(50.902 3.045)"><g transform="translate(0 0)"><path class="k" d="M0,.028,30.723-.008l0,1.644L0,1.672Z" transform="translate(4.877 14.042) rotate(93.475)"/><path class="l" d="M0,.013,13.966,0l0,1.644L0,1.656Z" transform="translate(5.692 0.101) rotate(93.475)"/><path class="l" d="M0,.021,22.9-.006l0,1.644L0,1.665Z" transform="translate(3.044 44.709) rotate(93.475)"/></g></g></g><path class="e" d="M-149.695,1932.234a12.606,12.606,0,0,0-11.187,4.489c-3.362,3.991-7.893,9.977-8.96,14.371-1.745,7.189,16.287,9.659,27.047,4.1s11.828-11.921,11.828-11.921S-138.155,1933.711-149.695,1932.234Z" transform="translate(274.935 -1850.788)"/><path class="e" d="M-253.023,1931.193c-5.874-1.8-12.074,1.578-14.929,7.991-1.559,3.5-3.06,7.568-3.221,10.526-.346,6.356,13.062,5.493,20.16-.964a23.274,23.274,0,0,0,6.192-8.422,4.833,4.833,0,0,0-1.332-5.507A22.23,22.23,0,0,0-253.023,1931.193Z" transform="translate(312.049 -1850.283)"/><g transform="translate(55.838 50.118)"><g transform="translate(0 10.9)"><path class="m" d="M-242.773,1921.721s3.853,6.923,22.961,3.562,20.465-11.2,20.465-11.2Z" transform="translate(245.795 -1905.413)"/><path class="m" d="M-237.947,1926c3.093,1.578,9.022,3,19.9,1.086,11-1.933,16.108-5.349,18.471-7.9a176.977,176.977,0,0,0-19.442,2.161A161.3,161.3,0,0,0-237.947,1926Z" transform="translate(244.025 -1907.221)"/><path class="n" d="M-199.347,1914.085l-43.426,7.636a7.365,7.365,0,0,0,3.056,2.476,161.3,161.3,0,0,1,18.934-4.654,177.007,177.007,0,0,1,19.442-2.161A7.434,7.434,0,0,0-199.347,1914.085Z" transform="translate(245.795 -1905.413)"/><path class="m" d="M-200.5,1904.584c-3.454-1.508-6.786,4.737-12.161.867-4.714-3.393-7.438-5.448-12.226-4.605s-6.68,3.708-10.007,8.515c-3.794,5.481-8.984.735-11.743,3.336-1.837,1.731-.487,3.426.65,4.381a2.709,2.709,0,0,0,2.219.6l21.1-3.71,21.1-3.71a2.749,2.749,0,0,0,1.894-1.322C-198.919,1907.646-198.2,1905.589-200.5,1904.584Z" transform="translate(247.544 -1900.658)"/></g><g transform="translate(1.797)"><ellipse cx="4.08" cy="4.161" rx="4.08" ry="4.161" transform="translate(0 5.656)"/><ellipse cx="4.08" cy="4.161" rx="4.08" ry="4.161" transform="translate(32.167)"/></g></g><path class="h" d="M-138.7,1865.868s11.5,4.264,10.454,10.02S-138.7,1865.868-138.7,1865.868Z" transform="translate(263.474 -1827.318)"/><path class="h" d="M-135.522,1883.34s8.976,8.48,5.822,13.371S-135.522,1883.34-135.522,1883.34Z" transform="translate(262.308 -1833.506)"/></g></svg>