<svg xmlns="http://www.w3.org/2000/svg" xmlns:xlink="http://www.w3.org/1999/xlink" width="190" height="155" viewBox="0 0 190 155"><defs><style>.a{fill:none;}.b{clip-path:url(#a);}.c{fill:#ccc;}.d{fill:#f5d84e;}.e{fill:#db831b;}.f{fill:#f7931e;}.g{fill:#cf7a19;}.h{fill:#c27317;}.i{opacity:0.28;}.j{fill:#c1272d;}</style><clipPath id="a"><rect class="a" width="190" height="155"/></clipPath></defs><g transform="translate(0 -3)"><g class="b" transform="translate(0 3)"><rect class="c" width="190" height="155"/><g transform="translate(11.603 19.07)"><path class="d" d="M20.882,1971.636s-44.856-72-4.63-114.344a69.751,69.751,0,0,1,64.288-20.24c15.349,3.018,30.717,10.833,39.465,24.584,8.153,12.816,8.257,29.159,7.137,43.884-.654,8.6-7.72,33.9.984,39.863,6.846,4.688,26.013,26.253,26.013,26.253Z" transform="translate(0.5 -1835.706)"/><g transform="translate(37.538 21.196)"><path class="e" d="M87.232,1958.9s1.2,3.71,15.591,3.6,45.742-6.6,45.742-6.6-26.041-4.169-39.232-1.549S87.232,1958.9,87.232,1958.9Z" transform="translate(-69.207 -1898.616)"/><path class="f" d="M76.346,1947.312s-.039,4.8,2.712,3.313,27.581-5.94,42.694-5.066,33.061-.18,37.728-8.735a33.522,33.522,0,0,0,4.311-16.054S88.125,1940.505,76.346,1947.312Z" transform="translate(-65.215 -1887.029)"/><ellipse cx="7.959" cy="8.116" rx="7.959" ry="8.116" transform="translate(0 15.65)"/><ellipse cx="6.008" cy="6.126" rx="6.008" ry="6.126" transform="translate(53.132)"/><path class="f" d="M73.911,1931.234s73.882-23.6,86.731-25.859c3.068-.541,11.092-40.078-27.091-27.553s-43.965,41.351-52.124,41.613S64.193,1925.125,73.911,1931.234Z" transform="translate(-62.78 -1870.95)"/><path class="g" d="M156.319,1892.739c-28.284,1.521-53.548,39.342-53.548,39.342s37.551-11.288,47.889-14.658c8.9-2.9,20.414-5.566,20.414-5.566S173.36,1891.823,156.319,1892.739Z" transform="translate(-74.905 -1877.091)"/><path class="h" d="M102.771,1942.582s44.3-2.4,54.062-5.719,14.24-14.5,14.24-14.5S141.222,1928.211,102.771,1942.582Z" transform="translate(-74.905 -1887.591)"/></g></g><g class="i" transform="translate(21.958 19.076)"><path class="h" d="M54.164,1900.052c9.7,20.738,25.942,35.377,28.65,45.136s10.89,26.451,10.89,26.451h66.43s-19.167-21.566-26.013-26.253c-7.179-4.917-3.63-22.988-1.8-34a12.228,12.228,0,0,0,4.975-4.689,33.521,33.521,0,0,0,4.311-16.054c2.835-4.549,6.515-30.232-15.795-29.29a52.056,52.056,0,0,0-20.125-17.718c1.893,4.057,4.215,8.293,5.749,11.421,2.737,5.583-18.154-10.434-31.8-19.01a70.68,70.68,0,0,0-22.485,1.41c8.727,5.164,33.637,20.315,34.572,25.573.9,5.083-30.555-14.12-45.506-22.128a68.973,68.973,0,0,0-12.887,6.948c14.442,8.574,43.708,26.651,41.794,31.253-1.967,4.731-34-16.535-48.216-26.278q-2.415,2.111-4.663,4.469a59.656,59.656,0,0,0-6.4,8C26.664,1871.6,47.15,1885.06,54.164,1900.052Z" transform="translate(-15.849 -1835.714)"/></g><g transform="translate(147.397 12.912)"><path class="j" d="M228.436,1828.555a2.4,2.4,0,0,0-3.932-1.347,96.9,96.9,0,0,1-3.618,12.039,1.176,1.176,0,0,0-.788.976,10.883,10.883,0,0,0,.709,6.568c.462,1.117,1.936.832,2.466-.035a1.18,1.18,0,0,0,.707-.684,151.431,151.431,0,0,0,6.031-15.752A1.372,1.372,0,0,0,228.436,1828.555Z" transform="translate(-216.1 -1826.17)"/><path class="j" d="M218.857,1867.234h0a3.017,3.017,0,0,0,.313-1.5c-.017-.441-.4-1.17-.318-1.588a1.5,1.5,0,0,0-.989-1.786,1.443,1.443,0,0,0-1.048.125c.022-.157.032-.315.068-.47.412-1.814-2.327-2.6-2.741-.778a8.4,8.4,0,0,0-.029,3.791,5.012,5.012,0,0,0,1.818,3.156,1.94,1.94,0,0,0,.7.247,1.327,1.327,0,0,0,.8.269,1.445,1.445,0,0,0,1.426-1.448Z" transform="translate(-213.91 -1838.222)"/></g></g></g></svg>