<svg xmlns="http://www.w3.org/2000/svg" xmlns:xlink="http://www.w3.org/1999/xlink" width="1200" height="900" viewBox="0 0 1200 900"><defs><style>.a,.w{fill:none;}.b{clip-path:url(#a);}.c{fill:#392f2f;}.d{fill:#d6c46d;}.d,.e,.f,.g,.h{stroke:#b3b3b3;stroke-width:2px;}.d,.e,.f,.g,.h,.w{stroke-miterlimit:10;}.e{fill:#ba7171;}.f{fill:#83c0c4;}.g{fill:#95b890;}.h,.m,.r{fill:#fff;}.i{clip-path:url(#b);}.j{clip-path:url(#c);}.k{fill:#b6e3cf;}.l{fill:#f2f2f2;}.n{fill:#fafafa;}.o{fill:#ccc;}.p{fill:#e6e6e6;}.q{fill:#b3b3b3;}.r{opacity:0.4;}.s{fill:#809d87;}.t{fill:#9e9da1;}.u{fill:#ade6ff;}.u,.v{opacity:0.5;}.v{fill:#96dfff;}.w{stroke:#fff;stroke-width:5px;}</style><clipPath id="a"><rect class="a" width="1200" height="900"/></clipPath><clipPath id="b"><rect class="a" width="1028.828" height="72"/></clipPath><clipPath id="c"><rect class="a" width="1028.828" height="38"/></clipPath></defs><g class="b"><rect class="c" width="1200" height="900"/><g transform="translate(80 -1.179)"><path class="d" d="M256.409,700.893l-3.182,14.719a22.944,22.944,0,0,0,29.44,26.7h0a22.945,22.945,0,0,0,8.4-38.844l-11.156-10.115A14.25,14.25,0,0,0,256.409,700.893Z" transform="translate(-80.26 150.846)"/><path class="d" d="M911.1,445.271l-4.538,21.711a22.944,22.944,0,0,0,29.623,26.491l6.765-2.223a22.945,22.945,0,0,0,8.13-38.9l-16.533-14.785A14.25,14.25,0,0,0,911.1,445.271Z" transform="translate(-80.374 94.963)"/><path class="d" d="M949.744,352.286l-10.633,19.466a22.945,22.945,0,0,0,20.679,33.937l7.119-.169a22.944,22.944,0,0,0,19.051-34.877L974.419,351.7A14.25,14.25,0,0,0,949.744,352.286Z" transform="translate(-80.402 75.484)"/><path class="d" d="M1039.758,339.189l20.364,8.787A22.945,22.945,0,0,0,1092,324.249l-.826-7.073a22.945,22.945,0,0,0-36.489-15.745L1036.9,314.673A14.251,14.251,0,0,0,1039.758,339.189Z" transform="translate(-80.402 64.25)"/><path class="d" d="M925.063,190.362l13.023-17.953a22.945,22.945,0,0,0-16.193-36.293l-7.082-.739a22.944,22.944,0,0,0-23.334,32.169l9.037,20.256A14.251,14.251,0,0,0,925.063,190.362Z" transform="translate(-80.371 29.61)"/><path class="d" d="M1050.883,117.4l19.642-10.3a22.944,22.944,0,0,0,1.608-39.708l-6.017-3.807a22.945,22.945,0,0,0-35.193,18.461l-.9,22.162A14.25,14.25,0,0,0,1050.883,117.4Z" transform="translate(-80.402 0)"/><path class="d" d="M973.1,532.271l-4.538,21.711a22.944,22.944,0,0,0,29.623,26.491l6.765-2.223a22.945,22.945,0,0,0,8.13-38.9l-16.533-14.785A14.25,14.25,0,0,0,973.1,532.271Z" transform="translate(-80.402 114.002)"/><path class="d" d="M932.867,658.031l-4.538,21.71a22.945,22.945,0,0,0,29.624,26.492l6.764-2.224a22.944,22.944,0,0,0,8.131-38.9l-16.533-14.785A14.25,14.25,0,0,0,932.867,658.031Z" transform="translate(-80.402 150.846)"/><path class="d" d="M225.176,50.119l-3.662,21.875a22.944,22.944,0,0,0,30.662,25.282l6.67-2.493a22.945,22.945,0,0,0,6.563-39.2L248.3,41.478A14.25,14.25,0,0,0,225.176,50.119Z" transform="translate(-80.23 0)"/><path class="d" d="M159.9,169.644l7.571,20.848a22.945,22.945,0,0,0,39.132,6.929l4.581-5.452a22.944,22.944,0,0,0-13.565-37.354l-21.84-3.867A14.25,14.25,0,0,0,159.9,169.644Z" transform="translate(-80.23 32.674)"/><path class="d" d="M173.9,460.644l7.571,20.848a22.945,22.945,0,0,0,39.132,6.929l4.581-5.452a22.944,22.944,0,0,0-13.565-37.354l-21.84-3.867A14.25,14.25,0,0,0,173.9,460.644Z" transform="translate(-80.23 95.842)"/><path class="d" d="M109.9,256.644l7.571,20.848a22.945,22.945,0,0,0,39.132,6.929l4.581-5.452a22.944,22.944,0,0,0-13.565-37.354l-21.84-3.867A14.25,14.25,0,0,0,109.9,256.644Z" transform="translate(-80.23 51.559)"/><path class="e" d="M127.418,93.987l-11.09,19.208a22.944,22.944,0,0,0,19.87,34.417h7.121a22.945,22.945,0,0,0,19.87-34.417L152.1,93.987A14.249,14.249,0,0,0,127.418,93.987Z" transform="translate(-80.23 0)"/><path class="e" d="M250.217,176.149l21.615-4.972a22.945,22.945,0,0,0,11.65-37.995l-4.852-5.211a22.944,22.944,0,0,0-38.73,8.908l-6.5,21.205A14.251,14.251,0,0,0,250.217,176.149Z" transform="translate(-80.23 26.219)"/><path class="e" d="M120.716,380.4l40.116-9.227a22.945,22.945,0,0,0,11.65-37.995L154.7,314.076a22.945,22.945,0,0,0-38.73,8.909L103.9,362.34A14.25,14.25,0,0,0,120.716,380.4Z" transform="translate(-80.23 68.453)"/><path class="e" d="M175.217,660.149l21.615-4.972a22.945,22.945,0,0,0,11.65-37.995l-4.852-5.211a22.944,22.944,0,0,0-38.73,8.908l-6.5,21.2A14.251,14.251,0,0,0,175.217,660.149Z" transform="translate(-80.23 150.846)"/><path class="e" d="M121.217,569.149l21.615-4.972a22.945,22.945,0,0,0,11.65-37.995l-4.852-5.211a22.944,22.944,0,0,0-38.73,8.908l-6.5,21.2A14.251,14.251,0,0,0,121.217,569.149Z" transform="translate(-80.23 111.625)"/><path class="e" d="M1058.627,554l43.324-9.965a22.944,22.944,0,0,0,11.65-37.995l-20.03-21.515a22.945,22.945,0,0,0-38.73,8.909l-13.032,42.5A14.25,14.25,0,0,0,1058.627,554Z" transform="translate(-80.402 106.986)"/><path class="e" d="M930.726,404.126,924.985,382.7A22.945,22.945,0,0,0,886.6,372.416l-5.035,5.035a22.945,22.945,0,0,0,10.286,38.387l21.424,5.741A14.251,14.251,0,0,0,930.726,404.126Z" transform="translate(-80.369 79.529)"/><path class="e" d="M1044.726,268.126l-5.741-21.424a22.945,22.945,0,0,0-38.387-10.286l-5.035,5.035a22.945,22.945,0,0,0,10.286,38.387l21.424,5.741A14.25,14.25,0,0,0,1044.726,268.126Z" transform="translate(-80.402 49.952)"/><path class="e" d="M1001.726,155.126,995.985,133.7A22.945,22.945,0,0,0,957.6,123.416l-5.035,5.035a22.945,22.945,0,0,0,10.286,38.387l21.424,5.741A14.25,14.25,0,0,0,1001.726,155.126Z" transform="translate(-80.402 25.376)"/><path class="f" d="M224.418,307.987,213.328,327.2a22.944,22.944,0,0,0,19.87,34.417h7.121a22.945,22.945,0,0,0,19.87-34.417L249.1,307.987A14.249,14.249,0,0,0,224.418,307.987Z" transform="translate(-80.23 65.845)"/><path class="f" d="M964.96,589.492l-16.994,14.252a22.944,22.944,0,0,0,6.89,39.139l6.691,2.437A22.944,22.944,0,0,0,992,619.783l-3.846-21.844A14.25,14.25,0,0,0,964.96,589.492Z" transform="translate(-80.402 150.846)"/><path class="f" d="M937.418,186.987,926.328,206.2a22.944,22.944,0,0,0,19.87,34.417h7.121a22.945,22.945,0,0,0,19.87-34.417L962.1,186.987A14.249,14.249,0,0,0,937.418,186.987Z" transform="translate(-80.402 39.364)"/><path class="f" d="M891.707,341.351l14.761,16.555a22.944,22.944,0,0,0,38.912-8.072l2.234-6.762a22.944,22.944,0,0,0-26.448-29.662l-21.717,4.505A14.25,14.25,0,0,0,891.707,341.351Z" transform="translate(-80.372 67.69)"/><path class="f" d="M1039.235,640.357l36.14-17.414a22.944,22.944,0,0,0,2.962-39.63L1057.631,569.2a22.944,22.944,0,0,0-35.8,17.25l-2.99,40A14.25,14.25,0,0,0,1039.235,640.357Z" transform="translate(-80.402 150.846)"/><path class="d" d="M896.836,556.216l19.981-9.628a22.944,22.944,0,0,0,2.962-39.63l-5.884-4.01a22.944,22.944,0,0,0-35.8,17.25l-1.653,22.118A14.251,14.251,0,0,0,896.836,556.216Z" transform="translate(-80.369 108.872)"/><path class="f" d="M1052.665,453.671l27.152-13.083a22.944,22.944,0,0,0,2.962-39.63l-12.461-8.493a22.944,22.944,0,0,0-35.8,17.25l-2.247,30.056A14.251,14.251,0,0,0,1052.665,453.671Z" transform="translate(-80.402 85.749)"/><path class="f" d="M982.836,337.216l19.981-9.628a22.944,22.944,0,0,0,2.962-39.63l-5.884-4.01a22.944,22.944,0,0,0-35.8,17.25l-1.653,22.118A14.251,14.251,0,0,0,982.836,337.216Z" transform="translate(-80.402 61.084)"/><path class="f" d="M929.836,131.216l19.981-9.628a22.944,22.944,0,0,0,2.962-39.63l-5.884-4.01a22.944,22.944,0,0,0-35.8,17.25l-1.653,22.118A14.251,14.251,0,0,0,929.836,131.216Z" transform="translate(-80.375 0)"/><path class="f" d="M842.836,202.216l19.981-9.628a22.944,22.944,0,0,0,2.962-39.63l-5.884-4.01a22.944,22.944,0,0,0-35.8,17.25l-1.653,22.118A14.251,14.251,0,0,0,842.836,202.216Z" transform="translate(-80.36 31.626)"/><path class="f" d="M1018.836,224.216l19.981-9.628a22.944,22.944,0,0,0,2.962-39.63l-5.884-4.01a22.944,22.944,0,0,0-35.8,17.25l-1.653,22.118A14.251,14.251,0,0,0,1018.836,224.216Z" transform="translate(-80.402 36.427)"/><path class="f" d="M274.418,409.987,263.328,429.2a22.944,22.944,0,0,0,19.87,34.417h7.121a22.945,22.945,0,0,0,19.87-34.417L299.1,409.987A14.249,14.249,0,0,0,274.418,409.987Z" transform="translate(-80.262 88.168)"/><path class="f" d="M156.14,448.97l-35.851-9.392a22.944,22.944,0,0,0-27.944,28.257l5.813,21.22A22.944,22.944,0,0,0,136.6,499.127l26.06-26.352A14.25,14.25,0,0,0,156.14,448.97Z" transform="translate(-80.23 96.934)"/><path class="f" d="M306.106,182.146l-21.456-5.621a22.945,22.945,0,0,0-27.944,28.258l1.881,6.867a22.945,22.945,0,0,0,38.444,10.072l15.6-15.771A14.251,14.251,0,0,0,306.106,182.146Z" transform="translate(-80.261 38.025)"/><path class="f" d="M204.106,55.146,182.65,49.525a22.945,22.945,0,0,0-27.944,28.258l1.881,6.867a22.945,22.945,0,0,0,38.444,10.072l15.6-15.771A14.251,14.251,0,0,0,204.106,55.146Z" transform="translate(-80.23 0)"/><path class="f" d="M115.21,223.2l20.032,9.521a22.945,22.945,0,0,0,32.721-22.554l-.569-7.1a22.944,22.944,0,0,0-35.892-17.06L113.24,198.6A14.25,14.25,0,0,0,115.21,223.2Z" transform="translate(-80.23 39.375)"/><path class="f" d="M303.21,567.2l20.032,9.521a22.945,22.945,0,0,0,32.721-22.554l-.569-7.1a22.944,22.944,0,0,0-35.892-17.06L301.24,542.595A14.25,14.25,0,0,0,303.21,567.2Z" transform="translate(-80.268 113.829)"/><path class="f" d="M124.145,707.02l23.421,11.132a22.944,22.944,0,0,0,32.72-22.554l-.867-10.838a22.945,22.945,0,0,0-35.893-17.06l-21.351,14.717A14.25,14.25,0,0,0,124.145,707.02Z" transform="translate(-80.23 150.846)"/><path class="g" d="M190.075,212.793l-15.6,15.771a22.944,22.944,0,0,0,10.5,38.329l6.888,1.8a22.945,22.945,0,0,0,27.944-28.258l-5.86-21.391A14.251,14.251,0,0,0,190.075,212.793Z" transform="translate(-80.23 45.654)"/><path class="g" d="M157.139,437.612h22.18a22.945,22.945,0,0,0,19.87-34.417l-3.56-6.167a22.945,22.945,0,0,0-39.741,0L144.8,416.237A14.25,14.25,0,0,0,157.139,437.612Z" transform="translate(-80.23 83.329)"/><path class="g" d="M192.139,553.612h22.18a22.945,22.945,0,0,0,19.87-34.417l-3.56-6.167a22.945,22.945,0,0,0-39.741,0L179.8,532.237A14.25,14.25,0,0,0,192.139,553.612Z" transform="translate(-80.23 108.4)"/><path class="g" d="M248.34,709.1,252,687.229a22.945,22.945,0,0,0-30.663-25.282l-6.67,2.493a22.945,22.945,0,0,0-6.562,39.2l17.113,14.109A14.249,14.249,0,0,0,248.34,709.1Z" transform="translate(-80.23 150.846)"/><path class="g" d="M149.017,651.925l7.986-47.7a22.945,22.945,0,0,0-30.663-25.282l-31.193,11.66a22.944,22.944,0,0,0-6.562,39.2L125.9,660.566A14.25,14.25,0,0,0,149.017,651.925Z" transform="translate(-80.23 150.846)"/><path class="g" d="M1088.34,686.1,1092,664.229a22.945,22.945,0,0,0-30.663-25.282l-6.67,2.493a22.945,22.945,0,0,0-6.562,39.2l17.113,14.109A14.249,14.249,0,0,0,1088.34,686.1Z" transform="translate(-80.402 150.846)"/><path class="g" d="M1022.34,452.1,1026,430.229a22.945,22.945,0,0,0-30.663-25.282l-6.67,2.493a22.945,22.945,0,0,0-6.562,39.2l17.113,14.109A14.249,14.249,0,0,0,1022.34,452.1Z" transform="translate(-80.402 88.274)"/><path class="g" d="M1098.067,265.708,1103,236.229a22.945,22.945,0,0,0-30.663-25.282l-13.891,5.193a22.944,22.944,0,0,0-6.563,39.2l23.062,19.015A14.25,14.25,0,0,0,1098.067,265.708Z" transform="translate(-80.402 46.34)"/><path class="g" d="M988.766,52.021l-14.91,16.421a22.945,22.945,0,0,0,12.124,37.847l6.959,1.509a22.944,22.944,0,0,0,26.714-29.422l-6.766-21.123A14.25,14.25,0,0,0,988.766,52.021Z" transform="translate(-80.402 0)"/><path class="f" d="M736.378,433.747l-7.156,12.4a21.808,21.808,0,0,0,18.886,32.712h0a21.808,21.808,0,0,0,18.886-32.712l-7.156-12.4A13.545,13.545,0,0,0,736.378,433.747Z" transform="translate(-80.342 92.258)"/><path class="d" d="M783.378,272.747l-7.156,12.4a21.808,21.808,0,0,0,18.886,32.712h0a21.808,21.808,0,0,0,18.886-32.712l-7.156-12.4A13.545,13.545,0,0,0,783.378,272.747Z" transform="translate(-80.35 57.47)"/><path class="d" d="M327.626,662.894l-1.244,14.259a21.808,21.808,0,0,0,30.948,21.656h0a21.808,21.808,0,0,0,3.281-37.63l-11.727-8.206A13.544,13.544,0,0,0,327.626,662.894Z" transform="translate(-80.273 150.846)"/><path class="d" d="M268.626,576.894l-1.244,14.259a21.808,21.808,0,0,0,30.948,21.656h0a21.808,21.808,0,0,0,3.281-37.63l-11.727-8.206A13.544,13.544,0,0,0,268.626,576.894Z" transform="translate(-80.263 121.714)"/><path class="d" d="M793.754,418.327l-10.487,9.741a21.808,21.808,0,0,0,8.423,36.821h0a21.808,21.808,0,0,0,27.676-25.706l-3.192-13.952A13.545,13.545,0,0,0,793.754,418.327Z" transform="translate(-80.35 89.516)"/><path class="f" d="M845.754,501.327l-10.487,9.741a21.808,21.808,0,0,0,8.423,36.821h0a21.808,21.808,0,0,0,27.676-25.706l-3.192-13.952A13.545,13.545,0,0,0,845.754,501.327Z" transform="translate(-80.359 107.432)"/><path class="d" d="M812.357,721.438l8.4-11.586a21.808,21.808,0,0,0-15.39-34.495h0a21.808,21.808,0,0,0-22.179,30.575L789.024,719A13.545,13.545,0,0,0,812.357,721.438Z" transform="translate(-80.351 150.846)"/><path class="d" d="M739.616,392.09l12.4-7.157a21.807,21.807,0,0,0,0-37.772h0A21.808,21.808,0,0,0,719.3,366.047V380.36A13.544,13.544,0,0,0,739.616,392.09Z" transform="translate(-80.341 74.144)"/><path class="d" d="M842.808,235.776l12.4,7.157a21.808,21.808,0,0,0,32.712-18.886h0A21.808,21.808,0,0,0,855.2,205.161l-12.4,7.156A13.544,13.544,0,0,0,842.808,235.776Z" transform="translate(-80.362 43.184)"/><path class="d" d="M755.808,46.776l12.4,7.157a21.808,21.808,0,0,0,32.712-18.886h0A21.808,21.808,0,0,0,768.2,16.161l-12.4,7.156A13.544,13.544,0,0,0,755.808,46.776Z" transform="translate(-80.347 0)"/><path class="d" d="M344.808,146.776l12.4,7.157a21.808,21.808,0,0,0,32.712-18.886h0A21.808,21.808,0,0,0,357.2,116.161l-12.4,7.156A13.544,13.544,0,0,0,344.808,146.776Z" transform="translate(-80.275 24.177)"/><path class="d" d="M283.808,376.776l12.4,7.157a21.808,21.808,0,0,0,32.712-18.886h0A21.808,21.808,0,0,0,296.2,346.161l-12.4,7.156A13.544,13.544,0,0,0,283.808,376.776Z" transform="translate(-80.265 73.297)"/><path class="d" d="M712.378,494.747l-7.156,12.4a21.808,21.808,0,0,0,18.886,32.712h0a21.808,21.808,0,0,0,18.886-32.712l-7.156-12.4A13.545,13.545,0,0,0,712.378,494.747Z" transform="translate(-80.338 105.438)"/><path class="d" d="M440.378,541.747l-7.156,12.4a21.808,21.808,0,0,0,18.886,32.712h0a21.808,21.808,0,0,0,18.886-32.712l-7.156-12.4A13.545,13.545,0,0,0,440.378,541.747Z" transform="translate(-80.291 115.594)"/><path class="d" d="M316.118,493.395l14.306.449a21.808,21.808,0,0,0,19.9-32.1h0a21.808,21.808,0,0,0-37.754-1.184l-7.542,12.166A13.544,13.544,0,0,0,316.118,493.395Z" transform="translate(-80.269 96.147)"/><path class="d" d="M335.118,296.395l14.306.449a21.808,21.808,0,0,0,19.9-32.1h0a21.808,21.808,0,0,0-37.754-1.184l-7.542,12.166A13.544,13.544,0,0,0,335.118,296.395Z" transform="translate(-80.272 54.078)"/><path class="e" d="M316.625,81.535,306.561,91.713a21.808,21.808,0,0,0,9.979,36.43h0a21.808,21.808,0,0,0,26.56-26.858L339.319,87.48A13.545,13.545,0,0,0,316.625,81.535Z" transform="translate(-80.268 0)"/><path class="e" d="M310.625,216.535l-10.064,10.178a21.808,21.808,0,0,0,9.979,36.43h0a21.808,21.808,0,0,0,26.56-26.858l-3.781-13.805A13.545,13.545,0,0,0,310.625,216.535Z" transform="translate(-80.267 45.884)"/><path class="e" d="M856.625,288.535l-10.064,10.178a21.808,21.808,0,0,0,9.979,36.43h0a21.808,21.808,0,0,0,26.56-26.858l-3.781-13.8A13.545,13.545,0,0,0,856.625,288.535Z" transform="translate(-80.361 61.43)"/><path class="e" d="M822.625,456.535l-10.064,10.178a21.808,21.808,0,0,0,9.979,36.43h0a21.808,21.808,0,0,0,26.56-26.858l-3.781-13.8A13.545,13.545,0,0,0,822.625,456.535Z" transform="translate(-80.356 97.703)"/><path class="e" d="M765.625,633.535l-10.064,10.178a21.808,21.808,0,0,0,9.979,36.43h0a21.808,21.808,0,0,0,26.56-26.858l-3.781-13.8A13.545,13.545,0,0,0,765.625,633.535Z" transform="translate(-80.346 150.846)"/><path class="e" d="M809.625,43.535,799.561,53.713a21.808,21.808,0,0,0,9.979,36.43h0A21.808,21.808,0,0,0,836.1,63.285L832.319,49.48A13.545,13.545,0,0,0,809.625,43.535Z" transform="translate(-80.353 0)"/><path class="e" d="M376.79,394.6l-13.4,5.037a21.808,21.808,0,0,0-6.165,37.266h0a21.808,21.808,0,0,0,35.356-13.294l2.336-14.121A13.544,13.544,0,0,0,376.79,394.6Z" transform="translate(-80.277 84.62)"/><path class="e" d="M270.79,516.6l-13.4,5.037a21.808,21.808,0,0,0-6.165,37.266h0a21.808,21.808,0,0,0,35.356-13.294l2.336-14.121A13.544,13.544,0,0,0,270.79,516.6Z" transform="translate(-80.259 110.842)"/><path class="e" d="M360.566,306.842l-14.236-1.485a21.807,21.807,0,0,0-22.178,30.575h0a21.808,21.808,0,0,0,37.568,3.92l8.4-11.587A13.544,13.544,0,0,0,360.566,306.842Z" transform="translate(-80.272 65.182)"/><path class="f" d="M823.148,244.747l-7.157,12.4a21.808,21.808,0,0,0,18.886,32.712h0a21.808,21.808,0,0,0,18.887-32.712l-7.157-12.4A13.544,13.544,0,0,0,823.148,244.747Z" transform="translate(-80.357 51.42)"/><path class="f" d="M728.974,547.417l-13.679-4.212a21.807,21.807,0,0,0-27.676,25.7h0a21.808,21.808,0,0,0,36.1,11.116l10.487-9.741A13.544,13.544,0,0,0,728.974,547.417Z" transform="translate(-80.336 115.794)"/><path class="f" d="M426.376,519.842l-14.236-1.485a21.807,21.807,0,0,0-22.178,30.575h0a21.808,21.808,0,0,0,37.568,3.92l8.4-11.587A13.544,13.544,0,0,0,426.376,519.842Z" transform="translate(-80.284 110.668)"/><path class="f" d="M400.376,221.842l-14.236-1.485a21.807,21.807,0,0,0-22.178,30.575h0a21.808,21.808,0,0,0,37.568,3.92l8.4-11.587A13.544,13.544,0,0,0,400.376,221.842Z" transform="translate(-80.279 47.031)"/><path class="f" d="M463.376,58.842,449.14,57.357a21.807,21.807,0,0,0-22.178,30.575h0a21.808,21.808,0,0,0,37.568,3.92l8.4-11.587A13.544,13.544,0,0,0,463.376,58.842Z" transform="translate(-80.29 0)"/><path class="f" d="M386.376,16.842,372.14,15.357a21.807,21.807,0,0,0-22.178,30.575h0a21.808,21.808,0,0,0,37.568,3.92l8.4-11.587A13.544,13.544,0,0,0,386.376,16.842Z" transform="translate(-80.277 0)"/><path class="f" d="M456.15,222.122l12.181-7.517a21.808,21.808,0,0,0-1.109-37.756h0a21.807,21.807,0,0,0-32.143,19.838l.42,14.307A13.543,13.543,0,0,0,456.15,222.122Z" transform="translate(-80.292 37.538)"/><path class="f" d="M769.15,169.122l12.181-7.517a21.808,21.808,0,0,0-1.109-37.756h0a21.807,21.807,0,0,0-32.143,19.838l.42,14.307A13.543,13.543,0,0,0,769.15,169.122Z" transform="translate(-80.346 26.117)"/><path class="f" d="M746.15,249.122l12.181-7.517a21.808,21.808,0,0,0-1.109-37.756h0a21.807,21.807,0,0,0-32.143,19.838l.42,14.307A13.543,13.543,0,0,0,746.15,249.122Z" transform="translate(-80.342 43.356)"/><path class="f" d="M810.471,378.35l-11.394-8.663A21.808,21.808,0,0,0,764.244,384.3h0a21.808,21.808,0,0,0,30.068,22.862l13.2-5.536A13.545,13.545,0,0,0,810.471,378.35Z" transform="translate(-80.349 77.996)"/><path class="f" d="M716.586,597.448l-3.024,13.991a21.808,21.808,0,0,0,27.982,25.372h0a21.808,21.808,0,0,0,7.982-36.92l-10.6-9.614A13.545,13.545,0,0,0,716.586,597.448Z" transform="translate(-80.34 150.846)"/><path class="g" d="M796.04,635.52l1.143,14.268A21.808,21.808,0,0,0,831.3,666h0a21.807,21.807,0,0,0-3.015-37.651l-12.927-6.145A13.545,13.545,0,0,0,796.04,635.52Z" transform="translate(-80.354 150.846)"/><path class="g" d="M452.192,381.747l-7.157,12.4a21.808,21.808,0,0,0,18.886,32.712h0a21.808,21.808,0,0,0,18.887-32.712l-7.157-12.4A13.544,13.544,0,0,0,452.192,381.747Z" transform="translate(-80.293 81.022)"/><path class="g" d="M383.192,281.747l-7.157,12.4a21.808,21.808,0,0,0,18.886,32.712h0a21.808,21.808,0,0,0,18.887-32.712l-7.157-12.4A13.544,13.544,0,0,0,383.192,281.747Z" transform="translate(-80.281 59.415)"/><path class="g" d="M369.868,350.4l-14.286.879a21.808,21.808,0,0,0-16.842,33.81h0a21.808,21.808,0,0,0,37.7-2.32l6.381-12.812A13.544,13.544,0,0,0,369.868,350.4Z" transform="translate(-80.275 74.913)"/><path class="g" d="M379.868,64.4l-14.286.879A21.808,21.808,0,0,0,348.74,99.09h0a21.808,21.808,0,0,0,37.7-2.32l6.381-12.812A13.544,13.544,0,0,0,379.868,64.4Z" transform="translate(-80.276 0)"/><path class="g" d="M829.868,102.4l-14.286.879a21.808,21.808,0,0,0-16.842,33.81h0a21.808,21.808,0,0,0,37.7-2.32l6.381-12.812A13.544,13.544,0,0,0,829.868,102.4Z" transform="translate(-80.354 0)"/><path class="g" d="M856.149,63.486l13.408-5.012a21.807,21.807,0,0,0,6.237-37.253h0a21.807,21.807,0,0,0-35.381,13.224l-2.364,14.117A13.544,13.544,0,0,0,856.149,63.486Z" transform="translate(-80.361 0)"/><path class="g" d="M788.149,262.486l13.408-5.012a21.807,21.807,0,0,0,6.237-37.253h0a21.807,21.807,0,0,0-35.381,13.224l-2.364,14.117A13.544,13.544,0,0,0,788.149,262.486Z" transform="translate(-80.35 46.255)"/><path class="g" d="M837.149,421.486l13.408-5.012a21.807,21.807,0,0,0,6.237-37.253h0a21.807,21.807,0,0,0-35.381,13.224l-2.364,14.117A13.544,13.544,0,0,0,837.149,421.486Z" transform="translate(-80.358 80.428)"/><path class="g" d="M802.149,576.486l13.408-5.012a21.807,21.807,0,0,0,6.237-37.253h0a21.807,21.807,0,0,0-35.381,13.224l-2.364,14.117A13.544,13.544,0,0,0,802.149,576.486Z" transform="translate(-80.352 113.741)"/><path class="g" d="M892.149,702.486l13.408-5.012a21.807,21.807,0,0,0,6.237-37.253h0a21.807,21.807,0,0,0-35.381,13.224l-2.364,14.117A13.544,13.544,0,0,0,892.149,702.486Z" transform="translate(-80.368 150.846)"/><path class="g" d="M357.141,701.421,346.155,710.6a21.808,21.808,0,0,0,6.471,37.214h0A21.808,21.808,0,0,0,381.619,723.6l-2.453-14.1A13.544,13.544,0,0,0,357.141,701.421Z" transform="translate(-80.275 150.846)"/><path class="g" d="M483.929,668.133l-10.986,9.175a21.808,21.808,0,0,0,6.471,37.214h0a21.808,21.808,0,0,0,28.993-24.211l-2.452-14.1A13.545,13.545,0,0,0,483.929,668.133Z" transform="translate(-80.297 150.846)"/><path class="g" d="M401.929,569.133l-10.986,9.175a21.808,21.808,0,0,0,6.471,37.214h0a21.808,21.808,0,0,0,28.993-24.211l-2.452-14.1A13.545,13.545,0,0,0,401.929,569.133Z" transform="translate(-80.283 122.122)"/><path class="h" d="M678.152,49.616l-4.49,13.591A21.808,21.808,0,0,0,698.8,91.4h0a21.807,21.807,0,0,0,11.847-35.866L701.122,44.85A13.544,13.544,0,0,0,678.152,49.616Z" transform="translate(-80.333 0)"/><path class="h" d="M355.64,485.747l-7.156,12.4a21.808,21.808,0,0,0,18.886,32.712h0a21.808,21.808,0,0,0,18.886-32.712l-7.157-12.4A13.544,13.544,0,0,0,355.64,485.747Z" transform="translate(-80.276 103.494)"/><path class="h" d="M752.059,704,744.9,716.4a21.808,21.808,0,0,0,18.887,32.711h0A21.807,21.807,0,0,0,782.675,716.4L775.518,704A13.544,13.544,0,0,0,752.059,704Z" transform="translate(-80.345 150.846)"/><path class="h" d="M487.489,365.52l1.142,14.268A21.808,21.808,0,0,0,522.746,396h0a21.807,21.807,0,0,0-3.015-37.651L506.8,352.206A13.544,13.544,0,0,0,487.489,365.52Z" transform="translate(-80.301 75.504)"/><path class="h" d="M733.423,97.693l14.286-.879A21.808,21.808,0,0,0,764.551,63h0a21.808,21.808,0,0,0-37.7,2.32l-6.382,12.812A13.544,13.544,0,0,0,733.423,97.693Z" transform="translate(-80.341 0)"/><path class="h" d="M803.317,165.4l-14.287.879a21.808,21.808,0,0,0-16.841,33.81h0a21.808,21.808,0,0,0,37.7-2.32l6.382-12.812A13.544,13.544,0,0,0,803.317,165.4Z" transform="translate(-80.35 35.358)"/><path class="h" d="M797.622,348.861l5.832,13.071a21.809,21.809,0,0,0,37.569,3.92h0a21.808,21.808,0,0,0-15.39-34.495L811.4,329.872A13.544,13.544,0,0,0,797.622,348.861Z" transform="translate(-80.355 70.571)"/><path class="h" d="M466.118,627.232l-12.971,6.053a21.808,21.808,0,0,0-3.28,37.63h0A21.808,21.808,0,0,0,484.1,654.941l1.244-14.259A13.545,13.545,0,0,0,466.118,627.232Z" transform="translate(-80.293 150.846)"/><path class="h" d="M398.64,87.747l-7.156,12.4a21.808,21.808,0,0,0,18.886,32.712h0a21.808,21.808,0,0,0,18.886-32.712l-7.157-12.4A13.544,13.544,0,0,0,398.64,87.747Z" transform="translate(-80.284 0)"/><path class="h" d="M411.327,266.555l7.157,12.4a21.808,21.808,0,0,0,37.772,0h0a21.808,21.808,0,0,0-18.886-32.712H423.057A13.544,13.544,0,0,0,411.327,266.555Z" transform="translate(-80.287 52.583)"/><path class="h" d="M429.092,353.6l-13.4,5.037a21.808,21.808,0,0,0-6.166,37.266h0a21.807,21.807,0,0,0,35.355-13.294l2.337-14.121A13.545,13.545,0,0,0,429.092,353.6Z" transform="translate(-80.286 75.808)"/><path class="d" d="M575.721,595.732l-6.084,10.537a18.539,18.539,0,0,0,16.055,27.808h0a18.539,18.539,0,0,0,16.055-27.808l-6.084-10.537A11.513,11.513,0,0,0,575.721,595.732Z" transform="translate(-80.314 126.073)"/><path class="d" d="M832.758,619.794l8.1,9.082a18.538,18.538,0,0,0,31.44-6.523h0a18.538,18.538,0,0,0-21.368-23.966l-11.914,2.471A11.513,11.513,0,0,0,832.758,619.794Z" transform="translate(-80.36 126.667)"/><path class="d" d="M495.511,657.1l9.388,7.74A18.538,18.538,0,0,0,534.976,653.6h0A18.539,18.539,0,0,0,510.2,633.173l-11.4,4.26A11.514,11.514,0,0,0,495.511,657.1Z" transform="translate(-80.301 150.846)"/><path class="d" d="M397.08,678.517l8.422,6.945a16.632,16.632,0,0,0,26.984-10.086h0A16.631,16.631,0,0,0,410.26,657.05l-10.226,3.822A10.329,10.329,0,0,0,397.08,678.517Z" transform="translate(-80.284 150.846)"/><path class="d" d="M629.033,649.394l7.243,8.124a16.583,16.583,0,0,0,28.124-5.835h0a16.583,16.583,0,0,0-19.115-21.438l-10.657,2.211A10.3,10.3,0,0,0,629.033,649.394Z" transform="translate(-80.324 150.846)"/><path class="d" d="M596,716.885l-9.014-8.174a18.539,18.539,0,0,0-30.572,9.816h0A18.538,18.538,0,0,0,580.2,740.1l11.585-3.72A11.513,11.513,0,0,0,596,716.885Z" transform="translate(-80.312 150.846)"/><path class="d" d="M606.721,275.732l-6.084,10.537a18.539,18.539,0,0,0,16.055,27.808h0a18.539,18.539,0,0,0,16.055-27.808l-6.084-10.537A11.513,11.513,0,0,0,606.721,275.732Z" transform="translate(-80.319 57.692)"/><path class="d" d="M585.141,389.3l11.753,3.149A18.538,18.538,0,0,0,619.6,369.74h0a18.538,18.538,0,0,0-31.015-8.31l-8.6,8.6A11.514,11.514,0,0,0,585.141,389.3Z" transform="translate(-80.316 75.326)"/><path class="d" d="M509.141,266.3l11.753,3.149A18.538,18.538,0,0,0,543.6,246.74h0a18.538,18.538,0,0,0-31.015-8.31l-8.6,8.6A11.514,11.514,0,0,0,509.141,266.3Z" transform="translate(-80.303 49.3)"/><path class="d" d="M420.686,348.789l12.145-.747A18.538,18.538,0,0,0,447.147,319.3h0a18.537,18.537,0,0,0-32.048,1.972l-5.426,10.891A11.514,11.514,0,0,0,420.686,348.789Z" transform="translate(-80.287 65.871)"/><path class="d" d="M409.686,442.789l12.145-.747A18.538,18.538,0,0,0,436.147,413.3h0a18.537,18.537,0,0,0-32.048,1.972l-5.426,10.891A11.514,11.514,0,0,0,409.686,442.789Z" transform="translate(-80.285 85.781)"/><path class="d" d="M476.686,532.789l12.145-.747A18.538,18.538,0,0,0,503.147,503.3h0a18.537,18.537,0,0,0-32.048,1.972l-5.426,10.891A11.514,11.514,0,0,0,476.686,532.789Z" transform="translate(-80.297 104.843)"/><path class="d" d="M638.662,439.631l-.493,12.157A18.538,18.538,0,0,0,665.3,468.955h0a18.538,18.538,0,0,0,1.3-32.083l-10.283-6.505A11.513,11.513,0,0,0,638.662,439.631Z" transform="translate(-80.326 91.379)"/><path class="d" d="M661.662,288.631l-.493,12.157A18.538,18.538,0,0,0,688.3,317.955h0a18.538,18.538,0,0,0,1.3-32.083l-10.283-6.505A11.513,11.513,0,0,0,661.662,288.631Z" transform="translate(-80.33 59.183)"/><path class="d" d="M664.662,158.631l-.493,12.157A18.538,18.538,0,0,0,691.3,187.955h0a18.538,18.538,0,0,0,1.3-32.083l-10.283-6.5A11.513,11.513,0,0,0,664.662,158.631Z" transform="translate(-80.33 31.464)"/><path class="d" d="M604.676,84.662l16.427-.268a18.539,18.539,0,0,0,15.751-27.806l-1.84-3.187a18.539,18.539,0,0,0-31.956-.261l-8.446,14.091A11.513,11.513,0,0,0,604.676,84.662Z" transform="translate(-80.319 0)"/><path class="d" d="M496.525,37.077h12.167A18.539,18.539,0,0,0,524.747,9.269h0a18.538,18.538,0,0,0-32.109,0l-6.084,10.538A11.513,11.513,0,0,0,496.525,37.077Z" transform="translate(-80.3 0)"/><path class="d" d="M407.525,63.077h12.167a18.539,18.539,0,0,0,16.055-27.808h0a18.538,18.538,0,0,0-32.109,0l-6.084,10.538A11.513,11.513,0,0,0,407.525,63.077Z" transform="translate(-80.285 0)"/><path class="d" d="M400.525,200.077h12.167a18.539,18.539,0,0,0,16.055-27.808h0a18.538,18.538,0,0,0-32.109,0l-6.084,10.538A11.513,11.513,0,0,0,400.525,200.077Z" transform="translate(-80.284 34.489)"/><path class="e" d="M597.625,347.585l10.856,5.494a18.539,18.539,0,0,0,26.882-17.561h0a18.539,18.539,0,0,0-28.649-14.5l-10.187,6.655A11.514,11.514,0,0,0,597.625,347.585Z" transform="translate(-80.319 67.284)"/><path class="e" d="M564.625,199.585l10.856,5.494a18.539,18.539,0,0,0,26.882-17.561h0a18.539,18.539,0,0,0-28.649-14.5l-10.187,6.655A11.514,11.514,0,0,0,564.625,199.585Z" transform="translate(-80.313 35.967)"/><path class="e" d="M531.5,86.622l-2.509-11.906a18.538,18.538,0,0,0-30.52-9.976h0a18.538,18.538,0,0,0,6.62,31.419l11.565,3.781A11.514,11.514,0,0,0,531.5,86.622Z" transform="translate(-80.301 0)"/><path class="e" d="M723.5,122.622l-2.509-11.906a18.538,18.538,0,0,0-30.52-9.976h0a18.538,18.538,0,0,0,6.62,31.419l11.565,3.781A11.514,11.514,0,0,0,723.5,122.622Z" transform="translate(-80.334 0)"/><path class="e" d="M423.207,156.356l8.727,8.479a18.538,18.538,0,0,0,30.892-8.757h0A18.538,18.538,0,0,0,439.8,133.7l-11.706,3.318A11.513,11.513,0,0,0,423.207,156.356Z" transform="translate(-80.289 28.138)"/><path class="e" d="M547.908,300.493l-3.149-11.753a18.538,18.538,0,0,0-31.015-8.31h0a18.538,18.538,0,0,0,8.31,31.015l11.753,3.149A11.513,11.513,0,0,0,547.908,300.493Z" transform="translate(-80.304 58.424)"/><path class="e" d="M716.908,348.493l-3.149-11.753a18.538,18.538,0,0,0-31.015-8.31h0a18.538,18.538,0,0,0,8.31,31.015l11.753,3.149A11.513,11.513,0,0,0,716.908,348.493Z" transform="translate(-80.333 68.623)"/><path class="e" d="M538.2,379.836l-2.489,11.91a18.538,18.538,0,0,0,23.935,21.4h0a18.538,18.538,0,0,0,6.569-31.43l-9.07-8.111A11.514,11.514,0,0,0,538.2,379.836Z" transform="translate(-80.308 79.134)"/><path class="e" d="M577.2,469.836l-2.489,11.91a18.538,18.538,0,0,0,23.935,21.4h0a18.538,18.538,0,0,0,6.569-31.43l-9.07-8.111A11.514,11.514,0,0,0,577.2,469.836Z" transform="translate(-80.315 98.348)"/><path class="e" d="M591.2,647.836l-2.489,11.91a18.538,18.538,0,0,0,23.935,21.4h0a18.538,18.538,0,0,0,6.569-31.43l-9.07-8.111A11.514,11.514,0,0,0,591.2,647.836Z" transform="translate(-80.317 150.846)"/><path class="e" d="M516.742,699.827l-6.532,10.265a18.538,18.538,0,0,0,14.843,28.473h0a18.538,18.538,0,0,0,17.237-27.091l-5.625-10.789A11.513,11.513,0,0,0,516.742,699.827Z" transform="translate(-80.304 150.846)"/><path class="e" d="M378.685,659.077h12.167a18.539,18.539,0,0,0,16.055-27.808h0a18.538,18.538,0,0,0-32.109,0l-6.084,10.538A11.513,11.513,0,0,0,378.685,659.077Z" transform="translate(-80.28 150.846)"/><path class="e" d="M945.157,747.6h12.167a18.539,18.539,0,0,0,16.055-27.808h0a18.538,18.538,0,0,0-32.109,0l-6.084,10.538A11.513,11.513,0,0,0,945.157,747.6Z" transform="translate(-80.402 150.846)"/><path class="e" d="M374.566,476.742l12.677,3.3A18.538,18.538,0,0,0,409.791,457.2l-.233-.851a18.539,18.539,0,0,0-31.04-8.159l-9.225,9.3A11.513,11.513,0,0,0,374.566,476.742Z" transform="translate(-80.28 93.785)"/><path class="e" d="M770.188,507.5l12.065-1.575a18.539,18.539,0,0,0,12.319-29.653h0a18.539,18.539,0,0,0-31.84,4.158l-4.668,11.237A11.513,11.513,0,0,0,770.188,507.5Z" transform="translate(-80.347 99.446)"/><path class="e" d="M785.945,619.548l7.5-9.579a18.539,18.539,0,0,0-11.994-29.786h0a18.539,18.539,0,0,0-19.8,25.28L766.2,616.75A11.513,11.513,0,0,0,785.945,619.548Z" transform="translate(-80.347 123.917)"/><path class="e" d="M834.068,744.951l11.753-3.15a18.538,18.538,0,0,0,8.31-31.015h0a18.538,18.538,0,0,0-31.015,8.311l-3.15,11.752A11.515,11.515,0,0,0,834.068,744.951Z" transform="translate(-80.357 150.846)"/><path class="e" d="M529.246,432.372l-3.765-11.57a18.538,18.538,0,0,0-31.411-6.662h0a18.539,18.539,0,0,0,9.936,30.534l11.9,2.524A11.514,11.514,0,0,0,529.246,432.372Z" transform="translate(-80.301 86.616)"/><path class="e" d="M566.246,582.372l-3.765-11.57a18.538,18.538,0,0,0-31.411-6.662h0a18.539,18.539,0,0,0,9.936,30.534l11.9,2.524A11.514,11.514,0,0,0,566.246,582.372Z" transform="translate(-80.307 118.461)"/><path class="f" d="M624.715,476.732l-6.084,10.537a18.539,18.539,0,0,0,16.055,27.808h0a18.539,18.539,0,0,0,16.055-27.808l-6.084-10.537A11.513,11.513,0,0,0,624.715,476.732Z" transform="translate(-80.322 100.644)"/><path class="f" d="M457.715,330.732l-6.084,10.537a18.539,18.539,0,0,0,16.055,27.808h0a18.539,18.539,0,0,0,16.055-27.808l-6.084-10.537A11.513,11.513,0,0,0,457.715,330.732Z" transform="translate(-80.294 69.445)"/><path class="f" d="M518.715,140.732l-6.084,10.537a18.539,18.539,0,0,0,16.055,27.808h0a18.539,18.539,0,0,0,16.055-27.808l-6.084-10.537A11.513,11.513,0,0,0,518.715,140.732Z" transform="translate(-80.304 28.843)"/><path class="f" d="M436.715,437.732l-6.084,10.537a18.539,18.539,0,0,0,16.055,27.808h0a18.539,18.539,0,0,0,16.055-27.808l-6.084-10.537A11.513,11.513,0,0,0,436.715,437.732Z" transform="translate(-80.29 92.31)"/><path class="f" d="M725.849,268.469l-10.775,5.653a18.538,18.538,0,0,0-1.3,32.083h0a18.538,18.538,0,0,0,28.434-14.916l.493-12.158A11.514,11.514,0,0,0,725.849,268.469Z" transform="translate(-80.338 56.913)"/><path class="f" d="M229.715,253.732l-6.084,10.537a18.539,18.539,0,0,0,16.055,27.808h0a18.539,18.539,0,0,0,16.055-27.808l-6.084-10.537A11.513,11.513,0,0,0,229.715,253.732Z" transform="translate(-80.23 52.991)"/><path class="f" d="M576.715,124.732l-6.084,10.537a18.539,18.539,0,0,0,16.055,27.808h0a18.539,18.539,0,0,0,16.055-27.808l-6.084-10.537A11.513,11.513,0,0,0,576.715,124.732Z" transform="translate(-80.314 25.424)"/><path class="f" d="M644.6,151.556l-10.962,5.282a18.538,18.538,0,0,0-2.393,32.02h0a18.539,18.539,0,0,0,28.927-13.938l.907-12.133A11.514,11.514,0,0,0,644.6,151.556Z" transform="translate(-80.323 32.03)"/><path class="f" d="M726.6,138.556l-10.962,5.282a18.538,18.538,0,0,0-2.393,32.02h0a18.539,18.539,0,0,0,28.927-13.938l.907-12.133A11.514,11.514,0,0,0,726.6,138.556Z" transform="translate(-80.338 29.262)"/><path class="f" d="M506.6,187.556l-10.962,5.282a18.538,18.538,0,0,0-2.393,32.02h0a18.539,18.539,0,0,0,28.927-13.938l.907-12.133A11.514,11.514,0,0,0,506.6,187.556Z" transform="translate(-80.3 39.697)"/><path class="f" d="M726.6,9.556l-10.962,5.282a18.538,18.538,0,0,0-2.393,32.02h0A18.539,18.539,0,0,0,742.173,32.92l.907-12.133A11.514,11.514,0,0,0,726.6,9.556Z" transform="translate(-80.338 0)"/><path class="f" d="M677.63,437.584l3.149,11.753a18.539,18.539,0,0,0,31.016,8.31h0a18.538,18.538,0,0,0-8.311-31.015l-11.753-3.149A11.513,11.513,0,0,0,677.63,437.584Z" transform="translate(-80.333 89.888)"/><path class="f" d="M535.256,683.68l2.825,10.544a16.632,16.632,0,0,0,27.826,7.456h0a16.632,16.632,0,0,0-7.456-27.826l-10.544-2.825A10.329,10.329,0,0,0,535.256,683.68Z" transform="translate(-80.308 150.846)"/><path class="f" d="M865.422,718.961l2.825,10.544a16.632,16.632,0,0,0,27.826,7.456h0a16.632,16.632,0,0,0-7.456-27.826l-10.544-2.825A10.329,10.329,0,0,0,865.422,718.961Z" transform="translate(-80.365 150.846)"/><path class="f" d="M433.447,606.294l-3.139,7.557A12.469,12.469,0,0,0,443.437,631h0a12.469,12.469,0,0,0,8.286-19.944l-4.975-6.5A7.744,7.744,0,0,0,433.447,606.294Z" transform="translate(-80.289 150.846)"/><path class="f" d="M604.141,272.44l2.642-11.877a18.539,18.539,0,0,0-23.66-21.709h0a18.539,18.539,0,0,0-6.97,31.344l8.965,8.226A11.513,11.513,0,0,0,604.141,272.44Z" transform="translate(-80.314 50.81)"/><path class="f" d="M628.041,270.356l8.727,8.479a18.538,18.538,0,0,0,30.892-8.757h0A18.538,18.538,0,0,0,644.631,247.7l-11.707,3.318A11.513,11.513,0,0,0,628.041,270.356Z" transform="translate(-80.324 52.26)"/><path class="f" d="M557.715,331.732l-6.084,10.537a18.539,18.539,0,0,0,16.055,27.808h0a18.539,18.539,0,0,0,16.055-27.808l-6.084-10.537A11.513,11.513,0,0,0,557.715,331.732Z" transform="translate(-80.311 69.658)"/><path class="f" d="M599.711,404.363l-12.1-1.263a18.539,18.539,0,0,0-18.854,25.992h0a18.54,18.54,0,0,0,31.937,3.332l7.144-9.85A11.513,11.513,0,0,0,599.711,404.363Z" transform="translate(-80.314 85.269)"/><path class="f" d="M548.155,488.689l-11.771-3.084a18.539,18.539,0,0,0-22.578,22.831h0a18.539,18.539,0,0,0,31.062,8.138l8.555-8.652A11.513,11.513,0,0,0,548.155,488.689Z" transform="translate(-80.305 102.62)"/><path class="f" d="M505.68,563.789l12.145-.747A18.538,18.538,0,0,0,532.141,534.3h0a18.538,18.538,0,0,0-32.049,1.972l-5.425,10.891A11.514,11.514,0,0,0,505.68,563.789Z" transform="translate(-80.302 111.409)"/><path class="f" d="M955.068,536.705l10.355-6.391a18.538,18.538,0,0,0-.943-32.1h0a18.538,18.538,0,0,0-27.324,16.863l.357,12.163A11.513,11.513,0,0,0,955.068,536.705Z" transform="translate(-80.402 105.74)"/><path class="f" d="M623.386,626.816l10.863-.669a16.583,16.583,0,0,0,12.807-25.709h0a16.583,16.583,0,0,0-28.669,1.764l-4.853,9.742A10.3,10.3,0,0,0,623.386,626.816Z" transform="translate(-80.322 124.904)"/><path class="f" d="M840.68,699.789l12.145-.747A18.538,18.538,0,0,0,867.141,670.3h0a18.538,18.538,0,0,0-32.049,1.972l-5.425,10.891A11.514,11.514,0,0,0,840.68,699.789Z" transform="translate(-80.359 150.846)"/><path class="g" d="M585.939,520.631l-.493,12.157a18.538,18.538,0,0,0,27.135,17.167h0a18.538,18.538,0,0,0,1.3-32.083L603.6,511.367A11.513,11.513,0,0,0,585.939,520.631Z" transform="translate(-80.317 108.65)"/><path class="g" d="M484.939,598.631l-.493,12.157a18.538,18.538,0,0,0,27.135,17.167h0a18.538,18.538,0,0,0,1.3-32.083L502.6,589.367A11.513,11.513,0,0,0,484.939,598.631Z" transform="translate(-80.3 125.281)"/><path class="g" d="M620.939,393.631l-.493,12.157a18.538,18.538,0,0,0,27.135,17.167h0a18.538,18.538,0,0,0,1.3-32.083L638.6,384.367A11.513,11.513,0,0,0,620.939,393.631Z" transform="translate(-80.323 81.571)"/><path class="g" d="M487.939,315.631l-.493,12.157a18.538,18.538,0,0,0,27.135,17.167h0a18.538,18.538,0,0,0,1.3-32.083L505.6,306.367A11.513,11.513,0,0,0,487.939,315.631Z" transform="translate(-80.3 64.94)"/><path class="g" d="M528.939,201.631l-.493,12.157a18.538,18.538,0,0,0,27.135,17.167h0a18.538,18.538,0,0,0,1.3-32.083l-10.283-6.5A11.513,11.513,0,0,0,528.939,201.631Z" transform="translate(-80.307 40.633)"/><path class="g" d="M643.939,101.631l-.493,12.157a18.538,18.538,0,0,0,27.135,17.167h0a18.538,18.538,0,0,0,1.3-32.083L661.6,92.367A11.513,11.513,0,0,0,643.939,101.631Z" transform="translate(-80.327 0)"/><path class="g" d="M671.849,232.589l4.4-11.343a18.538,18.538,0,0,0-20.115-25.028h0a18.538,18.538,0,0,0-11.618,29.934l7.622,9.484A11.514,11.514,0,0,0,671.849,232.589Z" transform="translate(-80.326 41.873)"/><path class="g" d="M495.821,142.162l11.914-2.472A18.538,18.538,0,0,0,517.806,109.2h0a18.538,18.538,0,0,0-31.44,6.523l-3.816,11.553A11.514,11.514,0,0,0,495.821,142.162Z" transform="translate(-80.299 0)"/><path class="g" d="M547.939,640.631l-.493,12.157a18.538,18.538,0,0,0,27.135,17.167h0a18.538,18.538,0,0,0,1.3-32.083L565.6,631.367A11.513,11.513,0,0,0,547.939,640.631Z" transform="translate(-80.31 150.846)"/><path class="g" d="M665.939,612.631l-.493,12.157a18.538,18.538,0,0,0,27.135,17.167h0a18.538,18.538,0,0,0,1.3-32.083L683.6,603.367A11.513,11.513,0,0,0,665.939,612.631Z" transform="translate(-80.331 150.846)"/><path class="g" d="M665.939,689.595l-.493,12.157a18.538,18.538,0,0,0,27.135,17.167h0a18.538,18.538,0,0,0,1.3-32.083L683.6,680.331A11.514,11.514,0,0,0,665.939,689.595Z" transform="translate(-80.331 150.846)"/><path class="g" d="M678.939,376.631l-.493,12.157a18.538,18.538,0,0,0,27.135,17.167h0a18.538,18.538,0,0,0,1.3-32.083L696.6,367.367A11.513,11.513,0,0,0,678.939,376.631Z" transform="translate(-80.333 77.946)"/><path class="g" d="M673.939,247.631l-.493,12.157a18.538,18.538,0,0,0,27.135,17.167h0a18.538,18.538,0,0,0,1.3-32.083l-10.283-6.5A11.513,11.513,0,0,0,673.939,247.631Z" transform="translate(-80.332 50.441)"/><path class="g" d="M509.815,491.636l9.581-7.5a18.538,18.538,0,0,0-4.5-31.793h0a18.538,18.538,0,0,0-25.284,19.791l1.7,12.048A11.514,11.514,0,0,0,509.815,491.636Z" transform="translate(-80.3 96.236)"/><path class="g" d="M623.815,723.636l9.581-7.5a18.538,18.538,0,0,0-4.5-31.793h0a18.538,18.538,0,0,0-25.284,19.791l1.7,12.048A11.514,11.514,0,0,0,623.815,723.636Z" transform="translate(-80.32 150.846)"/><path class="d" d="M639.62,318.528h0a11.056,11.056,0,0,0,9.575,16.584h0a11.056,11.056,0,0,0,9.575-16.584h0A11.056,11.056,0,0,0,639.62,318.528Z" transform="translate(-80.325 64.865)"/><path class="d" d="M461.849,104.515,456.534,107a11.056,11.056,0,0,0-1.822,18.963l4.6,3.341a11.056,11.056,0,0,0,17.471-7.6l.716-5.821A11.056,11.056,0,0,0,461.849,104.515Z" transform="translate(-80.293 0)"/><path class="g" d="M314.192,136.2l-12.656,5.821a11.055,11.055,0,0,0-1.767,19.068l11.375,8.051a11.056,11.056,0,0,0,17.4-8.008l1.281-13.872A11.056,11.056,0,0,0,314.192,136.2Z" transform="translate(-80.267 28.558)"/><path class="g" d="M304.769,74.093l10.248-15.512A11.057,11.057,0,0,0,306.7,41.468L288.876,40a11.055,11.055,0,0,0-11,15.523L285.448,72.5A11.055,11.055,0,0,0,304.769,74.093Z" transform="translate(-80.264 0)"/><path class="d" d="M573.62,561.528h0a11.056,11.056,0,0,0,9.575,16.584h0a11.056,11.056,0,0,0,9.575-16.584h0A11.056,11.056,0,0,0,573.62,561.528Z" transform="translate(-80.313 115.224)"/><path class="d" d="M907.179,706.472h0a11.056,11.056,0,0,0,9.575,16.584h0a11.056,11.056,0,0,0,9.574-16.584h0A11.056,11.056,0,0,0,907.179,706.472Z" transform="translate(-80.37 150.846)"/><path class="d" d="M708.985,719.64l-5.924,9.191a11.056,11.056,0,0,0,9.293,17.045H724.2a11.056,11.056,0,0,0,9.293-17.045l-5.924-9.191A11.056,11.056,0,0,0,708.985,719.64Z" transform="translate(-80.336 150.846)"/><path class="d" d="M468.62,435.528h0a11.056,11.056,0,0,0,9.575,16.584h0a11.056,11.056,0,0,0,9.575-16.584h0A11.056,11.056,0,0,0,468.62,435.528Z" transform="translate(-80.296 89.112)"/><path class="g" d="M399.62,493.528h0a11.056,11.056,0,0,0,9.575,16.584h0a11.056,11.056,0,0,0,9.575-16.584h0A11.056,11.056,0,0,0,399.62,493.528Z" transform="translate(-80.284 101.131)"/><path class="g" d="M156.766,493.7l-3.71,7.41a11.057,11.057,0,0,0,9.887,16.005h7.418a11.057,11.057,0,0,0,9.887-16.005l-3.709-7.41A11.055,11.055,0,0,0,156.766,493.7Z" transform="translate(-80.23 102.086)"/><path class="d" d="M628.62,529.528h0a11.056,11.056,0,0,0,9.575,16.584h0a11.056,11.056,0,0,0,9.575-16.584h0A11.056,11.056,0,0,0,628.62,529.528Z" transform="translate(-80.323 108.592)"/><path class="d" d="M1055.79,709.5l-5.515,8.44a11.056,11.056,0,0,0,9.256,17.1h11.028a11.056,11.056,0,0,0,9.256-17.1l-5.515-8.44A11.055,11.055,0,0,0,1055.79,709.5Z" transform="translate(-80.402 150.846)"/><path class="e" d="M996.07,644.119l-4.516,6.853a11.056,11.056,0,0,0,9.231,17.14h9.032a11.056,11.056,0,0,0,9.232-17.14l-4.516-6.853A11.056,11.056,0,0,0,996.07,644.119Z" transform="translate(-80.402 150.846)"/><path class="f" d="M478.118,727.977l-1.781,3.084a11.056,11.056,0,0,0,9.575,16.584h3.561a11.056,11.056,0,0,0,9.574-16.584l-1.78-3.084A11.056,11.056,0,0,0,478.118,727.977Z" transform="translate(-80.297 150.846)"/><path class="f" d="M722.618,710l6.592,3.133a11.056,11.056,0,0,0,15.782-10.648l-.423-7.033a11.055,11.055,0,0,0-16.942-8.682l-6.17,3.9A11.056,11.056,0,0,0,722.618,710Z" transform="translate(-80.338 150.846)"/><path class="e" d="M198.561,746.778l12.994-.72a11.056,11.056,0,0,0,8.963-16.567l-5.873-10.172a11.056,11.056,0,0,0-18.829-.522L188.7,729.69A11.056,11.056,0,0,0,198.561,746.778Z" transform="translate(-80.23 150.846)"/><path class="d" d="M642.22,712.97l-3.993,9.611a11.056,11.056,0,0,0,11.642,15.2l10.32-1.347a11.056,11.056,0,0,0,7.347-17.684l-6.328-8.264A11.055,11.055,0,0,0,642.22,712.97Z" transform="translate(-80.325 150.846)"/><path class="f" d="M457.613,595.528h0a11.056,11.056,0,0,0,9.574,16.584h0a11.056,11.056,0,0,0,9.575-16.584h0A11.055,11.055,0,0,0,457.613,595.528Z" transform="translate(-80.294 122.27)"/><path class="f" d="M641.613,673.528h0a11.056,11.056,0,0,0,9.574,16.584h0a11.056,11.056,0,0,0,9.575-16.584h0A11.055,11.055,0,0,0,641.613,673.528Z" transform="translate(-80.325 150.846)"/><path class="f" d="M676.322,657.011h0a11.056,11.056,0,0,0,9.575,16.583h0a11.056,11.056,0,0,0,9.575-16.583h0A11.056,11.056,0,0,0,676.322,657.011Z" transform="translate(-80.331 150.846)"/><path class="f" d="M758.7,537.041l5.694,3.71a11.056,11.056,0,0,0,17.092-9.263v-7.42A11.056,11.056,0,0,0,764.39,514.8l-5.694,3.71A11.056,11.056,0,0,0,758.7,537.041Z" transform="translate(-80.345 107.411)"/><path class="f" d="M435.613,681.528h0a11.056,11.056,0,0,0,9.574,16.584h0a11.056,11.056,0,0,0,9.575-16.584h0A11.055,11.055,0,0,0,435.613,681.528Z" transform="translate(-80.29 150.846)"/><path class="f" d="M388.652,700.927l-.462,20.436a11.056,11.056,0,0,0,14.924,10.606l14.216-5.313a11.056,11.056,0,0,0,4.308-17.795l-13.753-15.123A11.056,11.056,0,0,0,388.652,700.927Z" transform="translate(-80.283 150.846)"/><path class="g" d="M469.8,237.46l-2.927,5.054a11.056,11.056,0,0,0,9.566,16.6H482.3a11.056,11.056,0,0,0,9.567-16.6l-2.928-5.054A11.056,11.056,0,0,0,469.8,237.46Z" transform="translate(-80.296 48.404)"/><path class="f" d="M382.752,338.528h0a11.056,11.056,0,0,0,9.575,16.584h0a11.056,11.056,0,0,0,9.574-16.584h0A11.055,11.055,0,0,0,382.752,338.528Z" transform="translate(-80.281 69.01)"/><path class="f" d="M333.914,425.032l8.019-8.019a11.056,11.056,0,0,0-3.486-17.99l-7.8-3.32a11.056,11.056,0,0,0-15.385,9.956L315.043,417A11.056,11.056,0,0,0,333.914,425.032Z" transform="translate(-80.27 83.118)"/><path class="h" d="M301.789,695.972h0a11.056,11.056,0,0,0,9.575,16.584h0a11.056,11.056,0,0,0,9.574-16.584h0A11.055,11.055,0,0,0,301.789,695.972Z" transform="translate(-80.268 150.846)"/><path class="h" d="M530.658,606.821l-3.244,5.925a11.056,11.056,0,0,0,9.7,16.366H543.6a11.056,11.056,0,0,0,9.7-16.366l-3.244-5.925A11.056,11.056,0,0,0,530.658,606.821Z" transform="translate(-80.306 150.846)"/><path class="h" d="M612.082,563.7l-3.945,6.833a11.056,11.056,0,0,0,9.575,16.584h7.89a11.056,11.056,0,0,0,9.574-16.584l-3.945-6.833A11.056,11.056,0,0,0,612.082,563.7Z" transform="translate(-80.32 116.769)"/><path class="h" d="M544.027,264.528h0a11.056,11.056,0,0,0,9.575,16.584h0a11.056,11.056,0,0,0,9.574-16.584h0A11.055,11.055,0,0,0,544.027,264.528Z" transform="translate(-80.308 53.674)"/><path class="d" d="M286.564,276.5l6.587-12.047a11.056,11.056,0,0,0-8.9-16.332l-11.375-.822a11.056,11.056,0,0,0-11.159,14.882L266.5,275.05A11.056,11.056,0,0,0,286.564,276.5Z" transform="translate(-80.261 52.166)"/><path class="h" d="M530.892,325.776l-.541.993a11.056,11.056,0,0,0,9.71,16.343h1.081a11.056,11.056,0,0,0,9.71-16.343l-.541-.993A11.055,11.055,0,0,0,530.892,325.776Z" transform="translate(-80.306 66.408)"/><path class="h" d="M413.843,214.6h0a9.133,9.133,0,0,0,8.012,13.515h0a9.133,9.133,0,0,0,8.013-13.515h0A9.132,9.132,0,0,0,413.843,214.6Z" transform="translate(-80.286 43.259)"/><path class="h" d="M186.843,342.6h0a9.133,9.133,0,0,0,8.012,13.515h0a9.133,9.133,0,0,0,8.013-13.515h0A9.132,9.132,0,0,0,186.843,342.6Z" transform="translate(-80.23 69.646)"/><path class="h" d="M296.151,509.776l1.9,8.4a9.133,9.133,0,0,0,15.049,4.743l6.277-5.7a9.132,9.132,0,0,0-3.284-15.433l-8.178-2.694A9.132,9.132,0,0,0,296.151,509.776Z" transform="translate(-80.267 103.984)"/><path class="h" d="M239.347,650.816l19.86-2.593a9.133,9.133,0,0,0,6.208-14.42l-11.237-15.484a9.134,9.134,0,0,0-15.635,1.432l-8.622,18.078A9.133,9.133,0,0,0,239.347,650.816Z" transform="translate(-80.23 150.846)"/><path class="h" d="M115.151,398.776l1.9,8.4a9.133,9.133,0,0,0,15.049,4.743l6.277-5.7a9.132,9.132,0,0,0-3.284-15.433l-8.178-2.694A9.132,9.132,0,0,0,115.151,398.776Z" transform="translate(-80.23 80.836)"/><path class="f" d="M163.151,569.776l1.9,8.4a9.133,9.133,0,0,0,15.049,4.743l6.277-5.7a9.132,9.132,0,0,0-3.284-15.433l-8.178-2.694A9.132,9.132,0,0,0,163.151,569.776Z" transform="translate(-80.23 116.497)"/><path class="g" d="M242.843,230.6h0a9.133,9.133,0,0,0,8.012,13.515h0a9.133,9.133,0,0,0,8.013-13.515h0A9.132,9.132,0,0,0,242.843,230.6Z" transform="translate(-80.23 46.558)"/><path class="g" d="M134.843,160.6h0a9.133,9.133,0,0,0,8.012,13.515h0a9.133,9.133,0,0,0,8.013-13.515h0A9.132,9.132,0,0,0,134.843,160.6Z" transform="translate(-80.23 32.128)"/><path class="h" d="M485.027,167.528h0a11.056,11.056,0,0,0,9.575,16.584h0a11.056,11.056,0,0,0,9.574-16.584h0A11.055,11.055,0,0,0,485.027,167.528Z" transform="translate(-80.298 33.573)"/><path class="h" d="M270.027,95.528h0a11.056,11.056,0,0,0,9.575,16.584h0a11.056,11.056,0,0,0,9.574-16.584h0A11.055,11.055,0,0,0,270.027,95.528Z" transform="translate(-80.262 0)"/><path class="h" d="M468.027,42.528h0A11.056,11.056,0,0,0,477.6,59.112h0a11.056,11.056,0,0,0,9.574-16.584h0A11.055,11.055,0,0,0,468.027,42.528Z" transform="translate(-80.296 0)"/><path class="d" d="M731.027,111.528h0a11.056,11.056,0,0,0,9.575,16.584h0a11.056,11.056,0,0,0,9.574-16.584h0A11.055,11.055,0,0,0,731.027,111.528Z" transform="translate(-80.34 0)"/><path class="e" d="M742.027,180.528h0a11.056,11.056,0,0,0,9.575,16.584h0a11.056,11.056,0,0,0,9.574-16.584h0A11.055,11.055,0,0,0,742.027,180.528Z" transform="translate(-80.342 36.267)"/><path class="d" d="M859.867,363.937l5.493,5.606a11.056,11.056,0,0,0,18.474-4.518l2.192-7.2A11.056,11.056,0,0,0,873.2,343.78l-7.685,1.594A11.056,11.056,0,0,0,859.867,363.937Z" transform="translate(-80.362 71.907)"/><path class="g" d="M898.027,228.528h0a11.056,11.056,0,0,0,9.575,16.584h0a11.056,11.056,0,0,0,9.574-16.584h0A11.055,11.055,0,0,0,898.027,228.528Z" transform="translate(-80.368 46.214)"/><path class="g" d="M739.027,402.528h0a11.056,11.056,0,0,0,9.575,16.584h0a11.056,11.056,0,0,0,9.574-16.584h0A11.055,11.055,0,0,0,739.027,402.528Z" transform="translate(-80.341 82.273)"/><path class="g" d="M880.027,478.528h0a11.056,11.056,0,0,0,9.575,16.584h0a11.056,11.056,0,0,0,9.574-16.584h0A11.055,11.055,0,0,0,880.027,478.528Z" transform="translate(-80.365 98.023)"/><path class="h" d="M750.295,552.079l-4.375,7.2a11.056,11.056,0,0,0,9.447,16.8h8.751a11.056,11.056,0,0,0,9.447-16.8l-4.375-7.2A11.056,11.056,0,0,0,750.295,552.079Z" transform="translate(-80.343 114.441)"/><path class="e" d="M879.971,138.345l.631-12.726a8.886,8.886,0,0,0-12.832-8.4l-11.16,5.551a8.886,8.886,0,0,0-1.048,15.3l10.53,7.176A8.886,8.886,0,0,0,879.971,138.345Z" transform="translate(-80.362 0)"/><path class="f" d="M586.856,84.083l-1.678-12.221A11.056,11.056,0,0,0,567.7,64.443l-9.464,6.926a11.056,11.056,0,0,0,1.783,18.907l11.141,5.295A11.056,11.056,0,0,0,586.856,84.083Z" transform="translate(-80.311 0)"/><path class="e" d="M263.19,7.737l-8.774,3.433A11.055,11.055,0,0,0,251.411,30l7.077,5.835A11.056,11.056,0,0,0,276.4,29.292l1.7-9.268A11.055,11.055,0,0,0,263.19,7.737Z" transform="translate(-80.23 0)"/><path class="h" d="M538.438,445.836l-2.489,11.91a18.538,18.538,0,0,0,23.935,21.4h0a18.538,18.538,0,0,0,6.569-31.43l-9.07-8.111A11.514,11.514,0,0,0,538.438,445.836Z" transform="translate(-80.308 93.224)"/><path class="h" d="M459.547,518.887l4.668-11.236a18.538,18.538,0,0,0-19.52-25.495h0a18.539,18.539,0,0,0-12.319,29.653l7.4,9.66A11.513,11.513,0,0,0,459.547,518.887Z" transform="translate(-80.29 102.982)"/><path class="h" d="M612.124,209.732l-6.083,10.537a18.538,18.538,0,0,0,16.054,27.808h0a18.539,18.539,0,0,0,16.055-27.808l-6.083-10.537A11.514,11.514,0,0,0,612.124,209.732Z" transform="translate(-80.32 43.588)"/><path class="h" d="M531.547,29.728l-2.571,11.893a18.538,18.538,0,0,0,23.787,21.568h0a18.538,18.538,0,0,0,6.785-31.384l-9.014-8.173A11.513,11.513,0,0,0,531.547,29.728Z" transform="translate(-80.307 0)"/><path class="h" d="M610.59,427.826l-8.6,8.6a18.538,18.538,0,0,0,8.31,31.015h0A18.538,18.538,0,0,0,633,444.74l-3.149-11.752A11.514,11.514,0,0,0,610.59,427.826Z" transform="translate(-80.319 90.643)"/><path class="h" d="M662.929,546.715l11.987,2.087A18.538,18.538,0,0,0,695.5,524.16h0a18.539,18.539,0,0,0-31.634-5.507l-7.8,9.338A11.513,11.513,0,0,0,662.929,546.715Z" transform="translate(-80.329 108.334)"/><path class="h" d="M835.929,591.715l11.987,2.087A18.538,18.538,0,0,0,868.5,569.16h0a18.539,18.539,0,0,0-31.634-5.507l-7.8,9.338A11.513,11.513,0,0,0,835.929,591.715Z" transform="translate(-80.359 117.855)"/><path class="h" d="M644.645,567.89l.971,12.128a18.539,18.539,0,0,0,29,13.784h0a18.538,18.538,0,0,0-2.563-32.007l-10.99-5.223A11.513,11.513,0,0,0,644.645,567.89Z" transform="translate(-80.327 118.284)"/><path class="h" d="M702.645,651.89l.971,12.128a18.539,18.539,0,0,0,29,13.784h0a18.538,18.538,0,0,0-2.563-32.007l-10.99-5.223A11.513,11.513,0,0,0,702.645,651.89Z" transform="translate(-80.337 150.846)"/><path class="h" d="M576.6,320.708l10.018-6.906a18.538,18.538,0,0,0-2.563-32.007h0a18.539,18.539,0,0,0-26.438,18.223l.971,12.129A11.514,11.514,0,0,0,576.6,320.708Z" transform="translate(-80.312 59.717)"/><path class="h" d="M703.6,229.708l10.018-6.906a18.538,18.538,0,0,0-2.563-32.007h0a18.539,18.539,0,0,0-26.438,18.223l.971,12.129A11.514,11.514,0,0,0,703.6,229.708Z" transform="translate(-80.334 40.307)"/><path class="h" d="M619.6,130.708l10.018-6.906a18.538,18.538,0,0,0-2.563-32.007h0a18.539,18.539,0,0,0-26.438,18.223l.971,12.129A11.514,11.514,0,0,0,619.6,130.708Z" transform="translate(-80.32 0)"/><path class="h" d="M567.59,109.071l-10.055-6.852a18.538,18.538,0,0,0-28.926,13.938h0a18.538,18.538,0,0,0,26.533,18.082l10.962-5.281A11.514,11.514,0,0,0,567.59,109.071Z" transform="translate(-80.308 0)"/><path class="h" d="M489.186,267.792l-12.1,1.317a18.538,18.538,0,0,0-12.952,29.381h0a18.538,18.538,0,0,0,31.921-3.474l4.908-11.133A11.514,11.514,0,0,0,489.186,267.792Z" transform="translate(-80.296 56.748)"/><path class="h" d="M636.921,360.633l6.719,10.143a18.538,18.538,0,0,0,32.049-1.972h0a18.538,18.538,0,0,0-17.732-26.769l-12.145.747A11.514,11.514,0,0,0,636.921,360.633Z" transform="translate(-80.326 72.363)"/><path class="h" d="M750.469,299.852l-8.555,8.651a18.539,18.539,0,0,0,8.483,30.969h0a18.539,18.539,0,0,0,22.578-22.831L769.761,304.9A11.514,11.514,0,0,0,750.469,299.852Z" transform="translate(-80.343 63.306)"/><path class="h" d="M227.469,180.852l-8.555,8.651a18.539,18.539,0,0,0,8.483,30.969h0a18.539,18.539,0,0,0,22.578-22.831L246.761,185.9A11.514,11.514,0,0,0,227.469,180.852Z" transform="translate(-80.23 37.892)"/><path class="h" d="M563.146,514.737l-11.22,4.706a18.538,18.538,0,0,0-4.051,31.853h0a18.539,18.539,0,0,0,29.611-12.419l1.535-12.07A11.514,11.514,0,0,0,563.146,514.737Z" transform="translate(-80.309 109.362)"/><path class="h" d="M987.878,356.73l7.632,20.826a22.944,22.944,0,0,0,39.152,6.816l4.565-5.465a22.944,22.944,0,0,0-13.673-37.314l-21.852-3.8A14.249,14.249,0,0,0,987.878,356.73Z" transform="translate(-80.402 73.272)"/><path class="h" d="M949.534,274.656,933.626,259.2a22.945,22.945,0,0,0-38.235,10.837l-1.743,6.9a22.944,22.944,0,0,0,28.5,27.694l21.339-6.049A14.25,14.25,0,0,0,949.534,274.656Z" transform="translate(-80.373 54.676)"/><path class="h" d="M918.707,62.729l20.84,7.591A22.944,22.944,0,0,0,970,44.783l-1.235-7.013a22.944,22.944,0,0,0-37.34-13.6L914.427,38.421A14.25,14.25,0,0,0,918.707,62.729Z" transform="translate(-80.402 0)"/><path class="h" d="M1036.047,150.829l24.319,22.051a22.945,22.945,0,0,0,37.839-12.149l3.755-17.368a22.944,22.944,0,0,0-29.441-26.694L1041.263,126.7A14.25,14.25,0,0,0,1036.047,150.829Z" transform="translate(-80.402 25.381)"/><path class="h" d="M893.844,55.116,872.726,61.9a22.944,22.944,0,0,0-8.4,38.843l5.275,4.783a22.944,22.944,0,0,0,37.838-12.149l4.687-21.679A14.25,14.25,0,0,0,893.844,55.116Z" transform="translate(-80.366 0)"/><path class="h" d="M234.758,470.992v22.18a22.945,22.945,0,0,0,34.417,19.87l6.167-3.56a22.945,22.945,0,0,0,0-39.741l-19.209-11.09A14.25,14.25,0,0,0,234.758,470.992Z" transform="translate(-80.23 99.764)"/><path class="h" d="M321.341,604.794l9.037,20.255a22.945,22.945,0,0,0,39.527,4.123l4.181-5.763a22.945,22.945,0,0,0-16.193-36.293l-22.06-2.3A14.25,14.25,0,0,0,321.341,604.794Z" transform="translate(-80.272 150.846)"/><path class="d" d="M275.139,683.612h22.18a22.945,22.945,0,0,0,19.87-34.417l-3.56-6.167a22.945,22.945,0,0,0-39.741,0L262.8,662.237A14.25,14.25,0,0,0,275.139,683.612Z" transform="translate(-80.262 150.846)"/><path class="h" d="M880.023,602.382,878.37,624.5a22.945,22.945,0,0,0,32.84,22.381l6.415-3.091a22.945,22.945,0,0,0,2.962-39.631l-18.329-12.49A14.249,14.249,0,0,0,880.023,602.382Z" transform="translate(-80.369 150.846)"/><path class="h" d="M907.077,586.02,926.6,596.541a22.945,22.945,0,0,0,33.819-20.872l-.209-7.117A22.944,22.944,0,0,0,925.227,549.7l-18.875,11.649A14.25,14.25,0,0,0,907.077,586.02Z" transform="translate(-80.374 118.232)"/><path class="h" d="M232.911,558.35l-21.717,4.506a22.944,22.944,0,0,0-12.465,37.735l4.739,5.315a22.944,22.944,0,0,0,38.912-8.072l6.957-21.061A14.251,14.251,0,0,0,232.911,558.35Z" transform="translate(-80.23 121.215)"/><path class="h" d="M1030.911,469.35l-21.717,4.506a22.944,22.944,0,0,0-12.465,37.735l4.739,5.315a22.944,22.944,0,0,0,38.912-8.072l6.957-21.061A14.251,14.251,0,0,0,1030.911,469.35Z" transform="translate(-80.402 101.883)"/><path class="h" d="M993.466,729.274l22.128,1.523a22.944,22.944,0,0,0,22.186-32.971l-3.128-6.4a22.944,22.944,0,0,0-39.647-2.728l-12.383,18.4A14.25,14.25,0,0,0,993.466,729.274Z" transform="translate(-80.402 150.846)"/><path class="h" d="M276.261,333.18l15.23,3.99a22.944,22.944,0,0,0,27.944-28.257l-.181-.661a22.944,22.944,0,0,0-38.443-10.071L269.74,309.375A14.251,14.251,0,0,0,276.261,333.18Z" transform="translate(-80.263 62.481)"/><path class="h" d="M367.742,210.05l1.367-15.684a22.944,22.944,0,0,0-32.56-22.785l-.621.29a22.944,22.944,0,0,0-3.452,39.59l12.9,9.027A14.25,14.25,0,0,0,367.742,210.05Z" transform="translate(-80.272 36.697)"/><path class="h" d="M193.261,138.18l15.23,3.99a22.944,22.944,0,0,0,27.944-28.257l-.181-.661a22.944,22.944,0,0,0-38.443-10.071L186.74,114.375A14.251,14.251,0,0,0,193.261,138.18Z" transform="translate(-80.23 0)"/><path class="h" d="M259.106,387.146l-21.456-5.621a22.945,22.945,0,0,0-27.944,28.258l1.881,6.867a22.945,22.945,0,0,0,38.444,10.072l15.6-15.771A14.251,14.251,0,0,0,259.106,387.146Z" transform="translate(-80.23 82.378)"/><path class="h" d="M209.106,278.146l-21.456-5.621a22.945,22.945,0,0,0-27.944,28.258l1.881,6.867a22.945,22.945,0,0,0,38.444,10.072l15.6-15.771A14.251,14.251,0,0,0,209.106,278.146Z" transform="translate(-80.23 58.796)"/><path class="h" d="M897.106,423.146l-21.456-5.621a22.945,22.945,0,0,0-27.944,28.258l1.881,6.867a22.945,22.945,0,0,0,38.444,10.072l15.6-15.771A14.251,14.251,0,0,0,897.106,423.146Z" transform="translate(-80.365 90.167)"/><g transform="translate(7.528 1.112)"><g class="i"><g transform="translate(47.068 -30.25)"><path class="e" d="M474.717,14.126,468.977-7.3A22.939,22.939,0,0,0,430.6-17.584l-5.034,5.035a22.946,22.946,0,0,0,10.284,38.387l21.42,5.741A14.249,14.249,0,0,0,474.717,14.126Z" transform="translate(-134.882 29.138)"/><path class="f" d="M1033.732,52.421l28.918-13.936a22.946,22.946,0,0,0,2.962-39.63l-14.084-9.6a22.94,22.94,0,0,0-35.8,17.25l-2.393,32.016A14.249,14.249,0,0,0,1033.732,52.421Z" transform="translate(-134.981 29.138)"/><path class="g" d="M157.071-17.207,141.478-1.436a22.946,22.946,0,0,0,10.5,38.329l6.887,1.805A22.943,22.943,0,0,0,186.8,10.44l-5.859-21.391A14.247,14.247,0,0,0,157.071-17.207Z" transform="translate(-134.834 29.138)"/><path class="h" d="M622.151-.384l-4.489,13.591A21.807,21.807,0,0,0,642.8,41.4h0A21.808,21.808,0,0,0,654.641,5.534L645.117-5.15A13.541,13.541,0,0,0,622.151-.384Z" transform="translate(-134.915 29.138)"/><path class="e" d="M702.494,11.622,699.986-.284a18.534,18.534,0,0,0-30.515-9.976h0a18.539,18.539,0,0,0,6.619,31.419l11.563,3.781A11.513,11.513,0,0,0,702.494,11.622Z" transform="translate(-134.923 29.138)"/><path class="g" d="M573.939,5.631l-.493,12.157a18.535,18.535,0,0,0,27.13,17.167h0a18.54,18.54,0,0,0,1.3-32.083l-10.281-6.5A11.511,11.511,0,0,0,573.939,5.631Z" transform="translate(-134.908 29.138)"/><path class="h" d="M303.416-22.013,292.327-2.805a22.944,22.944,0,0,0,19.867,34.417h7.12A22.945,22.945,0,0,0,339.181-2.805L328.092-22.013A14.246,14.246,0,0,0,303.416-22.013Z" transform="translate(-134.86 29.138)"/></g></g></g><g transform="translate(7.528 863.179)"><g class="j"><g transform="translate(47.068 7.75)"><path class="e" d="M474.717,763.015l-5.74-21.424A22.939,22.939,0,0,0,430.6,731.3l-5.034,5.035a22.946,22.946,0,0,0,10.284,38.387l21.42,5.74A14.249,14.249,0,0,0,474.717,763.015Z" transform="translate(-134.882 -719.75)"/><path class="f" d="M1033.732,801.309l28.918-13.936a22.946,22.946,0,0,0,2.962-39.63l-14.084-9.6a22.941,22.941,0,0,0-35.8,17.251l-2.393,32.016A14.248,14.248,0,0,0,1033.732,801.309Z" transform="translate(-134.981 -719.75)"/><path class="g" d="M157.071,731.682l-15.593,15.771a22.946,22.946,0,0,0,10.5,38.329l6.887,1.8A22.943,22.943,0,0,0,186.8,759.329l-5.859-21.392A14.247,14.247,0,0,0,157.071,731.682Z" transform="translate(-134.834 -719.75)"/><path class="h" d="M622.151,748.5l-4.489,13.591A21.807,21.807,0,0,0,642.8,790.289h0a21.809,21.809,0,0,0,11.845-35.867l-9.523-10.683A13.541,13.541,0,0,0,622.151,748.5Z" transform="translate(-134.915 -719.75)"/><path class="e" d="M702.494,760.511,699.986,748.6a18.534,18.534,0,0,0-30.515-9.977h0a18.54,18.54,0,0,0,6.619,31.42l11.563,3.78A11.512,11.512,0,0,0,702.494,760.511Z" transform="translate(-134.923 -719.75)"/><path class="g" d="M573.939,754.519l-.493,12.158a18.536,18.536,0,0,0,27.13,17.167h0a18.54,18.54,0,0,0,1.3-32.083l-10.281-6.506A11.511,11.511,0,0,0,573.939,754.519Z" transform="translate(-134.908 -719.75)"/><path class="h" d="M303.416,726.875l-11.088,19.208A22.944,22.944,0,0,0,312.194,780.5h7.12a22.944,22.944,0,0,0,19.867-34.417l-11.088-19.208A14.246,14.246,0,0,0,303.416,726.875Z" transform="translate(-134.86 -719.75)"/></g></g></g><path class="h" d="M206.6,10.518l-8.876,8.976a14.437,14.437,0,0,0,6.606,24.116l3.045.8a14.437,14.437,0,0,0,17.582-17.78l-3.335-12.174A8.966,8.966,0,0,0,206.6,10.518Z" transform="translate(-80.23 0)"/></g><rect class="k" width="55" height="900" transform="translate(25)"/><rect class="l" width="25" height="900"/><rect class="m" width="41" height="900" transform="translate(80)"/><rect class="l" width="8.021" height="900" transform="translate(121 900) rotate(180)"/><rect class="n" width="8.021" height="900" transform="translate(113.021 900) rotate(180)"/><rect class="o" width="5.5" height="900"/><rect class="p" width="5.5" height="900" transform="translate(5.5)"/><rect class="q" width="3" height="900"/><rect class="r" width="2" height="900" transform="translate(78)"/><g transform="translate(0 91)"><g transform="translate(0 1)"><rect class="s" width="55" height="3" transform="translate(25)"/><rect class="t" width="25" height="3"/><rect class="t" width="41" height="3" transform="translate(80)"/></g><rect class="m" width="55" height="1" transform="translate(25)"/><rect class="m" width="25" height="1"/><rect class="m" width="41" height="1" transform="translate(80)"/></g><g transform="translate(0 292.101)"><g transform="translate(0 1)"><rect class="s" width="55" height="3" transform="translate(25)"/><rect class="t" width="25" height="3"/><rect class="t" width="41" height="3" transform="translate(80)"/></g><rect class="m" width="55" height="1" transform="translate(25)"/><rect class="m" width="25" height="1"/><rect class="m" width="41" height="1" transform="translate(80)"/></g><g transform="translate(0 474.904)"><g transform="translate(0 1)"><rect class="s" width="55" height="3" transform="translate(25)"/><rect class="t" width="25" height="3"/><rect class="t" width="41" height="3" transform="translate(80)"/></g><rect class="m" width="55" height="1" transform="translate(25)"/><rect class="m" width="25" height="1"/><rect class="m" width="41" height="1" transform="translate(80)"/></g><g transform="translate(0 657.707)"><g transform="translate(0 1)"><rect class="s" width="55" height="3" transform="translate(25)"/><rect class="t" width="25" height="3"/><rect class="t" width="41" height="3" transform="translate(80)"/></g><rect class="m" width="55" height="1" transform="translate(25)"/><rect class="m" width="25" height="1"/><rect class="m" width="41" height="1" transform="translate(80)"/></g><g transform="translate(0 849.8)"><g transform="translate(0 1)"><rect class="s" width="55" height="3" transform="translate(25)"/><rect class="t" width="25" height="3"/><rect class="t" width="41" height="3" transform="translate(80)"/></g><rect class="m" width="55" height="1" transform="translate(25)"/><rect class="m" width="25" height="1"/><rect class="m" width="41" height="1" transform="translate(80)"/></g><g transform="translate(1200 900) rotate(180)"><rect class="k" width="55" height="900" transform="translate(25)"/><rect class="l" width="25" height="900"/><rect class="m" width="41" height="900" transform="translate(80)"/><rect class="l" width="8.021" height="900" transform="translate(121 900) rotate(180)"/><rect class="n" width="8.021" height="900" transform="translate(113.021 900) rotate(180)"/><rect class="o" width="5.5" height="900"/><rect class="p" width="5.5" height="900" transform="translate(5.5)"/><rect class="q" width="3" height="900"/><rect class="r" width="2" height="900" transform="translate(78)"/><g transform="translate(0 90.999)"><g transform="translate(0 1)"><rect class="s" width="55" height="3" transform="translate(25)"/><rect class="t" width="25" height="3"/><rect class="t" width="41" height="3" transform="translate(80)"/></g><rect class="m" width="55" height="1" transform="translate(25)"/><rect class="m" width="25" height="1"/><rect class="m" width="41" height="1" transform="translate(80)"/></g><g transform="translate(0 292.101)"><g transform="translate(0 1)"><rect class="s" width="55" height="3" transform="translate(25)"/><rect class="t" width="25" height="3"/><rect class="t" width="41" height="3" transform="translate(80)"/></g><g transform="translate(0 0)"><rect class="m" width="55" height="1" transform="translate(25)"/><rect class="m" width="25" height="1"/><rect class="m" width="41" height="1" transform="translate(80)"/></g></g><g transform="translate(0 474.905)"><g transform="translate(0 1)"><rect class="s" width="55" height="3" transform="translate(25)"/><rect class="t" width="25" height="3"/><rect class="t" width="41" height="3" transform="translate(80)"/></g><g transform="translate(0 0)"><rect class="m" width="55" height="1" transform="translate(25)"/><rect class="m" width="25" height="1"/><rect class="m" width="41" height="1" transform="translate(80)"/></g></g><g transform="translate(0 657.708)"><g transform="translate(0 1)"><rect class="s" width="55" height="3" transform="translate(25)"/><rect class="t" width="25" height="3"/><rect class="t" width="41" height="3" transform="translate(80)"/></g><rect class="m" width="55" height="1" transform="translate(25)"/><rect class="m" width="25" height="1"/><rect class="m" width="41" height="1" transform="translate(80)"/></g><g transform="translate(0 849.8)"><g transform="translate(0 1)"><rect class="s" width="55" height="3" transform="translate(25)"/><rect class="t" width="25" height="3"/><rect class="t" width="41" height="3" transform="translate(80)"/></g><g transform="translate(0 0)"><rect class="m" width="55" height="1" transform="translate(25)"/><rect class="m" width="25" height="1"/><rect class="m" width="41" height="1" transform="translate(80)"/></g></g></g><g transform="translate(141)"><path class="u" d="M160.022,900c0-28.129-20.022-28.129-20.022-56.258s20.022-28.129,20.022-56.258S140,759.358,140,731.233s20.022-28.126,20.022-56.252S140,646.856,140,618.732s20.022-28.125,20.022-56.249S140,534.357,140,506.231s20.022-28.125,20.022-56.25S140,421.856,140,393.73s20.022-28.125,20.022-56.25S140,309.356,140,281.232s20.022-28.123,20.022-56.246S140,196.864,140,168.741s20.022-28.124,20.022-56.247S140,84.372,140,56.249,160.022,28.125,160.022,0H1060c0,28.125-20.022,28.125-20.022,56.249S1060,84.372,1060,112.494s-20.022,28.123-20.022,56.247S1060,196.864,1060,224.986s-20.022,28.123-20.022,56.246S1060,309.356,1060,337.48s-20.022,28.125-20.022,56.25S1060,421.856,1060,449.981s-20.022,28.125-20.022,56.25S1060,534.357,1060,562.483s-20.022,28.124-20.022,56.249S1060,646.856,1060,674.981s-20.022,28.126-20.022,56.252S1060,759.358,1060,787.484s-20.022,28.129-20.022,56.258S1060,871.871,1060,900Z" transform="translate(-140)"/><path class="v" d="M270.029,900c0-28.129-20.029-28.129-20.029-56.258s20.029-28.129,20.029-56.258S250,759.358,250,731.233s20.029-28.126,20.029-56.252S250,646.856,250,618.732s20.029-28.125,20.029-56.249S250,534.357,250,506.231s20.029-28.125,20.029-56.25S250,421.856,250,393.73s20.029-28.125,20.029-56.25S250,309.356,250,281.232s20.029-28.123,20.029-56.246S250,196.864,250,168.741s20.029-28.124,20.029-56.247S250,84.372,250,56.249,270.029,28.125,270.029,0H951c0,28.125-20.029,28.125-20.029,56.249S951,84.372,951,112.494s-20.029,28.123-20.029,56.247S951,196.864,951,224.986s-20.029,28.123-20.029,56.246S951,309.356,951,337.48s-20.029,28.125-20.029,56.25S951,421.856,951,449.981s-20.029,28.125-20.029,56.25S951,534.357,951,562.483s-20.029,28.124-20.029,56.249S951,646.856,951,674.981s-20.029,28.126-20.029,56.252S951,759.358,951,787.484s-20.029,28.129-20.029,56.258S951,871.871,951,900Z" transform="translate(-140)"/><path class="v" d="M210.025,900c0-28.129-20.025-28.129-20.025-56.258s20.025-28.129,20.025-56.258S190,759.358,190,731.233s20.025-28.126,20.025-56.252S190,646.856,190,618.732s20.025-28.125,20.025-56.249S190,534.357,190,506.231s20.025-28.125,20.025-56.25S190,421.856,190,393.73s20.025-28.125,20.025-56.25S190,309.356,190,281.232s20.025-28.123,20.025-56.246S190,196.864,190,168.741s20.025-28.124,20.025-56.247S190,84.372,190,56.249,210.025,28.125,210.025,0H997c0,28.125-20.025,28.125-20.025,56.249S997,84.372,997,112.494s-20.025,28.123-20.025,56.247S997,196.864,997,224.986s-20.025,28.123-20.025,56.246S997,309.356,997,337.48s-20.025,28.125-20.025,56.25S997,421.856,997,449.981s-20.025,28.125-20.025,56.25S997,534.357,997,562.483s-20.025,28.124-20.025,56.249S997,646.856,997,674.981s-20.025,28.126-20.025,56.252S997,759.358,997,787.484s-20.025,28.129-20.025,56.258S997,871.871,997,900Z" transform="translate(-140)"/><path class="w" d="M160,0c0,28.125-20,28.125-20,56.249s20,28.123,20,56.245-20,28.123-20,56.247,20,28.123,20,56.245-20,28.123-20,56.246,20,28.124,20,56.248-20,28.125-20,56.25,20,28.126,20,56.251-20,28.125-20,56.25,20,28.126,20,56.252-20,28.124-20,56.249,20,28.124,20,56.249-20,28.126-20,56.252,20,28.125,20,56.251-20,28.129-20,56.258S160,871.871,160,900" transform="translate(-140)"/><g transform="translate(900)"><path class="w" d="M1059,0c0,28.125-20,28.125-20,56.249s20,28.123,20,56.245-20,28.123-20,56.247,20,28.123,20,56.245-20,28.123-20,56.246,20,28.124,20,56.248-20,28.125-20,56.25,20,28.126,20,56.251-20,28.125-20,56.25,20,28.126,20,56.252-20,28.124-20,56.249,20,28.124,20,56.249-20,28.126-20,56.252,20,28.125,20,56.251-20,28.129-20,56.258,20,28.129,20,56.258" transform="translate(-1039)"/></g></g></g></svg>