<svg xmlns="http://www.w3.org/2000/svg" xmlns:xlink="http://www.w3.org/1999/xlink" width="1200" height="121" viewBox="0 0 1200 121"><defs><style>.a{fill:none;}.b{clip-path:url(#a);}.c{fill:#b6e3cf;}.d{fill:#f2f2f2;}.e,.j{fill:#fff;}.f{fill:#fafafa;}.g{fill:#ccc;}.h{fill:#e6e6e6;}.i{fill:#b3b3b3;}.j{opacity:0.4;}.k{fill:#809d87;}.l{fill:#9e9da1;}</style><clipPath id="a"><rect class="a" width="1200" height="121"/></clipPath></defs><g class="b"><g transform="translate(121 0)"><g transform="translate(0 0)"><rect class="c" width="55" height="958.068" transform="translate(958.068 25) rotate(90)"/><rect class="d" width="25" height="958.068" transform="translate(958.068) rotate(90)"/><rect class="e" width="41" height="958.068" transform="translate(958.068 80) rotate(90)"/><rect class="d" width="8.021" height="958.068" transform="translate(0 121) rotate(-90)"/><rect class="f" width="8.021" height="958.068" transform="translate(0 113.021) rotate(-90)"/><rect class="g" width="5.5" height="958.068" transform="translate(958.068) rotate(90)"/><rect class="h" width="5.5" height="958.068" transform="translate(958.068 5.5) rotate(90)"/><rect class="i" width="3" height="958.068" transform="translate(958.068) rotate(90)"/><rect class="j" width="2" height="958.068" transform="translate(958.068 78) rotate(90)"/></g><g transform="translate(805.068 0)"><rect class="k" width="55" height="3" transform="translate(3 25) rotate(90)"/><rect class="l" width="25" height="3" transform="translate(3) rotate(90)"/><rect class="l" width="41" height="3" transform="translate(3 80) rotate(90)"/><g transform="translate(3)"><rect class="e" width="55" height="1" transform="translate(1 25) rotate(90)"/><rect class="e" width="25" height="1" transform="translate(1) rotate(90)"/><rect class="e" width="41" height="1" transform="translate(1 80) rotate(90)"/></g></g><g transform="translate(652.847 0)"><rect class="k" width="55" height="3" transform="translate(3 25) rotate(90)"/><rect class="l" width="25" height="3" transform="translate(3) rotate(90)"/><rect class="l" width="41" height="3" transform="translate(3 80) rotate(90)"/><g transform="translate(3)"><rect class="e" width="55" height="1" transform="translate(1 25) rotate(90)"/><rect class="e" width="25" height="1" transform="translate(1) rotate(90)"/><rect class="e" width="41" height="1" transform="translate(1 80) rotate(90)"/></g></g><g transform="translate(500.636)"><rect class="k" width="55" height="3" transform="translate(3 25) rotate(90)"/><rect class="l" width="25" height="3" transform="translate(3) rotate(90)"/><rect class="l" width="41" height="3" transform="translate(3 80) rotate(90)"/><g transform="translate(3)"><rect class="e" width="55" height="1" transform="translate(1 25) rotate(90)"/><rect class="e" width="25" height="1" transform="translate(1) rotate(90)"/><rect class="e" width="41" height="1" transform="translate(1 80) rotate(90)"/></g></g><g transform="translate(348.425 0)"><rect class="k" width="55" height="3" transform="translate(3 25) rotate(90)"/><rect class="l" width="25" height="3" transform="translate(3) rotate(90)"/><rect class="l" width="41" height="3" transform="translate(3 80) rotate(90)"/><g transform="translate(3)"><rect class="e" width="55" height="1" transform="translate(1 25) rotate(90)"/><rect class="e" width="25" height="1" transform="translate(1) rotate(90)"/><rect class="e" width="41" height="1" transform="translate(1 80) rotate(90)"/></g></g><g transform="translate(196.214 0)"><rect class="k" width="55" height="3" transform="translate(3 25) rotate(90)"/><rect class="l" width="25" height="3" transform="translate(3) rotate(90)"/><rect class="l" width="41" height="3" transform="translate(3 80) rotate(90)"/><g transform="translate(3)"><rect class="e" width="55" height="1" transform="translate(1 25) rotate(90)"/><rect class="e" width="25" height="1" transform="translate(1) rotate(90)"/><rect class="e" width="41" height="1" transform="translate(1 80) rotate(90)"/></g></g><g transform="translate(44 0)"><rect class="k" width="55" height="3" transform="translate(3 25) rotate(90)"/><rect class="l" width="25" height="3" transform="translate(3) rotate(90)"/><rect class="l" width="41" height="3" transform="translate(3 80) rotate(90)"/><g transform="translate(3)"><rect class="e" width="55" height="1" transform="translate(1 25) rotate(90)"/><rect class="e" width="25" height="1" transform="translate(1) rotate(90)"/><rect class="e" width="41" height="1" transform="translate(1 80) rotate(90)"/></g></g></g><g transform="translate(0 0)"><path class="i" d="M121,0h0a0,0,0,0,1,0,0V121a0,0,0,0,1,0,0H0a0,0,0,0,1,0,0v0A121,121,0,0,1,121,0Z"/><path class="g" d="M118,0h0a0,0,0,0,1,0,0V118a0,0,0,0,1,0,0H0a0,0,0,0,1,0,0v0A118,118,0,0,1,118,0Z" transform="translate(3 3)"/><path class="h" d="M115.5,0h0a0,0,0,0,1,0,0V115.5a0,0,0,0,1,0,0H0a0,0,0,0,1,0,0v0A115.5,115.5,0,0,1,115.5,0Z" transform="translate(5.5 5.5)"/><path class="d" d="M110,0h0a0,0,0,0,1,0,0V110a0,0,0,0,1,0,0H0a0,0,0,0,1,0,0v0A110,110,0,0,1,110,0Z" transform="translate(11 11)"/><path class="c" d="M96,0h0a0,0,0,0,1,0,0V96a0,0,0,0,1,0,0H0a0,0,0,0,1,0,0v0A96,96,0,0,1,96,0Z" transform="translate(25 25)"/><path class="e" d="M41,0h0a0,0,0,0,1,0,0V41a0,0,0,0,1,0,0H0a0,0,0,0,1,0,0v0A41,41,0,0,1,41,0Z" transform="translate(80 80)"/><path class="f" d="M16.042,0h0a0,0,0,0,1,0,0V16.042a0,0,0,0,1,0,0H0a0,0,0,0,1,0,0v0A16.042,16.042,0,0,1,16.042,0Z" transform="translate(104.958 104.958)"/><path class="d" d="M8.021,0h0a0,0,0,0,1,0,0V8.021a0,0,0,0,1,0,0H0a0,0,0,0,1,0,0v0A8.021,8.021,0,0,1,8.021,0Z" transform="translate(112.979 112.979)"/><path class="j" d="M41,0h2a0,0,0,0,1,0,0V43a0,0,0,0,1,0,0H0a0,0,0,0,1,0,0V41A41,41,0,0,1,41,0Z" transform="translate(78 78)"/></g><g transform="translate(1079)"><path class="i" d="M121,0h0a0,0,0,0,1,0,0V121a0,0,0,0,1,0,0H0a0,0,0,0,1,0,0v0A121,121,0,0,1,121,0Z" transform="translate(121) rotate(90)"/><path class="g" d="M118,0h0a0,0,0,0,1,0,0V118a0,0,0,0,1,0,0H0a0,0,0,0,1,0,0v0A118,118,0,0,1,118,0Z" transform="translate(118 3) rotate(90)"/><path class="h" d="M115.5,0h0a0,0,0,0,1,0,0V115.5a0,0,0,0,1,0,0H0a0,0,0,0,1,0,0v0A115.5,115.5,0,0,1,115.5,0Z" transform="translate(115.5 5.5) rotate(90)"/><path class="d" d="M110,0h0a0,0,0,0,1,0,0V110a0,0,0,0,1,0,0H0a0,0,0,0,1,0,0v0A110,110,0,0,1,110,0Z" transform="translate(110 11) rotate(90)"/><path class="c" d="M96,0h0a0,0,0,0,1,0,0V96a0,0,0,0,1,0,0H0a0,0,0,0,1,0,0v0A96,96,0,0,1,96,0Z" transform="translate(96 25) rotate(90)"/><path class="e" d="M41,0h0a0,0,0,0,1,0,0V41a0,0,0,0,1,0,0H0a0,0,0,0,1,0,0v0A41,41,0,0,1,41,0Z" transform="translate(41 80) rotate(90)"/><path class="f" d="M16.042,0h0a0,0,0,0,1,0,0V16.042a0,0,0,0,1,0,0H0a0,0,0,0,1,0,0v0A16.042,16.042,0,0,1,16.042,0Z" transform="translate(16.042 104.958) rotate(90)"/><path class="d" d="M8.021,0h0a0,0,0,0,1,0,0V8.021a0,0,0,0,1,0,0H0a0,0,0,0,1,0,0v0A8.021,8.021,0,0,1,8.021,0Z" transform="translate(8.021 112.979) rotate(90)"/><path class="j" d="M41,0h2a0,0,0,0,1,0,0V43a0,0,0,0,1,0,0H0a0,0,0,0,1,0,0V41A41,41,0,0,1,41,0Z" transform="translate(43 78) rotate(90)"/></g></g></svg>