<svg xmlns="http://www.w3.org/2000/svg" xmlns:xlink="http://www.w3.org/1999/xlink" width="90" height="74" viewBox="0 0 90 74"><defs><style>.a,.c,.d,.h,.i,.j{fill:none;}.b{clip-path:url(#a);}.c,.d{stroke:#fff;stroke-linejoin:round;}.c,.d,.h,.i,.j{stroke-linecap:round;}.c{stroke-width:4px;opacity:0.65;}.d,.h,.i,.j{stroke-width:3px;}.d{opacity:0.5;}.e{fill:#fed829;}.f{fill:#f49c24;}.g{fill:#e87e0b;}.h{stroke:#fff78e;}.i,.j{stroke:#fed829;}.j{stroke-miterlimit:10;}.k{fill:#fff8a5;}.l{fill:#ffe574;}</style><clipPath id="a"><rect class="a" width="90" height="74"/></clipPath></defs><g class="b"><path class="c" d="M604.677,329.819c2.189.635,3.468,1.4,3.468,2.224,0,2.2-9.093,3.978-20.31,3.978-7.7,0-14.4-.839-17.841-2.075" transform="translate(-542.412 -273.039)"/><path class="d" d="M605.124,336.508c0,4.383-12.537,7.936-28,7.936s-28-3.553-28-7.936a3.293,3.293,0,0,1,1.292-2.39" transform="translate(-531.468 -275.024)"/><g transform="translate(17.064 6.011)"><path class="e" d="M979.09,1018.8l6.341,12.551a4.708,4.708,0,0,0,3.5,2.528l14.538,2.213a2.512,2.512,0,0,1,1.4,4.275l-10.455,10.3a4.673,4.673,0,0,0-1.335,4.089l2.378,14.446a2.525,2.525,0,0,1-3.654,2.642l-13.068-6.715a4.73,4.73,0,0,0-4.32,0l-13.068,6.715a2.525,2.525,0,0,1-3.654-2.642l2.378-14.446a4.672,4.672,0,0,0-1.335-4.089l-10.455-10.3a2.513,2.513,0,0,1,1.4-4.275l14.538-2.213a4.708,4.708,0,0,0,3.5-2.528l6.341-12.551A2.831,2.831,0,0,1,979.09,1018.8Z" transform="translate(-947.371 -1011.796)"/><g transform="translate(14.983 25.308)"><g transform="translate(0 4.687)"><path class="f" d="M989.258,1098.316s1.525,4.218,12.714,4.218,12.714-4.218,12.714-4.218Z" transform="translate(-987.76 -1091.286)"/><path class="f" d="M993.091,1101.458c1.607,1.178,4.842,2.546,11.214,2.546,6.439,0,9.674-1.4,11.263-2.583a104.494,104.494,0,0,0-11.263-.7A94.987,94.987,0,0,0,993.091,1101.458Z" transform="translate(-990.094 -1092.756)"/><path class="g" d="M1014.685,1098.316H989.258a4.21,4.21,0,0,0,1.5,1.672,94.987,94.987,0,0,1,11.214-.735,104.462,104.462,0,0,1,11.263.7A4.167,4.167,0,0,0,1014.685,1098.316Z" transform="translate(-987.76 -1091.286)"/><path class="f" d="M1013.15,1084.72c-1.819-1.174-4.314,1.967-7-.705-2.354-2.343-3.706-3.749-6.509-3.749s-4.155,1.406-6.509,3.749c-2.684,2.672-5.179-.469-7,.705-1.211.782-.607,1.854-.052,2.5a1.591,1.591,0,0,0,1.2.549H1012a1.59,1.59,0,0,0,1.2-.549C1013.756,1086.575,1014.361,1085.5,1013.15,1084.72Z" transform="translate(-985.431 -1080.266)"/></g><g transform="translate(2.439)"><ellipse cx="2.354" cy="2.343" rx="2.354" ry="2.343"/><ellipse cx="2.354" cy="2.343" rx="2.354" ry="2.343" transform="translate(18.835)"/></g></g><ellipse class="e" cx="1.413" cy="1.406" rx="1.413" ry="1.406" transform="translate(2.354 1.406)"/><ellipse class="e" cx="1.413" cy="1.406" rx="1.413" ry="1.406" transform="translate(42.379 6.561)"/><ellipse class="e" cx="1.413" cy="1.406" rx="1.413" ry="1.406" transform="translate(14.126 0)"/><ellipse class="e" cx="1.413" cy="1.406" rx="1.413" ry="1.406" transform="translate(0 12.654)"/><ellipse class="e" cx="1.413" cy="1.406" rx="1.413" ry="1.406" transform="translate(55.564 7.499)"/><path class="h" d="M0,0,7.063,8.9" transform="translate(6.121 6.093)"/><path class="i" d="M0,0,4.238,2.812" transform="translate(5.18 15.935)"/><line class="j" x2="0.942" y2="4.687" transform="translate(16.481 5.624)"/><path class="h" d="M1.506,0,0,4.538" transform="translate(41.155 11.791)"/><line class="j" x1="7.544" y2="6.232" transform="translate(46.617 12.047)"/></g><ellipse class="k" cx="1.413" cy="1.406" rx="1.413" ry="1.406" transform="translate(72.656 22.529)"/><ellipse class="k" cx="0.876" cy="0.872" rx="0.876" ry="0.872" transform="translate(53.825 15.109)"/><ellipse class="k" cx="0.876" cy="0.872" rx="0.876" ry="0.872" transform="translate(78.781 35.199)"/><ellipse class="k" cx="0.876" cy="0.872" rx="0.876" ry="0.872" transform="translate(12.387 35.199)"/><ellipse class="k" cx="0.876" cy="0.872" rx="0.876" ry="0.872" transform="translate(17.567 27.294)"/><path class="e" d="M1068.834,1003.707l-.018,1.234a.411.411,0,0,0,.169.338l1.042.76a.221.221,0,0,1-.066.39l-1.234.379a.413.413,0,0,0-.271.264l-.4,1.221a.222.222,0,0,1-.392.058l-.744-1.051a.412.412,0,0,0-.336-.174l-1.292-.005a.221.221,0,0,1-.177-.353l.775-1.029a.41.41,0,0,0,.063-.372l-.394-1.225a.221.221,0,0,1,.283-.276l1.222.415a.414.414,0,0,0,.375-.055l1.006-.721A.248.248,0,0,1,1068.834,1003.707Z" transform="translate(-1001.857 -996.366)"/><path class="l" d="M927.729,1047.218l-.016,1.046a.349.349,0,0,0,.144.287l.884.645a.187.187,0,0,1-.056.33l-1.047.322a.351.351,0,0,0-.23.224l-.343,1.036a.188.188,0,0,1-.333.049l-.631-.891a.351.351,0,0,0-.285-.148l-1.1,0a.187.187,0,0,1-.15-.3l.657-.872a.348.348,0,0,0,.053-.316l-.334-1.039a.188.188,0,0,1,.24-.234l1.037.352a.354.354,0,0,0,.318-.047l.853-.612A.21.21,0,0,1,927.729,1047.218Z" transform="translate(-916.316 -1023.953)"/><path class="k" d="M939.12,1017.334l-.017,1.181a.393.393,0,0,0,.162.324l1,.728a.211.211,0,0,1-.063.373l-1.182.363a.394.394,0,0,0-.259.254l-.387,1.169a.213.213,0,0,1-.376.056l-.712-1.007a.4.4,0,0,0-.322-.167l-1.237-.005a.211.211,0,0,1-.169-.338l.742-.985a.393.393,0,0,0,.06-.357l-.377-1.172a.212.212,0,0,1,.271-.265l1.17.4a.4.4,0,0,0,.36-.053l.963-.691A.238.238,0,0,1,939.12,1017.334Z" transform="translate(-922.999 -1005.691)"/><path class="e" d="M1103.98,1053.434l-.018,1.181a.394.394,0,0,0,.162.324l1,.727a.211.211,0,0,1-.063.373l-1.182.363a.4.4,0,0,0-.259.253l-.387,1.169a.213.213,0,0,1-.376.056l-.712-1.006a.4.4,0,0,0-.322-.167l-1.237-.005a.212.212,0,0,1-.17-.339l.742-.985a.394.394,0,0,0,.06-.357l-.378-1.172a.212.212,0,0,1,.271-.265l1.171.4a.4.4,0,0,0,.359-.053l.964-.691A.238.238,0,0,1,1103.98,1053.434Z" transform="translate(-1023.348 -1027.732)"/><rect class="a" width="90" height="74"/></g></svg>