<svg xmlns="http://www.w3.org/2000/svg" xmlns:xlink="http://www.w3.org/1999/xlink" width="134.791" height="80.123" viewBox="0 0 134.791 80.123"><defs><style>.a{fill:none;}.b{clip-path:url(#a);}.c{fill:#4b4b4b;}.d{fill:#3f869b;}.e{fill:#f78ca0;}.f{fill:#4aafbc;}</style><clipPath id="a"><rect class="a" width="134.791" height="80.123"/></clipPath></defs><g class="b" transform="translate(0)"><path class="c" d="M-2,0H18.327l-2.14,40H.14Z" transform="matrix(0.995, 0.105, -0.105, 0.995, 116.564, 14.796)"/><rect class="c" width="16.327" height="14" transform="matrix(0.995, 0.105, -0.105, 0.995, 111.652, 61.53)"/><g transform="translate(-739.19 -192.74) rotate(-18)"><path class="d" d="M1856.574,2574.005s18.287,1.36,27.051,9.452S1894,2596.392,1894,2596.392s2.04-4.958,12.511-10.544,27-1.824,27-1.824-14.456,6.589-19.275,14.587-6.258,18.059-6.258,18.059l-9.158-3.406-5.794,9.087s-5.235-2.783-9.332-3.032a11.382,11.382,0,0,0-7.055,2.035s-9.263-8.319-16.038-9.068-16.672,3.73-16.672,3.73,5.867-10.643,12.642-14.19,17.8-1.492,17.8-1.492a50.531,50.531,0,0,0-4.64-12.148C1866.118,2581.23,1856.574,2574.005,1856.574,2574.005Z" transform="translate(-1205.851 -2129.438)"/><path class="e" d="M1868.556,2574.005s18.287,1.36,27.051,9.452,10.233,12.806,10.233,12.806,1.528-4.813,12-10.4,27.656-1.84,27.656-1.84-14.456,6.589-19.275,14.587-5.911,18.192-5.911,18.192a17.473,17.473,0,0,0-8.267.516,21.682,21.682,0,0,0-7.209,5.025,199.18,199.18,0,0,0-8.545-26.589C1891.047,2583.168,1868.556,2574.005,1868.556,2574.005Z" transform="translate(-1217.64 -2129.438)"/><circle class="f" cx="5" cy="5" r="5" transform="translate(649.247 440.74)"/><circle class="f" cx="5" cy="5" r="5" transform="translate(634.025 479.088)"/><circle class="f" cx="5" cy="5" r="5" transform="translate(722.739 449.672)"/></g></g></svg>