<svg xmlns="http://www.w3.org/2000/svg" xmlns:xlink="http://www.w3.org/1999/xlink" width="646.885" height="289.328" viewBox="0 0 646.885 289.328"><defs><style>.a{fill:none;}.b{clip-path:url(#a);}.c{fill:#fff;font-size:74px;font-family:RobotoSlab-Bold, Roboto Slab;font-weight:700;}.d{fill:#3f869b;}.e{fill:#f78ca0;}.f{fill:#4aafbc;}</style><clipPath id="a"><rect class="a" width="646.885" height="289.328"/></clipPath></defs><g class="b" transform="translate(0 0)"><text class="c" transform="translate(339.885 202.965)"><tspan x="0" y="0">Free Cell</tspan></text><g transform="translate(0 110.153) rotate(-18)"><path class="d" d="M45.651,0s66.036,4.912,97.683,34.131S180.8,80.838,180.8,80.838s7.368-17.9,45.179-38.076,97.5-6.586,97.5-6.586-52.2,23.793-69.6,52.674-22.6,65.213-22.6,65.213l-33.071-12.3L177.29,174.576s-18.9-10.049-33.7-10.948a41.1,41.1,0,0,0-25.475,7.35S84.67,140.938,60.205,138.231,0,151.7,0,151.7s21.187-38.432,45.651-51.241,64.273-5.389,64.273-5.389-3.7-18.752-16.755-43.866S45.651,0,45.651,0Z" transform="translate(14.644 13.82)"/><path class="e" d="M0,0S66.036,4.912,97.683,34.131s36.952,46.244,36.952,46.244S140.153,63,177.963,42.822s99.868-6.646,99.868-6.646-52.2,23.793-69.6,52.674-21.345,65.693-21.345,65.693-15.87-3.206-29.852,1.863S131,174.554,131,174.554c-.016.026-11.928-50.562-30.856-96.012S0,0,0,0Z" transform="translate(60.992 13.82)"/><ellipse class="f" cx="18.055" cy="18.055" rx="18.055" ry="18.055" transform="translate(54.966 0)"/><ellipse class="f" cx="18.055" cy="18.055" rx="18.055" ry="18.055" transform="translate(0 138.476)"/><circle class="f" cx="18.055" cy="18.055" r="18.055" transform="translate(320.352 32.255)"/></g></g></svg>