<svg xmlns="http://www.w3.org/2000/svg" xmlns:xlink="http://www.w3.org/1999/xlink" width="237.726" height="106.326" viewBox="0 0 237.726 106.326"><defs><style>.a{fill:none;}.b{clip-path:url(#a);}.c{fill:#fff;font-size:27px;font-family:RobotoSlab-Bold, Roboto Slab;font-weight:700;}.d{fill:#3f869b;}.e{fill:#f78ca0;}.f{fill:#4aafbc;}</style><clipPath id="a"><rect class="a" width="237.726" height="106.326"/></clipPath></defs><g class="b"><text class="c" transform="translate(99.905 73.924)"><tspan x="0" y="0">Free Cell</tspan></text><g transform="translate(3.19 47.61) rotate(-18)"><path class="d" d="M11.138,0S27.25,1.2,34.971,8.327s9.142,11.4,9.142,11.4,1.8-4.368,11.023-9.29S78.925,8.826,78.925,8.826,66.189,14.632,61.943,21.678,56.43,37.589,56.43,37.589l-8.069-3-5.1,8.006s-4.612-2.452-8.221-2.671a10.028,10.028,0,0,0-6.216,1.793s-8.161-7.329-14.13-7.99S0,37.013,0,37.013s5.169-9.377,11.138-12.5S26.82,23.2,26.82,23.2a44.521,44.521,0,0,0-4.088-10.7C19.547,6.365,11.138,0,11.138,0Z" transform="translate(3.573 3.372)"/><path class="e" d="M0,0S16.112,1.2,23.833,8.327,32.849,19.61,32.849,19.61,34.2,15.37,43.42,10.448,67.787,8.826,67.787,8.826,55.051,14.632,50.805,21.678,45.6,37.706,45.6,37.706a15.4,15.4,0,0,0-7.284.455,19.1,19.1,0,0,0-6.351,4.428,175.513,175.513,0,0,0-7.528-23.426C19.816,8.073,0,0,0,0Z" transform="translate(14.881 3.372)"/><ellipse class="f" cx="4.405" cy="4.405" rx="4.405" ry="4.405" transform="translate(13.411 0)"/><ellipse class="f" cx="4.405" cy="4.405" rx="4.405" ry="4.405" transform="translate(0 33.786)"/><circle class="f" cx="4.405" cy="4.405" r="4.405" transform="translate(78.161 7.87)"/></g></g></svg>