<svg xmlns="http://www.w3.org/2000/svg" xmlns:xlink="http://www.w3.org/1999/xlink" width="60.003" height="82.911" viewBox="0 0 60.003 82.911"><defs><style>.a{fill:none;}.b{clip-path:url(#a);}.c{fill:#001f1d;}.d,.e,.g{fill:#fff;}.e{font-size:18px;font-family:RobotoSlab-Bold, Roboto Slab;font-weight:700;}.f,.g{stroke:none;}</style><clipPath id="a"><rect class="a" width="60.003" height="82.911"/></clipPath></defs><g class="b" transform="translate(0)"><g class="c" transform="matrix(0.94, 0.342, -0.342, 0.94, 32.978, 0)"><path class="f" d="M 27.25892066955566 40.02144241333008 L 1.618887305259705 39.94200134277344 L 1.50064742565155 1.500676035881042 L 27.14068031311035 1.580119609832764 L 27.25892066955566 40.02144241333008 Z"/><path class="g" d="M 3.005279541015625 3.005355834960938 L 3.114292144775391 38.44662094116211 L 25.75426864624023 38.51676559448242 L 25.64525604248047 3.07550048828125 L 3.005279541015625 3.005355834960938 M 1.293733596801758 3.814697265625e-05 C 1.295137405395508 3.814697265625e-05 1.296424865722656 4.1961669921875e-05 1.297828674316406 4.57763671875e-05 L 27.33425903320312 0.08071517944335938 C 28.0532283782959 0.08294677734375 28.63787841796875 0.671905517578125 28.64010810852051 1.396186828613281 L 28.75950813293457 40.21467590332031 C 28.76173400878906 40.93759536743164 28.18289184570312 41.52207946777344 27.46580505371094 41.52207946777344 C 27.46444511413574 41.52207946777344 27.46308898925781 41.52207946777344 27.46172904968262 41.52207565307617 L 1.425298690795898 41.44140625 C 0.7063198089599609 41.43916320800781 0.1216697692871094 40.85021591186523 0.1194381713867188 40.12593460083008 L 3.814697265625e-05 1.307445526123047 C -0.002176284790039062 0.5845680236816406 0.5767078399658203 3.814697265625e-05 1.293733596801758 3.814697265625e-05 Z"/></g><g transform="matrix(0.94, 0.342, -0.342, 0.94, 34.281, 14.113)"><path class="d" d="M8.047,16.089.791,6.367A3.984,3.984,0,0,1,7.177,1.6l.871,1.165L8.917,1.6A3.984,3.984,0,0,1,15.3,6.366Z" transform="translate(0 0)"/></g><g class="c" transform="matrix(0.94, -0.342, 0.342, 0.94, 0.001, 9.837)"><path class="f" d="M 1.499441027641296 40.02060317993164 L 1.617680907249451 1.579291701316833 L 27.25771331787109 1.499840021133423 L 27.13946342468262 39.941162109375 L 1.499441027641296 40.02060317993164 Z"/><path class="g" d="M 25.75307083129883 3.0045166015625 L 3.113096237182617 3.074672698974609 L 3.004083633422852 38.51592636108398 L 25.64405059814453 38.44578170776367 L 25.75307083129883 3.0045166015625 M 27.4646167755127 -0.000797271728515625 C 28.18170356750488 -0.000797271728515625 28.76052856445312 0.5836982727050781 28.7583122253418 1.306606292724609 L 28.63890266418457 40.12509536743164 C 28.63668251037598 40.84938812255859 28.05203247070312 41.43833541870117 27.33305168151855 41.44056701660156 L 1.296623229980469 41.52123641967773 C 1.295261383056641 41.521240234375 1.293888092041016 41.52124404907227 1.29252815246582 41.52124404907227 C 0.5754413604736328 41.52124404907227 -0.003383636474609375 40.9367561340332 -0.001157760620117188 40.21383666992188 L 0.1182422637939453 1.395359039306641 C 0.1204624176025391 0.6710662841796875 0.7051219940185547 0.0821075439453125 1.424093246459961 0.07988739013671875 L 27.46052169799805 -0.00079345703125 C 27.46188354492188 -0.000797271728515625 27.4632568359375 -0.000797271728515625 27.4646167755127 -0.000797271728515625 Z"/></g><path class="d" d="M5.675,18.726l1.218-3.9a3.985,3.985,0,0,1-6.1-5.106L8.047,0,15.3,9.723a3.984,3.984,0,0,1-6.117,5.088l1.223,3.915Z" transform="matrix(0.94, -0.342, 0.342, 0.94, 10.158, 18.47)"/><text class="e" transform="translate(29 77.911)"><tspan x="-21.366" y="0">NEW</tspan></text></g></svg>