<svg xmlns="http://www.w3.org/2000/svg" width="25" height="25" viewBox="0 0 25 25"><defs><style>.a{fill:none;}</style></defs><g transform="translate(2 -131.657)"><g transform="translate(0 138.657)"><path d="M.711,222.624H2.134a.711.711,0,0,0,.711-.711H17.78a.711.711,0,0,0,.711.711h1.422a.711.711,0,0,0,.711-.711v-6.045a.711.711,0,0,0-.711-.711H18.491a.711.711,0,0,0-.711.711v3.912H2.845v-3.912a.711.711,0,0,0-.711-.711H.711a.711.711,0,0,0-.711.711v6.045A.711.711,0,0,0,.711,222.624Z" transform="translate(0 -212.311)"/><path d="M101.322,142.569a1.391,1.391,0,0,1,.7.2v-3.4a.711.711,0,0,0-.711-.711H96.336a.711.711,0,0,0-.711.711v3.4a1.432,1.432,0,0,1,.726-.2Z" transform="translate(-92.069 -138.657)"/><path d="M102.026,263.68a.708.708,0,0,0-.708-.711H96.351a.724.724,0,0,0-.726.711V265.1h6.4Z" transform="translate(-92.069 -258.346)"/><path d="M292.572,142.569a1.391,1.391,0,0,1,.7.2v-3.4a.711.711,0,0,0-.711-.711h-4.978a.711.711,0,0,0-.711.711v3.4a1.432,1.432,0,0,1,.726-.2Z" transform="translate(-276.207 -138.657)"/><path d="M293.276,263.68a.708.708,0,0,0-.708-.711H287.6a.724.724,0,0,0-.726.711V265.1h6.4Z" transform="translate(-276.207 -258.346)"/></g></g><rect class="a" width="25" height="25"/></svg>