<svg xmlns="http://www.w3.org/2000/svg" width="25" height="25" viewBox="0 0 25 25"><defs><style>.a{fill:none;}</style></defs><g transform="translate(4.847 5)"><g transform="translate(1.021)"><path d="M42.963,13.269,36.844,7.149,29.694,0h-.559l-.114.29a5.126,5.126,0,0,0-.372,2.263,3.2,3.2,0,0,0,.9,2.042l5.581,5.581.736-.736,5.16,5.77a1.372,1.372,0,1,0,1.941-1.941Z" transform="translate(-28.636)"/></g><g transform="translate(0.153 8.883)"><g transform="translate(0)"><path d="M4.925,291.442.554,295.813a1.372,1.372,0,0,0,1.941,1.941l4.371-4.371Z" transform="translate(-0.153 -291.442)"/></g></g><g transform="translate(8.511 0.011)"><path d="M280.935,2.948l-2.48,2.48-.647-.647,2.48-2.48-.647-.647-2.48,2.48-.647-.647,2.48-2.48-.647-.647L275.113,3.6a2.283,2.283,0,0,0-.665,1.479,1.317,1.317,0,0,1-.094.413l2.1,2.1a1.316,1.316,0,0,1,.413-.094,2.283,2.283,0,0,0,1.479-.665L281.582,3.6Z" transform="translate(-274.354 -0.361)"/></g></g><rect class="a" width="25" height="25"/></svg>