<svg xmlns="http://www.w3.org/2000/svg" width="23" height="23" viewBox="0 0 23 23"><defs><style>.a{stroke:#1d1b1b;stroke-width:0.5px;}.b{fill:none;}</style></defs><g transform="translate(2 -30.843)"><g transform="translate(0 34.843)"><path class="a" d="M16.383,41.878v-5.14a1.9,1.9,0,0,0-1.9-1.9H4a1.9,1.9,0,0,0-1.9,1.9v5.14A2.748,2.748,0,0,0,0,44.545v3.834a.551.551,0,0,0,.551.551H2.1v1.332a.551.551,0,1,0,1.1,0V48.93H15.282v1.332a.551.551,0,1,0,1.1,0V48.93h1.551a.551.551,0,0,0,.551-.551V44.545A2.748,2.748,0,0,0,16.383,41.878ZM3.2,36.738A.8.8,0,0,1,4,35.944h10.49a.8.8,0,0,1,.794.794V41.8h-1.82v-.869a2.614,2.614,0,0,0-2.611-2.611H7.634a2.614,2.614,0,0,0-2.611,2.611V41.8H3.2Zm9.157,4.195V41.8H6.125v-.869a1.511,1.511,0,0,1,1.509-1.509h3.218A1.511,1.511,0,0,1,12.361,40.933ZM1.1,47.828V44.545A1.644,1.644,0,0,1,2.744,42.9h13a1.644,1.644,0,0,1,1.642,1.642v3.283Z" transform="translate(0 -34.843)"/></g></g><rect class="b" width="23" height="23"/></svg>