<svg xmlns="http://www.w3.org/2000/svg" width="25" height="25" viewBox="0 0 25 25"><defs><style>.a{fill:none;}</style></defs><g transform="translate(-93.003 2)"><path d="M109.093,19.144H105.9V12.7A6.215,6.215,0,0,0,109.62,11c2.405-2.325,2.567-8.276.294-10.792L109.724,0H100.8l-.19.211C98.341,2.727,98.5,8.678,100.91,11a6.209,6.209,0,0,0,3.717,1.7v6.442h-3.191a.638.638,0,1,0,0,1.276h7.658a.638.638,0,1,0,0-1.276ZM101.386,1.276h7.755c1.638,2.144,1.452,7.011-.409,8.809a5.116,5.116,0,0,1-6.936,0C99.936,8.288,99.749,3.421,101.386,1.276Zm.854,8.351a6.4,6.4,0,0,1-1.329-4.522h8.7a6.4,6.4,0,0,1-1.327,4.521A4.643,4.643,0,0,1,102.241,9.627Z" transform="translate(0)"/></g><rect class="a" width="25" height="25"/></svg>