<svg xmlns="http://www.w3.org/2000/svg" width="25" height="25" viewBox="0 0 25 25"><defs><style>.a{fill:none;}</style></defs><path d="M17.968,50.62v-.028H1.022v.028a1.121,1.121,0,0,0-1.022,1V62.76a1.093,1.093,0,0,0,.149.557,1.039,1.039,0,0,0,.967.567H7.232v1.543H6.07a.512.512,0,0,0,0,1.023h6.851a.512.512,0,1,0,0-1.023H11.759V63.885h6.116a1.035,1.035,0,0,0,.967-.567A1.122,1.122,0,0,0,19,62.76V51.623A1.147,1.147,0,0,0,17.968,50.62Zm0,1.1V62.76c0,.065-.028.093-.093.093H1.115c-.065,0-.093-.028-.093-.093V51.623H17.968v.093Z" transform="translate(3 -45.592)"/><rect class="a" width="25" height="25"/></svg>