<svg xmlns="http://www.w3.org/2000/svg" width="25" height="25" viewBox="0 0 25 25"><defs><style>.a{fill:none;}</style></defs><g transform="translate(3 2)"><path d="M19.724,7.068A13.623,13.623,0,0,0,9.977,3,13.491,13.491,0,0,0,.23,7.068a.742.742,0,0,0,0,1.074L1.3,9.217a.742.742,0,0,0,1.074,0,10.747,10.747,0,0,1,15.2,0,.742.742,0,0,0,1.074,0l1.074-1.074a.7.7,0,0,0,.23-.537A.6.6,0,0,0,19.724,7.068Z"/><path d="M11.3,11A7.47,7.47,0,0,0,5.93,13.226a.742.742,0,0,0,0,1.074L7,15.375a.742.742,0,0,0,1.074,0,4.524,4.524,0,0,1,3.223-1.3,4.872,4.872,0,0,1,3.223,1.3.742.742,0,0,0,1.074,0L16.675,14.3a.742.742,0,0,0,0-1.074A7.47,7.47,0,0,0,11.3,11Z" transform="translate(-1.325 -1.86)"/><ellipse cx="2" cy="1.5" rx="2" ry="1.5" transform="translate(8 15.35)"/></g><rect class="a" width="25" height="25"/></svg>