<svg xmlns="http://www.w3.org/2000/svg" width="25" height="25" viewBox="0 0 25 25"><defs><style>.a{stroke:#000;stroke-width:0.2px;}.b{fill:none;}</style></defs><g transform="translate(2.941 3)"><g transform="translate(0.06)"><path class="a" d="M2.84,16.233A9.509,9.509,0,0,0,16.288,2.785,9.509,9.509,0,1,0,2.84,16.233Zm6.724,1.659A8.376,8.376,0,0,1,3.282,3.973L7.412,8.1H4a.563.563,0,0,0-.563.563v1.717A.563.563,0,0,0,4,10.946h6.254L15.1,15.791A8.31,8.31,0,0,1,9.564,17.892Zm.567-8.662h2.848V9.82H10.722Zm-1,.591H4.565V9.23H8.539Zm.435-8.694a8.376,8.376,0,0,1,6.329,13.866l-4.045-4.046h1.694a.563.563,0,0,0,.563-.563V8.667a.563.563,0,0,0-.563-.563H9.005L4.08,3.179A8.318,8.318,0,0,1,9.564,1.126Z" transform="translate(-0.06)"/><path class="a" d="M183.451,102.894v1.783a.563.563,0,0,0,1.126,0v-1.783a.563.563,0,0,0-1.126,0Z" transform="translate(-169.046 -94.293)"/><path class="a" d="M134.94,51.666c.756.206,1.824.245,1.949,1.211.077.592,1.016.6.938,0a2.047,2.047,0,0,0-1.461-1.808c-.889-.332-2-.269-2.545-1.181a.47.47,0,0,0-.811.474A2.971,2.971,0,0,0,134.94,51.666Z" transform="translate(-122.505 -45.76)"/></g></g><rect class="b" width="25" height="25"/></svg>