<svg xmlns="http://www.w3.org/2000/svg" width="25" height="25" viewBox="0 0 25 25"><defs><style>.a{fill:none;}</style></defs><g transform="translate(2 5)"><path d="M19.738,10.856a9.312,9.312,0,0,0-8.693-8.9V1.223h1.039V0h-3.3V1.223H9.823v.738a9.312,9.312,0,0,0-8.693,8.9H0v1.391a2.469,2.469,0,0,0,2.466,2.466H18.4a2.469,2.469,0,0,0,2.466-2.466V10.856Zm-9.3-7.693a8.1,8.1,0,0,1,8.08,7.693H2.354A8.1,8.1,0,0,1,10.434,3.163Zm9.211,9.084A1.245,1.245,0,0,1,18.4,13.49H2.466a1.245,1.245,0,0,1-1.243-1.243v-.168H19.645Zm0,0"/><path d="M85.652,164.236l1.21.176a4.569,4.569,0,0,1,1.232-2.428l-.807-.918a5.758,5.758,0,0,0-1.635,3.17Zm0,0" transform="translate(-82.161 -154.501)"/></g><rect class="a" width="25" height="25"/></svg>