<svg xmlns="http://www.w3.org/2000/svg" width="25" height="25" viewBox="0 0 25 25"><defs><style>.a{fill:none;}</style></defs><g transform="translate(6 4)"><path d="M0,238.867v7.4a1.874,1.874,0,0,0,1.872,1.872H11.14a1.874,1.874,0,0,0,1.872-1.872v-7.4Zm3.744,4.4a.509.509,0,1,1-1.018,0v-2.726a.509.509,0,0,1,1.018,0Zm0,0" transform="translate(0 -230.762)"/><path d="M13.012,7.087V1.872A1.874,1.874,0,0,0,11.14,0H1.872A1.874,1.874,0,0,0,0,1.872V7.087ZM2.726,3.235a.509.509,0,0,1,1.018,0V5.416a.509.509,0,0,1-1.018,0Zm0,0" transform="translate(0)"/></g><rect class="a" width="25" height="25"/></svg>