<svg xmlns="http://www.w3.org/2000/svg" width="23" height="23" viewBox="0 0 23 23"><defs><style>.a{fill:none;}</style></defs><g transform="translate(2 -6.267)"><g transform="translate(0 9.267)"><path d="M19.189,18.252a1.577,1.577,0,0,0-1.575-1.575H2.644v-5.12a1.07,1.07,0,0,1,1.069-1.069h.28a1.071,1.071,0,0,1,.761.319l-.047.047a2.046,2.046,0,0,0,0,2.89l.27.27a.61.61,0,0,0,.863,0l2.669-2.669a.61.61,0,0,0,0-.863l-.27-.27a2.044,2.044,0,0,0-2.6-.243,2.292,2.292,0,0,0-1.649-.7h-.28a2.292,2.292,0,0,0-2.29,2.29v5.128a1.574,1.574,0,0,0-.416,3.035v2.011a3.685,3.685,0,0,0,2.937,3.6l-.524.524a.61.61,0,0,0,.863.863L5.6,25.41h8l1.313,1.312a.61.61,0,0,0,.863-.863l-.524-.524a3.684,3.684,0,0,0,2.937-3.6V19.72A1.577,1.577,0,0,0,19.189,18.252Zm-12.4-7.418a.818.818,0,0,1,.4.1L5.431,12.7a.824.824,0,0,1,.139-.98l.642-.642A.818.818,0,0,1,6.793,10.834ZM1.575,17.9H17.614a.355.355,0,1,1,0,.71H1.575a.355.355,0,0,1,0-.71Zm15.386,3.834A2.46,2.46,0,0,1,14.5,24.189H4.686a2.46,2.46,0,0,1-2.458-2.457V19.845H16.961Z" transform="translate(0 -9.267)"/><path d="M87.862,73.937a.3.3,0,0,0,.418-.418l-.3-.3a.3.3,0,0,0-.418.418Z" transform="translate(-80.132 -67.771)"/><path d="M101.763,73.637l.3.3a.3.3,0,1,0,.418-.418l-.3-.3a.3.3,0,0,0-.418.418Z" transform="translate(-93.139 -67.77)"/><path d="M81.18,59.318l-.3-.3a.3.3,0,1,0-.418.418l.3.3a.3.3,0,0,0,.418-.418Z" transform="translate(-73.628 -54.763)"/><path d="M95.082,59.02a.3.3,0,1,0-.418.418l.3.3a.3.3,0,0,0,.418-.418Z" transform="translate(-86.636 -54.763)"/><path d="M94.45,44.607a.3.3,0,0,0,0,.418l.3.3a.3.3,0,1,0,.418-.418l-.3-.3A.3.3,0,0,0,94.45,44.607Z" transform="translate(-86.44 -41.56)"/><path d="M108.474,55.489a.3.3,0,1,0,.418-.418l-.3-.3a.3.3,0,0,0-.418.418Z" transform="translate(-99.014 -50.873)"/></g></g><rect class="a" width="23" height="23"/></svg>