<svg xmlns="http://www.w3.org/2000/svg" width="25" height="25" viewBox="0 0 25 25"><defs><style>.a{fill:none;}</style></defs><g transform="translate(3 -10.773)"><path d="M13.518,43.383v-.639a.579.579,0,0,0-1.157,0v.639c-2.663.231-4.745,2.059-4.747,4.274a.294.294,0,0,0,.277.293h.018a.3.3,0,0,0,.214-.089,1.779,1.779,0,0,1,2.549-.006.294.294,0,0,0,.4.017,2.934,2.934,0,0,1,1.289-.641V52.8H.561a.561.561,0,1,0,0,1.121h4.9a.522.522,0,1,1,0,1.044H3.4a.561.561,0,1,0,0,1.121H6.938A.522.522,0,0,1,6.79,57.11H2.075a.561.561,0,1,0,0,1.121H12.549a.561.561,0,0,0,0-1.121h-.737a.522.522,0,0,1-.148-1.023h3.1a.561.561,0,0,0,0-1.121H11.351a.522.522,0,0,1,0-1.044h5.4a.561.561,0,1,0,0-1.121H13.518V47.232a2.933,2.933,0,0,1,1.285.64.294.294,0,0,0,.4-.017,1.779,1.779,0,0,1,2.548.005.3.3,0,0,0,.231.089.294.294,0,0,0,.278-.294C18.26,45.442,16.18,43.615,13.518,43.383Z" transform="translate(0 -26.336)"/><path d="M8.526,18.676H9.4a1.95,1.95,0,0,0,.14.337l-.617.617a.578.578,0,1,0,.818.818l.617-.617a1.948,1.948,0,0,0,.337.14v.872a.579.579,0,0,0,1.157,0v-.872a1.948,1.948,0,0,0,.337-.14l.617.617a.578.578,0,0,0,.818-.818L13,19.013a1.948,1.948,0,0,0,.14-.337h.872a.579.579,0,1,0,0-1.157h-.872a1.948,1.948,0,0,0-.14-.337l.617-.617a.579.579,0,0,0-.818-.818l-.617.617a1.948,1.948,0,0,0-.337-.14v-.872a.579.579,0,0,0-1.157,0v.872a1.95,1.95,0,0,0-.337.14l-.617-.617a.579.579,0,1,0-.818.818l.617.617a1.948,1.948,0,0,0-.14.337H8.526a.579.579,0,1,0,0,1.157Z" transform="translate(-7.641)"/></g><rect class="a" width="25" height="25"/></svg>