<svg xmlns="http://www.w3.org/2000/svg" width="25" height="25" viewBox="0 0 25 25"><defs><style>.a{fill:none;}</style></defs><g transform="translate(3.001 7)"><path d="M160.53,241.811a.574.574,0,0,1-.5-.287l-.708-1.226a.574.574,0,1,1,.994-.574l.708,1.226a.574.574,0,0,1-.5.861Zm0,0" transform="translate(-153.156 -230.277)"/><path d="M233.03,241.811a.574.574,0,0,1-.5-.287l-.708-1.226a.574.574,0,1,1,.994-.574l.708,1.226a.574.574,0,0,1-.5.861Zm0,0" transform="translate(-222.883 -230.277)"/><path d="M305.53,241.811a.574.574,0,0,1-.5-.287l-.708-1.226a.574.574,0,1,1,.994-.574l.708,1.226a.574.574,0,0,1-.5.861Zm0,0" transform="translate(-292.609 -230.277)"/><path d="M98.3,182.742l-.186,1.253H110.2l-.186-1.253Zm0,0" transform="translate(-94.364 -175.751)"/><path d="M17.936,0H1.65A1.652,1.652,0,0,0,0,1.65V6.594a1.652,1.652,0,0,0,1.65,1.65h.943L2.6,8.162l.032-.218.1-.7.135-.914a.574.574,0,0,1,.568-.49h12.7a.574.574,0,0,1,.568.49l.135.914.1.7.032.218.012.082h.943a1.652,1.652,0,0,0,1.65-1.65V1.65A1.652,1.652,0,0,0,17.936,0ZM15.75,4.9a.618.618,0,1,1,.618-.618A.619.619,0,0,1,15.75,4.9Zm0-1.607a.618.618,0,1,1,.618-.618A.619.619,0,0,1,15.75,3.29Zm0,0" transform="translate(0 0)"/></g><rect class="a" width="25" height="25"/></svg>