<svg xmlns="http://www.w3.org/2000/svg" width="25" height="25" viewBox="0 0 25 25"><defs><style>.a{stroke:#000;stroke-width:0.3px;}.b{fill:none;}</style></defs><g transform="translate(3.84 4.985)"><path class="a" d="M74.078,183.936a4.315,4.315,0,0,0-7.265,0l-1.921,3a2.731,2.731,0,0,0,3.4,3.974l.035-.016a5.369,5.369,0,0,1,4.276.016,2.716,2.716,0,0,0,1.1.232,2.75,2.75,0,0,0,.611-.069A2.731,2.731,0,0,0,76,186.934Zm.908,5.571a1.683,1.683,0,0,1-1.967.449,6.409,6.409,0,0,0-5.147,0l-.023.01a1.692,1.692,0,0,1-2.083-2.472l1.921-3a3.276,3.276,0,0,1,5.516,0l1.921,3A1.683,1.683,0,0,1,74.986,189.507Zm0,0" transform="translate(-62.229 -175.652)"/><path class="a" d="M3.18,103.752a2.1,2.1,0,0,0,1.223-1.3,2.707,2.707,0,0,0-.048-1.866,2.708,2.708,0,0,0-1.216-1.416,2.1,2.1,0,0,0-1.776-.143,2.4,2.4,0,0,0-1.174,3.163,2.53,2.53,0,0,0,2.276,1.692,1.983,1.983,0,0,0,.716-.133Zm-2.022-1.932A1.37,1.37,0,0,1,1.736,100a.963.963,0,0,1,.348-.064,1.171,1.171,0,0,1,.559.15,1.668,1.668,0,0,1,.743.877,1.667,1.667,0,0,1,.037,1.148,1.074,1.074,0,0,1-.615.672h0a1.369,1.369,0,0,1-1.649-.963Zm0,0" transform="translate(0 -95.472)"/><path class="a" d="M127.016,5.932a2.805,2.805,0,0,0,2.6-2.965,2.625,2.625,0,1,0-5.205,0A2.805,2.805,0,0,0,127.016,5.932Zm0-4.893a1.777,1.777,0,0,1,1.564,1.927,1.6,1.6,0,1,1-3.128,0,1.776,1.776,0,0,1,1.564-1.927Zm0,0" transform="translate(-120.108 0)"/><path class="a" d="M285.762,45.521h0a2.121,2.121,0,0,0,.67.108,2.7,2.7,0,0,0,2.456-1.933,2.909,2.909,0,0,0-.042-2.006,2.2,2.2,0,0,0-3.262-1.084,2.908,2.908,0,0,0-1.234,1.582A2.573,2.573,0,0,0,285.762,45.521Zm-.426-3a1.87,1.87,0,0,1,.787-1.021,1.164,1.164,0,0,1,1.761.585,1.87,1.87,0,0,1,.019,1.289,1.384,1.384,0,1,1-2.566-.853Zm0,0" transform="translate(-274.359 -38.861)"/><path class="a" d="M380.582,171.448h0a2.55,2.55,0,0,0-3.011,4.068,2.035,2.035,0,0,0,1.222.395,2.631,2.631,0,0,0,2.078-1.1A2.4,2.4,0,0,0,380.582,171.448Zm-.546,2.743a1.223,1.223,0,1,1-1.919-1.419,1.6,1.6,0,0,1,1.237-.683,1.015,1.015,0,0,1,.611.194A1.37,1.37,0,0,1,380.036,174.192Zm0,0" transform="translate(-363.697 -165.134)"/></g><rect class="b" width="25" height="25"/></svg>