<svg xmlns="http://www.w3.org/2000/svg" width="25" height="25" viewBox="0 0 25 25"><defs><style>.a{fill:none;}</style></defs><g transform="translate(-28 3)"><path d="M196,121.8c0,1.01,1.055,1.8,2.4,1.8s2.4-.791,2.4-1.8-1.055-1.8-2.4-1.8S196,120.791,196,121.8Zm2.4-.6c.733,0,1.2.355,1.2.6s-.468.6-1.2.6-1.2-.355-1.2-.6S197.668,121.2,198.4,121.2Z" transform="translate(-158.398 -115.198)"/><path d="M181,90h1.2v1.2H181Z" transform="translate(-143.998 -86.399)"/><path d="M301,90h1.2v1.2H301Z" transform="translate(-259.196 -86.399)"/><path d="M241,302h1.2v1.2H241Z" transform="translate(-201.597 -289.916)"/><path d="M241,362h1.2v1.2H241Z" transform="translate(-201.597 -347.515)"/><path d="M47.146,13.735a2.4,2.4,0,0,0-2.324-3.979,7.191,7.191,0,0,0-.746-.809,5.381,5.381,0,0,0,1.3-3A3,3,0,0,0,44.8,0a2.957,2.957,0,0,0-2.02.789,5.3,5.3,0,0,0-5.564,0A2.957,2.957,0,0,0,35.2,0a3,3,0,0,0-.573,5.947,5.38,5.38,0,0,0,1.3,3,7.194,7.194,0,0,0-.746.809,2.4,2.4,0,0,0-2.324,3.979A3.6,3.6,0,0,0,34.6,20.487h10.8a3.6,3.6,0,0,0,1.741-6.753Zm-.541-1.65a1.2,1.2,0,1,1-1.2-1.2A1.2,1.2,0,0,1,46.606,12.084ZM35.2,4.8a1.8,1.8,0,0,1,0-3.6A2.25,2.25,0,0,1,37,2.423a4.291,4.291,0,0,1,6,0A2.238,2.238,0,0,1,44.8,1.2a1.8,1.8,0,1,1,0,3.6h-.6v.6a4.2,4.2,0,0,1-8.4,0V4.8Zm1.615,4.96a5.391,5.391,0,0,0,6.373,0,5.906,5.906,0,0,1,.564.583,2.395,2.395,0,0,0-.09,3.39,3.6,3.6,0,0,0-.94,5.552h-5.44a3.6,3.6,0,0,0-.94-5.552,2.395,2.395,0,0,0-.09-3.39,5.906,5.906,0,0,1,.564-.583ZM33.4,12.084a1.2,1.2,0,1,1,1.2,1.2A1.2,1.2,0,0,1,33.4,12.084Zm-1.2,4.8a2.4,2.4,0,1,1,2.4,2.4A2.4,2.4,0,0,1,32.2,16.886Zm13.2,2.4a2.4,2.4,0,1,1,2.4-2.4A2.4,2.4,0,0,1,45.405,19.287Z" transform="translate(0)"/></g><rect class="a" width="25" height="25"/></svg>