<svg xmlns="http://www.w3.org/2000/svg" width="101.356" height="38.853" viewBox="0 0 101.356 38.853"><defs><style>.a{fill:#fff;}</style></defs><g transform="translate(0 0)"><path class="a" d="M172.4,794.836l-.06-.122-.1.03a2.613,2.613,0,0,1-.745.11,2.884,2.884,0,0,1-2.8-2.955V763.726a2.884,2.884,0,0,1,2.8-2.955,2.671,2.671,0,0,1,.844.137l.1.035.063-.117a6.182,6.182,0,0,1,1.057-1.435l.251-.252-.289-.147a4.446,4.446,0,0,0-2.026-.492,5.036,5.036,0,0,0-4.81,5.226V791.9a5.036,5.036,0,0,0,4.81,5.226,4.466,4.466,0,0,0,1.871-.411l.291-.134-.244-.264A6.164,6.164,0,0,1,172.4,794.836Z" transform="translate(-155.786 -758.5)"/><path class="a" d="M190.968,794.836l-.06-.122-.1.03a2.614,2.614,0,0,1-.745.11,2.884,2.884,0,0,1-2.8-2.955V763.726a2.884,2.884,0,0,1,2.8-2.955,2.67,2.67,0,0,1,.844.137l.1.035.062-.117a6.175,6.175,0,0,1,1.058-1.435l.251-.252-.289-.147a4.446,4.446,0,0,0-2.026-.492,5.036,5.036,0,0,0-4.81,5.226V791.9a5.036,5.036,0,0,0,4.81,5.226,4.467,4.467,0,0,0,1.871-.411l.291-.134-.244-.264A6.164,6.164,0,0,1,190.968,794.836Z" transform="translate(-168.437 -758.5)"/><path class="a" d="M227.5,758.751a5.035,5.035,0,0,0-4.81,5.224v28.175a4.826,4.826,0,1,0,9.62,0V763.976A5.035,5.035,0,0,0,227.5,758.751Zm2.8,5.224v28.175a2.8,2.8,0,1,1-5.6,0V763.976a2.8,2.8,0,1,1,5.6,0Z" transform="translate(-193.945 -758.637)"/><path class="a" d="M209.537,794.836l-.06-.122-.1.03a2.613,2.613,0,0,1-.745.11,2.884,2.884,0,0,1-2.8-2.955V763.726a2.884,2.884,0,0,1,2.8-2.955,2.673,2.673,0,0,1,.845.137l.1.035.062-.117a6.183,6.183,0,0,1,1.057-1.435l.251-.252-.289-.147a4.444,4.444,0,0,0-2.026-.492,5.036,5.036,0,0,0-4.81,5.226V791.9a5.036,5.036,0,0,0,4.81,5.226,4.467,4.467,0,0,0,1.871-.411l.291-.134-.244-.264A6.174,6.174,0,0,1,209.537,794.836Z" transform="translate(-181.087 -758.5)"/><path class="a" d="M137.31,761.257a2.87,2.87,0,0,1,2.8,2.928,1.012,1.012,0,1,0,2.01,0,4.823,4.823,0,1,0-9.619,0v27.8a4.823,4.823,0,1,0,9.619,0,1.074,1.074,0,0,0-1-1.13h-3.8a1.137,1.137,0,0,0,0,2.258h2.582a2.82,2.82,0,0,1-2.582,1.8,2.868,2.868,0,0,1-2.8-2.927v-27.8A2.87,2.87,0,0,1,137.31,761.257Z" transform="translate(-132.5 -758.773)"/><path class="a" d="M359.533,790.857h-3.8a1.137,1.137,0,0,0,0,2.258h2.582a2.82,2.82,0,0,1-2.582,1.8,2.868,2.868,0,0,1-2.8-2.927v-27.8a2.8,2.8,0,1,1,5.6,0,1.012,1.012,0,1,0,2.01,0,4.823,4.823,0,1,0-9.62,0v27.8a4.823,4.823,0,1,0,9.62,0A1.074,1.074,0,0,0,359.533,790.857Z" transform="translate(-281.301 -758.773)"/><path class="a" d="M284.188,758.728a1.077,1.077,0,0,0-1,1.137v9.654c-.566.125-1.179.239-1.864.346v-9.783a1.012,1.012,0,1,0-2.01,0v10.06c-.9.1-1.863.178-2.921.228L273.7,759.9a1.035,1.035,0,0,0-1.064-.945,1.073,1.073,0,0,0-.933,1.125v10.325c-.821-.025-1.583-.068-2.322-.127a24.716,24.716,0,0,1-2.455-.35c-.184-.036-.367-.078-.549-.12v-6.084c0-2.882-2.062-5.226-4.6-5.226h-3.632a1.063,1.063,0,0,0-.966,1.136v36.352a1.062,1.062,0,0,0,.966,1.137h3.632c2.536,0,4.6-2.344,4.6-5.226V771.2a12.1,12.1,0,0,0,2.53.888,19.4,19.4,0,0,0,2.8.421V796a1.011,1.011,0,1,0,2.01,0V772.585h.005q.4,0,.79-.01c.1,0,.206-.01.309-.016l.065,0,4.444,23.623a1.032,1.032,0,0,0,1.064.947,1.074,1.074,0,0,0,.933-1.125V771.4c.425-.148.835-.313,1.221-.49.212-.1.424-.2.643-.32v25.631a1.012,1.012,0,1,0,2.01,0V759.864A1.077,1.077,0,0,0,284.188,758.728Zm-4.878,13.242v14.7l-2.556-14.261A22.524,22.524,0,0,0,279.309,771.97Zm-4.767-1.539-.115,0c-.24,0-.479,0-.717,0V765.15Zm-10.149-.907c.014.03.031.058.048.087V791.9a2.825,2.825,0,0,1-2.666,2.955h-2.665V760.771h2.665a2.825,2.825,0,0,1,2.666,2.955v5.386l-.329-.162Z" transform="translate(-217.439 -758.5)"/><path class="a" d="M395.291,759h-7.609a1.144,1.144,0,0,0,0,2.272h2.8v8.4a35.371,35.371,0,0,1-4.15.719c-.365.043-.73.083-1.1.116V760.137a1.013,1.013,0,1,0-2.01,0v10.505c-.672.035-1.334.054-1.97.064-1.311.015-2.5-.005-3.63-.063V760.137a1.012,1.012,0,1,0-2.01,0v10.348c-.571-.064-1.222-.15-1.866-.28a9.06,9.06,0,0,1-2.345-.752l-.469-.239.285.584a4.293,4.293,0,0,0,1.908,1.638,11.8,11.8,0,0,0,2.487.9v24.156a1.012,1.012,0,1,0,2.01,0v-23.8a24.479,24.479,0,0,0,3.707.157c.59-.018,1.211-.063,1.893-.13v23.772a1.013,1.013,0,1,0,2.01,0V772.433c.619-.114,1.132-.228,1.6-.358a15.7,15.7,0,0,0,2.53-.9,12.512,12.512,0,0,0,1.113-.581v25.892a1.013,1.013,0,1,0,2.01,0V761.272h2.8a1.144,1.144,0,0,0,0-2.272Z" transform="translate(-294.94 -758.773)"/></g></svg>