<svg xmlns="http://www.w3.org/2000/svg" width="78" height="32.32" viewBox="0 0 78 32.32"><defs><style>.a{fill:#224280;}</style></defs><path class="a" d="M286.292,353.2a8.575,8.575,0,0,1-6.668-2.888c-1.008-1.272-1.822-2.307-2.479-3.154-.653.841-1.459,1.866-2.456,3.124a9.14,9.14,0,0,1-13.361.03c-1.008-1.272-1.821-2.307-2.479-3.154-.653.841-1.458,1.866-2.456,3.124a9.139,9.139,0,0,1-13.361.03c-1.008-1.272-1.822-2.307-2.479-3.154-.653.841-1.459,1.866-2.456,3.124a8.587,8.587,0,0,1-6.692,2.917h0a8.575,8.575,0,0,1-6.668-2.888l-4.214-5.183a3.01,3.01,0,1,1,4.671-3.8l4.214,5.183a3.331,3.331,0,0,0,3.995,0c1.823-2.3,4-5.12,4.469-5.814a3.011,3.011,0,0,1,2.681-1.642h0a3.01,3.01,0,0,1,2.681,1.641c.465.694,2.647,3.515,4.493,5.845a2.763,2.763,0,0,0,1.974.636,2.732,2.732,0,0,0,2-.665c1.823-2.3,4-5.121,4.469-5.815a3.011,3.011,0,0,1,2.681-1.641h0a3.011,3.011,0,0,1,2.681,1.642c.464.694,2.647,3.515,4.492,5.844a3.357,3.357,0,0,0,3.971-.03c1.822-2.3,4-5.12,4.468-5.814a3.01,3.01,0,0,1,5.362,0c.465.694,2.648,3.515,4.493,5.844a2.761,2.761,0,0,0,1.974.636,2.729,2.729,0,0,0,2-.665l4.214-5.183a3.01,3.01,0,0,1,4.671,3.8l-4.214,5.183A8.575,8.575,0,0,1,286.292,353.2Zm-6.229-11.867v0Zm-5.838,0v0Zm-12.457,0v0Zm-24.134,0v0Zm18.3,0v0Zm-12.459,0v0Zm18.3,0h0Zm-24.132,0h0Zm42.427,0h0Zm-5.837,0h0Zm-18.295,0v0Zm-12.46,0v0Z" transform="translate(-219.849 -339.058)"/><path class="a" d="M286.292,353.2a8.575,8.575,0,0,1-6.668-2.888c-1.008-1.272-1.822-2.307-2.479-3.154-.653.841-1.459,1.866-2.456,3.124a9.14,9.14,0,0,1-13.361.03c-1.008-1.272-1.821-2.307-2.479-3.154-.653.841-1.458,1.866-2.456,3.124a9.139,9.139,0,0,1-13.361.03c-1.008-1.272-1.822-2.307-2.479-3.154-.653.841-1.459,1.866-2.456,3.124a8.587,8.587,0,0,1-6.692,2.917h0a8.575,8.575,0,0,1-6.668-2.888l-4.214-5.183a3.01,3.01,0,1,1,4.671-3.8l4.214,5.183a3.331,3.331,0,0,0,3.995,0c1.823-2.3,4-5.12,4.469-5.814a3.011,3.011,0,0,1,2.681-1.642h0a3.01,3.01,0,0,1,2.681,1.641c.465.694,2.647,3.515,4.493,5.845a2.763,2.763,0,0,0,1.974.636,2.732,2.732,0,0,0,2-.665c1.823-2.3,4-5.121,4.469-5.815a3.011,3.011,0,0,1,2.681-1.641h0a3.011,3.011,0,0,1,2.681,1.642c.464.694,2.647,3.515,4.492,5.844a3.357,3.357,0,0,0,3.971-.03c1.822-2.3,4-5.12,4.468-5.814a3.01,3.01,0,0,1,5.362,0c.465.694,2.648,3.515,4.493,5.844a2.761,2.761,0,0,0,1.974.636,2.729,2.729,0,0,0,2-.665l4.214-5.183a3.01,3.01,0,0,1,4.671,3.8l-4.214,5.183A8.575,8.575,0,0,1,286.292,353.2Zm-6.229-11.867v0Zm-5.838,0v0Zm-12.457,0v0Zm-24.134,0v0Zm18.3,0v0Zm-12.459,0v0Zm18.3,0h0Zm-24.132,0h0Zm42.427,0h0Zm-5.837,0h0Zm-18.295,0v0Zm-12.46,0v0Z" transform="translate(-219.849 -320.88)"/></svg>