<svg xmlns="http://www.w3.org/2000/svg" width="10.918" height="13.316" viewBox="0 0 10.918 13.316"><defs><style>.a{fill:#224280;}.b{fill:#df5846;}</style></defs><g transform="translate(-64 -135)"><g transform="translate(64 125.721)"><path class="a" d="M10.659,17.1,6.1,12.538a.866.866,0,0,0-.638-.259.83.83,0,0,0-.631.259L.266,17.1a.888.888,0,0,0,0,1.268l.526.525a.833.833,0,0,0,.631.266.833.833,0,0,0,.631-.266l2.06-2.053v4.934a.747.747,0,0,0,.263.592.936.936,0,0,0,.634.228h.9a.936.936,0,0,0,.634-.228.747.747,0,0,0,.263-.592V16.841l2.06,2.053a.833.833,0,0,0,.631.266.87.87,0,0,0,.638-.266l.525-.525a.905.905,0,0,0,0-1.268Z" transform="translate(0 0)"/></g><circle class="b" cx="2.5" cy="2.5" r="2.5" transform="translate(67 135)"/></g></svg>