<svg xmlns="http://www.w3.org/2000/svg" width="34.74" height="32.822" viewBox="0 0 34.74 32.822"><defs><style>.a{fill:#df5846;}</style></defs><g transform="translate(0 0)"><path class="a" d="M33.915,27.62,19.4,13.1a2.756,2.756,0,0,0-2.029-.825,2.64,2.64,0,0,0-2.007.825L.847,27.62a2.827,2.827,0,0,0,0,4.036l1.672,1.672a2.651,2.651,0,0,0,2.007.848,2.651,2.651,0,0,0,2.007-.848l6.556-6.533v15.7a2.377,2.377,0,0,0,.836,1.884,2.977,2.977,0,0,0,2.018.724H18.8a2.977,2.977,0,0,0,2.018-.724,2.377,2.377,0,0,0,.837-1.884v-15.7l6.555,6.533a2.65,2.65,0,0,0,2.007.848,2.768,2.768,0,0,0,2.029-.848l1.672-1.672a2.88,2.88,0,0,0,0-4.036Z" transform="translate(0 -12.279)"/></g></svg>