<?xml version="1.0" encoding="utf-8"?>
<!-- Generator: Adobe Illustrator 23.0.4, SVG Export Plug-In . SVG Version: 6.00 Build 0)  -->
<svg version="1.1" id="Layer_1" xmlns="http://www.w3.org/2000/svg" xmlns:xlink="http://www.w3.org/1999/xlink" x="0px" y="0px"
	 viewBox="0 0 300 200" style="enable-background:new 0 0 300 200;" xml:space="preserve">
<style type="text/css">
	.st0{fill:#4B4B4B;}
	.st1{clip-path:url(#SVGID_2_);}
	.st2{clip-path:url(#SVGID_4_);fill:#4B4B4B;}
	.st3{clip-path:url(#SVGID_6_);}
	.st4{clip-path:url(#SVGID_8_);fill:#CACACA;}
	.st5{clip-path:url(#SVGID_10_);}
	.st6{clip-path:url(#SVGID_12_);fill:#CACACA;}
	.st7{clip-path:url(#SVGID_14_);}
	.st8{clip-path:url(#SVGID_16_);fill:#CACACA;}
	.st9{clip-path:url(#SVGID_18_);}
	.st10{clip-path:url(#SVGID_20_);fill:#CACACA;}
	.st11{clip-path:url(#SVGID_22_);}
	.st12{clip-path:url(#SVGID_24_);fill:#CACACA;}
	.st13{clip-path:url(#SVGID_26_);}
	.st14{clip-path:url(#SVGID_28_);fill:#CACACA;}
	.st15{clip-path:url(#SVGID_30_);}
	.st16{clip-path:url(#SVGID_32_);fill:#CACACA;}
	.st17{clip-path:url(#SVGID_34_);}
	.st18{clip-path:url(#SVGID_36_);fill:#CACACA;}
	.st19{clip-path:url(#SVGID_38_);}
	.st20{clip-path:url(#SVGID_40_);fill:#CACACA;}
	.st21{clip-path:url(#SVGID_42_);}
	.st22{clip-path:url(#SVGID_44_);fill:#CACACA;}
	.st23{clip-path:url(#SVGID_46_);}
	.st24{clip-path:url(#SVGID_48_);fill:#FFFFFF;}
</style>
<g>
	<defs>
		<path id="SVGID_1_" d="M-1904.98-730.46c-4.36,12.96-14.13,21.51-21.78,19.08c-7.64-2.38-10.37-14.86-5.96-27.83
			c4.38-12.98,14.21-21.5,21.82-19.08C-1903.25-755.9-1900.51-743.42-1904.98-730.46z M-1889.48-775l-10.01,6.92
			c-10.47-8.22-20.06-13.31-38.51-4.72c-25.12,11.68-46.15,101.38,23.05,71.84l3.97,4.68l27.23,0.7l17.87-81.48L-1889.48-775z
			 M-1818.95-678.85c-9.1,19.43-17.77,30.74-22.87,36.02c-5.12,5.21-15.22,17.31-39.56,16.4l2.08-14.83
			c20.5-6.33,31.58-34.85,37.89-47.5l-7.53-93.07l15.83-0.21h13.29l1.44,58.38l24.92-58.38h25.23L-1818.95-678.85z M-2031.4-770.59
			h27.56c7.22,0,12.92-1.66,17.09-4.99c4.12-3.35,6.84-8.47,8.38-15.42c0.24-1.27,0.38-2.42,0.57-3.5c0.08-0.99,0.21-2,0.21-2.98
			c0-4.96-1.77-8.56-5.29-10.8c-3.52-2.3-9.05-3.39-16.67-3.39h-23.47L-2031.4-770.59z M-2046.94-835.65h62.05
			c11.95,0,21.18,2.69,27.51,8.03c6.32,5.38,9.49,13.11,9.48,23.21v0.29c0,1.92-0.14,4.09-0.31,6.43c-0.31,2.31-0.68,4.66-1.21,7.1
			c-2.34,12.62-9.03,24.01-18.89,32.19c-9.81,8.11-22.2,12.42-34.91,12.17h-33.27l-10.29,50.65h-28.82L-2046.94-835.65z
			 M-2208.61-719.3c4.17-4.54,7.16-11.43,8.98-20.59c0.31-1.46,0.54-2.93,0.68-4.41c0.15-1.35,0.22-2.71,0.22-4.08
			c0-5.34-1.34-9.48-4.08-12.4c-2.69-2.97-6.53-4.41-11.52-4.41c-6.11-0.19-11.99,2.34-16.06,6.92c-4.24,4.64-7.23,11.64-9.12,20.97
			c-0.24,1.43-0.47,2.87-0.66,4.27c-0.14,1.32-0.2,2.65-0.18,3.98c0,5.29,1.37,9.37,4.09,12.27c2.68,2.9,6.51,4.33,11.52,4.33
			C-2218.61-712.25-2212.72-714.76-2208.61-719.3z M-2253.72-702.18c-6.2-5.95-9.33-13.95-9.37-24.12c0-1.74,0.13-3.71,0.34-5.88
			c0.25-2.19,0.53-4.33,0.94-6.32c2.81-14.03,8.81-25.17,18.03-33.39c9.11-8.23,21.01-12.66,33.27-12.4
			c10.63,0,19.09,2.98,25.26,8.95c6.17,5.99,9.26,14.1,9.26,24.41c0,1.75-0.13,3.78-0.35,5.99c-0.28,2.21-0.6,4.36-0.99,6.43
			c-2.74,13.85-8.7,24.88-17.93,32.94c-9.14,8.1-20.99,12.45-33.19,12.17C-2239.14-693.38-2247.56-696.32-2253.72-702.18z
			 M-2290.92-813.52h23.89l-4.47,20.98h-23.88L-2290.92-813.52z M-2298.37-782.03h23.69l-18.56,86.43h-23.62L-2298.37-782.03z
			 M-2152.59-782.06h21.38l-2.43,12.48l3.04-3.57c6.43-7.19,15.64-11.24,25.27-11.11c8.98,0,15.48,2.63,19.51,7.89
			c3.98,5.28,5.12,12.55,3.18,21.89l-11.71,58.9h-21.96l10.61-53.38c1.1-5.52,0.8-9.62-0.87-12.27c-1.75-2.66-4.87-3.95-9.45-3.95
			c-5.26-0.14-10.38,1.74-14.31,5.25c-4.08,3.92-6.77,9.08-7.65,14.68l-9.87,49.67h-21.95L-2152.59-782.06z M-2397.49-782.06h21.32
			l-2.4,12.48l3.06-3.57c6.42-7.2,15.63-11.25,25.26-11.11c8.96,0,15.47,2.63,19.51,7.89c4.03,5.28,5.12,12.55,3.24,21.89
			l-11.77,58.9h-21.95l10.61-53.38c1.09-5.52,0.78-9.62-0.89-12.27c-1.68-2.65-4.84-3.95-9.47-3.95
			c-5.25-0.15-10.35,1.73-14.26,5.25c-4.09,3.93-6.8,9.08-7.72,14.68l-9.76,49.67h-22.02L-2397.49-782.06z M-2425.36-743.93
			c-3.35,16.4-11.07,29.02-23.11,37.99c-11.9,8.8-27.24,13.2-46.03,13.21c-17.68,0-30.65-4.52-38.93-13.56
			c-5.72-6.41-8.57-14.59-8.57-24.46c0.04-4.43,0.53-8.85,1.45-13.18l20.02-96.84h30.23l-19.73,95.74
			c-0.57,2.41-0.85,4.88-0.82,7.35c-0.21,4.31,1.07,8.57,3.63,12.05c3.59,4.66,9.4,6.99,17.52,6.99c9.28,0,16.95-2.3,22.91-6.89
			c5.93-4.58,9.82-11.05,11.57-19.5l19.8-95.74h30.09L-2425.36-743.93z M-1934.67-619.65h87.93l-5.18,18.28h-27.98l-4.8,16.99h27.97
			l-5.21,18.25h-31.11l-7.06,10.67h15.25l3.53,21.42c0.42,2.14,2.28,3.18,5.52,3.18h4.73l-5,17.62h-16.73
			c-8.68,0.42-13.18-2.49-13.57-8.81l-4.04-19.54l-13.88,20.8c-2.82,5.65-8.85,8.92-15.11,8.19h-25.59l4.97-17.63h8
			c3.36-0.07,6.49-1.7,8.48-4.41l21.7-31.49h-27.99l5.19-18.25h30.37l4.82-16.99h-30.38L-1934.67-619.65z M-1926.72-656.17h27.16
			l1.16,10.04c-0.18,2.56,1.31,3.8,4.55,3.8h4.8l-4.86,17h-19.95c-7.62,0.41-11.55-2.52-11.91-8.82L-1926.72-656.17z
			 M-1996.5-539.68l5.5-19.55h-21.56l-5.54,19.55H-1996.5z M-2001.94-596.98l-7.37,26.96c0,0,13.92-6.88,23.5-7.45
			c2.76-10.42,5.5-19.51,5.5-19.51H-2001.94z M-1991.2-634.77l-7.32,25.74c7.57-2.86,15.41-4.95,23.4-6.22
			c2.39-8.98,5.5-19.53,5.5-19.53H-1991.2z M-2022.35-634.77l5.72-20.14h28.87l-1.23,7.38c0,0,14.72-7.38,25.37-7.38h35.67
			l-5.65,20.14h-5.61l-26.95,95.09h5.63l-5.35,18.88h-5.61l-2.33,8.19h-27.97l2.33-8.19h-55.15l5.38-18.88h5.52l26.95-95.09
			H-2022.35z M-2126.98-573.78h24.63l-0.46,10.69h6.55c3.31,0,4.96-1.05,4.96-3.18l1.91-6.91h20.48l-2.74,10.08
			c-2.29,8.4-8.43,12.79-18.39,13.22h-13.11l-0.06,18.26c-0.24,2.93,2.4,4.43,7.82,4.43h12.33l-3.98,14.45h-29.57
			c-8.27,0.39-12.37-3.56-12.29-11.98L-2126.98-573.78z M-2098.18-595.23c3.17,0.43,4.91-0.83,5.12-3.78l2.61-9.44h-42.71
			l-3.57,13.22H-2098.18z M-2082.72-636.77h-42.66l-5.1,17.9c0,0,7.11-5.14,18.97-5.32c11.83-0.18,25.34,0,25.34,0L-2082.72-636.77z
			 M-2123.2-655.52l-1.19,10.31c0,0,14.23-10.7,27.17-10.7h47.79l-18.28,66.36c-1.52,7.56-8.02,11.35-19.49,11.36h-54.16
			l-12.68,46.59c-0.74,2.49,0.31,3.78,3.03,3.78h10.65l-3.92,14.47h-27.09c-10.4,0-14.72-3.14-13.01-9.45l35.87-132.71H-2123.2z
			 M-2243.68-612.22h75.51l-4.82,17.63h-30.4l-4.61,17.02h29.54l-4.8,17.63h-29.57l-6.83,25.16c-1.69,4.2,0.53,6.09,6.65,5.66h24.1
			l-4.48,16.39h-46.23c-8.74,0-11.75-5.03-9.02-15.1l8.8-32.1h-18.89l4.8-17.63h18.88l4.64-17.02h-18.05L-2243.68-612.22z
			 M-2238.95-635.48h4.12c3.78,0,6.34-1.29,7.54-3.81l10.72-16.11h28.76l-5.99,10.59h34.43l-4.36,16.23h-41.01
			c-4.72,7.14-10.54,10.48-17.54,10.07h-21.33L-2238.95-635.48z"/>
	</defs>
	<clipPath id="SVGID_2_">
		<use xlink:href="#SVGID_1_"  style="overflow:visible;"/>
	</clipPath>
	<g class="st1">
		<defs>
			<rect id="SVGID_3_" x="-7661.54" y="-3295.03" width="9379.31" height="6252.88"/>
		</defs>
		<clipPath id="SVGID_4_">
			<use xlink:href="#SVGID_3_"  style="overflow:visible;"/>
		</clipPath>
	</g>
</g>
<g>
	<defs>
		<path id="SVGID_5_" d="M-679.4,165.7h-246.32V32.95h246.32V165.7z M-671.41,12.66h-262.3c-6.79,0-12.29,5.5-12.29,12.29V173.7
			c0,6.79,5.5,12.29,12.29,12.29h262.3c6.79,0,12.29-5.5,12.29-12.29V24.96C-659.12,18.17-664.62,12.66-671.41,12.66z"/>
	</defs>
	<clipPath id="SVGID_6_">
		<use xlink:href="#SVGID_5_"  style="overflow:visible;"/>
	</clipPath>
	<g class="st3">
		<defs>
			<rect id="SVGID_7_" x="-6568.67" y="-2122.71" width="8319.62" height="5546.41"/>
		</defs>
		<clipPath id="SVGID_8_">
			<use xlink:href="#SVGID_7_"  style="overflow:visible;"/>
		</clipPath>
	</g>
</g>
<g>
	<defs>
		<path id="SVGID_9_" d="M-726.26,88.55l1.15,5.17l3.95,17.26h-14.17h0L-726.26,88.55z M-760.41,131.37
			c0.35,0.52,0.95,0.83,1.6,0.83h13.67c0.79,0,1.5-0.47,1.78-1.17c1.68-4.24,2.76-6.93,3.11-7.81c0.91,0,5.11,0,9.61,0.01h0.25
			c5.17,0.01,10.67,0.01,11.99,0.01c0.39,1.59,1.35,5.79,1.75,7.52c0.19,0.84,0.97,1.43,1.86,1.43h11.92c0.58,0,1.12-0.25,1.49-0.68
			c0.36-0.43,0.5-0.99,0.38-1.53l-12.97-56.13c-0.19-0.83-0.97-1.43-1.86-1.43h-11.65c-4.66,0-7.33,1.48-8.94,4.96l-24.15,52.25
			C-760.82,130.21-760.76,130.86-760.41,131.37z"/>
	</defs>
	<clipPath id="SVGID_10_">
		<use xlink:href="#SVGID_9_"  style="overflow:visible;"/>
	</clipPath>
	<g class="st5">
		<defs>
			<rect id="SVGID_11_" x="-6568.67" y="-2122.71" width="8319.62" height="5546.41"/>
		</defs>
		<clipPath id="SVGID_12_">
			<use xlink:href="#SVGID_11_"  style="overflow:visible;"/>
		</clipPath>
	</g>
</g>
<g>
	<defs>
		<path id="SVGID_13_" d="M-807.13,129.68c4.95,1.51,11.87,2.46,18.49,2.52c0.01,0,0.01,0,0.02,0c19.01,0,31.37-7.77,31.51-19.79
			c0.07-6.61-4.76-11.6-15.15-15.7c-6.36-2.69-10.26-4.48-10.22-7.22c0-2.46,3.56-4.96,10.41-4.96c0.17,0,0.36,0,0.55,0
			c5.69,0,9.7,1.12,12.23,1.97c0.59,0.2,1.24,0.15,1.79-0.12c0.55-0.27,0.92-0.74,1.03-1.28l1.7-8.7c0.17-0.9-0.43-1.77-1.43-2.05
			c-3.12-0.87-8.17-1.91-14.49-1.91c-17.91,0-30.49,7.86-30.59,19.1c-0.11,8.33,8.99,12.97,15.86,15.74
			c7.04,2.83,9.41,4.64,9.37,7.18c-0.05,3.88-5.64,5.65-10.82,5.65c-7.37,0-11.34-0.97-16.96-3.01c-0.59-0.21-1.26-0.18-1.82,0.09
			c-0.56,0.27-0.95,0.74-1.05,1.29l-1.8,9.16C-808.68,128.52-808.1,129.38-807.13,129.68z"/>
	</defs>
	<clipPath id="SVGID_14_">
		<use xlink:href="#SVGID_13_"  style="overflow:visible;"/>
	</clipPath>
	<g class="st7">
		<defs>
			<rect id="SVGID_15_" x="-6568.67" y="-2122.71" width="8319.62" height="5546.41"/>
		</defs>
		<clipPath id="SVGID_16_">
			<use xlink:href="#SVGID_15_"  style="overflow:visible;"/>
		</clipPath>
	</g>
</g>
<g>
	<defs>
		<path id="SVGID_17_" d="M-902.93,70.39c10.69,4.18,19.44,10.81,25.3,19.17c0.36,0.52,0.92,0.8,1.49,0.8
			c0.26,0,0.53-0.06,0.78-0.18c0.79-0.39,1.23-1.33,1.05-2.26l-3.11-15.97c-0.01-0.03-0.01-0.07-0.02-0.1
			c-1.12-4.56-4.66-5.24-7.23-5.35c-0.02,0-0.05,0-0.07,0l-17.54-0.03c0,0,0,0,0,0c-0.91,0-1.68,0.71-1.84,1.68
			C-904.29,69.1-903.78,70.05-902.93,70.39z"/>
	</defs>
	<clipPath id="SVGID_18_">
		<use xlink:href="#SVGID_17_"  style="overflow:visible;"/>
	</clipPath>
	<g class="st9">
		<defs>
			<rect id="SVGID_19_" x="-6568.67" y="-2122.71" width="8319.62" height="5546.41"/>
		</defs>
		<clipPath id="SVGID_20_">
			<use xlink:href="#SVGID_19_"  style="overflow:visible;"/>
		</clipPath>
	</g>
</g>
<g>
	<defs>
		<path id="SVGID_21_" d="M-838.02,131.55c0.32,0.41,0.79,0.65,1.29,0.65h11.67c0.82,0,1.52-0.64,1.66-1.51l8.87-56.13
			c0.08-0.53-0.05-1.07-0.37-1.48c-0.32-0.41-0.79-0.65-1.29-0.65h-11.68c-0.82,0-1.52,0.64-1.66,1.51l-8.86,56.13
			C-838.48,130.6-838.34,131.14-838.02,131.55z"/>
	</defs>
	<clipPath id="SVGID_22_">
		<use xlink:href="#SVGID_21_"  style="overflow:visible;"/>
	</clipPath>
	<g class="st11">
		<defs>
			<rect id="SVGID_23_" x="-6568.67" y="-2122.71" width="8319.62" height="5546.41"/>
		</defs>
		<clipPath id="SVGID_24_">
			<use xlink:href="#SVGID_23_"  style="overflow:visible;"/>
		</clipPath>
	</g>
</g>
<g>
	<defs>
		<path id="SVGID_25_" d="M-889.04,85.33c-0.68-0.48-1.61-0.5-2.32-0.06c-0.7,0.45-1.02,1.26-0.78,2.02l13.81,43.6
			c0.25,0.78,1.02,1.31,1.89,1.31c0,0,0,0,0,0l15.91-0.02c0.79,0,1.5-0.43,1.81-1.1l26.11-56.1c0.26-0.56,0.2-1.21-0.16-1.72
			c-0.36-0.51-0.98-0.82-1.65-0.82h0l-14.36,0.01c-0.81,0-1.54,0.46-1.84,1.16l-16.8,39.66l-1.81-6.04
			c-0.02-0.08-0.05-0.16-0.09-0.24C-871.96,101.29-879.09,92.39-889.04,85.33z"/>
	</defs>
	<clipPath id="SVGID_26_">
		<use xlink:href="#SVGID_25_"  style="overflow:visible;"/>
	</clipPath>
	<g class="st13">
		<defs>
			<rect id="SVGID_27_" x="-6568.67" y="-2122.71" width="8319.62" height="5546.41"/>
		</defs>
		<clipPath id="SVGID_28_">
			<use xlink:href="#SVGID_27_"  style="overflow:visible;"/>
		</clipPath>
	</g>
</g>
<g>
	<defs>
		<path id="SVGID_29_" d="M-399.09,97.94c-2.85,0-4.91,3.27-4.91,8.01c0,3.16,1.03,4.74,3.2,4.74c2.97,0,5.14-3.27,5.14-8.12
			C-395.67,99.52-396.92,97.94-399.09,97.94z M-386.42,86.66l-4.91,29.57h-6.05l0.34-2.14c-1.83,1.81-3.54,2.6-5.93,2.6
			c-4.68,0-7.76-3.95-7.76-9.93c0-8.01,4.79-14.78,10.5-14.78c2.4,0,4.34,1.02,6.05,3.27l1.37-8.58L-386.42,86.66L-386.42,86.66z
			 M-411.3,99.07c-3.65-0.34-4.11,2.48-6.51,17.15h-6.39l0.34-1.58c1.37-7.45,2.51-15.01,3.31-22.46h5.93
			c0,1.24-0.23,2.48-0.46,3.72c2.05-2.93,3.54-4.4,6.16-3.84C-409.71,93.43-410.73,96.02-411.3,99.07z M-433.45,105.5
			c-3.65,0-5.48,1.24-5.48,3.61c0,1.47,0.91,2.48,2.28,2.48c2.62,0,4.45-2.48,4.57-6.09H-433.45z M-425.46,103.47
			c-0.57,3.5-1.71,10.95-1.94,12.75h-5.25l0.11-2.48c-1.6,2.03-3.77,2.93-6.73,2.93c-3.54,0-5.82-2.71-5.82-6.54
			c0-5.87,4.11-9.25,11.19-9.25c0.8,0,1.71,0,2.62,0.11c0.23-0.79,0.23-1.13,0.23-1.47c0-1.69-1.14-2.26-4.11-2.26
			c-3.08,0-5.71,0.79-6.73,1.13c0,0,0-0.45,0.91-5.42c3.2-0.9,5.25-1.24,7.65-1.24c5.48,0,8.33,2.37,8.33,7
			C-425,99.97-425.11,101.44-425.46,103.47z M-444.52,93.88c-2.28-1.13-3.88-1.58-5.71-1.58c-4.79,0-8.1,4.63-8.1,11.06
			c0,4.51,2.17,7.22,5.94,7.22c1.6,0,3.31-0.45,5.48-1.47l-1.14,6.66c-2.4,0.68-3.88,0.9-5.71,0.9c-6.85,0-11.19-4.85-11.19-12.75
			c0-10.61,5.94-17.94,14.5-17.94c2.74,0,6.05,1.13,6.96,1.47L-444.52,93.88z M-467.35,99.07c-3.54-0.34-4.11,2.48-6.39,17.15h-6.39
			l0.34-1.58c1.26-7.45,2.51-15.01,3.31-22.46h5.82c0.11,1.24-0.23,2.48-0.34,3.72c1.94-2.93,3.42-4.4,6.16-3.84
			C-465.63,93.43-466.66,96.02-467.35,99.07z M-486.64,101.44c0-0.45,0.68-4.29-2.97-4.29c-2.06,0-3.54,1.58-4.11,4.29H-486.64z
			 M-481.5,106.29h-12.67c-0.46,3.5,1.83,4.96,5.48,4.96c2.28,0,4.34-0.45,6.62-1.58l-1.03,6.09c-2.17,0.56-4.34,0.9-6.51,0.9
			c-7.19,0-10.84-3.72-10.84-10.72c0-8.24,4.68-14.22,11.07-14.22c5.25,0,8.67,3.39,8.67,8.69
			C-480.7,102.12-480.93,103.92-481.5,106.29z M-500.67,92.19l-0.8,5.87h-3.31c-0.68,4.51-1.83,10.27-1.83,10.95
			c0,1.24,0.68,1.81,2.17,1.81c0.62,0,1.23-0.07,1.83-0.23l-0.91,5.3c-1.71,0.56-3.08,0.79-4.57,0.79c-3.31,0-5.02-1.81-5.14-5.3
			c0-1.02,0.46-3.84,0.91-6.32c0,0,0.34-2.26,2.85-16.48h6.28l-0.69,3.61L-500.67,92.19L-500.67,92.19z M-514.83,97.72
			c-1.71-0.23-3.42-0.34-4.68-0.34c-2.06,0-3.08,0.68-3.08,1.92c0,1.13,0.23,1.47,2.97,2.6c3.2,1.47,4.57,3.5,4.57,6.77
			c0,5.53-3.2,8.12-9.93,8.01c-3.88,0-5.25-0.34-6.62-0.68c0,0,0-0.23,0.8-5.53c2.05,0.56,3.88,0.9,5.82,0.9
			c2.51,0,3.65-0.68,3.65-2.14c0-1.13-0.46-1.47-2.97-2.71c-3.42-1.58-4.91-3.61-4.91-6.66c0-4.51,2.4-8.12,9.59-8.12
			c1.48,0,3.99,0.11,5.71,0.45L-514.83,97.72z M-540.28,105.5c-3.54,0-5.36,1.24-5.36,3.61c0,1.47,0.8,2.48,2.28,2.48
			c2.63,0,4.45-2.48,4.57-6.09H-540.28z M-532.18,103.47c-0.57,3.5-1.83,10.95-1.94,12.75h-5.36l0.11-2.48
			c-1.6,2.03-3.77,2.93-6.62,2.93c-3.54,0-5.94-2.71-5.94-6.54c0-5.87,4.22-9.25,11.3-9.25c0.69,0,1.6,0,2.63,0.11
			c0.11-0.79,0.23-1.13,0.23-1.47c0-1.69-1.14-2.26-4.11-2.26c-3.2,0-5.71,0.79-6.73,1.13c0,0,0-0.45,0.8-5.42
			c3.2-0.9,5.36-1.24,7.65-1.24c5.59,0,8.45,2.37,8.45,7C-531.72,99.97-531.95,101.44-532.18,103.47z M-550.67,86.66l-5.02,29.57
			h-6.39l3.65-22.68l-8.1,22.68h-4.45l-0.46-22.57l-3.88,22.57h-6.05l5.02-29.57h9.25l0.23,18.39l6.28-18.39H-550.67z
			 M-442.24,39.94c-14.04,0-26.94,4.63-37.44,12.41c9.36,8.46,16.21,19.52,19.52,32.05h-5.71c-3.31-11.17-9.59-20.99-18.03-28.55
			c-8.45,7.56-14.72,17.38-18.03,28.55h-5.71c3.31-12.53,10.16-23.59,19.52-32.05c-10.5-7.79-23.4-12.41-37.44-12.41
			c-34.36,0-62.09,27.53-62.09,61.39s27.74,61.39,62.09,61.39c14.04,0,26.94-4.63,37.44-12.41c-8.79-8.01-15.41-18.28-18.83-29.79
			h5.71c3.42,10.16,9.47,19.3,17.35,26.29c7.88-7,13.92-16.14,17.35-26.29h5.71c-3.42,11.51-10.04,21.78-18.83,29.79
			c10.5,7.79,23.4,12.41,37.44,12.41c34.36,0,62.09-27.53,62.09-61.39S-407.88,39.94-442.24,39.94z M-352.41,173.54
			c0,7.9-6.62,14.44-14.61,14.44h-233.76c-7.99,0-14.61-6.54-14.61-14.44V29.11c0-7.9,6.62-14.44,14.61-14.44h233.76
			c7.99,0,14.61,6.54,14.61,14.44V173.54z"/>
	</defs>
	<clipPath id="SVGID_30_">
		<use xlink:href="#SVGID_29_"  style="overflow:visible;"/>
	</clipPath>
	<g class="st15">
		<defs>
			<rect id="SVGID_31_" x="-6552.67" y="-2120.71" width="8319.62" height="5546.41"/>
		</defs>
		<clipPath id="SVGID_32_">
			<use xlink:href="#SVGID_31_"  style="overflow:visible;"/>
		</clipPath>
	</g>
</g>
<g>
	<defs>
		<path id="SVGID_33_" d="M-77.96,117.05c-0.45,0.11-1.49,0.23-2.06,0.23h-17.59v-15.65h17.59c0.57,0,1.61,0.11,2.06,0.22
			c3.45,0.68,6.22,3.69,6.22,7.6C-71.74,113.47-74.5,116.38-77.96,117.05z M-97.61,78.37h15.99c0.57,0,1.37,0.11,1.73,0.11
			c3.33,0.56,6.08,3.24,6.08,7.15c0,3.91-2.75,6.49-6.08,7.04c-0.35,0.11-1.16,0.11-1.73,0.11h-15.99V78.37z M-63.36,97.38v-0.33
			c8.96-1.23,13.91-6.93,13.91-13.52c0-8.5-7.24-13.42-17.01-13.87c-0.69,0-1.94-0.11-2.98-0.11h-52.3v57h56.43
			c11.14,0,19.42-5.81,19.42-14.86C-45.88,103.42-53.47,98.05-63.36,97.38z M-206.11,98.05c0,16.21,11.5,31.74,51.94,29.96
			c0,0,11.61-0.45,23.91-3.47v-12.63c-5.97,3.02-13.56,5.92-22.99,6.6c-16.54,1.22-26.42-6.6-26.42-20.46
			c0-13.86,9.89-21.68,26.42-20.46c9.43,0.68,16.91,3.47,22.99,6.49V71.56c-12.3-3.02-23.91-3.47-23.91-3.47
			C-194.61,66.31-206.11,81.85-206.11,98.05z M-238.51,103.97c0,8.38-5.86,14.64-16.44,14.64c-8.96,0-17.81-2.57-26.32-6.59v12.51
			c13.79,3.69,31.27,3.69,31.27,3.69c29.19,0,37.7-10.84,37.7-24.26V69.55h-26.21V103.97z M-41.42,169.91
			c0,5.36-4.66,9.89-10.17,9.89h-230.02c-5.51,0-10.17-4.53-10.17-9.89V30.1c0-5.36,4.66-9.89,10.17-9.89h230.02
			c5.51,0,10.17,4.53,10.17,9.89V169.91z M-38.47,17.35c-3.53-3.43-8.19-5.32-13.11-5.32h-230.02c-4.93,0-9.58,1.89-13.11,5.32
			c-3.53,3.43-5.47,7.96-5.47,12.75v139.81c0,4.79,1.94,9.32,5.47,12.75c3.53,3.43,8.19,5.32,13.11,5.32h230.02
			c4.93,0,9.58-1.89,13.11-5.32c3.53-3.43,5.47-7.96,5.47-12.75V30.1C-33,25.31-34.94,20.79-38.47,17.35z"/>
	</defs>
	<clipPath id="SVGID_34_">
		<use xlink:href="#SVGID_33_"  style="overflow:visible;"/>
	</clipPath>
	<g class="st17">
		<defs>
			<rect id="SVGID_35_" x="-6623.33" y="-2155.79" width="8446.06" height="5630.7"/>
		</defs>
		<clipPath id="SVGID_36_">
			<use xlink:href="#SVGID_35_"  style="overflow:visible;"/>
		</clipPath>
		<rect x="-335.39" y="-23.16" class="st18" width="337.58" height="246.34"/>
	</g>
</g>
<g>
	<defs>
		<path id="SVGID_37_" d="M257.68,61.26H41.45V45.73c0-9.65,7.8-17.49,17.39-17.49h181.46c9.59,0,17.39,7.84,17.39,17.49V61.26z
			 M257.68,154.47c0,9.65-7.8,17.49-17.39,17.49H58.84c-9.59,0-17.39-7.84-17.39-17.49v-69.9h216.24V154.47z M240.29,12.7H58.84
			C40.71,12.7,26,27.5,26,45.73v108.73c0,18.24,14.71,33.03,32.84,33.03h181.46c18.13,0,32.84-14.79,32.84-33.03V45.73
			C273.13,27.5,258.42,12.7,240.29,12.7z"/>
	</defs>
	<clipPath id="SVGID_38_">
		<use xlink:href="#SVGID_37_"  style="overflow:visible;"/>
	</clipPath>
	<g class="st19">
		<defs>
			<rect id="SVGID_39_" x="-3903.47" y="-3294.49" width="8390.33" height="5593.55"/>
		</defs>
		<clipPath id="SVGID_40_">
			<use xlink:href="#SVGID_39_"  style="overflow:visible;"/>
		</clipPath>
		<rect x="-8.96" y="-22.26" class="st20" width="317.05" height="244.72"/>
	</g>
</g>
<g>
	<defs>
		<rect id="SVGID_41_" x="32.99" y="82.62" width="230.73" height="90.9"/>
	</defs>
	<clipPath id="SVGID_42_">
		<use xlink:href="#SVGID_41_"  style="overflow:visible;"/>
	</clipPath>
	<g class="st21">
		<defs>
			<rect id="SVGID_43_" x="-3903.47" y="-3294.49" width="8390.33" height="5593.55"/>
		</defs>
		<clipPath id="SVGID_44_">
			<use xlink:href="#SVGID_43_"  style="overflow:visible;"/>
		</clipPath>
		<rect x="-1.97" y="47.66" class="st22" width="300.65" height="160.81"/>
	</g>
</g>
<g>
	<defs>
		<rect id="SVGID_45_" x="165.84" y="82.62" width="90.9" height="34.96"/>
	</defs>
	<clipPath id="SVGID_46_">
		<use xlink:href="#SVGID_45_"  style="overflow:visible;"/>
	</clipPath>
	<g class="st23">
		<defs>
			<rect id="SVGID_47_" x="-3903.47" y="-3294.49" width="8390.33" height="5593.55"/>
		</defs>
		<clipPath id="SVGID_48_">
			<use xlink:href="#SVGID_47_"  style="overflow:visible;"/>
		</clipPath>
		<rect x="130.88" y="47.66" class="st24" width="160.81" height="104.88"/>
	</g>
</g>
</svg>
