<?xml version="1.0" encoding="utf-8"?>
<!-- Generator: Adobe Illustrator 23.0.4, SVG Export Plug-In . SVG Version: 6.00 Build 0)  -->
<svg version="1.1" id="Layer_1" xmlns="http://www.w3.org/2000/svg" xmlns:xlink="http://www.w3.org/1999/xlink" x="0px" y="0px"
	 viewBox="0 0 550 550" style="enable-background:new 0 0 550 550;" xml:space="preserve">
<style type="text/css">
	.st0{fill:#4B4B4B;}
	.st1{clip-path:url(#SVGID_2_);}
	.st2{clip-path:url(#SVGID_4_);fill:#4B4B4B;}
	.st3{clip-path:url(#SVGID_6_);}
	.st4{clip-path:url(#SVGID_8_);fill:#CACACA;}
	.st5{clip-path:url(#SVGID_10_);}
	.st6{clip-path:url(#SVGID_12_);fill:#CACACA;}
	.st7{clip-path:url(#SVGID_14_);}
	.st8{clip-path:url(#SVGID_16_);fill:#CACACA;}
	.st9{clip-path:url(#SVGID_18_);}
	.st10{clip-path:url(#SVGID_20_);fill:#CACACA;}
	.st11{clip-path:url(#SVGID_22_);}
	.st12{clip-path:url(#SVGID_24_);fill:#CACACA;}
	.st13{clip-path:url(#SVGID_26_);}
	.st14{clip-path:url(#SVGID_28_);fill:#CACACA;}
	.st15{clip-path:url(#SVGID_30_);}
	.st16{clip-path:url(#SVGID_32_);fill:#CACACA;}
	.st17{clip-path:url(#SVGID_34_);}
	.st18{clip-path:url(#SVGID_36_);fill:#CACACA;}
	.st19{clip-path:url(#SVGID_38_);}
	.st20{clip-path:url(#SVGID_40_);fill:#CACACA;}
	.st21{clip-path:url(#SVGID_42_);}
	.st22{clip-path:url(#SVGID_44_);fill:#CACACA;}
	.st23{clip-path:url(#SVGID_46_);}
	.st24{clip-path:url(#SVGID_48_);fill:#FFFFFF;}
</style>
<g>
	<path class="st0" d="M306.64,468.24c-4.63,3.77-9.28,6.73-13.96,8.96c-3.18,0.34-6.38,0.59-9.6,0.78v-37.31
		c-7.69-6.3-15.43-12.84-23.19-19.55v56.87c-3.22-0.2-6.42-0.45-9.59-0.79c-4.68-2.24-9.34-5.2-13.97-8.96
		c-15.08-12.28-29.2-33-40.03-59.68h49.3c-8.4-7.51-16.81-15.25-25.22-23.19h-32.19c-3.84-12.78-6.94-26.57-9.29-41.03
		c-9.16-9.48-18.05-18.97-26.69-28.46c1.94,24.69,5.92,48.11,11.85,69.48h-59.25c-16.59-26.81-26.87-57.89-28.82-91.27h56.87
		c-6.72-7.76-13.26-15.5-19.55-23.19H75.99c0.8-13.68,3.07-26.94,6.52-39.71c-7.87-10.74-15.26-21.33-22.07-31.7
		c-10.12,25.72-15.75,53.7-15.75,83.01c0.01,125.26,101.53,226.77,226.78,226.77c29.3,0,57.28-5.62,82.99-15.74
		c-13.81-9.08-28.02-19.18-42.47-30.12C310.22,465.14,308.44,466.77,306.64,468.24z M132.98,421c-3.97-3.97-7.75-8.14-11.36-12.44
		h49.96c3.72,10.15,7.81,19.81,12.4,28.69c5.4,10.43,11.38,19.92,17.91,28.34C175.81,455.68,152.39,440.39,132.98,421z"/>
	<path class="st0" d="M106.6,126.88c4.95,8.87,10.58,18.11,16.78,27.63c3.1-3.59,6.24-7.14,9.6-10.5
		c19.44-19.43,42.91-34.75,69.05-44.66c-12.15,15.6-22.36,34.95-30.49,57.09h-46.92c4.97,7.56,10.32,15.31,15.99,23.19h23.5
		c-2.14,7.69-3.97,15.7-5.62,23.88c6.21,7.99,12.71,16.07,19.48,24.21c2.44-17.05,5.87-33.24,10.34-48.09h71.58v91.27h-44.06
		c7.17,7.75,14.5,15.49,22.02,23.19h22.05v22.05c7.7,7.5,15.44,14.86,23.19,22.02V294.1h85.69c-0.95,33.3-6,64.37-14.1,91.27h-16.98
		c11.14,8.98,22.14,17.43,32.9,25.27c0.26-0.71,0.57-1.36,0.84-2.08h49.91c-3.62,4.3-7.39,8.46-11.36,12.44
		c-3.35,3.35-6.87,6.54-10.46,9.63c9.51,6.19,18.73,11.81,27.58,16.76c43.8-41.34,71.17-99.9,71.17-164.89
		c-0.01-125.25-101.54-226.78-226.8-226.79C206.49,55.73,147.95,83.1,106.6,126.88z M438.16,385.37h-59.31
		c7.66-27.6,12.29-58.48,13.19-91.27h74.94C465.03,327.49,454.75,358.56,438.16,385.37z M438.14,179.63
		c16.6,26.81,26.88,57.89,28.83,91.27h-75.01c-0.91-32.77-5.41-63.69-13.06-91.27H438.14z M409.97,144.01
		c3.97,3.97,7.74,8.13,11.36,12.43h-49.94c-3.72-10.14-7.82-19.8-12.4-28.68c-5.4-10.43-11.38-19.92-17.9-28.34
		C367.16,109.33,390.57,124.63,409.97,144.01z M283.08,87.02c3.22,0.2,6.43,0.45,9.6,0.79c4.68,2.23,9.32,5.19,13.95,8.95
		c15.08,12.27,29.2,33,40.02,59.68h-63.58V87.02z M283.08,179.63h71.69c8.1,26.89,13.12,58.01,14.08,91.27h-85.77V179.63z
		 M236.33,96.76c4.63-3.77,9.27-6.73,13.95-8.96c3.18-0.34,6.38-0.59,9.6-0.79v69.42h-63.46c2.56-6.32,5.25-12.42,8.15-18.04
		C213.9,120.34,224.86,106.13,236.33,96.76z"/>
	<path class="st0" d="M521.26,438.3c-4.7-12.66-11.22-26.35-19.21-40.86c-5.46,10.89-11.65,21.36-18.54,31.31
		c3.5,7.23,6.43,14.02,8.74,20.29c4.72,12.65,6.85,23.19,6.81,30.25c0,3.34-0.45,5.86-1.03,7.55c-0.59,1.7-1.21,2.58-1.92,3.31
		c-0.72,0.69-1.59,1.31-3.3,1.9c-1.68,0.57-4.2,1.02-7.54,1.02c-6.66,0.03-16.44-1.85-28.15-6.04
		c-11.73-4.16-25.42-10.53-40.44-18.87c-51.48-28.62-118.36-80.58-184.29-146.56C166.42,255.67,114.46,188.8,85.84,137.3
		c-8.35-15.02-14.71-28.7-18.87-40.43c-4.18-11.71-6.07-21.49-6.04-28.15c0-3.35,0.45-5.87,1.03-7.54c0.59-1.71,1.2-2.57,1.9-3.3
		c0.74-0.72,1.62-1.34,3.32-1.92c1.68-0.57,4.2-1.03,7.56-1.03c7.04-0.04,17.59,2.09,30.22,6.8c6.29,2.33,13.12,5.27,20.38,8.77
		c9.95-6.89,20.4-13.08,31.29-18.54c-14.54-8.01-28.26-14.54-40.94-19.24c-14.84-5.46-28.32-8.68-40.94-8.72
		c-6,0.01-11.86,0.76-17.48,2.66c-5.6,1.89-10.95,5.01-15.27,9.36c-4.33,4.31-7.45,9.65-9.33,15.24
		c-1.89,5.61-2.65,11.46-2.66,17.46c0.04,11.93,2.91,24.61,7.83,38.51c4.94,13.88,12.01,28.96,20.99,45.11
		c30.76,55.2,84.09,123.47,151.72,191.13c67.66,67.63,135.93,120.96,191.12,151.72c16.17,8.98,31.24,16.05,45.12,20.99
		c13.9,4.91,26.58,7.78,38.5,7.82c6,0,11.85-0.76,17.46-2.65c5.59-1.88,10.92-4.99,15.24-9.32c4.35-4.33,7.47-9.68,9.36-15.27
		c1.89-5.62,2.65-11.48,2.66-17.47C529.95,466.65,526.74,453.16,521.26,438.3z"/>
</g>
<g>
	<defs>
		<path id="SVGID_1_" d="M-1405.98,136.04c-4.36,12.96-14.13,21.51-21.78,19.08c-7.64-2.38-10.37-14.86-5.96-27.83
			c4.38-12.98,14.21-21.5,21.82-19.08C-1404.25,110.6-1401.51,123.08-1405.98,136.04z M-1390.48,91.5l-10.01,6.92
			c-10.47-8.22-20.06-13.31-38.51-4.72c-25.12,11.68-46.15,101.38,23.05,71.84l3.97,4.68l27.23,0.7l17.87-81.48L-1390.48,91.5z
			 M-1319.95,187.65c-9.1,19.43-17.77,30.74-22.87,36.02c-5.12,5.21-15.22,17.31-39.56,16.4l2.08-14.83
			c20.5-6.33,31.58-34.85,37.89-47.5l-7.53-93.07l15.83-0.21h13.29l1.44,58.38l24.92-58.38h25.23L-1319.95,187.65z M-1532.4,95.91
			h27.56c7.22,0,12.92-1.66,17.09-4.99c4.12-3.35,6.84-8.47,8.38-15.42c0.24-1.27,0.38-2.42,0.57-3.5c0.08-0.99,0.21-2,0.21-2.98
			c0-4.96-1.77-8.56-5.29-10.8c-3.52-2.3-9.05-3.39-16.67-3.39h-23.47L-1532.4,95.91z M-1547.94,30.85h62.05
			c11.95,0,21.18,2.69,27.51,8.03c6.32,5.38,9.49,13.11,9.48,23.21v0.29c0,1.92-0.14,4.09-0.31,6.43c-0.31,2.31-0.68,4.66-1.21,7.1
			c-2.34,12.62-9.03,24.01-18.89,32.19c-9.81,8.11-22.2,12.42-34.91,12.17h-33.27l-10.29,50.65h-28.82L-1547.94,30.85z
			 M-1709.61,147.2c4.17-4.54,7.16-11.43,8.98-20.59c0.31-1.46,0.54-2.93,0.68-4.41c0.15-1.35,0.22-2.71,0.22-4.08
			c0-5.34-1.34-9.48-4.08-12.4c-2.69-2.97-6.53-4.41-11.52-4.41c-6.11-0.19-11.99,2.34-16.06,6.92c-4.24,4.64-7.23,11.64-9.12,20.97
			c-0.24,1.43-0.47,2.87-0.66,4.27c-0.14,1.32-0.2,2.65-0.18,3.98c0,5.29,1.37,9.37,4.09,12.27c2.68,2.9,6.51,4.33,11.52,4.33
			C-1719.61,154.25-1713.72,151.74-1709.61,147.2z M-1754.72,164.32c-6.2-5.95-9.33-13.95-9.37-24.12c0-1.74,0.13-3.71,0.34-5.88
			c0.25-2.19,0.53-4.33,0.94-6.32c2.81-14.03,8.81-25.17,18.03-33.39c9.11-8.23,21.01-12.66,33.27-12.4
			c10.63,0,19.09,2.98,25.26,8.95c6.17,5.99,9.26,14.1,9.26,24.41c0,1.75-0.13,3.78-0.35,5.99c-0.28,2.21-0.6,4.36-0.99,6.43
			c-2.74,13.85-8.7,24.88-17.93,32.94c-9.14,8.1-20.99,12.45-33.19,12.17C-1740.14,173.12-1748.56,170.18-1754.72,164.32z
			 M-1791.92,52.98h23.89l-4.47,20.98h-23.88L-1791.92,52.98z M-1799.37,84.47h23.69l-18.56,86.43h-23.62L-1799.37,84.47z
			 M-1653.59,84.44h21.38l-2.43,12.48l3.04-3.57c6.43-7.19,15.64-11.24,25.27-11.11c8.98,0,15.48,2.63,19.51,7.89
			c3.98,5.28,5.12,12.55,3.18,21.89l-11.71,58.9h-21.96l10.61-53.38c1.1-5.52,0.8-9.62-0.87-12.27c-1.75-2.66-4.87-3.95-9.45-3.95
			c-5.26-0.14-10.38,1.74-14.31,5.25c-4.08,3.92-6.77,9.08-7.65,14.68l-9.87,49.67h-21.95L-1653.59,84.44z M-1898.49,84.44h21.32
			l-2.4,12.48l3.06-3.57c6.42-7.2,15.63-11.25,25.26-11.11c8.96,0,15.47,2.63,19.51,7.89c4.04,5.28,5.12,12.55,3.24,21.89
			l-11.77,58.9h-21.95l10.61-53.38c1.09-5.52,0.78-9.62-0.89-12.27c-1.68-2.65-4.84-3.95-9.47-3.95
			c-5.25-0.15-10.35,1.73-14.26,5.25c-4.09,3.93-6.8,9.08-7.72,14.68l-9.76,49.67h-22.02L-1898.49,84.44z M-1926.36,122.57
			c-3.35,16.4-11.07,29.02-23.11,37.99c-11.9,8.8-27.24,13.2-46.03,13.21c-17.68,0-30.65-4.52-38.93-13.56
			c-5.72-6.41-8.57-14.59-8.57-24.46c0.04-4.43,0.53-8.85,1.45-13.18l20.02-96.84h30.23l-19.73,95.74
			c-0.57,2.41-0.85,4.88-0.82,7.35c-0.21,4.31,1.07,8.57,3.63,12.05c3.59,4.66,9.4,6.99,17.52,6.99c9.28,0,16.95-2.3,22.91-6.89
			c5.93-4.58,9.82-11.05,11.57-19.5l19.8-95.74h30.09L-1926.36,122.57z M-1435.67,246.85h87.93l-5.18,18.28h-27.98l-4.8,16.99h27.97
			l-5.21,18.25h-31.11l-7.06,10.67h15.25l3.53,21.42c0.42,2.14,2.28,3.18,5.52,3.18h4.73l-5,17.62h-16.73
			c-8.68,0.42-13.18-2.49-13.57-8.81l-4.04-19.54l-13.88,20.8c-2.82,5.65-8.85,8.92-15.11,8.19h-25.59l4.97-17.63h8
			c3.36-0.07,6.49-1.7,8.48-4.41l21.7-31.49h-27.99l5.19-18.25h30.37l4.82-16.99h-30.38L-1435.67,246.85z M-1427.72,210.33h27.16
			l1.16,10.04c-0.18,2.56,1.31,3.8,4.55,3.8h4.8l-4.86,17h-19.95c-7.62,0.41-11.55-2.52-11.91-8.82L-1427.72,210.33z
			 M-1497.5,326.82l5.5-19.55h-21.56l-5.54,19.55H-1497.5z M-1502.94,269.52l-7.37,26.96c0,0,13.92-6.88,23.5-7.45
			c2.76-10.42,5.5-19.51,5.5-19.51H-1502.94z M-1492.2,231.73l-7.32,25.74c7.57-2.86,15.41-4.95,23.4-6.22
			c2.39-8.98,5.5-19.53,5.5-19.53H-1492.2z M-1523.35,231.73l5.72-20.14h28.87l-1.23,7.38c0,0,14.72-7.38,25.37-7.38h35.67
			l-5.65,20.14h-5.61l-26.95,95.09h5.63l-5.35,18.88h-5.61l-2.33,8.19h-27.97l2.33-8.19h-55.15l5.38-18.88h5.52l26.95-95.09
			H-1523.35z M-1627.98,292.72h24.63l-0.46,10.69h6.55c3.31,0,4.96-1.05,4.96-3.18l1.91-6.91h20.48l-2.74,10.08
			c-2.29,8.4-8.43,12.79-18.39,13.22h-13.11l-0.06,18.26c-0.24,2.93,2.4,4.43,7.82,4.43h12.33l-3.98,14.45h-29.57
			c-8.27,0.39-12.37-3.56-12.29-11.98L-1627.98,292.72z M-1599.18,271.27c3.17,0.43,4.91-0.83,5.12-3.78l2.61-9.44h-42.71
			l-3.57,13.22H-1599.18z M-1583.72,229.73h-42.65l-5.1,17.9c0,0,7.11-5.14,18.97-5.32c11.83-0.18,25.34,0,25.34,0L-1583.72,229.73z
			 M-1624.2,210.98l-1.19,10.31c0,0,14.23-10.7,27.17-10.7h47.79l-18.28,66.36c-1.52,7.56-8.02,11.35-19.49,11.36h-54.16
			l-12.68,46.59c-0.74,2.49,0.31,3.78,3.03,3.78h10.65l-3.92,14.47h-27.09c-10.4,0-14.72-3.14-13.01-9.45l35.87-132.71H-1624.2z
			 M-1744.68,254.28h75.51l-4.82,17.63h-30.4l-4.61,17.02h29.54l-4.8,17.63h-29.57l-6.83,25.16c-1.69,4.2,0.53,6.09,6.65,5.66h24.1
			l-4.48,16.39h-46.23c-8.74,0-11.75-5.03-9.02-15.1l8.8-32.1h-18.89l4.8-17.63h18.88l4.64-17.02h-18.05L-1744.68,254.28z
			 M-1739.95,231.02h4.12c3.78,0,6.34-1.29,7.54-3.81l10.72-16.11h28.76l-5.99,10.59h34.43l-4.36,16.23h-41.01
			c-4.72,7.14-10.54,10.48-17.54,10.07h-21.33L-1739.95,231.02z"/>
	</defs>
	<clipPath id="SVGID_2_">
		<use xlink:href="#SVGID_1_"  style="overflow:visible;"/>
	</clipPath>
	<g class="st1">
		<defs>
			<rect id="SVGID_3_" x="-7162.54" y="-2428.53" width="9379.31" height="6252.88"/>
		</defs>
		<clipPath id="SVGID_4_">
			<use xlink:href="#SVGID_3_"  style="overflow:visible;"/>
		</clipPath>
	</g>
</g>
<g>
	<defs>
		<path id="SVGID_5_" d="M-180.4,1032.2h-246.32V899.45h246.32V1032.2z M-172.41,879.16h-262.3c-6.79,0-12.29,5.5-12.29,12.29
			v148.74c0,6.79,5.5,12.29,12.29,12.29h262.3c6.79,0,12.29-5.5,12.29-12.29V891.46C-160.12,884.67-165.62,879.16-172.41,879.16z"/>
	</defs>
	<clipPath id="SVGID_6_">
		<use xlink:href="#SVGID_5_"  style="overflow:visible;"/>
	</clipPath>
	<g class="st3">
		<defs>
			<rect id="SVGID_7_" x="-6069.67" y="-1256.21" width="8319.62" height="5546.41"/>
		</defs>
		<clipPath id="SVGID_8_">
			<use xlink:href="#SVGID_7_"  style="overflow:visible;"/>
		</clipPath>
	</g>
</g>
<g>
	<defs>
		<path id="SVGID_9_" d="M-227.26,955.05l1.15,5.17l3.95,17.26h-14.17h0L-227.26,955.05z M-261.41,997.87
			c0.35,0.52,0.95,0.83,1.6,0.83h13.67c0.79,0,1.5-0.47,1.78-1.17c1.68-4.24,2.76-6.93,3.11-7.81c0.91,0,5.11,0,9.61,0.01h0.25
			c5.17,0.01,10.67,0.01,11.99,0.01c0.39,1.59,1.35,5.79,1.75,7.52c0.19,0.84,0.97,1.43,1.86,1.43h11.92c0.58,0,1.12-0.25,1.49-0.68
			c0.36-0.43,0.5-0.99,0.38-1.53l-12.97-56.13c-0.19-0.83-0.97-1.43-1.86-1.43h-11.65c-4.66,0-7.33,1.48-8.94,4.96l-24.15,52.25
			C-261.82,996.71-261.76,997.36-261.41,997.87z"/>
	</defs>
	<clipPath id="SVGID_10_">
		<use xlink:href="#SVGID_9_"  style="overflow:visible;"/>
	</clipPath>
	<g class="st5">
		<defs>
			<rect id="SVGID_11_" x="-6069.67" y="-1256.21" width="8319.62" height="5546.41"/>
		</defs>
		<clipPath id="SVGID_12_">
			<use xlink:href="#SVGID_11_"  style="overflow:visible;"/>
		</clipPath>
	</g>
</g>
<g>
	<defs>
		<path id="SVGID_13_" d="M-308.13,996.18c4.95,1.51,11.87,2.46,18.49,2.52c0.01,0,0.01,0,0.02,0c19.01,0,31.37-7.77,31.51-19.79
			c0.07-6.61-4.76-11.6-15.15-15.7c-6.36-2.69-10.26-4.48-10.22-7.22c0-2.46,3.56-4.96,10.41-4.96c0.17,0,0.36,0,0.55,0
			c5.69,0,9.7,1.12,12.23,1.97c0.59,0.2,1.24,0.15,1.79-0.12c0.55-0.27,0.92-0.74,1.03-1.28l1.7-8.7c0.17-0.9-0.43-1.77-1.43-2.05
			c-3.12-0.87-8.17-1.91-14.49-1.91c-17.91,0-30.49,7.86-30.59,19.1c-0.11,8.33,8.99,12.97,15.86,15.74
			c7.04,2.83,9.41,4.64,9.37,7.18c-0.05,3.88-5.64,5.65-10.82,5.65c-7.37,0-11.34-0.97-16.96-3.01c-0.59-0.21-1.26-0.18-1.82,0.09
			c-0.56,0.27-0.95,0.74-1.05,1.29l-1.8,9.16C-309.68,995.02-309.1,995.88-308.13,996.18z"/>
	</defs>
	<clipPath id="SVGID_14_">
		<use xlink:href="#SVGID_13_"  style="overflow:visible;"/>
	</clipPath>
	<g class="st7">
		<defs>
			<rect id="SVGID_15_" x="-6069.67" y="-1256.21" width="8319.62" height="5546.41"/>
		</defs>
		<clipPath id="SVGID_16_">
			<use xlink:href="#SVGID_15_"  style="overflow:visible;"/>
		</clipPath>
	</g>
</g>
<g>
	<defs>
		<path id="SVGID_17_" d="M-403.93,936.89c10.69,4.18,19.44,10.81,25.3,19.17c0.36,0.52,0.92,0.8,1.49,0.8
			c0.26,0,0.53-0.06,0.78-0.18c0.79-0.39,1.23-1.33,1.05-2.26l-3.11-15.97c-0.01-0.03-0.01-0.07-0.02-0.1
			c-1.12-4.56-4.66-5.24-7.23-5.35c-0.02,0-0.05,0-0.07,0l-17.54-0.03c0,0,0,0,0,0c-0.91,0-1.68,0.71-1.84,1.68
			C-405.29,935.6-404.78,936.55-403.93,936.89z"/>
	</defs>
	<clipPath id="SVGID_18_">
		<use xlink:href="#SVGID_17_"  style="overflow:visible;"/>
	</clipPath>
	<g class="st9">
		<defs>
			<rect id="SVGID_19_" x="-6069.67" y="-1256.21" width="8319.62" height="5546.41"/>
		</defs>
		<clipPath id="SVGID_20_">
			<use xlink:href="#SVGID_19_"  style="overflow:visible;"/>
		</clipPath>
	</g>
</g>
<g>
	<defs>
		<path id="SVGID_21_" d="M-339.02,998.05c0.32,0.41,0.79,0.65,1.29,0.65h11.67c0.82,0,1.52-0.64,1.66-1.51l8.87-56.13
			c0.08-0.53-0.05-1.07-0.37-1.48s-0.79-0.65-1.29-0.65h-11.68c-0.82,0-1.52,0.64-1.66,1.51l-8.86,56.13
			C-339.48,997.1-339.34,997.64-339.02,998.05z"/>
	</defs>
	<clipPath id="SVGID_22_">
		<use xlink:href="#SVGID_21_"  style="overflow:visible;"/>
	</clipPath>
	<g class="st11">
		<defs>
			<rect id="SVGID_23_" x="-6069.67" y="-1256.21" width="8319.62" height="5546.41"/>
		</defs>
		<clipPath id="SVGID_24_">
			<use xlink:href="#SVGID_23_"  style="overflow:visible;"/>
		</clipPath>
	</g>
</g>
<g>
	<defs>
		<path id="SVGID_25_" d="M-390.04,951.83c-0.68-0.48-1.61-0.5-2.32-0.06c-0.7,0.45-1.02,1.26-0.78,2.02l13.81,43.6
			c0.25,0.78,1.02,1.31,1.89,1.31c0,0,0,0,0,0l15.91-0.02c0.79,0,1.5-0.43,1.81-1.1l26.11-56.1c0.26-0.56,0.2-1.21-0.17-1.72
			c-0.36-0.51-0.98-0.82-1.65-0.82h0l-14.36,0.01c-0.81,0-1.54,0.46-1.84,1.16l-16.8,39.66l-1.81-6.04
			c-0.02-0.08-0.05-0.16-0.09-0.24C-372.96,967.79-380.09,958.89-390.04,951.83z"/>
	</defs>
	<clipPath id="SVGID_26_">
		<use xlink:href="#SVGID_25_"  style="overflow:visible;"/>
	</clipPath>
	<g class="st13">
		<defs>
			<rect id="SVGID_27_" x="-6069.67" y="-1256.21" width="8319.62" height="5546.41"/>
		</defs>
		<clipPath id="SVGID_28_">
			<use xlink:href="#SVGID_27_"  style="overflow:visible;"/>
		</clipPath>
	</g>
</g>
<g>
	<defs>
		<path id="SVGID_29_" d="M99.91,964.44c-2.85,0-4.91,3.27-4.91,8.01c0,3.16,1.03,4.74,3.2,4.74c2.97,0,5.14-3.27,5.14-8.12
			C103.33,966.02,102.08,964.44,99.91,964.44z M112.58,953.16l-4.91,29.57h-6.05l0.34-2.14c-1.83,1.81-3.54,2.6-5.93,2.6
			c-4.68,0-7.76-3.95-7.76-9.93c0-8.01,4.79-14.78,10.5-14.78c2.4,0,4.34,1.02,6.05,3.27l1.37-8.58L112.58,953.16L112.58,953.16z
			 M87.7,965.57c-3.65-0.34-4.11,2.48-6.51,17.15H74.8l0.34-1.58c1.37-7.45,2.51-15.01,3.31-22.46h5.93c0,1.24-0.23,2.48-0.46,3.72
			c2.05-2.93,3.54-4.4,6.16-3.84C89.29,959.93,88.27,962.52,87.7,965.57z M65.55,972c-3.65,0-5.48,1.24-5.48,3.61
			c0,1.47,0.91,2.48,2.28,2.48c2.62,0,4.45-2.48,4.57-6.09H65.55z M73.54,969.97c-0.57,3.5-1.71,10.95-1.94,12.75h-5.25l0.11-2.48
			c-1.6,2.03-3.77,2.93-6.73,2.93c-3.54,0-5.82-2.71-5.82-6.54c0-5.87,4.11-9.25,11.19-9.25c0.8,0,1.71,0,2.62,0.11
			c0.23-0.79,0.23-1.13,0.23-1.47c0-1.69-1.14-2.26-4.11-2.26c-3.08,0-5.71,0.79-6.73,1.13c0,0,0-0.45,0.91-5.42
			c3.2-0.9,5.25-1.24,7.65-1.24c5.48,0,8.33,2.37,8.33,7C74,966.47,73.89,967.94,73.54,969.97z M54.48,960.38
			c-2.28-1.13-3.88-1.58-5.71-1.58c-4.79,0-8.1,4.63-8.1,11.06c0,4.51,2.17,7.22,5.94,7.22c1.6,0,3.31-0.45,5.48-1.47l-1.14,6.66
			c-2.4,0.68-3.88,0.9-5.71,0.9c-6.85,0-11.19-4.85-11.19-12.75c0-10.61,5.94-17.94,14.5-17.94c2.74,0,6.05,1.13,6.96,1.47
			L54.48,960.38z M31.65,965.57c-3.54-0.34-4.11,2.48-6.39,17.15h-6.39l0.34-1.58c1.26-7.45,2.51-15.01,3.31-22.46h5.82
			c0.11,1.24-0.23,2.48-0.34,3.72c1.94-2.93,3.42-4.4,6.16-3.84C33.37,959.93,32.34,962.52,31.65,965.57z M12.36,967.94
			c0-0.45,0.68-4.29-2.97-4.29c-2.06,0-3.54,1.58-4.11,4.29H12.36z M17.5,972.79H4.83c-0.46,3.5,1.83,4.96,5.48,4.96
			c2.28,0,4.34-0.45,6.62-1.58l-1.03,6.09c-2.17,0.56-4.34,0.9-6.51,0.9c-7.19,0-10.84-3.72-10.84-10.72
			c0-8.24,4.68-14.22,11.07-14.22c5.25,0,8.67,3.39,8.67,8.69C18.3,968.62,18.07,970.42,17.5,972.79z M-1.67,958.69l-0.8,5.87h-3.31
			c-0.68,4.51-1.83,10.27-1.83,10.95c0,1.24,0.68,1.81,2.17,1.81c0.62,0,1.23-0.07,1.83-0.23l-0.91,5.3
			c-1.71,0.56-3.08,0.79-4.57,0.79c-3.31,0-5.02-1.81-5.14-5.3c0-1.02,0.46-3.84,0.91-6.32c0,0,0.34-2.26,2.85-16.48h6.28
			l-0.69,3.61L-1.67,958.69L-1.67,958.69z M-15.83,964.22c-1.71-0.23-3.42-0.34-4.68-0.34c-2.06,0-3.08,0.68-3.08,1.92
			c0,1.13,0.23,1.47,2.97,2.6c3.2,1.47,4.57,3.5,4.57,6.77c0,5.53-3.2,8.12-9.93,8.01c-3.88,0-5.25-0.34-6.62-0.68
			c0,0,0-0.23,0.8-5.53c2.05,0.56,3.88,0.9,5.82,0.9c2.51,0,3.65-0.68,3.65-2.14c0-1.13-0.46-1.47-2.97-2.71
			c-3.42-1.58-4.91-3.61-4.91-6.66c0-4.51,2.4-8.12,9.59-8.12c1.48,0,3.99,0.11,5.71,0.45L-15.83,964.22z M-41.28,972
			c-3.54,0-5.36,1.24-5.36,3.61c0,1.47,0.8,2.48,2.28,2.48c2.63,0,4.45-2.48,4.57-6.09H-41.28z M-33.18,969.97
			c-0.57,3.5-1.83,10.95-1.94,12.75h-5.36l0.11-2.48c-1.6,2.03-3.77,2.93-6.62,2.93c-3.54,0-5.94-2.71-5.94-6.54
			c0-5.87,4.22-9.25,11.3-9.25c0.69,0,1.6,0,2.63,0.11c0.11-0.79,0.23-1.13,0.23-1.47c0-1.69-1.14-2.26-4.11-2.26
			c-3.2,0-5.71,0.79-6.73,1.13c0,0,0-0.45,0.8-5.42c3.2-0.9,5.36-1.24,7.65-1.24c5.59,0,8.45,2.37,8.45,7
			C-32.72,966.47-32.95,967.94-33.18,969.97z M-51.67,953.16l-5.02,29.57h-6.39l3.65-22.68l-8.1,22.68h-4.45l-0.46-22.57
			l-3.88,22.57h-6.05l5.02-29.57h9.25l0.23,18.39l6.28-18.39H-51.67z M56.76,906.44c-14.04,0-26.94,4.63-37.44,12.41
			c9.36,8.46,16.21,19.52,19.52,32.05h-5.71c-3.31-11.17-9.59-20.99-18.03-28.55c-8.45,7.56-14.72,17.38-18.03,28.55h-5.71
			c3.31-12.53,10.16-23.59,19.52-32.05c-10.5-7.79-23.4-12.41-37.44-12.41c-34.36,0-62.09,27.53-62.09,61.39
			s27.74,61.39,62.09,61.39c14.04,0,26.94-4.63,37.44-12.41c-8.79-8.01-15.41-18.28-18.83-29.79h5.71
			c3.42,10.16,9.47,19.3,17.35,26.29c7.88-7,13.92-16.14,17.35-26.29h5.71c-3.42,11.51-10.04,21.78-18.83,29.79
			c10.5,7.79,23.4,12.41,37.44,12.41c34.36,0,62.09-27.53,62.09-61.39S91.12,906.44,56.76,906.44z M146.59,1040.04
			c0,7.9-6.62,14.44-14.61,14.44h-233.76c-7.99,0-14.61-6.54-14.61-14.44V895.61c0-7.9,6.62-14.44,14.61-14.44h233.76
			c7.99,0,14.61,6.54,14.61,14.44V1040.04z"/>
	</defs>
	<clipPath id="SVGID_30_">
		<use xlink:href="#SVGID_29_"  style="overflow:visible;"/>
	</clipPath>
	<g class="st15">
		<defs>
			<rect id="SVGID_31_" x="-6053.67" y="-1254.21" width="8319.62" height="5546.41"/>
		</defs>
		<clipPath id="SVGID_32_">
			<use xlink:href="#SVGID_31_"  style="overflow:visible;"/>
		</clipPath>
	</g>
</g>
<g>
	<defs>
		<path id="SVGID_33_" d="M421.04,983.55c-0.45,0.11-1.49,0.23-2.06,0.23h-17.59v-15.65h17.59c0.57,0,1.61,0.11,2.06,0.22
			c3.45,0.68,6.22,3.69,6.22,7.6C427.26,979.97,424.5,982.88,421.04,983.55z M401.39,944.87h15.99c0.57,0,1.37,0.11,1.73,0.11
			c3.33,0.56,6.08,3.24,6.08,7.15c0,3.91-2.75,6.49-6.08,7.04c-0.35,0.11-1.16,0.11-1.73,0.11h-15.99V944.87z M435.64,963.88v-0.33
			c8.96-1.23,13.91-6.93,13.91-13.52c0-8.5-7.24-13.42-17.01-13.87c-0.69,0-1.94-0.11-2.98-0.11h-52.3v57h56.43
			c11.14,0,19.42-5.81,19.42-14.86C453.12,969.92,445.53,964.55,435.64,963.88z M292.89,964.55c0,16.21,11.5,31.74,51.94,29.96
			c0,0,11.61-0.45,23.91-3.47v-12.63c-5.97,3.02-13.56,5.92-22.99,6.6c-16.54,1.22-26.42-6.6-26.42-20.46s9.89-21.68,26.42-20.46
			c9.43,0.68,16.91,3.47,22.99,6.49v-12.51c-12.3-3.02-23.91-3.47-23.91-3.47C304.39,932.81,292.89,948.35,292.89,964.55z
			 M260.49,970.47c0,8.38-5.86,14.64-16.44,14.64c-8.96,0-17.81-2.57-26.32-6.59v12.51c13.79,3.69,31.27,3.69,31.27,3.69
			c29.19,0,37.7-10.84,37.7-24.26v-34.42h-26.21V970.47z M457.58,1036.41c0,5.36-4.66,9.89-10.17,9.89H217.39
			c-5.51,0-10.17-4.53-10.17-9.89V896.6c0-5.36,4.66-9.89,10.17-9.89h230.02c5.51,0,10.17,4.53,10.17,9.89V1036.41z M460.53,883.85
			c-3.53-3.43-8.19-5.32-13.11-5.32H217.39c-4.93,0-9.58,1.89-13.11,5.32c-3.53,3.43-5.47,7.96-5.47,12.75v139.81
			c0,4.79,1.94,9.32,5.47,12.75c3.53,3.43,8.19,5.32,13.11,5.32h230.02c4.93,0,9.58-1.89,13.11-5.32c3.53-3.43,5.47-7.96,5.47-12.75
			V896.6C466,891.81,464.06,887.29,460.53,883.85z"/>
	</defs>
	<clipPath id="SVGID_34_">
		<use xlink:href="#SVGID_33_"  style="overflow:visible;"/>
	</clipPath>
	<g class="st17">
		<defs>
			<rect id="SVGID_35_" x="-6124.33" y="-1289.29" width="8446.06" height="5630.7"/>
		</defs>
		<clipPath id="SVGID_36_">
			<use xlink:href="#SVGID_35_"  style="overflow:visible;"/>
		</clipPath>
	</g>
</g>
<g>
	<defs>
		<path id="SVGID_37_" d="M756.68,927.76H540.45v-15.52c0-9.65,7.8-17.49,17.39-17.49h181.46c9.59,0,17.39,7.84,17.39,17.49V927.76z
			 M756.68,1020.97c0,9.65-7.8,17.49-17.39,17.49H557.84c-9.59,0-17.39-7.84-17.39-17.49v-69.9h216.24V1020.97z M739.29,879.2
			H557.84C539.71,879.2,525,894,525,912.23v108.73c0,18.24,14.71,33.03,32.84,33.03h181.46c18.13,0,32.84-14.79,32.84-33.03V912.23
			C772.13,894,757.42,879.2,739.29,879.2z"/>
	</defs>
	<clipPath id="SVGID_38_">
		<use xlink:href="#SVGID_37_"  style="overflow:visible;"/>
	</clipPath>
	<g class="st19">
		<defs>
			<rect id="SVGID_39_" x="-3404.47" y="-2427.99" width="8390.33" height="5593.55"/>
		</defs>
		<clipPath id="SVGID_40_">
			<use xlink:href="#SVGID_39_"  style="overflow:visible;"/>
		</clipPath>
	</g>
</g>
<g>
	<defs>
		<rect id="SVGID_41_" x="531.99" y="949.12" width="230.73" height="90.9"/>
	</defs>
	<clipPath id="SVGID_42_">
		<use xlink:href="#SVGID_41_"  style="overflow:visible;"/>
	</clipPath>
	<g class="st21">
		<defs>
			<rect id="SVGID_43_" x="-3404.47" y="-2427.99" width="8390.33" height="5593.55"/>
		</defs>
		<clipPath id="SVGID_44_">
			<use xlink:href="#SVGID_43_"  style="overflow:visible;"/>
		</clipPath>
	</g>
</g>
<g>
	<defs>
		<rect id="SVGID_45_" x="664.84" y="949.12" width="90.9" height="34.96"/>
	</defs>
	<clipPath id="SVGID_46_">
		<use xlink:href="#SVGID_45_"  style="overflow:visible;"/>
	</clipPath>
	<g class="st23">
		<defs>
			<rect id="SVGID_47_" x="-3404.47" y="-2427.99" width="8390.33" height="5593.55"/>
		</defs>
		<clipPath id="SVGID_48_">
			<use xlink:href="#SVGID_47_"  style="overflow:visible;"/>
		</clipPath>
	</g>
</g>
</svg>
