<svg xmlns="http://www.w3.org/2000/svg" xmlns:xlink="http://www.w3.org/1999/xlink" width="110" height="158" viewBox="0 0 110 158"><defs><style>.a{fill:none;}.b{clip-path:url(#a);}.c{fill:url(#b);}.d,.e,.f{fill:#fff;}.d{font-size:20px;font-family:RobotoSlab-Bold, Roboto Slab;font-weight:700;}.d,.e{opacity:0.9;}.f{opacity:0.5;}.g,.h{stroke:none;}.h{fill:#edd3d3;}</style><clipPath id="a"><rect class="a" width="110" height="158"/></clipPath><linearGradient id="b" x1="1" y1="1" x2="0" gradientUnits="objectBoundingBox"><stop offset="0" stop-color="#fe9a8b"/><stop offset="0.527" stop-color="#fd868c"/><stop offset="1" stop-color="#f78ca0"/></linearGradient></defs><g class="b"><g class="c"><path class="g" d="M 105 157.5 L 5 157.5 C 2.518699884414673 157.5 0.5 155.4812927246094 0.5 153 L 0.5 5 C 0.5 2.518699884414673 2.518699884414673 0.5 5 0.5 L 105 0.5 C 107.4813003540039 0.5 109.5 2.518699884414673 109.5 5 L 109.5 153 C 109.5 155.4812927246094 107.4813003540039 157.5 105 157.5 Z"/><path class="h" d="M 5 1 C 2.794403076171875 1 1 2.794403076171875 1 5 L 1 153 C 1 155.2055969238281 2.794403076171875 157 5 157 L 105 157 C 107.2055969238281 157 109 155.2055969238281 109 153 L 109 5 C 109 2.794403076171875 107.2055969238281 1 105 1 L 5 1 M 5 0 L 105 0 C 107.7614212036133 0 110 2.238555908203125 110 5 L 110 153 C 110 155.7614135742188 107.7614212036133 158 105 158 L 5 158 C 2.238578796386719 158 0 155.7614135742188 0 153 L 0 5 C 0 2.238555908203125 2.238578796386719 0 5 0 Z"/></g><text class="d" transform="translate(19 27)"><tspan x="-5.405" y="0">7</tspan></text><path class="e" d="M769.823,150.3l-4.083,5.444-2.917,3.889,7,9.333,7-9.333Z" transform="translate(-678.053 -140.305)"/><text class="d" transform="translate(91.77 131) rotate(180)"><tspan x="-5.405" y="0">7</tspan></text><path class="e" d="M769.823,150.3l-4.083,5.444-2.917,3.889,7,9.333,7-9.333Z" transform="translate(788.823 298.305) rotate(180)"/><path class="f" d="M785.323,150.3,772.2,167.8l-9.376,12.5,22.5,30,22.5-30Z" transform="translate(-730.803 -101.305)"/></g></svg>