<svg xmlns="http://www.w3.org/2000/svg" xmlns:xlink="http://www.w3.org/1999/xlink" width="110" height="158" viewBox="0 0 110 158"><defs><style>.a{fill:none;}.b{clip-path:url(#a);}.c{fill:url(#b);}.d,.f{fill:#fff;}.d{font-size:20px;font-family:RobotoSlab-Bold, Roboto Slab;font-weight:700;}.d,.e{opacity:0.9;}.g{opacity:0.5;}.h,.i{stroke:none;}.i{fill:#edd3d3;}</style><clipPath id="a"><rect class="a" width="110" height="158"/></clipPath><linearGradient id="b" x1="1" y1="1" x2="0" gradientUnits="objectBoundingBox"><stop offset="0" stop-color="#fe9a8b"/><stop offset="0.527" stop-color="#fd868c"/><stop offset="1" stop-color="#f78ca0"/></linearGradient></defs><g class="b"><g class="c"><path class="h" d="M 105 157.5 L 5 157.5 C 2.518699884414673 157.5 0.5 155.4812927246094 0.5 153 L 0.5 5 C 0.5 2.518699884414673 2.518699884414673 0.5 5 0.5 L 105 0.5 C 107.4813003540039 0.5 109.5 2.518699884414673 109.5 5 L 109.5 153 C 109.5 155.4812927246094 107.4813003540039 157.5 105 157.5 Z"/><path class="i" d="M 5 1 C 2.794403076171875 1 1 2.794403076171875 1 5 L 1 153 C 1 155.2055969238281 2.794403076171875 157 5 157 L 105 157 C 107.2055969238281 157 109 155.2055969238281 109 153 L 109 5 C 109 2.794403076171875 107.2055969238281 1 105 1 L 5 1 M 5 0 L 105 0 C 107.7614212036133 0 110 2.238555908203125 110 5 L 110 153 C 110 155.7614135742188 107.7614212036133 158 105 158 L 5 158 C 2.238578796386719 158 0 155.7614135742188 0 153 L 0 5 C 0 2.238555908203125 2.238578796386719 0 5 0 Z"/></g><text class="d" transform="translate(19 27)"><tspan x="-5.43" y="0">3</tspan></text><text class="d" transform="translate(91.77 131) rotate(180)"><tspan x="-5.43" y="0">3</tspan></text><g class="e" transform="translate(147.183 -357.958)"><path class="f" d="M-56.182,386.954l-7.213-9.666a3.961,3.961,0,0,1,.8-5.543,3.961,3.961,0,0,1,5.544.8l.866,1.159.864-1.158a3.96,3.96,0,0,1,5.543-.806,3.961,3.961,0,0,1,.807,5.543Z" transform="translate(0 0)"/></g><g class="e" transform="translate(-36.183 514.958) rotate(180)"><path class="f" d="M-56.182,386.954l-7.213-9.666a3.961,3.961,0,0,1,.8-5.543,3.961,3.961,0,0,1,5.544.8l.866,1.159.864-1.158a3.96,3.96,0,0,1,5.543-.806,3.961,3.961,0,0,1,.807,5.543Z" transform="translate(0 0)"/></g><g class="g" transform="translate(97.183 -313.958)"><path class="f" d="M-41.682,415.944-61.97,388.761a11.139,11.139,0,0,1,2.262-15.589,11.139,11.139,0,0,1,15.591,2.262l2.434,3.259,2.43-3.257a11.137,11.137,0,0,1,15.589-2.266,11.139,11.139,0,0,1,2.268,15.589Z" transform="translate(0)"/></g></g></svg>