<svg xmlns="http://www.w3.org/2000/svg" xmlns:xlink="http://www.w3.org/1999/xlink" width="110" height="158" viewBox="0 0 110 158"><defs><style>.a{fill:none;}.b{clip-path:url(#a);}.c{fill:url(#b);}.d,.e,.f{fill:#fff;}.d{font-size:20px;font-family:RobotoSlab-Bold, Roboto Slab;font-weight:700;}.d,.e{opacity:0.9;}.f{opacity:0.5;}.g,.h{stroke:none;}.h{fill:#ccedff;}</style><clipPath id="a"><rect class="a" width="110" height="158"/></clipPath><linearGradient id="b" x1="1" y1="1" x2="0" gradientUnits="objectBoundingBox"><stop offset="0" stop-color="#80d0c7"/><stop offset="1" stop-color="#13547a"/></linearGradient></defs><g class="b"><g class="c"><path class="g" d="M 105 157.5 L 5 157.5 C 2.518699884414673 157.5 0.5 155.4812927246094 0.5 153 L 0.5 5 C 0.5 2.518699884414673 2.518699884414673 0.5 5 0.5 L 105 0.5 C 107.4813003540039 0.5 109.5 2.518699884414673 109.5 5 L 109.5 153 C 109.5 155.4812927246094 107.4813003540039 157.5 105 157.5 Z"/><path class="h" d="M 5 1 C 2.794403076171875 1 1 2.794403076171875 1 5 L 1 153 C 1 155.2055969238281 2.794403076171875 157 5 157 L 105 157 C 107.2055969238281 157 109 155.2055969238281 109 153 L 109 5 C 109 2.794403076171875 107.2055969238281 1 105 1 L 5 1 M 5 0 L 105 0 C 107.7614212036133 0 110 2.238555908203125 110 5 L 110 153 C 110 155.7614135742188 107.7614212036133 158 105 158 L 5 158 C 2.238578796386719 158 0 155.7614135742188 0 153 L 0 5 C 0 2.238555908203125 2.238578796386719 0 5 0 Z"/></g><text class="d" transform="translate(19 27)"><tspan x="-7.075" y="0">Q</tspan></text><path class="e" d="M87.642,57.616l1.211-3.874a3.961,3.961,0,0,1-6.067-5.076L90,39l7.214,9.666a3.961,3.961,0,0,1-6.082,5.058l1.216,3.892Z" transform="translate(1.011 -27.559)"/><text class="d" transform="translate(92.011 131) rotate(180)"><tspan x="-7.075" y="0">Q</tspan></text><path class="e" d="M87.642,57.616l1.211-3.874a3.961,3.961,0,0,1-6.067-5.076L90,39l7.214,9.666a3.961,3.961,0,0,1-6.082,5.058l1.216,3.892Z" transform="translate(110 185.559) rotate(180)"/><path class="f" d="M97.867,91.358l3.406-10.9A11.141,11.141,0,0,1,84.211,66.185L104.5,39l20.288,27.186a11.139,11.139,0,0,1-17.1,14.226l3.42,10.947Z" transform="translate(-49.989 13.441)"/></g></svg>